<svg id="Capa_1" enable-background="new 0 0 512 512" height="512" viewBox="0 0 512 512" width="512" xmlns="http://www.w3.org/2000/svg"><g><g><g><g><g><g><circle cx="256" cy="256" fill="#ffc247" r="256"/></g></g></g></g></g><path d="m511.736 267.735-156.196-157.992-232.257 319.449 76.648 76.648c18.045 4.033 36.809 6.16 56.069 6.16 137.452 0 249.603-108.327 255.736-244.265z" fill="#ffa426"/><g><g><g><g><g><path d="m379.048 184.674c0-67.957-123.048-123.048-123.048-123.048s-123.048 55.091-123.048 123.048c0 12.495 1.869 24.553 5.331 35.916v193.602h235.434v-193.602c3.463-11.363 5.331-23.42 5.331-35.916z" fill="#7584f2"/><path d="m256 61.626v352.566h117.717v-193.602c3.463-11.363 5.331-23.42 5.331-35.916 0-67.956-123.043-123.046-123.048-123.048z" fill="#606aea"/><path d="m388.717 429.192h-265.434v-206.433c-3.539-12.35-5.332-25.15-5.332-38.084 0-33.266 22.787-66.628 67.729-99.159 31.652-22.911 62.877-36.991 64.19-37.58l6.13-2.744 6.13 2.744c1.314.588 32.538 14.668 64.189 37.58 44.941 32.531 67.729 65.893 67.729 99.159 0 12.936-1.793 25.737-5.331 38.084zm-235.434-30h205.434v-180.837l.651-2.138c3.105-10.189 4.68-20.801 4.68-31.543 0-15.822-9.531-41.604-54.94-74.583-21.265-15.443-42.855-26.782-53.108-31.845-10.25 5.061-31.842 16.401-53.108 31.846-25.063 18.202-54.94 45.917-54.94 74.583 0 10.74 1.575 21.352 4.681 31.543l.651 2.138v180.836z" fill="#fff"/><path d="m326.319 85.515c-31.651-22.911-62.876-36.992-64.189-37.58l-6.13-2.744v33.055c10.253 5.063 31.843 16.402 53.107 31.846 45.409 32.978 54.94 58.761 54.94 74.583 0 10.742-1.574 21.354-4.68 31.543l-.651 2.138v180.837h-102.716v30h132.717v-206.434c3.538-12.348 5.331-25.148 5.331-38.084 0-33.267-22.787-66.628-67.729-99.16z" fill="#e9edf5"/></g></g></g></g></g><g><path d="m275.271 244.858c-33.461 0-60.586-27.125-60.586-60.586 0-19.311 9.046-36.498 23.118-47.592-28.15 8.434-48.667 34.533-48.667 65.429 0 37.72 30.578 68.298 68.298 68.298 30.895 0 56.995-20.516 65.429-48.667-11.094 14.072-28.281 23.118-47.592 23.118z" fill="#ffc247"/></g><g><path d="m275.271 244.858c-6.74 0-13.215-1.117-19.271-3.148v28.66c.479.01.953.036 1.434.036 30.895 0 56.995-20.516 65.429-48.667-11.094 14.073-28.281 23.119-47.592 23.119z" fill="#ffa426"/></g><g><path d="m328.251 307.539 1.084 14.334 12.423 7.234-13.298 5.461-3.041 14.05-9.302-10.96-14.303 1.45 7.549-12.234-5.798-13.154 13.968 3.398z" fill="#e9edf5"/></g><g><path d="m203.291 315.171 13.477 11.582 17.18-4.536-6.85 16.396 9.623 14.938-17.71-1.448-11.234 13.768-4.095-17.291-16.565-6.429 15.179-9.238z" fill="#fff"/></g><g><path d="m294.546 149.036 1.34 17.719 15.356 8.941-16.438 6.75-3.758 17.367-11.499-13.547-17.678 1.792 9.331-15.122-7.168-16.26 17.266 4.201z" fill="#e9edf5"/></g></g></svg>