<svg id="Capa_1" enable-background="new 0 0 512 512" height="512" viewBox="0 0 512 512" width="512" xmlns="http://www.w3.org/2000/svg"><g><g><g><g><g><g><g><circle cx="256" cy="256" fill="#ff9500" r="256"/></g></g></g></g></g></g><path d="m512 256c0-9.716-.541-19.305-1.595-28.74l-112.833-112.832-283.144 283.144 112.832 112.833c9.435 1.054 19.024 1.595 28.74 1.595 141.385 0 256-114.615 256-256z" fill="#fe6a16"/><g><path d="m382.572 308.428 52.428-52.428-52.428-52.428v-74.144h-74.144l-52.428-52.428-52.428 52.428h-74.144v74.144l-52.428 52.428 52.428 52.428v74.144h74.144l52.428 52.428 52.428-52.428h74.144z" fill="#7584f2"/><path d="m382.572 203.572v-74.144h-74.144l-52.428-52.428v358l52.428-52.428h74.144v-74.144l52.428-52.428z" fill="#606aea"/><path d="m256 456.213-58.641-58.641h-82.931v-82.931l-58.641-58.641 58.641-58.641v-82.931h82.931l58.641-58.641 58.641 58.641h82.931v82.931l58.641 58.641-58.641 58.641v82.931h-82.931zm-111.572-88.641h65.358l46.214 46.215 46.214-46.215h65.358v-65.357l46.215-46.215-46.214-46.215v-65.357h-65.358l-46.215-46.215-46.214 46.215h-65.358v65.357l-46.215 46.215 46.214 46.215v65.357z" fill="#fff"/><path d="m397.572 197.359v-82.931h-82.931l-58.641-58.641v42.426l46.214 46.215h65.358v65.357l46.215 46.215-46.215 46.215v65.357h-65.358l-46.214 46.215v42.426l58.641-58.641h82.931v-82.931l58.641-58.641z" fill="#e9edf5"/></g></g></svg>