<svg id="Capa_1" enable-background="new 0 0 512 512" height="512" viewBox="0 0 512 512" width="512" xmlns="http://www.w3.org/2000/svg"><g><g><g><g><g><g><g><g><circle cx="256" cy="256" fill="#1dd882" r="256"/></g></g></g></g></g></g></g><path d="m512 256c0-14.387-1.187-28.498-3.468-42.238l-81.77-81.77-341.524 250.016 126.112 126.112c14.5 2.55 29.419 3.88 44.65 3.88 141.385 0 256-114.615 256-256z" fill="#20b76f"/><g><path d="m426.762 382.008-170.762 61.963-170.762-61.963v-98.807l5.448-11.185-5.448-15.432v-15.812l13.267-20.774-13.267-30.05v-57.956h341.524v57.956l-5.56 27.769 5.56 23.05v15.817l-2.995 16.029 2.995 10.425z" fill="#414952"/></g><path d="m426.762 131.992h-170.762v311.979l170.762-61.963v-98.97l-2.995-10.425 2.995-16.029v-15.817l-5.56-23.05 5.56-27.769z" fill="#23272b"/><g><path d="m85.238 189.948v50.824l170.762 61.963 170.762-61.963v-50.823l-170.762 61.963z" fill="#ffc247"/></g><g><path d="m256 302.735 170.762-61.963v-50.823l-170.762 61.963z" fill="#ffa426"/></g><g><path d="m256 193.955-170.762-61.963 170.762-51.963 170.762 51.963z" fill="#636978"/></g><g><path d="m256 193.955v-113.926l170.762 51.963z" fill="#414952"/></g><g><g><path d="m305.115 327.223 33.665-12.216v-26.498l-33.665 12.216z" fill="#ffa426"/></g><g><path d="m206.885 300.725-33.665-12.216v26.498l33.665 12.216z" fill="#ffc247"/></g><g><path d="m391.341 269.437-33.665 12.216v26.498l33.665-12.216z" fill="#ffa426"/></g><g><path d="m101.763 262.58-16.525-5.996v26.498l16.525 5.996z" fill="#ffc247"/></g><g><path d="m120.659 295.935 33.665 12.215v-26.497l-33.665-12.216z" fill="#ffc247"/></g><g><path d="m410.237 262.58v26.498l16.525-5.996v-26.498z" fill="#ffa426"/></g><g><path d="m286.219 307.582-30.219 10.965-30.219-10.965v26.497l30.219 10.966 30.219-10.966z" fill="#ffc247"/></g><g><path d="m286.219 307.582-30.219 10.965v26.498l30.219-10.966z" fill="#ffa426"/></g></g></g></svg>