<svg id="Capa_1" enable-background="new 0 0 512 512" height="512" viewBox="0 0 512 512" width="512" xmlns="http://www.w3.org/2000/svg"><g><g><g><g><g><g><g><circle cx="256" cy="256" fill="#c38778" r="256"/></g></g></g></g></g></g><path d="m512 256c0-7.761-.345-15.442-1.022-23.028l-116.474-116.53-273.723 282.302 112.331 112.247c7.54.668 15.174 1.009 22.888 1.009 141.385 0 256-114.615 256-256z" fill="#a65d4e"/><g><g><g><g><g><g><circle cx="256" cy="256" fill="#1dd882" r="196.621"/></g></g></g></g></g></g><g><g><g><g><g><g><path d="m256 59.379c108.591 0 196.621 88.03 196.621 196.621s-88.03 196.621-196.621 196.621z" fill="#2cc47f"/></g></g></g></g></g></g><g fill="#fff"><g><path d="m184.135 338.731v-17.96h-18.563v17.96h-11.527v-44.7h11.527v16.687h18.563v-16.688h11.527v44.7h-11.527z"/><path d="m234.067 338.731-2.212-6.434h-17.625l-2.212 6.434h-13.068l16.821-44.7h14.476l16.889 44.7zm-11.058-33.307-5.696 16.821h11.394z"/><path d="m250.423 338.731v-44.7h11.526v34.648h17.96v10.053h-29.486z"/><path d="m316.236 338.731-2.212-6.434h-17.625l-2.212 6.434h-13.068l16.821-44.7h14.476l16.888 44.7zm-11.057-33.307-5.697 16.821h11.394z"/><path d="m332.591 338.731v-44.7h11.527v34.648h17.961v10.053h-29.488z"/></g><g><path d="m209.693 234.762c0 6.858-3.562 12.936-10.688 18.235-7.125 5.299-15.252 7.949-24.381 7.949-7.613 0-13.57-1.927-17.867-5.778-4.299-3.851-6.445-9.228-6.445-16.131 0-6.456.801-12.09 2.404-16.899 1.826-5.432 5.387-12.09 10.688-19.972l4.141 2.805c-3.473 5.21-5.945 9.73-7.414 13.56s-2.205 7.638-2.205 11.422c0 4.053 1.504 7.18 4.51 9.385 3.006 2.204 7.248 3.306 12.725 3.306 7.838 0 14.205-1.514 19.104-4.542 4.898-3.028 7.348-6.991 7.348-11.89 0-.846 0-1.514 0-2.004 0-.489 0-.868 0-1.135 0-1.737-.145-3.651-.434-5.744-.291-2.092-1.035-6.412-2.238-12.958-1.916-10.554-3.83-21.129-5.744-31.728l-3.34-2.405c0-4.364 2.047-11.043 6.145-20.039l3.072 1.469c-.178.624-.266 1.336-.266 2.137 0 1.781.912 3.229 2.738 4.342 2.715 1.514 5.277 2.962 7.682 4.342-.49 3.83-.98 6.569-1.471 8.216-.49 1.648-1.514 4.119-3.072 7.414l-2.004-.802c0 .668.635 4.465 1.904 11.389 1.27 6.925 2.348 12.903 3.24 17.935 1.246 7.214 1.869 11.601 1.869 13.159v14.962z"/><g><path d="m216.641 181.325c1.691 2.494 4.453 5.099 8.283 7.815 3.562 2.538 6.012 3.807 7.348 3.807.801 0 1.424-.434 1.869-1.302s.668-2.26.668-4.175c4.318 2.271 8.061 5.3 11.223 9.084 3.16 3.786 6.055 8.64 8.684 14.562 1.068-1.825 1.803-3.306 2.203-4.442.402-1.135.602-2.371.602-3.707 0-8.016-5.166-16.788-15.496-26.318-4.588-4.319-9.486-8.026-14.695-11.122-5.211-3.094-9.129-4.642-11.756-4.642-1.693 0-2.539 1.603-2.539 4.809 0 2.094.301 4.787.902 8.082.6 3.297 1.501 5.812 2.704 7.549z"/><path d="m347.393 215.458c-1.758-1.113-4.307-3.54-7.646-7.281-4.9-5.299-8.684-9.195-11.355-11.689-3.385-3.161-6.436-5.454-9.152-6.88-2.717-1.425-5.543-2.137-8.482-2.137-3.83 0-7.248 1.336-10.254 4.008s-5.732 6.813-8.182 12.424c1.826-.401 3.217-.656 4.174-.768.957-.111 2.016-.167 3.174-.167 3.875 0 7.836 1.092 11.889 3.273 4.586 2.449 9.574 6.457 14.963 12.023h-47.492-.199c-2.762 0-4.498-3.696-5.211-11.088-.4-8.683-.779-17.367-1.135-26.05-.625-12.291-2.094-22.243-4.408-29.858-5.166 9.263-7.75 15.408-7.75 18.436.668 3.874 1.326 7.771 1.971 11.689.646 3.919.969 7.949.969 12.09 0 6.903-1.492 12.736-4.475 17.5-2.539 4.053-6.658 7.927-12.357 11.623-3.207 2.094-9.352 5.433-18.436 10.019-1.559.802-3.908 1.748-7.047 2.839-3.141 1.092-6.312 2.194-9.52 3.306v4.275l7.75.134c14.025 0 24.447-2.115 31.26-6.346 7.035-4.364 12.512-12.401 16.432-24.113 0 6.324 1.336 11.935 4.008 16.833 2.494 4.587 5.143 6.88 7.949 6.88h.199 76.281v-18.168c-3.52-.759-6.159-1.694-7.918-2.807z"/></g></g></g><g><g><g><g><g><g><g><path d="m256 426.268c-93.886 0-170.268-76.382-170.268-170.268s76.382-170.268 170.268-170.268l10.001 15.678-10.001 14.322c-77.344 0-140.268 62.924-140.268 140.268s62.924 140.268 140.268 140.268l10.001 13.992z" fill="#fff"/></g></g></g></g></g></g></g><g><path d="m256 426.268v-30c77.344 0 140.268-62.924 140.268-140.268s-62.924-140.268-140.268-140.268v-30c93.886 0 170.268 76.382 170.268 170.268s-76.382 170.268-170.268 170.268z" fill="#e9edf5"/></g></g></svg>