<svg id="Capa_1" enable-background="new 0 0 512 512" height="512" viewBox="0 0 512 512" width="512" xmlns="http://www.w3.org/2000/svg"><g><g><g><g><g><g><g><path d="m466.778 401.329c28.519-41.284 45.222-91.356 45.222-145.329 0-141.385-114.615-256-256-256s-256 114.615-256 256 114.615 256 256 256c39.608 0 77.116-8.995 110.591-25.054z" fill="#ff9500"/></g></g></g></g></g></g><path d="m507.774 302.569-253.817-253.817-113.862 30 45.747 45.747-71.763 66.605 132.753 132.753-3.88 2.071.598.657 53.05 52.991-160.741-42.643 170.18 170.18c21.248-4.21 41.551-11.05 60.554-20.166l100.187-85.617c20.114-29.12 34.35-62.612 40.994-98.761z" fill="#fe6a16"/><g><path d="m269.433 273.127c0 16.189-13.124 29.313-29.313 29.313s-29.313-13.124-29.313-29.313 29.313-45.779 29.313-45.779 29.313 29.59 29.313 45.779z" fill="#7584f2"/></g><g><path d="m269.433 273.127c0 16.189-13.124 29.313-29.313 29.313v-75.092s29.313 29.59 29.313 45.779z" fill="#606aea"/></g><g><g><path d="m146.345 317.66 83.308 33.73h72.86l-55.581-22.559c-3.097-1.257-5.38-3.952-6.112-7.213-1.642-7.322 4.923-13.848 12.235-12.162l105.935 24.429c17.42 4.017 32.97 13.807 44.122 27.778l38.066 47.687-66.546 66.546-36.634-75.646h-92.173c-12.864 0-25.415-3.965-35.944-11.356l-74.025-51.962c-1.707-1.199-3.04-2.856-3.844-4.781-3.781-9.052 5.239-18.172 14.333-14.491z" fill="#ffcdbe"/></g></g><g><g><path d="m403.113 361.663c-11.153-13.971-26.702-23.761-44.122-27.778l-103.347-23.832v22.314l46.869 19.023h-46.869v48.86h82.355l36.634 75.646 66.546-66.546z" fill="#ffbeaa"/></g></g><g><g><path d="m466.778 401.329c-25.257 36.562-59.781 66.23-100.178 85.612l-32.145-46.966 108.124-74.002z" fill="#e9edf5"/></g></g><g><path d="m140.095 48.752h57.013v30h-57.013z" fill="#e9edf5"/><path d="m197.108 48.752h56.849v30h-56.849z" fill="#dce1eb"/></g><g><path d="m217.026 72.006h-19.918l-10.001 30.055 10.001 46.995h19.918z" fill="#dce1eb"/><path d="m177.026 72.006h20.081v77.05h-20.081z" fill="#e9edf5"/></g><g><path d="m222.29 65.585c0-13.925-11.267-25.217-25.182-25.261l-10.001 25.261 10.001 25.261c13.915-.043 25.182-11.335 25.182-25.261z" fill="#cdd2e1"/><path d="m197.026 40.322c-13.953 0-25.263 11.311-25.263 25.264s11.311 25.264 25.263 25.264c.027 0 .054-.002.082-.002v-50.524c-.028 0-.055-.002-.082-.002z" fill="#dce1eb"/></g><g><path d="m223.247 120.488h-26.139l-10.001 37.609 10.001 33.006h6.728v29.497h73.818v-45.705c0-30.048-24.359-54.407-54.407-54.407z" fill="#cdd2e1"/><path d="m114.078 120.488h83.03v70.615h-83.03z" fill="#dce1eb"/></g></g></svg>