<svg id="Capa_1" enable-background="new 0 0 512 512" height="512" viewBox="0 0 512 512" width="512" xmlns="http://www.w3.org/2000/svg"><g><g><g><g><g><g><g><circle cx="256" cy="256" fill="#ff9500" r="256"/></g></g></g></g></g></g><path d="m512 256c0-13.846-1.099-27.435-3.215-40.684l-136.225-136.225-233.12 353.818 75.876 75.876c13.249 2.116 26.838 3.215 40.684 3.215 141.385 0 256-114.615 256-256z" fill="#fe6a16"/><g><g><path d="m139.44 79.091h233.121v353.817h-233.121z" fill="#636978"/></g></g><g><g><path d="m255.644 79.091h116.916v353.817h-116.916z" fill="#414952"/></g></g><g><g><path d="m286.556 105.837-5.584 14.007h-49.944l-5.584-14.007h-53.498v297.907h168.108v-297.907z" fill="#fff"/></g></g><g><g><path d="m340.054 105.837h-53.498l-5.584 14.007h-25.328v283.9h84.41z" fill="#e9edf5"/></g></g><g><g><path d="m276.805 271.035c-36.125 0-65.41-29.285-65.41-65.41 0-20.849 9.766-39.404 24.959-51.382-30.392 9.106-52.542 37.283-52.542 70.639 0 40.723 33.013 73.736 73.736 73.736 33.355 0 61.533-22.15 70.639-52.542-11.977 15.194-30.533 24.959-51.382 24.959z" fill="#ffc247"/></g><g><path d="m276.805 271.035c-7.409 0-14.522-1.25-21.161-3.52v31.054c.635.016 1.266.048 1.904.048 33.356 0 61.533-22.15 70.639-52.542-11.977 15.195-30.533 24.96-51.382 24.96z" fill="#ffa426"/></g><g><path d="m297.616 167.584 1.446 19.129 16.579 9.654-17.747 7.287-4.058 18.75-12.414-14.626-19.086 1.935 10.074-16.327-7.738-17.554 18.64 4.536z" fill="#ffa426"/></g></g></g></svg>