<svg id="Capa_1" enable-background="new 0 0 512 512" height="512" viewBox="0 0 512 512" width="512" xmlns="http://www.w3.org/2000/svg"><g><g><g><g><g><g><g><circle cx="256" cy="256" fill="#7584f2" r="256"/></g></g></g></g></g></g><path d="m511.232 275.974-230.126-230.126-41.564 14.152-9.31 36.723 44.787 44.787-124.137 67.699 128.92 128.919-134.292 85.669 87.153 87.153c7.686.695 15.47 1.05 23.337 1.05 134.663 0 245.041-103.976 255.232-236.026z" fill="#4253ce"/><path d="m273.031 103.326c11.284-6.085 18.971-18.015 18.971-31.71 0-19.851-16.15-36.002-36.002-36.002s-36.002 16.15-36.002 36.002c0 13.694 7.687 25.625 18.971 31.709-12.5 6.255-21.087 19.171-21.087 34.1 0 21.052 17.066 38.117 38.118 38.117s38.118-17.066 38.118-38.117c0-14.927-8.588-27.843-21.087-34.099zm-17.031-47.387c8.645 0 15.678 7.033 15.678 15.678s-7.033 15.677-15.678 15.677-15.678-7.033-15.678-15.678 7.033-15.677 15.678-15.677z" fill="#ffb13b"/><path d="m273.031 103.326c11.284-6.085 18.971-18.015 18.971-31.71 0-19.851-16.15-36.002-36.002-36.002v20.324c8.645 0 15.678 7.033 15.678 15.678s-7.033 15.678-15.678 15.678v12.014 8.31 67.926c21.052 0 38.118-17.066 38.118-38.117 0-14.929-8.588-27.845-21.087-34.101z" fill="#ff9500"/><g><path d="m271.817 376.069h-108.636v-30.249l9.822-57.609-9.822-60.145v-27.713h108.636z" fill="#ffb13b"/></g><g><path d="m348.819 376.069h-92.819v-175.716h92.819v27.713l-8.794 60.145 8.794 57.609z" fill="#ff9500"/></g><g><path d="m360.416 209.209h-209.534l.096-10.217c.141-28.064 21.91-50.815 48.623-50.815h112.799c26.713 0 48.253 22.751 48.112 50.815z" fill="#ffc247"/></g><g><path d="m360.416 209.209h-104.429l.013-33.665v-27.367h56.4c26.713 0 48.253 22.751 48.112 50.815z" fill="#ffa426"/></g><g><path d="m359.472 405.91h-209.535l.207-41.233h209.535z" fill="#ffc247"/></g><g><path d="m359.472 405.91h-103.472v-41.233h103.679z" fill="#ffa426"/></g><g><path d="m145.51 389.589h220.981v34.208h-220.981z" fill="#ffb13b"/></g><g><path d="m366.49 423.797h-110.793l.303-34.208h110.49z" fill="#ff9500"/></g><g><path d="m208.297 228.066h94.805v117.755h-94.805z" fill="#fff"/></g><g><path d="m256 228.066h47.102v117.755h-47.102z" fill="#e9edf5"/></g><g><path d="m325.147 228.066h23.671v117.755h-23.671z" fill="#e9edf5"/></g><g><path d="m163.181 228.066h23.671v117.755h-23.671z" fill="#fff"/></g><g><path d="m289.719 303.091c0 18.623-15.097 33.719-33.719 33.719-18.623 0-33.719-15.097-33.719-33.719 0-18.623 33.719-56.851 33.719-56.851s33.719 38.229 33.719 56.851z" fill="#fe6a16"/></g><g><path d="m289.719 303.091c0 18.623-15.097 33.719-33.719 33.719v-90.57c0 .001 33.719 38.229 33.719 56.851z" fill="#fa5d0f"/></g><g><path d="m277.002 309.437c0 11.599-9.403 21.002-21.002 21.002s-21.002-9.403-21.002-21.002 21.002-35.409 21.002-35.409 21.002 23.81 21.002 35.409z" fill="#ff9500"/></g><g><path d="m277.002 309.437c0 11.599-9.403 21.002-21.002 21.002v-56.41c0-.001 21.002 23.809 21.002 35.408z" fill="#fe6a16"/></g></g></svg>