<svg id="Capa_1" enable-background="new 0 0 512 512" height="512" viewBox="0 0 512 512" width="512" xmlns="http://www.w3.org/2000/svg"><g><g><g><g><g><g><g><circle cx="256" cy="256" fill="#7584f2" r="256"/></g></g></g></g></g></g><g fill="#4253ce"><path d="m147.123 385.383-21.134 21.134 104.197 104.197c8.489.85 17.101 1.286 25.814 1.286 5.771 0 11.497-.191 17.173-.567z"/><path d="m270.5 59.159-29 139.161 48.878 48.878-4.203 3.135-30.175-30.176-1.151 14.187-107.726-107.727-20.506 20.506 127.283 127.283-12.987 9.687-42.593-42.593-139.161 29 238.18 238.18c108.271-17.578 193.763-103.069 211.341-211.342z"/><path d="m364.877 126.617 146.556 146.556c.376-5.676.567-11.402.567-17.173 0-8.713-.436-17.325-1.286-25.814l-104.196-104.197z"/></g><g><g><path d="m241.5 59.159h29v139.161h-29z" fill="#ffc247"/></g><g><path d="m256 59.159h14.5v139.161h-14.5z" fill="#ffa426"/></g><g><path d="m241.5 313.68h29v139.161h-29z" fill="#ffc247"/></g><g><path d="m256 313.68h14.5v139.161h-14.5z" fill="#ffa426"/></g></g><g><g><path d="m313.681 241.5h139.161v29h-139.161z" fill="#ffa426"/></g><g><path d="m59.159 241.5h139.161v29h-139.161z" fill="#ffc247"/></g></g><g><g><path d="m168.14 136.572h29v92.135h-29z" fill="#ffc247" transform="matrix(.707 -.707 .707 .707 -75.652 182.639)"/></g><g><path d="m111.803 111.359h29v29.889h-29z" fill="#ffc247" transform="matrix(.707 -.707 .707 .707 -52.317 126.302)"/></g></g><g><g><path d="m283.293 168.139h92.135v29h-92.135z" fill="#ffa426" transform="matrix(.707 -.707 .707 .707 -32.679 286.384)"/></g><g><path d="m370.753 111.803h29.889v29h-29.889z" fill="#ffa426" transform="matrix(.707 -.707 .707 .707 23.656 309.718)"/></g></g><g><g><path d="m314.861 283.293h29v92.135h-29z" fill="#ffa426" transform="matrix(.707 -.707 .707 .707 -136.426 329.363)"/></g><g><path d="m371.197 370.753h29v29.888h-29z" fill="#ffa426" transform="matrix(.707 -.707 .707 .707 -159.761 385.689)"/></g></g><g><g><path d="m136.891 314.728h91.761v29h-91.761z" fill="#ffc247" transform="matrix(.707 -.707 .707 .707 -179.267 225.668)"/></g><g><path d="m111.359 371.197h29.888v29h-29.888z" fill="#ffc247" transform="matrix(.707 -.707 .707 .707 -235.736 202.278)"/></g></g><g><path d="m256 220.157 11.646 23.598 26.042 3.784-18.844 18.368 4.448 25.936-23.292-12.245-23.292 12.245 4.448-25.936-18.844-18.368 26.042-3.784z" fill="#fff"/></g><g><path d="m256 220.157 11.646 23.598 26.042 3.784-18.844 18.368 4.448 25.936-23.292-12.245z" fill="#e9edf5"/></g></g></svg>