<svg id="Capa_1" enable-background="new 0 0 512 512" height="512" viewBox="0 0 512 512" width="512" xmlns="http://www.w3.org/2000/svg"><g><g><g><g><g><g><g><circle cx="256" cy="256" fill="#c38778" r="256"/></g></g></g></g></g></g><path d="m510.691 282.044-222.886-222.885-50.162 15.841-102.601 327.087 109.703 109.67c3.732.161 7.484.243 11.255.243 132.593 0 241.642-100.804 254.691-229.956z" fill="#a65d4e"/><g><g><g><g><g><g><circle cx="256" cy="281.262" fill="#ffc247" r="170.966"/></g></g></g></g></g></g><g><g><g><g><g><g><path d="m256 110.295c94.422 0 170.966 76.544 170.966 170.966s-76.544 170.966-170.966 170.966z" fill="#ffa426"/></g></g></g></g></g></g><g><g><g><g><g><g><ellipse cx="256" cy="281.261" fill="#fff" rx="142.213" ry="142.213" transform="matrix(.707 -.707 .707 .707 -123.901 263.399)"/></g></g></g></g></g></g><g><g><g><g><g><g><path d="m256 139.048c78.542 0 142.213 63.671 142.213 142.213s-63.671 142.214-142.213 142.214z" fill="#e9edf5"/></g></g></g></g></g></g><g><g><path d="m331.704 371.947-75.704 27.471-75.704-27.471v-43.803l2.416-4.959-2.416-6.842v-7.01l5.882-9.209-5.882-13.322v-25.694h151.408v25.694l-2.465 12.311 2.465 10.218v7.012l-1.328 7.106 1.328 4.622z" fill="#414952"/></g><g><path d="m331.704 371.947-75.704 27.471v-138.31h75.704v25.694l-2.465 12.311 2.465 10.218v7.012l-1.328 7.106 1.328 4.622z" fill="#23272b"/></g><g><path d="m180.296 286.802v22.531l75.704 27.471 75.704-27.471v-22.531l-75.704 27.47z" fill="#ffc247"/></g><g><path d="m256 336.804 75.704-27.471v-22.531l-75.704 27.47z" fill="#ffa426"/></g><g><path d="m256 288.578-75.704-27.47 75.704-23.037 75.704 23.037z" fill="#636978"/></g><g><path d="m256 288.578v-50.507l75.704 23.037z" fill="#414952"/></g><g><g><path d="m277.774 347.66 14.925-5.416v-11.747l-14.925 5.416z" fill="#ffa426"/></g><g><path d="m234.226 335.913-14.925-5.416v11.747l14.925 5.416z" fill="#ffc247"/></g><g><path d="m316.001 322.042-14.925 5.415v11.747l14.925-5.415z" fill="#ffa426"/></g><g><path d="m187.622 319.002-7.326-2.659v11.748l7.326 2.658z" fill="#ffc247"/></g><g><path d="m195.999 333.789 14.925 5.415v-11.747l-14.925-5.416z" fill="#ffc247"/></g><g><path d="m324.378 319.002v11.747l7.326-2.658v-11.748z" fill="#ffa426"/></g><g><path d="m269.397 338.952-13.397 4.862-13.397-4.862v11.747l13.397 4.862 13.397-4.862z" fill="#ffc247"/></g><g><path d="m269.397 338.952-13.397 4.862v11.747l13.397-4.862z" fill="#ffa426"/></g></g></g><g><g><path d="m256 158.02-36.698 53.188h73.397z" fill="#ff9500"/></g></g><g><g><path d="m256 158.02v53.188h36.699z" fill="#fe6a16"/></g></g><g><path d="m256 130.736c-23.638 0-42.868-19.23-42.868-42.868s19.23-42.868 42.868-42.868 42.868 19.23 42.868 42.868c0 23.637-19.23 42.868-42.868 42.868zm0-55.736c-7.096 0-12.868 5.772-12.868 12.868s5.772 12.868 12.868 12.868 12.868-5.772 12.868-12.868-5.772-12.868-12.868-12.868z" fill="#ffc247"/></g><g><path d="m256 45c-.01 0-.019.001-.028.001v30.001c.01 0 .019-.001.028-.001 7.096 0 12.868 5.772 12.868 12.868s-5.772 12.868-12.868 12.868c-.01 0-.019-.001-.028-.001v30.001c.01 0 .019.001.028.001 23.638 0 42.868-19.23 42.868-42.868s-19.23-42.87-42.868-42.87z" fill="#ffa426"/></g></g></svg>