<svg id="Capa_1" enable-background="new 0 0 512 512" height="512" viewBox="0 0 512 512" width="512" xmlns="http://www.w3.org/2000/svg"><g><g><g><g><g><g><circle cx="256" cy="256" fill="#ffc247" r="256"/></g></g></g></g></g><path d="m285.759 510.289c120.004-13.893 214.717-110.773 225.263-231.766l-240.022-240.023-21 69.758-125.271 112.964 74.561 74.561-74.561 53.475z" fill="#ffa426"/><path d="m241 38.5v48.428l-57.172 57.172 21.212 21.213 35.96-35.959v82.42l-57.172 57.173 21.212 21.213 35.96-35.96v114.325h15.62v-330.025z" fill="#fff"/><path d="m271 129.354 35.959 35.959 21.213-21.213-57.172-57.172v-48.428h-15.356v330.025h15.356v-114.325l35.959 35.96 21.213-21.213-57.172-57.173z" fill="#e9edf5"/><g><path d="m256 452c-22.131 0-40.072-17.941-40.072-40.073v-47.9c0-22.131 17.941-40.072 40.072-40.072 22.131 0 40.072 17.941 40.072 40.073v47.9c0 22.131-17.94 40.072-40.072 40.072z" fill="#c38778"/></g><g><path d="m296.072 364.027c0-22.131-17.941-40.072-40.072-40.073-.119 0-.237.008-.356.009v128.027c.119.001.237.009.356.009 22.131 0 40.072-17.941 40.072-40.072z" fill="#a65d4e"/></g><g><path d="m124.729 221.223c-15.649-15.649-15.649-41.022 0-56.671l33.871-33.87c15.649-15.649 41.022-15.649 56.671 0 15.649 15.649 15.649 41.022 0 56.671l-33.87 33.87c-15.65 15.649-41.023 15.649-56.672 0z" fill="#c38778"/></g><g><path d="m124.729 349.259c-15.649-15.649-15.649-41.022 0-56.671l33.871-33.87c15.649-15.649 41.022-15.649 56.671 0 15.649 15.649 15.649 41.022 0 56.671l-33.87 33.871c-15.65 15.648-41.023 15.648-56.672-.001z" fill="#c38778"/></g><g><path d="m387.271 221.223c15.649-15.649 15.649-41.022 0-56.671l-33.871-33.87c-15.649-15.649-41.022-15.649-56.671 0-15.649 15.649-15.649 41.022 0 56.671l33.871 33.87c15.649 15.649 41.022 15.649 56.671 0z" fill="#a65d4e"/></g><g><path d="m387.271 349.259c15.649-15.649 15.649-41.022 0-56.671l-33.871-33.87c-15.649-15.649-41.022-15.649-56.671 0-15.649 15.649-15.649 41.022 0 56.671l33.871 33.871c15.649 15.648 41.022 15.648 56.671-.001z" fill="#a65d4e"/></g></g></svg>