<svg id="Capa_1" enable-background="new 0 0 512 512" height="512" viewBox="0 0 512 512" width="512" xmlns="http://www.w3.org/2000/svg"><g><g><g><g><g><g><g><circle cx="256" cy="256" fill="#c38778" r="256"/></g></g></g></g></g></g><path d="m512 256c0-9.918-.564-19.705-1.662-29.33l-87.622-87.622-11.969 15.557-48.351-48.351-35.495 37.583-45.165-45.165-192.452 112.536 138.811 138.812-126.842 60.094 94.838 94.838c19.218 4.607 39.279 7.048 59.909 7.048 141.385 0 256-114.615 256-256z" fill="#a65d4e"/><g><path d="m327.711 90.438c-19.666 0-56.222 12.349-71.711 29.714-15.489-17.365-52.045-29.714-71.711-29.714-25.391 0-45.975 20.584-45.975 45.976s20.584 45.975 45.975 45.975c19.666 0 56.222-12.349 71.711-29.714 15.49 17.365 52.046 29.714 71.711 29.714 25.392 0 45.976-20.584 45.976-45.975s-20.584-45.976-45.976-45.976z" fill="#ffc247"/></g><g><path d="m327.711 90.438c-19.52 0-55.669 12.169-71.352 29.331v33.289c15.683 17.162 51.833 29.331 71.352 29.331 25.392 0 45.975-20.584 45.975-45.975s-20.583-45.976-45.975-45.976z" fill="#ffa426"/></g><g><path d="m410.746 410.114h-121.765l-32.981-19.548-32.981 19.548h-121.765v-240.434h309.492z" fill="#fff"/></g><g><path d="m256.359 169.68v221.099l32.622 19.335h121.765v-240.434z" fill="#e9edf5"/></g><g><path d="m223.019 169.68h65.962v240.434h-65.962z" fill="#ff9500"/></g><g><path d="m256.359 169.68h32.622v240.434h-32.622z" fill="#fe6a16"/></g><g><path d="m230.264 98.673h51.472v52.626h-51.472z" fill="#ff9500"/></g><g><path d="m256.359 98.673h25.377v52.626h-25.377z" fill="#fe6a16"/></g><g><path d="m89.284 139.048h333.431v72.16h-333.431z" fill="#e9edf5"/></g><g><path d="m256.359 139.048h166.357v72.16h-166.357z" fill="#cdd2e1"/></g><g><path d="m367.573 306.929c-24.258 0-43.923-19.665-43.923-43.923 0-14 6.558-26.46 16.76-34.503-20.408 6.115-35.282 25.036-35.282 47.434 0 27.346 22.168 49.514 49.514 49.514 22.398 0 41.32-14.874 47.434-35.282-8.043 10.203-20.504 16.76-34.503 16.76z" fill="#ffc247"/></g></g></svg>