<svg id="Capa_1" enable-background="new 0 0 512 512" height="512" viewBox="0 0 512 512" width="512" xmlns="http://www.w3.org/2000/svg"><g><g><g><g><g><g><g><path d="m294.558 509.116c-12.576 1.899-25.452 2.884-38.558 2.884s-25.982-.985-38.558-2.885l-122.914-54.452c-57.681-46.94-94.528-118.498-94.528-198.663 0-141.385 114.615-256 256-256s256 114.615 256 256c0 80.164-36.847 151.723-94.528 198.663z" fill="#c38778"/></g></g></g></g></g></g><g fill="#a65d4e"><path d="m387.936 467.748 29.536-13.085c57.681-46.94 94.528-118.499 94.528-198.663 0-3.354-.065-6.693-.193-10.016l-59.575-60.403-8.639 30.189-124.363-122.799-18.402 54.407-74.676-74.676-47.626 41.79 5.618 149.464z"/><path d="m191.093 497.442 26.349 11.673c12.576 1.9 25.452 2.885 38.558 2.885s25.982-.985 38.558-2.885l72.082-31.933-291.045-291.395-2.001-1.651 30.124 100.891z"/></g><g><g><path d="m78.036 189.895 28.721 85.165 47.491 55.255-19.12-56.856c-1.065-3.168-.51-6.656 1.487-9.337 4.482-6.018 13.711-5.293 17.198 1.352l50.524 96.262c8.308 15.829 11.019 34.003 7.693 51.568l-11.353 59.952-89.141-15.831 28.787-68.35-60.079-69.902c-8.385-9.756-13.559-21.859-14.816-34.661l-8.844-90.009c-.204-2.076.184-4.167 1.12-6.031 4.401-8.77 17.197-7.874 20.332 1.423z" fill="#ffcdbe"/></g></g><g><path d="m94.528 454.663c34.62 28.174 76.746 47.479 122.915 54.453l17.044-63.072-126.598-33.764z" fill="#fff"/></g><g><g><path d="m433.964 189.895-28.721 85.165-47.491 55.255 19.12-56.856c1.065-3.168.51-6.656-1.487-9.337-4.482-6.018-13.711-5.293-17.198 1.352l-50.524 96.262c-8.308 15.829-11.019 34.003-7.693 51.568l11.353 59.952 87.958-20.639-27.604-63.542 60.079-69.902c8.385-9.756 13.559-21.859 14.816-34.661l8.844-90.009c.204-2.076-.184-4.167-1.12-6.031-4.4-8.77-17.197-7.874-20.332 1.423z" fill="#ffbeaa"/></g></g><g><path d="m417.472 454.663c-34.62 28.174-76.746 47.479-122.915 54.453l-17.044-63.072 126.598-33.764z" fill="#e9edf5"/></g><g><g><path d="m287.611 250.152c-54.887 0-99.382-44.495-99.382-99.382 0-31.676 14.838-59.869 37.922-78.068-46.176 13.835-79.83 56.647-79.83 107.326 0 61.874 50.158 112.032 112.032 112.032 50.679 0 93.491-33.654 107.326-79.83-18.198 23.084-46.391 37.922-78.068 37.922z" fill="#ffc247"/></g><g><path d="m287.611 250.151c-11.183 0-21.935-1.848-31.967-5.254v47.128c.901.021 1.803.034 2.709.034 50.679 0 93.491-33.654 107.326-79.83-18.198 23.085-46.391 37.922-78.068 37.922z" fill="#ffa426"/></g><g><path d="m319.23 92.971 2.197 29.064 25.189 14.667-26.963 11.072-6.166 28.488-18.861-22.222-28.999 2.94 15.305-24.806-11.757-26.671 28.322 6.891z" fill="#ffa426"/></g></g></g></svg>