<svg id="Capa_1" enable-background="new 0 0 512 512" height="512" viewBox="0 0 512 512" width="512" xmlns="http://www.w3.org/2000/svg"><g><g><g><g><g><g><g><g><path d="m275.59 511.262c-6.466.489-12.999.738-19.59.738-6.303 0-12.552-.228-18.74-.676l-131.024-47.68c-64.357-46.498-106.236-122.18-106.236-207.644 0-141.385 114.615-256 256-256s256 114.615 256 256c0 85.148-41.57 160.587-105.523 207.128z" fill="#7584f2"/></g></g></g></g></g></g></g><path d="m256 512c6.591 0 13.124-.249 19.59-.738l130.887-48.134c63.952-46.541 105.523-121.98 105.523-207.128 0-10.881-.679-21.604-1.997-32.129l-118.598-118.727-8.619 14.818-21.818-21.69-7.449 34.168-24.844-24.844-6.395 37.842-22.81-22.81-6.389 55.735-55.821-55.821-1.038 16.915-31.861-31.861-.751 23.51-28.782-32.356-.499 37.93-31.73-31.73 3.398 130.844-42.971-42.972-4.398 100.124 93.189 93.189 6.14 110.886 39.302 14.302c6.189.449 12.438.677 18.741.677z" fill="#4253ce"/><g><g><g><g><g><path d="m302.598 132.064c0-8.593-6.966-15.559-15.559-15.559-8.593 0-15.559 6.966-15.559 15.559v71.806h31.117v-71.806z" fill="#ffcdbe"/></g></g></g><g><g><g><path d="m302.598 132.064c0-8.593-6.966-15.559-15.559-15.559-1.776 0-3.483.298-5.073.846 6.102 2.104 10.485 7.896 10.485 14.712v71.806h10.146v-71.805z" fill="#faa68e"/></g></g></g><g><g><g><path d="m333.715 119.058c0-8.593-6.966-15.559-15.558-15.559-8.593 0-15.559 6.966-15.559 15.559v84.812h31.117z" fill="#ffcdbe"/></g></g></g><g><g><g><path d="m333.715 119.058c0-8.593-6.966-15.559-15.558-15.559-1.776 0-3.483.298-5.073.846 6.102 2.104 10.485 7.896 10.485 14.712v84.812h10.146z" fill="#faa68e"/></g></g></g><g><g><path d="m395.949 299.616h1.091c10.376 0 19.514-6.831 22.45-16.784l17.916-73.112c2.559-9.107-2.745-18.566-11.849-21.125-9.103-2.559-18.557 2.749-21.116 11.857l-4.102 14.799c-.77 2.777-4.871 2.169-4.802-.712l.411-10.671v-87.557c0-8.723-7.138-16.072-15.859-15.906-8.454.16-15.258 7.063-15.258 15.556v81.467h-93.351l-1.557 77.136c-.239 9.933 5.47 18.599 13.846 22.637v45.923h112.179v-43.508z" fill="#ffcdbe"/></g></g><path d="m425.558 188.596c-9.103-2.559-18.557 2.75-21.116 11.857l-4.102 14.799c-.77 2.777-4.872 2.169-4.802-.712l.411-10.67v-87.557c0-8.723-7.138-16.072-15.859-15.906-8.454.16-15.258 7.063-15.258 15.556v-7.432c0-8.593-6.966-15.559-15.558-15.559-8.593 0-15.558 6.966-15.558 15.559l.003 234.595h62.23v-43.509h1.091c10.376 0 19.514-6.831 22.45-16.783l17.916-73.112c2.56-9.109-2.745-18.567-11.848-21.126z" fill="#ffbeaa"/><path d="m364.828 197.429v-89.239c-.181-8.436-7.075-15.219-15.555-15.219-1.777 0-3.484.298-5.075.847 6.1 2.104 10.483 7.896 10.483 14.711v88.9z" fill="#e09380"/></g><g><g><g><g><path d="m209.402 132.064c0-8.593 6.966-15.559 15.559-15.559 8.593 0 15.559 6.966 15.559 15.559v71.806h-31.117v-71.806z" fill="#faa68e"/></g></g></g><g><g><g><path d="m209.402 132.064c0-8.593 6.966-15.559 15.559-15.559 1.776 0 3.483.298 5.073.846-6.102 2.104-10.485 7.896-10.485 14.712v71.806h-10.146v-71.805z" fill="#e09380"/></g></g></g><g><g><g><path d="m178.285 119.058c0-8.593 6.966-15.559 15.558-15.559 8.593 0 15.559 6.966 15.559 15.559v84.812h-31.117z" fill="#faa68e"/></g></g></g><g><g><g><path d="m178.285 119.058c0-8.593 6.966-15.559 15.558-15.559 1.776 0 3.483.298 5.073.846-6.102 2.104-10.485 7.896-10.485 14.712v84.812h-10.146z" fill="#e09380"/></g></g></g><g><g><g><path d="m147.168 108.53c0-8.593 6.966-15.559 15.559-15.559 8.592 0 15.559 6.966 15.559 15.559v95.34h-31.117v-95.34z" fill="#ffbeaa"/></g></g></g><g><g><path d="m228.23 297.202c8.376-4.038 14.085-12.704 13.846-22.637l-1.557-77.136h-93.351v-81.467c0-8.492-6.804-15.396-15.258-15.556-8.721-.166-15.859 7.183-15.859 15.906v87.557l.411 10.671c.069 2.881-4.032 3.49-4.802.712l-4.102-14.799c-2.559-9.107-12.013-14.416-21.116-11.857-9.104 2.559-14.408 12.017-11.849 21.125l17.916 73.112c2.936 9.952 12.074 16.784 22.45 16.784h1.091v43.509h112.18z" fill="#ffbeaa"/></g></g><g><g><path d="m240.519 197.429h-62.234v145.696h49.945v-45.923c8.375-4.038 14.084-12.704 13.846-22.637z" fill="#faa68e"/></g></g><path d="m157.314 108.53c0-6.816 4.384-12.609 10.485-14.712-1.59-.548-3.297-.846-5.073-.846-8.593 0-15.558 6.966-15.558 15.559v88.899h10.146z" fill="#faa68e"/></g></g><g><path d="m106.178 463.603c37.376 27.02 82.338 44.195 131.083 47.722v-177.322h-131.083z" fill="#fff"/></g><g><path d="m237.261 334.003h-58.976l-.271 165.902c18.891 6.036 38.732 9.936 59.247 11.42z" fill="#e9edf5"/></g><g><path d="m275.59 511.262c48.788-3.692 93.756-21.058 131.083-48.276v-128.983h-131.083z" fill="#fff"/></g><g><path d="m406.673 334.003h-72.954v165.981c26.439-8.415 51.018-21.002 72.954-36.998z" fill="#e9edf5"/></g></g></svg>