<svg id="Capa_1" enable-background="new 0 0 512 512" height="512" viewBox="0 0 512 512" width="512" xmlns="http://www.w3.org/2000/svg"><g><g><g><g><g><g><g><path d="m86.327 447.699c-52.95-46.901-86.327-115.402-86.327-191.699 0-141.385 114.615-256 256-256s256 114.615 256 256c0 76.297-33.377 144.798-86.327 191.699z" fill="#ffc247"/></g></g></g></g></g></g><path d="m508.34 212.625-162.548-162.548-205.275 159.701 51.933 51.556-4.69 7.562 179.052 178.804h58.861c52.95-46.902 86.327-115.403 86.327-191.7 0-14.785-1.254-29.277-3.66-43.375z" fill="#ffa426"/><g><g><path d="m274.562 511.337c57.791-4.141 110.272-27.465 151.111-63.638l-12.786-84.675c-4.763-31.543-31.871-54.864-63.771-54.864h-186.231c-31.9 0-59.008 23.321-63.771 54.864l-12.786 84.675c40.841 36.176 93.327 59.5 151.123 63.639z" fill="#fff"/></g></g><g><g><path d="m425.673 447.699-12.786-84.675c-4.763-31.543-31.871-54.864-63.771-54.864h-92.757v203.178h18.203c57.791-4.141 110.272-27.465 151.111-63.639z" fill="#e9edf5"/></g></g><g><path d="m256 512c6.245 0 12.437-.224 18.57-.664v-178.255h-37.14v178.255c6.133.44 12.325.664 18.57.664z" fill="#e9edf5"/></g><g><path d="m274.57 333.081h-18.211v178.916c6.123-.009 12.196-.229 18.211-.66z" fill="#cdd2e1"/></g><g><g><g><circle cx="163.62" cy="187.538" fill="#e09380" r="32.069"/></g></g><g><g><circle cx="348.38" cy="187.538" fill="#d47f6c" r="32.069"/></g></g></g><g><g><path d="m256 365.386c-24.503 0-44.367-19.252-44.367-43l1.277-14.227v-28.773h86.18v28.609l1.277 14.391c0 23.748-19.864 43-44.367 43z" fill="#e09380"/></g></g><g><g><path d="m300.367 322.386-1.277-14.391v-28.609h-42.731v85.991c24.337-.188 44.008-19.359 44.008-42.991z" fill="#d47f6c"/></g></g><g><g><g><path d="m256 389.937c-39.199 0-71.09-31.891-71.09-71.09v-10.687h28v10.688c0 23.76 19.33 43.09 43.09 43.09s43.09-19.33 43.09-43.09v-10.688h28v10.688c0 39.198-31.891 71.089-71.09 71.089z" fill="#e9edf5"/></g></g></g><g><g><g><path d="m299.09 308.16v10.688c0 23.639-19.136 42.886-42.731 43.081v28c39.034-.195 70.731-32.002 70.731-71.081v-10.688z" fill="#cdd2e1"/></g></g></g><g><g><path d="m256 297.894c-52.353 0-94.793-42.44-94.793-94.793v-47.094c0-52.353 42.44-94.793 94.793-94.793 52.353 0 94.793 42.44 94.793 94.793v47.094c0 52.352-42.44 94.793-94.793 94.793z" fill="#faa68e"/></g></g><g><g><path d="m256.359 61.218v236.671c52.187-.194 94.434-42.556 94.434-94.789v-47.094c0-52.233-42.247-94.594-94.434-94.788z" fill="#e09380"/></g></g><g><path d="m355.793 153.896h-199.587l10.002-103.819h179.585z" fill="#ff9500"/></g><g><path d="m345.792 50.077h-89.433v103.819h99.434z" fill="#fe6a16"/></g><g><path d="m306.72 408.54h77.538v28h-77.538z" fill="#cdd2e1"/></g></g></svg>