<svg id="Capa_1" enable-background="new 0 0 512 512" height="512" viewBox="0 0 512 512" width="512" xmlns="http://www.w3.org/2000/svg"><g><g><g><g><g><g><g><path d="m86.327 448.03c-52.95-46.901-86.327-115.402-86.327-191.699 0-141.385 114.615-256 256-256s256 114.615 256 256c0 76.297-33.377 144.798-86.327 191.699z" fill="#1dd882"/></g></g></g></g></g></g><path d="m340.748 91.559-63.836 356.471h148.761c51.465-45.585 84.439-111.576 86.249-185.298z" fill="#20b76f"/><g><g><path d="m274.562 511.668c57.791-4.141 110.272-27.465 151.111-63.638l-12.786-84.675c-4.763-31.543-31.871-54.864-63.771-54.864h-186.231c-31.9 0-59.008 23.321-63.771 54.864l-12.787 84.675c40.841 36.176 93.327 59.5 151.123 63.639z" fill="#fff"/></g></g><g><g><path d="m274.562 511.668c57.791-4.141 110.272-27.465 151.111-63.638l-12.786-84.675c-4.763-31.543-31.871-54.864-63.771-54.864h-93.116v203.178z" fill="#e9edf5"/></g></g><g><g><path d="m256 365.717c-24.503 0-44.367-19.252-44.367-43l1.277-14.227v-28.773h86.18v28.609l1.277 14.391c0 23.748-19.864 43-44.367 43z" fill="#ffbeaa"/></g></g><g><path d="m291.171 389.844-35.171 20.236-35.171-20.236c-51.449-29.601-83.162-84.435-83.162-143.791v-71.919c0-65.354 52.979-118.334 118.333-118.334 65.354 0 118.333 52.979 118.333 118.333v71.919c0 59.357-31.713 114.191-83.162 143.792z" fill="#e9edf5"/></g><g><path d="m291.171 389.844-35.171 20.236v-354.28c65.354 0 118.333 52.979 118.333 118.333v71.919c0 59.357-31.713 114.191-83.162 143.792z" fill="#cdd2e1"/></g><g><g><path d="m171.252 157.485c-.007.448-.034.89-.034 1.339v42.121c0 46.824 37.958 84.781 84.782 84.781 46.824 0 84.782-37.958 84.782-84.781v-42.121c0-.449-.027-.892-.034-1.339l-84.748-10.001z" fill="#faa68e"/></g><g><path d="m256 285.726c46.824 0 84.782-37.958 84.782-84.781v-42.121c0-.449-.027-.892-.034-1.339l-84.748-10.001z" fill="#e09380"/></g><g><path d="m256 74.042c-46.374 0-84.029 37.239-84.748 83.442h169.496c-.719-46.203-38.373-83.442-84.748-83.442z" fill="#fff"/></g><g><path d="m256 74.042v83.442h84.748c-.719-46.203-38.373-83.442-84.748-83.442z" fill="#e9edf5"/></g></g></g></svg>