<svg id="Capa_1" enable-background="new 0 0 512 512" height="512" viewBox="0 0 512 512" width="512" xmlns="http://www.w3.org/2000/svg"><g><g><g><g><g><g><g><circle cx="256" cy="256" fill="#c38778" r="256"/></g></g></g></g></g></g><path d="m512 256c0-18.965-2.063-37.448-5.975-55.238l-103.783-103.783-28.634 61.164-120.643-120.643-13.035 10.387.326 42.817 64.217 64.217-51.507 39.652-100.752-100.865-57.188 53.291 38.271 38.271-36.26 217.036 103.718 103.718c17.792 3.913 36.277 5.976 55.245 5.976 141.385 0 256-114.615 256-256z" fill="#a65d4e"/><g><g><path d="m97.037 142.221h68.426v260.085h-68.426z" fill="#e9edf5"/></g><g><g><g><g><g><path d="m168.753 126.23c0-26.613-36.228-48.188-36.228-48.188s-36.227 21.575-36.227 48.188c0 4.893.55 9.615 1.57 14.065h69.316c1.019-4.449 1.569-9.171 1.569-14.065z" fill="#ffc247"/></g></g></g></g></g><g><path d="m95.026 134.808h74.999v12.191h-74.999z" fill="#ffb13b"/></g><g><path d="m343.987 142.221h68.426v260.085h-68.426z" fill="#cdd2e1"/></g><g><g><g><g><g><path d="m415.703 126.23c0-26.613-36.228-48.188-36.228-48.188s-36.228 21.574-36.228 48.188c0 4.893.55 9.615 1.57 14.065h69.316c1.019-4.449 1.57-9.171 1.57-14.065z" fill="#ffa426"/></g></g></g></g></g><g><path d="m341.976 134.808h74.999v12.191h-74.999z" fill="#ff9500"/></g></g><g><path d="m353.004 430.487h-63.122l-33.882-10.426-33.882 10.426h-63.122v-194.009h194.008z" fill="#fff"/></g><g><path d="m353.004 430.487h-63.122l-33.882-10.426v-183.583h97.004z" fill="#e9edf5"/></g><g><g><g><g><g><path d="m359.786 200.765c0-57.319-103.786-103.786-103.786-103.786s-103.786 46.467-103.786 103.786c0 10.539 1.576 20.709 4.497 30.293h198.578c2.921-9.583 4.497-19.753 4.497-30.293z" fill="#ffc247"/></g></g></g></g></g><g><g><g><g><g><path d="m359.786 200.765c0-57.319-103.786-103.786-103.786-103.786v134.079h99.289c2.921-9.583 4.497-19.753 4.497-30.293z" fill="#ffa426"/></g></g></g></g></g><g><path d="m148.571 219.24h214.858v26.256h-214.858z" fill="#ffb13b"/></g><g><path d="m256 219.24h107.429v26.256h-107.429z" fill="#ff9500"/></g><g><path d="m270.314 87.592c-15.494 0-28.054-12.56-28.054-28.054 0-8.942 4.188-16.9 10.705-22.038-13.035 3.906-22.535 15.991-22.535 30.297 0 17.466 14.159 31.625 31.625 31.625 14.306 0 26.391-9.5 30.297-22.535-5.138 6.516-13.096 10.705-22.038 10.705z" fill="#ffb13b"/></g><g><path d="m270.314 87.592c-5.236 0-10.134-1.438-14.328-3.935v15.177c1.965.382 3.992.588 6.069.588 14.306 0 26.391-9.5 30.297-22.535-5.138 6.516-13.096 10.705-22.038 10.705z" fill="#ff9500"/></g><g><path d="m289.882 430.487h-67.765v-96.597c0-18.713 15.17-33.882 33.882-33.882 18.713 0 33.882 15.17 33.882 33.882v96.597z" fill="#636978"/></g><g><path d="m289.882 430.487h-33.882v-130.48c18.713 0 33.882 15.17 33.882 33.882z" fill="#414952"/></g></g></svg>