<svg id="Capa_1" enable-background="new 0 0 512 512" height="512" viewBox="0 0 512 512" width="512" xmlns="http://www.w3.org/2000/svg"><g><g><g><g><g><g><g><circle cx="256" cy="256" fill="#7584f2" r="256"/></g></g></g></g></g></g><path d="m284.897 68.143-67.529 375.714 66.629 66.629c116.122-12.631 208.927-102.917 225.4-217.843z" fill="#4253ce"/><g><path d="m274.896 162.815h-37.792l-10.001-94.672h57.794z" fill="#2cc47f"/></g><g><path d="m274.896 162.815h-18.896v-94.672h28.897z" fill="#24b26e"/></g><g><path d="m230.738 315.994h50.524l13.37 127.863h-77.264z" fill="#2cc47f"/></g><g><path d="m256 315.994h25.262l13.37 127.863h-38.632z" fill="#24b26e"/></g><g><g><g><path d="m256 185.068-14.484 28.627-30.737 16.594-32.925-18.781-12.296-26.44 45.221-45.222 28.59 14.447z" fill="#ffc247"/></g><g><path d="m133.581 198.313h63.952v63.952h-63.952z" fill="#1dd882" transform="matrix(.707 -.707 .707 .707 -114.348 184.517)"/></g><g><path d="m224.024 107.87h63.952v63.952h-63.952z" fill="#1dd882" transform="matrix(.707 -.707 .707 .707 -23.906 221.979)"/></g><g><path d="m301.221 139.846-45.221 45.222v-90.443z" fill="#2cc47f"/></g></g><g><g><path d="m346.442 185.068-45.221 45.221-31.304-17.16-13.917-28.061 45.221-45.222z" fill="#ffa426"/></g><g><path d="m256 275.51-45.221 45.221-45.221-45.221 45.221-45.221 28.521 14.378z" fill="#ffc247"/></g></g><g><g><path d="m346.442 275.51-45.221 45.221-31.065-16.922-14.156-28.299 16.593-30.737 28.628-14.484 29.683 15.539z" fill="#ffa426"/></g><g><path d="m224.024 288.755h63.952v63.952h-63.952z" fill="#1dd882" transform="matrix(.707 -.707 .707 .707 -151.81 274.959)"/></g><g><path d="m301.221 320.731-45.221 45.221v-90.442z" fill="#2cc47f"/></g><g><path d="m314.466 198.313h63.952v63.952h-63.952z" fill="#2cc47f" transform="matrix(.707 -.707 .707 .707 -61.368 312.421)"/></g></g><g><path d="m224.024 198.313h63.952v63.952h-63.952z" fill="#1dd882" transform="matrix(.707 -.707 .707 .707 -87.858 248.469)"/></g><g><path d="m301.221 230.289-45.221 45.221v-90.442z" fill="#2cc47f"/></g></g></g></svg>