<svg id="Capa_1" enable-background="new 0 0 512 512" height="512" viewBox="0 0 512 512" width="512" xmlns="http://www.w3.org/2000/svg"><g><g><g><g><g><g><g><circle cx="256" cy="256" fill="#7584f2" r="256"/></g></g></g></g></g></g><path d="m512 256c0-7.342-.309-14.612-.915-21.798l-59.39-59.39-13.781 9.65-61.238-61.239-7.158 7.609-23.184-23.332-1.854 5.732-37.834-38.288-31.056 57.604-109.557 10.575 137.934 137.934-181.756 130.719 97.699 97.699c11.791 1.664 23.84 2.525 36.09 2.525 141.385 0 256-114.615 256-256z" fill="#4253ce"/><g><path d="m359.97 142.65h-136.934c0-28.785 23.335-52.119 52.119-52.119h32.695c28.785 0 52.12 23.334 52.12 52.119z" fill="#ffb13b"/></g><g><path d="m359.97 142.65h-68.467v-52.119h16.348c28.784 0 52.119 23.334 52.119 52.119z" fill="#ff9500"/></g><g><path d="m350.41 366.844-14.996-25.983 81.497-47.039 3.94-98.499-83.183-31.038 10.488-28.108 103.538 38.635-5.468 136.728z" fill="#ff9500"/></g><g><path d="m211.333 123.224h-48.617l3.317 19.9 45.3 18.953 20.944-10.425z" fill="#ffb13b"/></g><g><path d="m365.311 178.66 11.363-16.583v-38.853h-165.341v38.853l11.363 16.583-22.072 123.673c-4.458 24.98-1.159 50.727 9.454 73.776l16.424 35.668h135.004l16.424-35.668c10.613-23.049 13.912-48.795 9.454-73.776z" fill="#ffc247"/></g><g><path d="m365.311 178.66 11.363-16.583v-38.853h-85.172l2.501 288.553h67.502l16.424-35.668c10.613-23.049 13.912-48.795 9.454-73.776z" fill="#ffa426"/></g><g><circle cx="291.503" cy="88.398" fill="#ffb13b" r="20.256"/></g><g><path d="m311.758 88.398c0 11.187-9.069 20.256-20.255 20.256v-40.511c11.187 0 20.255 9.069 20.255 20.255z" fill="#ff9500"/></g><g><path d="m203.222 411.776h-81.011l-18.137-133.003h117.285z" fill="#ffa426"/></g></g></svg>