<svg id="Capa_1" enable-background="new 0 0 512 512" height="512" viewBox="0 0 512 512" width="512" xmlns="http://www.w3.org/2000/svg"><g><g><g><g><g><g><g><circle cx="256" cy="256" fill="#c38778" r="256"/></g></g></g></g></g></g><path d="m512 256c0-17.993-1.856-35.552-5.388-52.497l-94.634-94.634-311.956 293.212 104.802 104.802c16.536 3.356 33.65 5.117 51.176 5.117 141.385 0 256-114.615 256-256z" fill="#a65d4e"/><g><path d="m411.978 108.869h-311.956v57.572l155.978 10.274 155.978-10.274z" fill="#ff9500"/></g><g><path d="m255.644 108.869v67.823l.356.023 155.978-10.274v-57.572z" fill="#fe6a16"/></g><g><path d="m100.022 166.441h311.956v235.641h-311.956z" fill="#fff"/></g><g><path d="m255.644 166.441h156.334v235.641h-156.334z" fill="#e9edf5"/></g><g><g><ellipse cx="144.254" cy="138.191" fill="#fff" rx="14.986" ry="14.986" transform="matrix(.151 -.989 .989 .151 -14.13 259.93)"/></g><g><ellipse cx="367.746" cy="138.191" fill="#e9edf5" rx="14.986" ry="14.986" transform="matrix(.16 -.987 .987 .16 172.434 479.053)"/></g></g><g><path d="m291.458 335.22c-46.607 0-84.389-37.783-84.389-84.39 0-26.898 12.599-50.838 32.201-66.291-39.21 11.748-67.787 48.102-67.787 91.135 0 52.539 42.592 95.131 95.131 95.131 43.034 0 79.387-28.577 91.135-67.787-15.453 19.602-39.393 32.202-66.291 32.202z" fill="#ffc247"/></g><g><path d="m291.458 335.219c-12.807 0-24.94-2.867-35.814-7.973v42.925c3.6.413 7.259.633 10.97.633 43.034 0 79.387-28.577 91.135-67.787-15.453 19.603-39.393 32.202-66.291 32.202z" fill="#ffa426"/></g><g><path d="m318.307 201.751 1.866 24.68 21.389 12.454-22.896 9.401-5.235 24.191-16.017-18.87-24.624 2.497 12.997-21.064-9.984-22.648 24.049 5.852z" fill="#ffa426"/></g></g></svg>