<svg id="Capa_1" enable-background="new 0 0 512 512" height="512" viewBox="0 0 512 512" width="512" xmlns="http://www.w3.org/2000/svg"><g><g><g><g><g><g><g><circle cx="256" cy="256" fill="#7584f2" r="256"/></g></g></g></g></g></g><path d="m512 256c0-5.496-.173-10.951-.514-16.361l-102.174-102.173-329.145 217.607 156.48 156.206c6.389.478 12.842.721 19.353.721 141.385 0 256-114.615 256-256z" fill="#4253ce"/><g><path d="m71.256 336.445c0 33.436 82.713 60.541 184.744 60.541s184.744-27.105 184.744-60.541l-25.708-186.808h-318.072z" fill="#ff9500"/></g><g><path d="m256 396.985c102.031 0 184.744-27.105 184.744-60.541l-25.708-186.808h-159.036z" fill="#fe6a16"/></g><g><ellipse cx="256" cy="149.637" fill="#ffc247" rx="159.036" ry="45.657"/></g><g><path d="m415.036 149.637c0 25.216-71.203 45.657-159.036 45.657v-91.314c87.833 0 159.036 20.441 159.036 45.657z" fill="#ffa426"/></g><g><path d="m364.862 293.904-18.386-104.806-78.641-32.194 11.365-27.763 93.963 38.465 21.248 121.115z" fill="#fff"/></g><g><path d="m409.313 341.817h-59.351l7.75-43.929c1.877-10.639 11.122-18.396 21.926-18.396 10.804 0 20.048 7.756 21.926 18.396z" fill="#e9edf5"/></g></g></svg>