<svg id="Capa_1" enable-background="new 0 0 512 512" height="512" viewBox="0 0 512 512" width="512" xmlns="http://www.w3.org/2000/svg"><g><g><g><g><g><g><g><g><circle cx="256" cy="256" fill="#c38778" r="256"/></g></g></g></g></g></g></g><path d="m509.435 292.38-224.203-224.251-35.232 8.871-22.662 50.366 22.662 22.662-23.021 53.5 46.3 46.253-96.415 191.266 70.82 70.82c2.761.088 5.533.133 8.316.133 129.034 0 235.771-95.466 253.435-219.62z" fill="#a65d4e"/><g><path d="m256 197.492 39.568 80.174 88.477 12.856-64.023 62.406 15.114 88.119-79.136-41.604-79.136 41.604 15.114-88.119-64.023-62.406 88.477-12.856z" fill="#ffc247"/></g><g><path d="m256 197.492 39.568 80.174 88.477 12.856-64.023 62.406 15.114 88.119-79.136-41.604z" fill="#ffa426"/></g><g><path d="m256 215.411c-22.855 0-41.449-18.594-41.449-41.449s18.594-41.45 41.449-41.45 41.449 18.594 41.449 41.45c0 22.855-18.594 41.449-41.449 41.449zm0-52.899c-6.313 0-11.449 5.136-11.449 11.45 0 6.313 5.136 11.449 11.449 11.449s11.449-5.136 11.449-11.449c0-6.314-5.136-11.45-11.449-11.45z" fill="#ffb13b"/></g><g><path d="m256 215.411c22.855 0 41.449-18.594 41.449-41.449s-18.594-41.45-41.449-41.45c-.119 0-.237.008-.356.009v30.009c.119-.004.236-.018.356-.018 6.313 0 11.449 5.136 11.449 11.45 0 6.313-5.136 11.449-11.449 11.449z" fill="#ff9500"/></g><g><path d="m256 138.936c-22.855 0-41.449-18.594-41.449-41.45 0-22.855 18.594-41.449 41.449-41.449s41.449 18.594 41.449 41.449c0 22.856-18.594 41.45-41.449 41.45zm0-52.898c-6.313 0-11.449 5.136-11.449 11.449s5.136 11.45 11.449 11.45 11.449-5.136 11.449-11.45c0-6.313-5.136-11.449-11.449-11.449z" fill="#ffb13b"/></g><g><path d="m256 56.038c-.119 0-.237.008-.356.009v30.009c.119-.004.236-.018.356-.018 6.313 0 11.449 5.136 11.449 11.449s-5.136 11.45-11.449 11.45c-.12 0-.237-.014-.356-.018v30.009c.119.001.237.009.356.009 22.855 0 41.449-18.594 41.449-41.45 0-22.855-18.594-41.449-41.449-41.449z" fill="#ff9500"/></g></g></svg>