<svg id="Capa_1" enable-background="new 0 0 512 512" height="512" viewBox="0 0 512 512" width="512" xmlns="http://www.w3.org/2000/svg"><g><g><g><g><g><g><g><circle cx="256" cy="256" fill="#1dd882" r="256"/></g></g></g></g></g></g><path d="m512 256c0-6.631-.252-13.203-.747-19.707l-135.293-135.293-191.557 339.532 71.467 71.468h.13c141.385 0 256-114.615 256-256z" fill="#20b76f"/><g><g><path d="m194.867 300.118-10.465 140.414c60.212 28.227 143.195 0 143.195 0l-10.553-141.592.003-.004z" fill="#a65d4e"/></g><g><path d="m317.045 298.94.003-.004-61.174.592v153.417c39.144-1.333 71.724-12.413 71.724-12.413z" fill="#784132"/></g><g><path d="m317.048 298.936 47.676-65.715c10.346-14.261 15.917-31.428 15.917-49.046v-72.502h-249.282v72.502c0 17.618 5.571 34.785 15.917 49.046l47.679 65.719-.088 1.178c45.419 16.06 99.7 4.813 122.181-1.182z" fill="#c38778"/></g><g><path d="m256 111.673-.127 196.577c25.649-.873 48.482-5.93 61.174-9.314l47.676-65.715c10.346-14.261 15.917-31.427 15.917-49.046v-72.502z" fill="#a65d4e"/></g></g><g><ellipse cx="256" cy="111.673" fill="#f5d882" rx="124.641" ry="39.189"/></g><g><path d="m380.641 111.674c0 21.643-55.803 39.189-124.641 39.189v-78.378c68.837 0 124.641 17.545 124.641 39.189z" fill="#ffc247"/></g><g><path d="m342.85 111.674c-.41 10.893-38.884 19.723-86.85 19.723s-87.26-8.83-86.85-19.723 38.884-19.723 86.85-19.723 87.26 8.83 86.85 19.723z" fill="#ffc247"/></g><g><path d="m342.85 111.674c-.41 10.893-38.884 19.723-86.85 19.723v-39.447c47.966 0 87.26 8.831 86.85 19.724z" fill="#ffa426"/></g></g></svg>