<svg id="Capa_1" enable-background="new 0 0 512 512" height="512" viewBox="0 0 512 512" width="512" xmlns="http://www.w3.org/2000/svg"><g><g><g><g><g><g><g><g><g><g><g><g><g><g><g><g><g><g><g><g><g><g><circle cx="256" cy="256" fill="#c38778" r="256"/></g></g></g></g></g></g></g></g></g></g></g></g></g></g></g></g></g></g></g></g></g><path d="m257.916 511.993c113.095-.829 208.746-74.993 241.761-177.298l-217.029-217.028-126.547 64.646 39.552 39.552-9.708 3.029 79.645 79.645-75.182 139.945z" fill="#a65d4e"/><g><path d="m302.375 195.471c0-11.009-4.898-20.874-12.633-27.536 2.734-5.97 4.258-12.609 4.258-19.605 0-26.035-21.105-47.14-47.141-47.14-3.037 0-6.007.287-8.885.836-10.108-18.526-29.763-31.094-52.354-31.094-32.917 0-59.601 26.684-59.601 59.601 0 28.142 19.504 51.728 45.732 57.979-.017.539-.027 1.079-.027 1.622 0 25.869 19.795 47.115 45.064 49.417 0 .069-.001.138-.001.207 0 21.322 17.284 38.606 38.606 38.606s38.606-17.285 38.606-38.606c0-6.11-1.42-11.888-3.947-17.023 7.556-6.656 12.323-16.404 12.323-27.264z" fill="#fff"/></g><g><path d="m302.375 195.47c0-11.009-4.898-20.874-12.633-27.536 2.734-5.97 4.258-12.609 4.258-19.605 0-23.031-16.521-42.193-38.356-46.31v176.339c21.206-.136 38.356-17.362 38.356-38.6 0-6.11-1.42-11.888-3.947-17.023 7.555-6.656 12.322-16.403 12.322-27.265z" fill="#e9edf5"/></g><g><path d="m349.724 250c0 62.773-41.962 113.661-93.724 113.661s-93.724-50.888-93.724-113.661z" fill="#ffc247"/></g><g><path d="m255.644 250v113.656c.119 0 .237.005.356.005 51.762 0 93.724-50.888 93.724-113.661z" fill="#ffa426"/></g><g><path d="m190.408 444.484c0-43.932 29.367-79.545 65.592-79.545s65.592 35.614 65.592 79.545z" fill="#ffc247"/></g><g><path d="m256 364.939c-.119 0-.237.01-.356.011v79.534h65.948c0-43.931-29.366-79.545-65.592-79.545z" fill="#ffa426"/></g><g><path d="m209.625 348.793h92.749v39.337h-92.749z" fill="#ffb13b"/></g><g><path d="m255.644 348.793h46.731v39.337h-46.731z" fill="#ff9500"/></g></g></svg>