<svg id="Capa_1" enable-background="new 0 0 512 512" height="512" viewBox="0 0 512 512" width="512" xmlns="http://www.w3.org/2000/svg"><g><g><g><g><g><g><circle cx="256" cy="256" fill="#ff9500" r="256"/></g></g></g></g></g><path d="m506.107 310.864-127.243-127.242-9.543 14.968-92.47-92.47-193.509 222.933 36.635 36.635-8.81 8.314 137.906 137.906c2.302.061 4.611.092 6.927.092 122.552 0 224.992-86.115 250.107-201.136z" fill="#fe6a16"/><g><circle cx="256" cy="128.369" fill="#cdd2e1" r="30.501"/></g><g><path d="m256 97.868c-.119 0-.237.008-.356.009v60.983c.119.001.237.009.356.009 16.845 0 30.5-13.656 30.5-30.5s-13.655-30.501-30.5-30.501z" fill="#afb4c8"/></g><g><g><g><g><g><path d="m81.998 306.831c0-96.099 77.903-174.002 174.002-174.002s174.002 77.903 174.002 174.002z" fill="#e9edf5"/></g></g></g></g></g><g><g><g><g><g><path d="m256 132.829c-.119 0-.237.004-.356.004v173.998h174.358c0-96.099-77.903-174.002-174.002-174.002z" fill="#cdd2e1"/></g></g></g></g></g><g><path d="m111.167 329.053h289.667v44.949h-289.667z" fill="#e9edf5"/></g><g><path d="m255.644 329.053h145.189v44.949h-145.189z" fill="#cdd2e1"/></g><g><path d="m391.864 341.624h-271.728c-33.212 0-60.136-26.924-60.136-60.136v-2.649h392v2.649c0 33.212-26.924 60.136-60.136 60.136z" fill="#fff"/></g><g><path d="m255.644 278.839v62.785h136.22c33.212 0 60.136-26.924 60.136-60.136v-2.649z" fill="#e9edf5"/></g></g></svg>