<svg id="Capa_1" enable-background="new 0 0 512 512" height="512" viewBox="0 0 512 512" width="512" xmlns="http://www.w3.org/2000/svg"><g><g><g><g><g><g><g><path d="m271.342.452c134.242 7.935 240.658 119.314 240.658 255.548 0 141.385-114.615 256-256 256s-256-114.615-256-256c0-136.46 106.77-247.983 241.327-255.586z" fill="#c38778"/></g></g></g></g></g></g><path d="m511.549 240.674-240.223-240.222-8.28 240.88-125.113 116.453 71.776 70.072-5.531 4.127 78.63 78.629c128.785-13.401 229.192-122.281 229.192-254.613 0-5.146-.152-10.255-.451-15.326z" fill="#a65d4e"/><g><path d="m241.326 350.502h30v106.534h-30z" fill="#ffb13b"/></g><g><path d="m256.312 350.502h15.014v106.534h-15.014z" fill="#ff9500"/></g><g><path d="m308.473 431.984h-104.295l-33.947-84.782h172.19z" fill="#ffc247"/></g><g><path d="m342.42 347.202h-86.108v84.781h52.162z" fill="#ffa426"/></g><g><path d="m271.326.452c-5.071-.3-10.18-.452-15.326-.452-4.925 0-9.818.139-14.674.414v350.088h30z" fill="#ffc247"/></g><g><path d="m271.326.452c-4.968-.293-9.974-.443-15.014-.449v350.5h15.014z" fill="#ffa426"/></g><g><ellipse cx="256.326" cy="129.388" fill="#ffb13b" rx="26.063" ry="26.063" transform="matrix(.16 -.987 .987 .16 87.55 361.678)"/></g><g><path d="m256.326 103.325c-.005 0-.009 0-.014 0v52.125h.014c14.394 0 26.063-11.668 26.063-26.062s-11.669-26.063-26.063-26.063z" fill="#ff9500"/></g><g><circle cx="256.326" cy="201.905" fill="#ffc247" r="66.806"/></g><g><path d="m256.326 135.099c-.005 0-.009 0-.014 0v133.611h.014c36.896 0 66.806-29.91 66.806-66.806s-29.91-66.805-66.806-66.805z" fill="#ffa426"/></g><g><path d="m307.555 384.688h-102.458c-53.732 0-97.29-43.558-97.29-97.289 0-53.732 43.558-97.29 97.29-97.29h102.458c53.732 0 97.289 43.558 97.289 97.29 0 53.731-43.558 97.289-97.289 97.289z" fill="#ff9500"/></g><g><path d="m307.555 190.109h-51.243v194.579h51.243c53.732 0 97.289-43.558 97.289-97.29 0-53.731-43.558-97.289-97.289-97.289z" fill="#fe6a16"/></g></g></svg>