<svg id="Capa_1" enable-background="new 0 0 512 512" height="512" viewBox="0 0 512 512" width="512" xmlns="http://www.w3.org/2000/svg"><g><g><g><g><g><g><g><path d="m492.258 157.247c12.717 30.388 19.742 63.75 19.742 98.753 0 141.385-114.615 256-256 256-39.608 0-77.116-8.995-110.591-25.054l-100.187-85.617c-28.519-41.284-45.222-91.356-45.222-145.329 0-141.385 114.615-256 256-256 57.961 0 111.422 19.262 154.333 51.734z" fill="#7584f2"/></g></g></g></g></g></g><path d="m512 256c0-35.003-7.025-68.365-19.742-98.753l-46.684-60.125-69.584-5.79 66.334 40.407-205.711 149.881 32.768 32.66-189.771 116.437 65.799 56.229c33.475 16.059 70.983 25.054 110.591 25.054 141.385 0 256-114.615 256-256z" fill="#4253ce"/><g><g><path d="m365.655 317.66-83.308 33.73h-72.86l55.581-22.559c3.097-1.257 5.38-3.952 6.112-7.213 1.642-7.322-4.923-13.848-12.235-12.162l-105.935 24.429c-17.42 4.017-32.97 13.807-44.123 27.778l-38.067 47.687 66.546 66.546 36.634-75.646h92.173c12.864 0 25.415-3.965 35.944-11.356l74.025-51.962c1.707-1.199 3.04-2.856 3.844-4.781 3.783-9.052-5.237-18.172-14.331-14.491z" fill="#ffcdbe"/></g></g><g><g><path d="m365.655 317.661-80.35 32.532v47.055c5.958-1.914 11.631-4.717 16.812-8.354l74.025-51.962c1.707-1.198 3.04-2.856 3.844-4.78 3.783-9.052-5.237-18.173-14.331-14.491z" fill="#ffbeaa"/></g></g><g><g><path d="m45.222 401.329c25.257 36.562 59.781 66.23 100.178 85.612l32.144-46.966-108.124-74.002z" fill="#fff"/></g></g><g><circle cx="285.086" cy="233.863" fill="#ffc247" r="68.047"/></g><g><path d="m353.132 233.863c0-37.507-30.348-67.922-67.827-68.041v136.082c37.48-.119 67.827-30.533 67.827-68.041z" fill="#ffa426"/></g><g><circle cx="285.086" cy="233.863" fill="#ffb13b" r="41.201"/></g><g><path d="m326.286 233.863c0-22.681-18.328-41.076-40.981-41.195v82.39c22.653-.119 40.981-18.514 40.981-41.195z" fill="#ff9500"/></g><g><path d="m373.652 142.42h-92.173c-3.773 0-7.519.341-11.196 1.01-14.293 2.6-24.057 13.229-34.077 28.055-6.593 9.756-15.638 40.507-15.638 40.507.029-.026.059-.051.088-.077 9.131-26.812 34.528-46.098 64.429-46.098 21.143 0 40.034 9.643 52.515 24.771l-.034.007c.203.225.402.453.599.686l-55.267 22.432c-3.208 1.302-5.71 4.035-6.442 7.419-1.578 7.29 4.967 13.763 12.252 12.083l105.935-24.428c17.42-4.017 32.97-13.807 44.123-27.779l28.209-35.369-51.475-52.779z" fill="#ffcdbe"/></g><g><path d="m415.5 92.86-41.849 49.56h-88.346v23.402c21.054.067 39.858 9.689 52.295 24.765l-.034.007c.203.225.402.454.599.687l-52.86 21.455v20.669c1.097.119 2.238.079 3.403-.19l105.935-24.428c17.42-4.017 32.97-13.808 44.123-27.779l28.209-35.368z" fill="#ffbeaa"/></g><g><path d="m492.258 157.248c-17.592-42.038-46.077-78.386-81.925-105.514l-34.343 39.597 98.982 85.847z" fill="#e9edf5"/></g></g></svg>