<svg id="Capa_1" enable-background="new 0 0 512 512" height="512" viewBox="0 0 512 512" width="512" xmlns="http://www.w3.org/2000/svg"><g><g><g><g><g><g><path d="m.974 278.482c11.385 130.856 121.217 233.518 255.026 233.518 133.81 0 243.642-102.663 255.027-233.52l.671-35.027c-2.051-42.492-14.461-82.266-34.761-116.851l-16.862-25.188c-46.749-61.618-120.764-101.414-204.075-101.414s-157.326 39.796-204.075 101.415l-16.862 25.187c-20.299 34.585-32.71 74.359-34.761 116.851z" fill="#1dd882"/></g></g></g></g></g><path d="m178.859 500.173c24.343 7.683 50.258 11.827 77.141 11.827 133.81 0 243.642-102.663 255.027-233.521l.671-35.026c-2.051-42.492-14.461-82.266-34.76-116.85h-.001l-40.944 9.686-23.852-23.852-85.105 49.627-25.737-25.736-97.596 17.071-16.586-16.586-152.054-10.211 82.301 82.301-49.716 18.839 72.937 72.937-139.612-22.218v.001l89.42 89.419-22.746 21.079z" fill="#20b76f"/><g><path d="m256 144.344c-74.017 0-144.533-15.015-204.075-42.93-6.098 8.038-11.732 16.447-16.862 25.187 64.415 31.029 140.869 47.743 220.937 47.743s156.522-16.714 220.937-47.742c-5.13-8.741-10.764-17.15-16.862-25.188-59.542 27.916-130.058 42.93-204.075 42.93z" fill="#fff"/></g><g><path d="m256 144.344v30c80.068 0 156.522-16.714 220.937-47.742-5.13-8.741-10.764-17.15-16.862-25.188-59.542 27.916-130.058 42.93-204.075 42.93z" fill="#e9edf5"/></g><g><path d="m.302 243.453c-.2 4.157-.302 8.34-.302 12.547 0 7.568.329 15.06.972 22.461 72.405 37.277 161.391 57.513 255.028 57.513s182.622-20.236 255.027-57.513c.644-7.401.973-14.893.973-22.461 0-4.206-.102-8.389-.302-12.546-70.302 40.421-160.262 62.52-255.697 62.52s-185.397-22.099-255.699-62.521z" fill="#fff"/></g><g><path d="m256 335.974c93.637 0 182.622-20.236 255.027-57.513.644-7.401.973-14.893.973-22.461 0-4.206-.102-8.389-.302-12.546-70.302 40.421-160.262 62.52-255.697 62.52v30z" fill="#e9edf5"/></g><g><path d="m301.299 256.047-45.299-24.832-45.299 24.832v-119.72h90.598z" fill="#ffc247"/></g><g><path d="m301.299 256.047-45.299-24.832v-94.888h45.299z" fill="#ffa426"/></g><g><g><path d="m444.353 227.741-50.31-11.728-36.948 36.104-32.212-115.305 87.258-24.375z" fill="#606aea"/></g><g><path d="m67.647 227.741 50.31-11.728 36.948 36.104 32.212-115.305-87.258-24.375z" fill="#7584f2"/></g></g><g><path d="m301.299 418.508-45.299-24.832-45.299 24.832v-119.72h90.598z" fill="#7584f2"/></g><g><path d="m301.299 418.508-45.299-24.832v-94.888h45.299z" fill="#606aea"/></g><g><g><path d="m444.353 388.961-50.31-11.728-36.948 36.103-32.212-115.304 87.258-24.375z" fill="#ffa426"/></g><g><path d="m67.647 388.961 50.31-11.728 36.948 36.103 32.212-115.304-87.258-24.375z" fill="#ffc247"/></g></g></g></svg>