<svg id="Capa_1" enable-background="new 0 0 512 512" height="512" viewBox="0 0 512 512" width="512" xmlns="http://www.w3.org/2000/svg"><g><g><g><g><g><g><g><circle cx="256" cy="256" fill="#7584f2" r="256"/></g></g></g></g></g></g><path d="m498.363 338.655-278.396-278.396-35.581 19.733-27.046 38.737 31.356 115.254-49.224 167.305 110.646 110.646c1.956.044 3.917.066 5.884.066 112.46 0 207.985-72.519 242.361-173.345z" fill="#4253ce"/><g><path d="m325.603 281.896h30v76.752h-30z" fill="#e9edf5"/></g><g><path d="m340.602 316.475-27.632 20.864v50.352l27.632 20.864 27.632-20.864v-50.352z" fill="#fe6a16"/></g><g><path d="m241 281.896h30v102.477h-30z" fill="#fff"/></g><g><path d="m256 281.896h15v102.477h-15z" fill="#e9edf5"/></g><g><path d="m256 364.055-27.632 20.865v50.352l27.632 20.864 27.632-20.864v-50.352z" fill="#ff9500"/></g><g><path d="m256 364.055v92.081l27.632-20.864v-50.352z" fill="#fe6a16"/></g><g><path d="m152.102 227.98h30v122.408h-30z" fill="#fff"/></g><g><path d="m167.103 330.072-27.632 20.864v50.352l27.632 20.864 27.632-20.864v-50.352z" fill="#ff9500"/></g><g><g><path d="m294.161 274.475c-66.259 0-119.973-53.714-119.973-119.973 0-38.24 17.912-72.274 45.779-94.243-55.744 16.702-96.371 68.384-96.371 129.564 0 74.693 60.551 135.244 135.244 135.244 61.18 0 112.862-40.627 129.564-96.37-21.969 27.866-56.004 45.778-94.243 45.778z" fill="#ffc247"/></g></g><g><g><path d="m294.161 274.475c-13.473 0-26.427-2.222-38.517-6.317l.356 56.876c1.063.024 1.772.033 2.84.033 61.18 0 112.862-40.627 129.564-96.371-21.969 27.867-56.004 45.779-94.243 45.779z" fill="#ffa426"/></g></g></g></svg>