<svg id="Capa_1" enable-background="new 0 0 512 512" height="512" viewBox="0 0 512 512" width="512" xmlns="http://www.w3.org/2000/svg"><g><g><g><g><g><g><g><g><circle cx="256" cy="256" fill="#ffc247" r="256"/></g></g></g></g></g></g></g><path d="m512 256c0-19.691-2.223-38.862-6.432-57.277l-114.386-114.386-270.364 343.326 77.905 77.905c18.415 4.209 37.586 6.432 57.277 6.432 141.385 0 256-114.615 256-256z" fill="#ffa426"/><g><path d="m211.083 458.117-18.244-10-18.245 10v-49.52h36.489z" fill="#fff"/></g><g><path d="m157.791 84.337h233.391v343.326h-233.391z" fill="#c38778"/></g><g><path d="m274.486 84.337h116.696v343.326h-116.696z" fill="#a65d4e"/></g><g><path d="m120.818 84.337h41.054v343.326h-41.054z" fill="#b46e5a"/></g><g><path d="m330.44 388.796h-111.907c0-16.668-13.512-30.18-30.18-30.18v-205.232c16.668 0 30.18-13.512 30.18-30.18h111.907c0 16.668 13.512 30.18 30.18 30.18v205.232c-16.668 0-30.18 13.512-30.18 30.18z" fill="#b46e5a"/></g><g><path d="m330.44 388.796h-55.953v-265.592h55.953c0 16.668 13.512 30.18 30.18 30.18v205.232c-16.668 0-30.18 13.512-30.18 30.18z" fill="#915041"/></g><g><path d="m335.304 256-54.933-54.933 20.651-20.651-26.535-26.535-26.536 26.535 20.651 20.651-54.933 54.933 54.933 54.933-20.651 20.651 26.536 26.535 26.535-26.535-20.651-20.651z" fill="#c38778"/></g><g><path d="m335.304 256-54.933-54.933 20.651-20.651-26.535-26.535v204.238l26.535-26.535-20.651-20.651z" fill="#a65d4e"/></g></g></svg>