<svg id="Capa_1" enable-background="new 0 0 512 512" height="512" viewBox="0 0 512 512" width="512" xmlns="http://www.w3.org/2000/svg"><g><g><g><g><g><g><g><ellipse cx="256" cy="256" fill="#1dd882" rx="256" ry="256" transform="matrix(.707 -.707 .707 .707 -106.039 256)"/></g></g></g></g></g></g><path d="m511.928 262.11-164.037-164.037-5.625 43.185-71.266-70.551-26.327 76.235-50.564-48.868-30 57.614 143.835 143.835-232.738 7.327 46.771 46.771-44.977 13.084 142.748 142.748c11.842 1.678 23.946 2.547 36.252 2.547 139.342 0 252.682-111.327 255.928-249.89z" fill="#20b76f"/><g><path d="m363.596 228.223c-.04 0-.081.001-.121.001-16.486-27.608-46.659-46.096-81.152-46.096-34.492 0-64.665 18.489-81.152 46.096-.04 0-.081-.001-.121-.001-39.435 0-71.404 31.969-71.404 71.405 0 39.435 31.969 71.404 71.404 71.404 13.794 0 26.674-3.912 37.593-10.686 13.063 6.826 27.921 10.686 43.68 10.686 15.76 0 30.617-3.86 43.68-10.686 10.918 6.774 23.799 10.686 37.593 10.686 39.436 0 71.404-31.969 71.404-71.404 0-39.436-31.969-71.405-71.404-71.405z" fill="#fff"/></g><g><path d="m363.596 228.223c-.041 0-.081 0-.121 0-16.486-27.607-46.659-46.096-81.152-46.096-9.267 0-18.217 1.346-26.679 3.833v181.24c8.461 2.487 17.412 3.831 26.679 3.831 15.76 0 30.618-3.86 43.68-10.686 10.918 6.774 23.799 10.686 37.593 10.686 39.436 0 71.404-31.969 71.404-71.404s-31.969-71.404-71.404-71.404z" fill="#e9edf5"/></g><g><g><path d="m185.911 333.653-11.018 15.273c-7.958 11.031-23.352 13.523-34.383 5.565l-61.845-44.614c-11.031-7.958-13.523-23.352-5.565-34.383l11.018-15.273c7.958-11.031 23.352-13.523 34.383-5.565l61.845 44.614c11.032 7.958 13.523 23.352 5.565 34.383z" fill="#c38778"/></g><g><g><path d="m75.709 274.275h51.316v20h-51.316z" fill="#a65d4e" transform="matrix(.231 -.973 .973 .231 -198.635 317.231)"/></g><g><path d="m131.987 314.873h51.316v20h-51.316z" fill="#a65d4e" transform="matrix(.231 -.973 .973 .231 -194.858 403.205)"/></g><g><path d="m103.848 294.574h51.316v20h-51.316z" fill="#a65d4e" transform="matrix(.231 -.973 .973 .231 -196.747 360.219)"/></g></g></g><g><g><path d="m264.378 333.653-11.018 15.273c-7.958 11.031-23.352 13.523-34.383 5.565l-61.844-44.614c-11.031-7.958-13.523-23.352-5.565-34.383l11.018-15.273c7.958-11.031 23.352-13.523 34.383-5.565l61.845 44.614c11.03 7.958 13.522 23.352 5.564 34.383z" fill="#b46e5a"/></g><g><path d="m258.813 299.27-3.169-2.286v48.777l8.734-12.107c7.958-11.032 5.466-26.426-5.565-34.384z" fill="#915041"/></g><g><g><path d="m154.176 274.275h51.316v20h-51.316z" fill="#a65d4e" transform="matrix(.231 -.973 .973 .231 -138.295 393.576)"/></g><g><path d="m210.454 314.873h51.316v20h-51.316z" fill="#a65d4e" transform="matrix(.231 -.973 .973 .231 -134.518 479.55)"/></g><g><path d="m182.315 294.574h51.316v20h-51.316z" fill="#a65d4e" transform="matrix(.231 -.973 .973 .231 -136.406 436.564)"/></g></g></g><g><path d="m391.864 384.947h-271.728c-33.212 0-60.136-26.924-60.136-60.136v-2.649h392v2.649c0 33.212-26.924 60.136-60.136 60.136z" fill="#ffc247"/></g><g><path d="m255.644 322.162v62.785h136.22c33.212 0 60.136-26.924 60.136-60.136v-2.649z" fill="#ffa426"/></g><g><path d="m241 70.707h30v79.493h-30z" fill="#fff"/></g><g><path d="m255.644 70.707h15.356v79.493h-15.356z" fill="#e9edf5"/></g><g><g><path d="m164.109 98.073h30v57.614h-30z" fill="#fff"/></g><g><path d="m317.891 98.073h30v57.614h-30z" fill="#e9edf5"/></g></g><g><ellipse cx="378.411" cy="278.073" fill="#fe6a16" rx="9.937" ry="9.937" transform="matrix(.23 -.973 .973 .23 20.836 582.473)"/></g><g><ellipse cx="310.646" cy="304.574" fill="#fe6a16" rx="9.937" ry="9.937" transform="matrix(.707 -.707 .707 .707 -124.38 308.868)"/></g><g><ellipse cx="290.773" cy="230.945" fill="#fe6a16" rx="9.937" ry="9.937" transform="matrix(.16 -.987 .987 .16 16.233 480.97)"/></g><g><circle cx="216.472" cy="250" fill="#ff9500" r="9.937"/></g></g></svg>