<svg id="Capa_1" enable-background="new 0 0 512 512" height="512" viewBox="0 0 512 512" width="512" xmlns="http://www.w3.org/2000/svg"><g><g><g><g><g><g><g><g><circle cx="256" cy="256" fill="#ffc247" r="256"/></g></g></g></g></g></g></g><path d="m512 256c0-25.43-3.708-49.994-10.613-73.181l-75.307-75.533-18.121 27.675-61.315-61.315-17.959 158.735-219.821 4.259-31.458 66.231 60.377 60.376-12.606 69.226 72.958 72.958c18.594 4.298 37.964 6.569 57.865 6.569 141.385 0 256-114.615 256-256z" fill="#ffa426"/><g><path d="m97.406 302.872h-20v-45.387l49.058-47.149 13.858 14.42-42.916 41.246z" fill="#b46e5a"/></g><g><path d="m415.745 99.75c-4.879-2.389-10.363-3.73-16.162-3.73h-16.285c-6.005-8.107-15.641-13.363-26.505-13.363-1.64 0-3.252.12-4.828.352-2.438-9.126-10.763-15.847-20.658-15.847v27.552c-4.672 5.689-7.477 12.97-7.477 20.906v96.622l-24.887-24.887c-14.3-14.3-37.485-14.3-51.786 0l-23.897 23.897-23.897-23.897c-14.3-14.3-37.486-14.3-51.786 0l-29.884 29.883c-13.499 13.499-18.499 33.319-13.018 51.606l6.822 22.759c3.57 11.69 12.616 20.201 23.468 23.58v8.011 16.306c-5.754 2.445-9.789 8.148-9.789 14.795v78.18h41.86v-9.307c0-8.779-5.967-16.165-14.067-18.323v-47.986h7.479c10.16 0 18.397-8.237 18.397-18.397v-1.809c0-7.433 6.025-13.458 13.458-13.458h76.152c7.433 0 13.458 6.025 13.458 13.458 0 11.302 9.162 20.464 20.464 20.464h.072v75.358h41.86v-9.307c0-8.188-5.191-15.164-12.461-17.817v-78.609c0-13.492 11.092-24.185 24.582-24.039.121.001.241.002.362.002 18.205 0 32.962-14.758 32.962-32.962v-122.052h23.628z" fill="#c38778"/></g><g><path d="m268.456 323.194c7.433 0 13.458 6.025 13.458 13.458 0 11.302 9.162 20.464 20.464 20.464h.072v75.358h41.86v-9.307c0-8.188-5.191-15.164-12.461-17.817v-78.609c0-13.492 11.092-24.185 24.582-24.039.121.001.241.002.362.002 18.205 0 32.962-14.758 32.962-32.962v-122.051h23.628l2.361-47.941c-4.879-2.389-10.363-3.73-16.162-3.73h-16.285c-6.005-8.107-15.641-13.363-26.505-13.363-1.64 0-3.252.12-4.828.352-2.438-9.126-10.763-15.847-20.658-15.847v27.552c-4.672 5.689-7.477 12.97-7.477 20.906v96.622l-24.887-24.887c-14.3-14.3-37.485-14.3-51.786 0l-23.897 23.897v111.943h45.197z" fill="#b46e5a"/></g><g><ellipse cx="364.568" cy="113.016" fill="#414952" rx="7.523" ry="7.523" transform="matrix(.231 -.973 .973 .231 170.563 441.718)"/></g><g><path d="m404.558 124.895c0 8.78 3.343 16.78 8.826 22.796h8.119c8.054 0 14.785-6.407 14.873-14.46.162-14.699-8.296-27.439-20.632-33.48-6.868 6.196-11.186 15.165-11.186 25.144z" fill="#915041"/></g><g><path d="m436.376 132.394c-.053-4.756-1.009-9.295-2.703-13.454l-6.88-4.25-5.269 8.53z" fill="#784132"/></g></g></svg>