<svg id="Capa_1" enable-background="new 0 0 512 512" height="512" viewBox="0 0 512 512" width="512" xmlns="http://www.w3.org/2000/svg"><g><g><g><g><g><g><g><circle cx="256" cy="256" fill="#c38778" r="256"/></g></g></g></g></g></g><path d="m511.526 271.699-70.586-70.585-400.955 125.482 183.338 183.338c10.7 1.363 21.606 2.066 32.677 2.066 136.113 0 247.416-106.228 255.526-240.301z" fill="#a65d4e"/><g><path d="m472.015 326.596h-37.991l-9.066-29.746h24.581c12.413 0 22.476 10.063 22.476 22.476z" fill="#ffbeaa"/></g><g><path d="m81.66 326.596h-41.675v-17.528c0-17.749 14.389-32.138 32.138-32.138h51.211z" fill="#ffcdbe"/></g><g><ellipse cx="395.342" cy="236.005" fill="#ffbeaa" rx="57.418" ry="57.418" transform="matrix(.707 -.707 .707 .707 -51.088 348.674)"/></g><g><path d="m345.774 207.016s-89.972-118.066-166.201-87.869c-89.537 35.468-30.22 127.133-30.22 127.133h-37.53l-30.163 80.316h128.355c19.605 0 35.213-16.416 34.225-35.996-.49-9.71 12.226-13.757 17.439-5.55l16.289 25.649c6.287 9.9 17.2 15.897 28.928 15.897h127.129v-44.262h-88.846z" fill="#fff"/></g><g><path d="m345.177 282.334.596-75.318s-40.475-53.108-90.13-78.976v152.786c2.309.458 4.498 1.806 6.034 4.224l16.289 25.649c6.287 9.899 17.2 15.897 28.928 15.897h127.129v-44.262z" fill="#e9edf5"/></g></g></svg>