<svg id="Capa_1" enable-background="new 0 0 512 512" height="512" viewBox="0 0 512 512" width="512" xmlns="http://www.w3.org/2000/svg"><g><g><g><g><g><g><g><circle cx="256" cy="256" fill="#7584f2" r="256"/></g></g></g></g></g></g><path d="m512 256c0-3.549-.072-7.081-.215-10.595l-98.185-98.186-361.724 194.264 167.986 167.986c11.806 1.668 23.871 2.531 36.138 2.531 141.385 0 256-114.615 256-256z" fill="#4253ce"/><g><g><path d="m460.124 341.483h-114.406l16.532-141.37h97.874l-27.113 70.685z" fill="#fe8205"/></g><g><path d="m51.876 341.483h114.406l-19.054-141.37h-95.352l27.113 70.685z" fill="#ffa426"/></g></g><g><path d="m413.599 285.119-67.881 56.364v-127.898z" fill="#fa5d0f"/></g><g><path d="m98.401 285.119 67.881 56.364v-127.898z" fill="#fe8205"/></g><g><path d="m98.488 147.22h315.111v137.899h-315.111z" fill="#ffc247"/></g><g><path d="m413.599 285.119h-157.599l.044-137.899h157.555z" fill="#ffa426"/></g><g><path d="m138.883 201.113v-13.83h-15.559v13.83h-7.014v-32.945h7.014v12.941h15.559v-12.941h7.063v32.945z" fill="#636978"/><path d="m175.139 201.113-2.025-5.582h-14.126l-2.074 5.582h-8.002l12.744-32.945h8.792l12.694 32.945zm-9.089-25.931-5.137 14.176h10.274z" fill="#636978"/><path d="m186.204 201.113v-32.945h15.411c7.162 0 11.064 4.84 11.064 10.619 0 5.73-3.951 10.62-11.064 10.62h-8.397v11.706zm19.313-22.325c0-2.766-2.074-4.445-4.84-4.445h-7.458v8.891h7.458c2.765-.001 4.84-1.73 4.84-4.446z" fill="#636978"/><path d="m217.027 201.113v-32.945h15.411c7.162 0 11.064 4.84 11.064 10.619 0 5.73-3.952 10.62-11.064 10.62h-8.396v11.706zm19.312-22.325c0-2.766-2.074-4.445-4.84-4.445h-7.458v8.891h7.458c2.766-.001 4.84-1.73 4.84-4.446z" fill="#636978"/><path d="m256.131 201.113v-13.484l-12.694-19.46h8.002l8.199 13.237 8.101-13.237h8.001l-12.595 19.46v13.484z" fill="#636978"/><path d="m259.638 181.406-3.603-5.818-.004 11.887.1.154v13.484h7.014v-13.484l12.595-19.461h-8.001z" fill="#555a66"/><g fill="#636978"><path d="m314.778 201.113-15.707-21.486v21.486h-7.014v-32.945h7.212l15.262 20.695v-20.695h7.014v32.945z"/><path d="m328.066 201.113v-32.945h23.314v6.174h-16.3v6.964h15.954v6.174h-15.954v7.458h16.3v6.174h-23.314z"/><path d="m382.055 201.113-5.779-22.622-5.729 22.622h-7.458l-9.434-32.945h7.853l5.779 23.807 6.273-23.807h5.482l6.224 23.807 5.729-23.807h7.902l-9.385 32.945z"/><path d="m152.937 260.388v-13.83h-15.559v13.83h-7.014v-32.945h7.014v12.941h15.559v-12.941h7.063v32.945z"/><path d="m166.472 260.388v-32.945h7.014v32.945z"/><path d="m177.042 257.771 3.062-5.384c1.284 1.235 2.963 2.371 5.235 2.371 3.112 0 5.137-2.074 5.137-5.285v-22.029h7.014v22.128c0 7.804-4.841 11.41-11.607 11.41-3.309-.001-6.47-.89-8.841-3.211z"/><path d="m222.632 260.388-6.47-11.706h-5.137v11.706h-7.014v-32.945h15.411c6.866 0 11.064 4.495 11.064 10.619 0 5.829-3.655 8.94-7.211 9.78l7.409 12.546zm.692-22.326c0-2.766-2.124-4.445-4.939-4.445h-7.359v8.891h7.359c2.815 0 4.939-1.679 4.939-4.446z"/><path d="m235.773 260.388v-32.945h7.014v32.945z"/><path d="m271.139 260.388v-13.484l-12.694-19.46h8.002l8.199 13.237 8.101-13.237h8.001l-12.595 19.46v13.484z"/><path d="m293.81 260.388v-32.945h23.314v6.174h-16.3v6.964h15.954v6.174h-15.954v7.458h16.3v6.174h-23.314z"/><path d="m345.329 260.388-2.025-5.582h-14.126l-2.074 5.582h-8.002l12.743-32.945h8.792l12.694 32.945zm-9.088-25.931-5.137 14.176h10.273z"/><path d="m375.016 260.388-6.471-11.706h-5.137v11.706h-7.014v-32.945h15.411c6.865 0 11.063 4.495 11.063 10.619 0 5.829-3.655 8.94-7.211 9.78l7.408 12.546zm.691-22.326c0-2.766-2.124-4.445-4.939-4.445h-7.359v8.891h7.359c2.815 0 4.939-1.679 4.939-4.446z"/></g></g></g></svg>