<svg id="Capa_1" enable-background="new 0 0 512 512" height="512" viewBox="0 0 512 512" width="512" xmlns="http://www.w3.org/2000/svg"><g><g><g><g><g><g><g><circle cx="256" cy="256" fill="#c38778" r="256"/></g></g></g></g></g></g><path d="m290.081 509.751c125.273-16.665 221.919-123.921 221.919-253.751 0-8.321-.397-16.549-1.173-24.667l-48.658-48.658-68.979 64.606-53.796-53.796-7.244 9.089-46.346-46.346-34.561 135.121-104.464-104.464-69.779-2.244-25.872 86.158 6.828 7.511z" fill="#a65d4e"/><g><g><g><path d="m227.814 321.513h80.796v44.959h-80.796z" fill="#ffb13b"/></g></g><g><g><path d="m266.661 321.513h41.949v44.959h-41.949z" fill="#ff9500"/></g></g><g><g><path d="m250.619 156.228h35.185v42.136h-35.185z" fill="#ffc247"/></g></g><g><g><path d="m266.661 156.229h19.143v42.136h-19.143z" fill="#ffa426"/></g></g><g><g><path d="m310.993 260.015h-85.563c-21.723 0-39.334-17.61-39.334-39.334 0-21.724 17.61-39.334 39.334-39.334h85.562c21.723 0 39.334 17.61 39.334 39.334.001 21.724-17.61 39.334-39.333 39.334z" fill="#ffb13b"/></g></g><g><g><path d="m310.993 181.348h-44.332v78.668h44.332c21.723 0 39.334-17.611 39.334-39.334 0-21.724-17.611-39.334-39.334-39.334z" fill="#ff9500"/></g></g><g><g><path d="m310.993 353.458h-85.563c-19.184 0-35.152 13.737-38.625 31.91h162.812c-3.472-18.172-19.44-31.91-38.624-31.91z" fill="#ffc247"/></g></g><g><g><path d="m310.993 353.458h-44.332v31.91h82.956c-3.472-18.172-19.44-31.91-38.624-31.91z" fill="#ffa426"/></g></g><g><path d="m462.169 182.675-82.392 29.536h-215.72l-6.103-10.135c-11.886-22.483-35.871-35.718-61.254-33.772-35.047 2.692-61.371 33.395-58.68 68.443 2.564 33.396 30.56 58.869 63.516 58.869 1.63 0 3.275-.062 4.927-.189l-2.68-34.897c-15.816 1.214-29.651-10.658-30.866-26.462-1.213-15.806 10.658-29.652 26.463-30.866 11.553-.883 22.447 5.191 27.764 15.483l66.719 116.366h148.697l17.173-30.133c10.995-19.293 26.084-35.942 44.205-48.775l58.23-41.239v-32.229z" fill="#ffc247"/></g><g><path d="m379.777 212.211h-113.116v122.84h75.899l17.172-30.133c10.995-19.292 26.084-35.941 44.206-48.775l58.23-41.239v-32.228z" fill="#ffa426"/></g></g></g></svg>