<svg id="Capa_1" enable-background="new 0 0 512 512" height="512" viewBox="0 0 512 512" width="512" xmlns="http://www.w3.org/2000/svg"><g><g><g><g><g><g><g><circle cx="256" cy="256" fill="#ffc247" r="256"/></g></g></g></g></g></g><path d="m280.938 510.801c129.682-12.537 231.062-121.829 231.062-254.801 0-22.06-2.791-43.468-8.037-63.891l-116.011-116.012-121.775 54.832-33.177-33.177-108.952-21.655 77.291 77.291-124.339 4.864 66.797 66.797-11.478 14.254 138.792 138.792-65.66 57.218z" fill="#ffa426"/><g><path d="m306.549 435.314h-101.098l31.421-292.457h38.256z" fill="#c38778"/></g><g><path d="m275.128 142.857h-19.484v292.457h50.905z" fill="#a65d4e"/><path d="m236.872 142.857-31.421 292.457h50.193v-292.457z" fill="#c38778"/></g><g><g><path d="m212.972 82.867c-29.904-17.415-63.836-18.985-88.924-6.769l138.701 80.774c-1.76-27.851-19.873-56.59-49.777-74.005z" fill="#2cc47f"/></g><g><path d="m299.028 82.867c29.904-17.415 63.836-18.985 88.924-6.769l-138.701 80.774c1.76-27.851 19.873-56.59 49.777-74.005z" fill="#2cc47f"/></g><path d="m387.952 76.097c-25.088-12.216-59.02-10.646-88.924 6.77-20.179 11.751-34.989 28.66-43.028 46.972-.113-.257-.24-.51-.356-.767v24.077l.356-.207 6.749 3.93c-.155-2.453-.438-4.912-.843-7.37z" fill="#0a9154"/><g><g><path d="m335.743 161.697c28.478 19.661 44.327 49.704 43.938 77.606l-132.086-91.191c25.957-10.249 59.67-6.076 88.148 13.585z" fill="#0a9154"/></g><g><path d="m176.257 161.697c-28.478 19.661-44.327 49.704-43.938 77.606l132.086-91.191c-25.957-10.249-59.67-6.076-88.148 13.585z" fill="#2cc47f"/></g></g><g><path d="m173.182 111.636c-41.474 0-77.564 18.836-96.182 46.616h192.364c-18.618-27.779-54.708-46.616-96.182-46.616z" fill="#1dd882"/></g><g><path d="m338.818 111.636c-41.474 0-77.564 18.836-96.182 46.616h192.364c-18.618-27.779-54.708-46.616-96.182-46.616z" fill="#1dd882"/></g><path d="m435 158.252c-18.618-27.779-54.708-46.616-96.182-46.616-33.073 0-62.722 11.979-82.818 30.918-.117-.11-.238-.217-.356-.327v16.024h13.72 165.636z" fill="#2cc47f"/></g></g></svg>