<svg id="Capa_1" enable-background="new 0 0 512 512" height="512" viewBox="0 0 512 512" width="512" xmlns="http://www.w3.org/2000/svg"><g><g><g><g><g><g><g><circle cx="256" cy="256" fill="#c38778" r="256"/></g></g></g></g></g></g><path d="m256 81.901-150.099 56.463-22.31 155.481 33.685 97.641 118.894 119.757c6.544.502 13.157.757 19.83.757 141.385 0 256-114.615 256-256 0-6.592-.249-13.126-.739-19.594l-112.463-111.594z" fill="#a65d4e"/><g><g><path d="m392.511 227.167h-21.251c-6.409-18.016-18.654-33.265-34.46-43.472v-37.372h-2.3c-16.36 0-30.41 9.89-36.499 24.016-2.568-.23-5.169-.349-7.798-.349h-84.706c-47.501 0-86.009 38.507-86.009 86.009 0 25.777 11.339 48.905 29.302 64.668l23.811 50.173h35.186v-28.833h66.461v28.833h35.185l17.606-37.098c20.505-9.733 36.546-27.338 44.221-48.911h21.251z" fill="#ffcdbe"/></g><g><path d="m371.26 227.167c-6.409-18.016-18.654-33.265-34.46-43.472v-37.372h-2.3c-16.36 0-30.41 9.89-36.499 24.016-2.568-.23-5.169-.349-7.798-.349h-34.56v172.018h18.605v28.833h35.185l17.606-37.098c20.505-9.732 36.546-27.338 44.221-48.911h21.25v-57.665z" fill="#ffbeaa"/></g><g><ellipse cx="326.294" cy="222.315" fill="#636978" rx="10.507" ry="10.507" transform="matrix(.229 -.974 .974 .229 35.242 489.11)"/></g></g><path d="m256 62c-106.972 0-194 87.028-194 194s87.028 194 194 194 194-87.028 194-194-87.028-194-194-194zm0 30c38.782 0 74.463 13.532 102.57 36.121l-230.449 230.449c-22.589-28.107-36.121-63.788-36.121-102.57 0-90.43 73.57-164 164-164zm0 328c-40.868 0-78.292-15.027-107.039-39.844l231.195-231.195c24.817 28.747 39.844 66.171 39.844 107.039 0 90.43-73.57 164-164 164z" fill="#ff9500"/><path d="m256 62c-.119 0-.237.004-.356.004v30c.119 0 .237-.004.356-.004 38.782 0 74.463 13.532 102.57 36.121l-102.926 102.926v42.426l124.512-124.512c24.817 28.747 39.844 66.171 39.844 107.039 0 90.43-73.57 164-164 164-.119 0-.237-.004-.356-.004v30c.119 0 .237.004.356.004 106.972 0 194-87.028 194-194s-87.028-194-194-194z" fill="#fe6a16"/></g></svg>