<svg id="Capa_1" enable-background="new 0 0 512 512" height="512" viewBox="0 0 512 512" width="512" xmlns="http://www.w3.org/2000/svg"><g><g><g><g><g><g><g><path d="m86.327 447.699c-52.95-46.901-86.327-115.402-86.327-191.699 0-141.385 114.615-256 256-256s256 114.615 256 256c0 76.297-33.377 144.798-86.327 191.699z" fill="#7584f2"/></g></g></g></g></g></g><path d="m511.996 254.692-166.475-166.475-210.716 79.584 279.898 279.898h10.969c52.951-46.901 86.328-115.402 86.328-191.699 0-.437-.001-.873-.004-1.308z" fill="#4253ce"/><g><path d="m156.145 157.075c-.037 1.296-.063 2.596-.063 3.902v161.41l99.924 28.86 99.997-28.86v-161.41c0-1.306-.026-2.605-.063-3.902z" fill="#dce1eb"/></g><g><path d="m355.94 157.075h-100.296v194.067l.362.104 99.997-28.86v-161.41c0-1.306-.026-2.605-.063-3.901z" fill="#bec3d2"/><path d="m156.145 157.075c-.037 1.296-.063 2.596-.063 3.902v161.41l99.562 28.756v-194.068z" fill="#dce1eb"/></g><g><g><path d="m274.562 511.337c57.791-4.141 110.272-27.465 151.111-63.638l-12.786-84.675c-4.763-31.543-31.871-54.864-63.771-54.864h-186.231c-31.9 0-59.008 23.321-63.771 54.864l-12.786 84.675c40.841 36.176 93.327 59.5 151.123 63.639 0 0 13.91.662 18.55.662 4.642 0 18.561-.663 18.561-.663z" fill="#fff"/></g></g><g><g><path d="m412.887 363.024c-4.763-31.543-31.871-54.864-63.771-54.864h-93.471v203.839c.122 0 .244.001.356.001 4.643 0 18.562-.663 18.562-.663 57.791-4.141 110.272-27.465 151.111-63.638z" fill="#e9edf5"/></g></g><g><path d="m256.043 45.646c-62.389 0-113.199 49.541-115.258 111.428h230.515c-2.059-61.886-52.869-111.428-115.257-111.428z" fill="#e9edf5"/></g><g><path d="m256.042 45.646c-.133 0-.265.004-.398.005v111.423h115.656c-2.059-61.886-52.869-111.428-115.258-111.428z" fill="#cdd2e1"/></g><g><g><path d="m256 365.386c-24.503 0-44.367-19.252-44.367-43l1.277-14.227v-28.773h86.18v28.609l1.277 14.391c0 23.748-19.864 43-44.367 43z" fill="#faa68e"/></g></g><g><g><path d="m299.09 307.995v-28.609h-43.446v85.991c.119.001.237.009.356.009 24.503 0 44.367-19.252 44.367-43z" fill="#e09380"/></g></g><g><g><path d="m161.807 145.346c-.392 3.5-.6 7.055-.6 10.66v47.094c0 52.352 42.44 94.793 94.793 94.793 52.353 0 94.793-42.44 94.793-94.793v-47.094c0-3.605-.208-7.16-.6-10.66z" fill="#ffbeaa"/></g></g><g><g><path d="m350.193 145.346h-94.549v152.543c.119 0 .237.004.356.004 52.353 0 94.793-42.44 94.793-94.793v-47.094c0-3.605-.208-7.16-.6-10.66z" fill="#faa68e"/></g></g><g><path d="m371.372 160.977v204.409l-51.702 44.694v-264.734z" fill="#cdd2e1"/></g><g><path d="m140.356 160.977v204.409l51.703 44.694v-264.734z" fill="#e9edf5"/></g><g><path d="m140.7 118.006h230.599v17.074h-230.599z" fill="#ffc247"/></g><g><path d="m255.644 118.006h115.656v17.074h-115.656z" fill="#ffa426"/></g><g><path d="m134.806 133.652h242.389v34.148h-242.389z" fill="#555a66"/></g><g><path d="m255.644 133.652h121.55v34.148h-121.55z" fill="#333940"/></g></g></svg>