<svg id="Capa_1" enable-background="new 0 0 512 512" height="512" viewBox="0 0 512 512" width="512" xmlns="http://www.w3.org/2000/svg"><g><g><g><g><g><g><g><path d="m86.327 448.03c-52.95-46.901-86.327-115.402-86.327-191.699 0-141.385 114.615-256 256-256s256 114.615 256 256c0 76.297-33.377 144.798-86.327 191.699z" fill="#1dd882"/></g></g></g></g></g></g><path d="m511.921 262.752-174.205-174.204 55.728 359.482h32.229c51.46-45.581 84.433-111.564 86.248-185.278z" fill="#20b76f"/><g><g><path d="m274.562 511.668c57.791-4.141 110.272-27.465 151.111-63.638l-12.786-84.675c-4.763-31.543-31.871-54.864-63.771-54.864h-186.231c-31.9 0-59.008 23.321-63.771 54.864l-12.787 84.675c40.841 36.176 93.327 59.5 151.123 63.639z" fill="#7e8596"/></g></g><g><g><path d="m425.673 448.03-12.786-84.675c-4.763-31.543-31.871-54.864-63.771-54.864h-93.471v203.178h18.918c57.79-4.142 110.271-27.466 151.11-63.639z" fill="#636978"/></g></g><g><path d="m374.333 174.134c0-65.354-52.98-118.333-118.333-118.333-65.354 0-118.333 52.979-118.333 118.333v278.197h236.666z" fill="#414952"/></g><g><path d="m374.333 174.134c0-65.354-52.979-118.333-118.333-118.333-.119 0-.237.004-.356.004v396.526h118.689z" fill="#23272b"/></g><g><g><path d="m171.252 157.485c-.007.448-.034.89-.034 1.339v42.121c0 46.824 37.958 84.781 84.782 84.781 46.824 0 84.782-37.958 84.782-84.781v-42.121c0-.449-.027-.892-.034-1.339l-63.272-7.467c-14.267-1.684-28.683-1.684-42.951 0z" fill="#faa68e"/></g></g><g><g><path d="m340.748 157.485-63.272-7.467c-7.252-.856-14.542-1.271-21.831-1.257v136.957c.119 0 .237.009.356.009 46.824 0 84.782-37.958 84.782-84.782v-42.121c-.001-.449-.028-.892-.035-1.339z" fill="#e09380"/></g></g><g><path d="m171.218 200.945h169.563v189.076h-169.563z" fill="#636978"/></g><g><path d="m255.644 200.945h85.138v189.076h-85.138z" fill="#414952"/></g></g></svg>