<svg id="Capa_1" enable-background="new 0 0 512 512" height="512" viewBox="0 0 512 512" width="512" xmlns="http://www.w3.org/2000/svg"><g><g><g><g><g><g><g><circle cx="256" cy="256" fill="#7584f2" r="256"/></g></g></g></g></g></g><path d="m260.967 511.953c139.093-2.647 251.033-116.228 251.033-255.953 0-.391-.001-.782-.003-1.173l-136.627-139.827-1.431 1.571-24.179-24.214-7.746 6.703-23.532-23.584-.783-.731-14.496 10.678-17.997-17.997-18.385 16.026-15.466-15.466-23.132 18.489-9.96-9.96-25.841 20.506-5.86-5.86-23.855 24.215-1.573-1.134-23.164 24.868 4.142 4.142-23.715 24.114 10.43 10.43-23.453 20.918 20.082 20.082-24.137 14.401 21.062 21.032-16.736 13.222 24.472 24.449-10.743 8.951 22.594 22.594-4.546 4.267 114.038 114.002-24.346 36.386z" fill="#4253ce"/><g><path d="m241.044 360.815h29.911v77.321h-29.911z" fill="#fff"/></g><g><path d="m255.644 360.815h15.312v77.321h-15.312z" fill="#e9edf5"/></g><g><path d="m284.886 478.099h-57.772l8.868-70.522c1.269-10.09 9.849-17.659 20.018-17.659 10.17 0 18.75 7.569 20.018 17.659z" fill="#e9edf5"/></g><g><path d="m276.018 407.577c-1.269-10.09-9.849-17.659-20.018-17.659-.12 0-.237.014-.356.016v88.164h29.242z" fill="#cdd2e1"/></g><g><g><g><g><g><g><path d="m237.06 379.41c-9.319-1.11-15.98-9.56-14.88-18.88 1.101-9.33 9.561-15.99 18.88-14.89 9.32 1.11 15.99 9.56 14.88 18.89-1.02 8.64-8.359 15-16.859 15-.661 0-1.341-.04-2.021-.12zm19.49-14.89c-1.13-9.32 5.5-17.79 14.82-18.93 9.319-1.13 17.8 5.5 18.93 14.82 1.14 9.32-5.5 17.8-14.82 18.93h.011c-.7.09-1.391.13-2.08.13-8.471 0-15.802-6.32-16.861-14.95zm-56.89 5.77c-8.79-3.32-13.221-13.13-9.91-21.91 3.319-8.78 13.13-13.22 21.91-9.9 8.79 3.31 13.22 13.12 9.899 21.9-2.569 6.81-9.029 11.01-15.899 11.01-2 0-4.03-.36-6-1.1zm91.239-10.02c-3.34-8.77 1.061-18.6 9.83-21.94 8.771-3.35 18.601 1.05 21.94 9.83 3.35 8.77-1.06 18.59-9.83 21.94-1.99.76-4.04 1.12-6.05 1.12-6.849 0-13.299-4.17-15.89-10.95zm-125.339-7.83c-7.73-5.33-9.68-15.91-4.359-23.64 5.33-7.74 15.92-9.69 23.649-4.36 7.73 5.33 9.681 15.91 4.351 23.64-3.29 4.79-8.61 7.36-14.011 7.36-3.32 0-6.68-.97-9.63-3zm157.64-4.57c-5.351-7.72-3.44-18.31 4.279-23.66 7.721-5.35 18.311-3.43 23.66 4.28 5.351 7.72 3.43 18.31-4.28 23.66-2.96 2.05-6.329 3.03-9.68 3.03-5.379 0-10.679-2.55-13.979-7.31zm-186.46-20.88h.01c-6.25-7.01-5.62-17.76 1.39-24 7.021-6.24 17.76-5.62 24 1.39l.01.01c6.24 7.01 5.61 17.76-1.409 24-3.23 2.88-7.271 4.3-11.29 4.3-4.681 0-9.351-1.93-12.711-5.7zm214.85 1.09c-7.03-6.22-7.69-16.96-1.47-23.99 6.22-7.04 16.96-7.7 23.989-1.48 7.04 6.22 7.7 16.97 1.48 24-3.36 3.8-8.04 5.74-12.74 5.74-3.999 0-8.019-1.41-11.259-4.27zm-236.771-32.68c-4.39-8.3-1.22-18.58 7.08-22.97 8.301-4.39 18.591-1.21 22.98 7.09 4.38 8.3 1.21 18.59-7.09 22.97-2.53 1.34-5.25 1.97-7.931 1.97-6.098 0-11.988-3.29-15.039-9.06zm259.651 6.71c-8.31-4.36-11.52-14.64-7.16-22.95 4.36-8.32 14.641-11.52 22.95-7.17 8.32 4.36 11.521 14.64 7.16 22.95-3.04 5.8-8.95 9.11-15.07 9.11-2.66 0-5.36-.62-7.88-1.94zm-273.38-42.66c-2.26-9.12 3.3-18.34 12.41-20.6 9.109-2.25 18.33 3.3 20.59 12.41 2.26 9.12-3.3 18.34-12.41 20.6-1.37.34-2.75.5-4.1.5-7.63 0-14.57-5.18-16.49-12.91zm289.4 11.96c-9.12-2.23-14.71-11.43-12.48-20.55 2.23-9.12 11.43-14.71 20.55-12.48 9.12 2.23 14.71 11.43 12.48 20.55-1.9 7.76-8.85 12.97-16.5 12.97-1.34 0-2.7-.16-4.05-.49zm-294.08-50.13c0-.06 0-.13 0-.2 0-.05 0-.1 0-.15 0-9.39 7.609-17 17-17 9.38 0 16.989 7.61 16.989 17h.011v.15.13c.02 9.39-7.58 17.02-16.971 17.04-.01 0-.02 0-.029 0-9.37 0-16.98-7.59-17-16.97zm285.18-.49c-.01-9.39 7.59-17.01 16.979-17.02 9.391-.01 17.011 7.59 17.021 16.98.01 9.39-7.59 17.01-16.98 17.02-.01 0-.01 0-.02 0-9.38 0-16.99-7.6-17-16.98zm-268.13-17.47c-9.12-2.24-14.69-11.44-12.45-20.56 2.23-9.12 11.44-14.7 20.559-12.46 9.12 2.24 14.69 11.45 12.45 20.57-1.899 7.75-8.85 12.95-16.489 12.95-1.341 0-2.711-.17-4.07-.5zm264.48-12.59c-2.25-9.12 3.32-18.33 12.431-20.58 9.12-2.25 18.33 3.32 20.58 12.44 2.25 9.11-3.32 18.32-12.431 20.57-1.37.34-2.739.5-4.09.5-7.64 0-14.58-5.18-16.49-12.93zm-256.15-21.02c-8.311-4.36-11.5-14.64-7.13-22.95 4.359-8.31 14.64-11.51 22.949-7.14 8.311 4.37 11.511 14.65 7.141 22.96-3.04 5.79-8.95 9.09-15.061 9.09-2.669 0-5.37-.63-7.899-1.96zm245.4-7.25c-4.38-8.3-1.199-18.58 7.11-22.96 8.3-4.38 18.59-1.2 22.96 7.11 4.38 8.31 1.2 18.59-7.11 22.96-2.529 1.34-5.239 1.97-7.909 1.97-6.111 0-12.012-3.3-15.051-9.08zm-229.22-23.35c-7.03-6.22-7.67-16.97-1.45-23.99 6.23-7.03 16.98-7.68 24-1.45 7.03 6.23 7.681 16.97 1.45 24-3.36 3.79-8.03 5.72-12.729 5.72-4.011 0-8.031-1.41-11.271-4.28zm211.98-1.53c-6.24-7.02-5.601-17.77 1.42-24 7.02-6.24 17.77-5.6 24 1.42 6.239 7.02 5.6 17.77-1.42 24-3.24 2.88-7.271 4.29-11.28 4.29-4.691 0-9.36-1.93-12.72-5.71zm-188.97-24.32c-5.34-7.72-3.42-18.31 4.31-23.65 7.72-5.34 18.31-3.42 23.65 4.31 5.341 7.72 3.41 18.31-4.31 23.65-2.95 2.04-6.32 3.02-9.65 3.02-5.4 0-10.7-2.56-14-7.33zm166.28 4.24c-7.72-5.34-9.66-15.92-4.33-23.65 5.34-7.73 15.93-9.67 23.65-4.33 7.729 5.33 9.67 15.92 4.33 23.65-3.301 4.78-8.601 7.34-14 7.34-3.33 0-6.7-.98-9.65-3.01zm-137.79-23.87c-3.34-8.78 1.07-18.6 9.85-21.93 8.78-3.34 18.601 1.08 21.931 9.85 3.34 8.78-1.08 18.6-9.851 21.93-1.989.76-4.029 1.12-6.04 1.12-6.85-.01-13.31-4.18-15.89-10.97zm111 9.8c-8.79-3.32-13.21-13.14-9.88-21.92 3.32-8.78 13.14-13.2 21.92-9.88 8.78 3.33 13.2 13.14 9.87 21.92-2.57 6.8-9.03 10.99-15.9 10.99-2.001 0-4.03-.36-6.01-1.11zm-78.62-22.02c-1.13-9.32 5.521-17.79 14.84-18.91 9.32-1.13 17.79 5.51 18.92 14.83 1.12 9.32-5.52 17.79-14.84 18.92-.7.08-1.38.12-2.059.12-8.481 0-15.821-6.33-16.861-14.96zm49.23 14.82c-9.33-1.11-15.981-9.57-14.87-18.9 1.12-9.32 9.58-15.97 18.899-14.86 9.32 1.12 15.98 9.57 14.86 18.9-1.03 8.64-8.36 14.98-16.85 14.98-.679 0-1.359-.04-2.039-.12z" fill="#ffc247"/></g></g></g></g></g></g><g><g><g><g><g><g><g fill="#ffa426"><path d="m398.569 203.77c-9.39.01-16.989 7.63-16.979 17.02.01 9.38 7.62 16.98 17 16.98h.02c9.391-.01 16.99-7.63 16.98-17.02s-7.63-16.99-17.021-16.98z"/><path d="m367.189 162.46c3.04 5.78 8.94 9.08 15.051 9.08 2.67 0 5.38-.63 7.909-1.97 8.311-4.37 11.49-14.65 7.11-22.96-4.37-8.31-14.66-11.49-22.96-7.11-8.309 4.38-11.489 14.66-7.11 22.96z"/><path d="m390.37 170.15c-9.11 2.25-14.681 11.46-12.431 20.58 1.91 7.75 8.851 12.93 16.49 12.93 1.351 0 2.72-.16 4.09-.5 9.11-2.25 14.681-11.46 12.431-20.57-2.25-9.12-11.46-14.69-20.58-12.44z"/><path d="m300.47 103.43c1.98.75 4.01 1.11 6.01 1.11 6.87 0 13.33-4.19 15.9-10.99 3.33-8.78-1.09-18.59-9.87-21.92-8.78-3.32-18.6 1.1-21.92 9.88-3.33 8.78 1.09 18.6 9.88 21.92z"/><path d="m349.95 137.58c3.359 3.78 8.029 5.71 12.72 5.71 4.01 0 8.04-1.41 11.28-4.29 7.02-6.23 7.659-16.98 1.42-24-6.23-7.02-16.98-7.66-24-1.42-7.02 6.23-7.66 16.98-1.42 24z"/><path d="m327.26 117.5c2.95 2.03 6.32 3.01 9.65 3.01 5.399 0 10.699-2.56 14-7.34 5.34-7.73 3.399-18.32-4.33-23.65-7.721-5.34-18.311-3.4-23.65 4.33-5.33 7.73-3.39 18.31 4.33 23.65z"/><path d="m271.08 96.23c.68.08 1.359.12 2.04.12 8.489 0 15.819-6.34 16.85-14.98 1.12-9.33-5.54-17.78-14.86-18.9-9.319-1.11-17.779 5.54-18.899 14.86-1.111 9.33 5.539 17.79 14.869 18.9z"/><path d="m374.109 302.61c-7.029-6.22-17.77-5.56-23.989 1.48-6.221 7.03-5.561 17.77 1.47 23.99 3.24 2.86 7.26 4.27 11.26 4.27 4.7 0 9.38-1.94 12.74-5.74 6.22-7.03 5.559-17.78-1.481-24z"/><path d="m327.479 324.21c-7.72 5.35-9.63 15.94-4.279 23.66 3.3 4.76 8.6 7.31 13.979 7.31 3.351 0 6.72-.98 9.68-3.03 7.71-5.35 9.631-15.94 4.28-23.66-5.349-7.71-15.939-9.63-23.66-4.28z"/><path d="m300.729 338.33c-8.77 3.34-13.17 13.17-9.83 21.94 2.591 6.78 9.04 10.95 15.891 10.95 2.01 0 4.06-.36 6.05-1.12 8.77-3.35 13.18-13.17 9.83-21.94-3.34-8.78-13.17-13.18-21.941-9.83z"/><path d="m398.56 238.38c-9.12-2.23-18.319 3.36-20.55 12.48-2.229 9.12 3.36 18.32 12.48 20.55 1.35.33 2.71.49 4.05.49 7.649 0 14.6-5.21 16.5-12.97 2.23-9.12-3.36-18.32-12.48-20.55z"/><path d="m271.37 345.59c-9.32 1.14-15.95 9.61-14.82 18.93 1.06 8.63 8.39 14.95 16.86 14.95.689 0 1.38-.04 2.08-.13-.011 0-.011 0-.011 0 9.32-1.13 15.96-9.61 14.82-18.93-1.129-9.32-9.61-15.95-18.929-14.82z"/><path d="m390.26 271.99c-8.31-4.35-18.59-1.15-22.95 7.17-4.359 8.31-1.149 18.59 7.16 22.95 2.521 1.32 5.22 1.94 7.88 1.94 6.12 0 12.03-3.31 15.07-9.11 4.36-8.31 1.16-18.59-7.16-22.95z"/></g><path d="m211.66 338.48c-8.78-3.32-18.591 1.12-21.91 9.9-3.311 8.78 1.12 18.59 9.91 21.91 1.97.74 4 1.1 6 1.1 6.87 0 13.33-4.2 15.899-11.01 3.321-8.78-1.109-18.59-9.899-21.9z" fill="#ffc247"/></g></g></g></g></g></g></g></svg>