<svg id="Capa_1" enable-background="new 0 0 512 512" height="512" viewBox="0 0 512 512" width="512" xmlns="http://www.w3.org/2000/svg"><g><g><g><g><g><g><g><circle cx="256" cy="256" fill="#c38778" r="256"/></g></g></g></g></g></g><path d="m507.882 301.978-240.882-240.883-196.798 306.895 139.908 139.908c14.889 2.695 30.225 4.102 45.89 4.102 125.689 0 230.222-90.58 251.882-210.022z" fill="#a65d4e"/><g><path d="m245 61.095h22v59.945h-22z" fill="#ffa426"/></g><g><path d="m255.644 61.095h11.356v59.945h-11.356z" fill="#fe8205"/></g><g><path d="m256 91.285c-51.311 0-92.996 41.19-93.809 92.308h187.617c-.812-51.118-42.497-92.308-93.808-92.308z" fill="#ffc247"/></g><g><path d="m256 91.285c-.119 0-.237.004-.356.004v92.303h94.165c-.813-51.117-42.497-92.307-93.809-92.307z" fill="#ffa426"/></g><g><path d="m148.527 178.814h214.945v44.742h-214.945z" fill="#cdd2e1"/></g><g><path d="m255.644 178.814h107.828v44.742h-107.828z" fill="#afb4c8"/></g><g><path d="m381.505 289.831h-249.338l4.146-83.116h239.374z" fill="#e9edf5"/></g><g><path d="m375.687 206.715h-120.043v83.116h125.861z" fill="#cdd2e1"/></g><g><path d="m375.687 367.991h-27.568l-20.391-6.842-20.39 6.842h-30.948l-20.39-5.322-20.39 5.322h-30.948l-20.391-4.317-20.39 4.317h-27.568l-5.45-83.116h250.642z" fill="#fff"/></g><g><path d="m255.644 284.875v77.887l.356-.093 20.39 5.321h30.948l20.391-6.841 20.39 6.841h27.568l5.818-83.115z" fill="#e9edf5"/></g><g><path d="m136.313 289.831-66.111 18.866v-71.979l66.111-30.003z" fill="#cdd2e1"/></g><g><path d="m136.313 367.991h-16.633l-17.455-10.001-17.456 10.001h-14.567v-65.159l66.111-17.957z" fill="#e9edf5"/></g><g><path d="m375.687 289.831 66.111 18.866v-71.979l-66.111-30.003z" fill="#afb4c8"/></g><g><path d="m375.687 367.991h16.633l17.455-10.001 17.456 10.001h14.567v-65.159l-66.111-17.957z" fill="#e9edf5"/></g><g><g><path d="m204.662 367.991h-40.781v-99.327c0-11.261 9.129-20.39 20.39-20.39 11.261 0 20.39 9.129 20.39 20.39v99.327z" fill="#afb4c8"/></g><g><path d="m348.119 367.991h-40.781v-99.327c0-11.261 9.129-20.39 20.39-20.39 11.261 0 20.39 9.129 20.39 20.39v99.327z" fill="#7e8596"/></g></g><g><path d="m276.39 367.991h-40.78v-99.327c0-11.261 9.129-20.39 20.39-20.39 11.261 0 20.39 9.129 20.39 20.39z" fill="#afb4c8"/></g><g><path d="m276.39 268.664c0-11.261-9.129-20.39-20.39-20.39-.12 0-.236.016-.356.018v119.698h20.746z" fill="#7e8596"/></g><g><g><path d="m427.231 367.991h-34.911v-85.031c0-9.64 7.815-17.456 17.456-17.456 9.64 0 17.456 7.815 17.456 17.456v85.031z" fill="#707789"/></g><g><path d="m119.68 367.991h-34.911v-85.031c0-9.64 7.815-17.456 17.456-17.456 9.64 0 17.456 7.815 17.456 17.456v85.031z" fill="#9196aa"/></g></g></g></svg>