<svg id="Capa_1" enable-background="new 0 0 512 512" height="512" viewBox="0 0 512 512" width="512" xmlns="http://www.w3.org/2000/svg"><g><g><g><g><g><g><g><g><circle cx="256" cy="256" fill="#7584f2" r="256"/></g></g></g></g></g></g></g><path d="m506.798 307.596-255.77-255.77-25.893 25.377 8.215 64.529 23.769 23.768-177.078 227.005 111.244 111.245c20.671 5.384 42.358 8.25 64.715 8.25 123.711 0 226.926-87.751 250.798-204.404z" fill="#4253ce"/><g><g><g><g><g><path d="m425.992 319.24c0-93.884-169.992-169.992-169.992-169.992s-169.992 76.108-169.992 169.992c0 17.262 2.582 33.92 7.365 49.618h325.254c4.784-15.698 7.365-32.355 7.365-49.618z" fill="#ffc247"/></g></g></g></g></g><g><g><g><g><g><path d="m425.992 319.24c0-91.396-161.094-165.942-169.633-169.83v219.447h162.268c4.784-15.697 7.365-32.354 7.365-49.617z" fill="#ffa426"/></g></g></g></g></g><g><path d="m80.04 349.501h351.919v43.005h-351.919z" fill="#ffb13b"/></g><g><path d="m256.359 349.501h175.601v43.005h-175.601z" fill="#ff9500"/></g><g><path d="m279.445 133.872c-25.377 0-45.95-20.573-45.95-45.95 0-14.646 6.861-27.681 17.534-36.096-21.35 6.397-36.91 26.191-36.91 49.623 0 28.608 23.191 51.799 51.799 51.799 23.432 0 43.227-15.56 49.623-36.91-8.415 10.673-21.45 17.534-36.096 17.534z" fill="#ffb13b"/></g><g><path d="m279.445 133.872c-8.418 0-16.301-2.274-23.086-6.226v24.708c3.099.578 6.291.895 9.558.895 23.432 0 43.227-15.56 49.623-36.91-8.414 10.672-21.449 17.533-36.095 17.533z" fill="#ff9500"/></g></g></svg>