<svg id="Capa_1" enable-background="new 0 0 512 512" height="512" viewBox="0 0 512 512" width="512" xmlns="http://www.w3.org/2000/svg"><g><g><g><g><g><g><g><circle cx="256" cy="256" fill="#c38778" r="256"/></g></g></g></g></g></g><path d="m439.548 187.117-340.002 127.476 194.586 194.586c122.163-18.244 216.122-122.8 217.843-249.634z" fill="#a65d4e"/><g><path d="m338.538 345.039h-165.076c-57.969 0-104.962-46.993-104.962-104.962v-45.345h375v45.345c0 57.969-46.993 104.962-104.962 104.962z" fill="#ffb13b"/></g><g><path d="m338.538 345.039h-82.538v-150.307h187.5v45.345c0 57.969-46.993 104.962-104.962 104.962z" fill="#ff9500"/></g><path d="m333.404 226.326-77.404-13.032-76.811 12.932-48.34-8.139-53.849-14.884 53.849 86.055 52.297-57.895 72.854 80.654z" fill="#ff9500"/><path d="m435 203.203-53.849 14.884-48.34 8.139-76.811-12.932v98.723l72.854-80.654 52.297 57.895z" fill="#fe6a16"/><g><ellipse cx="256" cy="194.732" fill="#f5d882" rx="187.5" ry="37.14"/></g><g><path d="m443.5 194.732c0 20.512-83.947 37.14-187.5 37.14v-74.28c103.553 0 187.5 16.628 187.5 37.14z" fill="#ffc247"/></g><g><ellipse cx="256" cy="194.732" fill="#ffc247" rx="130.656" ry="18.692" transform="matrix(1 -.001 .001 1 -.243 .32)"/></g><g><path d="m386.651 194.732c-.616 10.324-58.495 18.692-130.651 18.692v-37.384c72.156 0 131.267 8.369 130.651 18.692z" fill="#ffa426"/></g></g></svg>