<svg id="Capa_1" enable-background="new 0 0 512 512" height="512" viewBox="0 0 512 512" width="512" xmlns="http://www.w3.org/2000/svg"><g><g><g><g><g><g><g><circle cx="256" cy="256" fill="#ffc247" r="256"/></g></g></g></g></g></g><path d="m511.852 247.212-111.089-111.089-107.202 123.261-51.806-52.181-181.755 5.422 132.001 132.001-108.844 25.961 139.225 139.225c11.001 1.443 22.223 2.188 33.618 2.188 141.385 0 256-114.615 256-256 0-2.941-.05-5.871-.148-8.788z" fill="#ffa426"/><g><path d="m400.763 136.123c-20.262 21.227-73.692 48.264-115.302 61.752-21.584 6.997-27.88 29.27-29.461 40.163-1.58-10.893-7.876-33.166-29.461-40.163-41.61-13.487-95.04-40.525-115.302-61.752l-17.641 39.437 72.157 43.542 90.247 58.013 90.248-58.013 72.157-43.542z" fill="#fff"/></g><g><path d="m256 277.115 90.248-58.013 72.156-43.542-17.641-39.437c-20.262 21.227-73.692 48.264-115.302 61.752-21.584 6.997-27.88 29.27-29.461 40.163z" fill="#e9edf5"/></g><g><g><g><path d="m87.598 166.484-27.598 46.141 264.1 157.962h104.743z" fill="#c38778"/></g></g><g><g><path d="m428.843 370.587-172.843-103.38v62.649l68.1 40.731z" fill="#a65d4e"/></g></g><g><g><path d="m424.401 166.484 27.599 46.141-264.1 157.962h-104.743z" fill="#b46e5a"/></g></g><g><g><path d="m424.401 166.484-168.401 100.723v62.649l196-117.231z" fill="#915041"/></g></g></g></g></svg>