<svg id="Capa_1" enable-background="new 0 0 512 512" height="512" viewBox="0 0 512 512" width="512" xmlns="http://www.w3.org/2000/svg"><g><g><g><g><g><g><g><circle cx="256" cy="256" fill="#1dd882" r="256"/></g></g></g></g></g></g><path d="m506.242 310.242-250.242-250.242-22.092 90.945 20.362 20.362-3.444 221.707-67.152 53.223 65.679 65.678c2.209.056 4.425.085 6.647.085 122.774 0 225.361-86.427 250.242-201.758z" fill="#20b76f"/><g><path d="m290.208 124.832c0 18.893-15.315 34.208-34.208 34.208s-34.208-15.315-34.208-34.208 34.208-64.832 34.208-64.832 34.208 45.94 34.208 64.832z" fill="#ffc247"/></g><g><path d="m290.208 124.832c0 18.893-15.315 34.208-34.208 34.208v-99.04s34.208 45.94 34.208 64.832z" fill="#ffa426"/></g><g><path d="m272.738 135.384c0 9.244-7.494 16.738-16.738 16.738s-16.738-7.494-16.738-16.738 16.738-31.722 16.738-31.722 16.738 22.478 16.738 31.722z" fill="#ff9500"/></g><g><path d="m272.738 135.384c0 9.244-7.494 16.738-16.738 16.738v-48.46s16.738 22.478 16.738 31.722z" fill="#fe6a16"/></g><g><path d="m220.815 154.592h70.371v207.704h-70.371z" fill="#fff"/></g><g><path d="m256 154.592h35.185v207.704h-35.185z" fill="#e9edf5"/></g><g><path d="m256 422.59c-50.74 0-91.873-41.133-91.873-91.873v-28.714h183.746v28.714c0 50.74-41.133 91.873-91.873 91.873z" fill="#ffc247"/></g><g><path d="m256 422.59v-120.587h91.873v28.714c0 50.74-41.133 91.873-91.873 91.873z" fill="#ffa426"/></g><g><path d="m328.326 446.237h-144.652v-15.387c0-17.627 14.289-31.916 31.916-31.916h80.819c17.627 0 31.916 14.289 31.916 31.916v15.387z" fill="#ffb13b"/></g><g><path d="m328.326 446.237h-72.326v-47.303h40.41c17.627 0 31.916 14.289 31.916 31.916z" fill="#ff9500"/></g></g></svg>