<svg id="Capa_1" enable-background="new 0 0 512 512" height="512" viewBox="0 0 512 512" width="512" xmlns="http://www.w3.org/2000/svg"><g><g><g><g><g><g><g><path d="m81.605 443.411c-50.204-46.738-81.605-113.407-81.605-187.411 0-141.385 114.615-256 256-256s256 114.615 256 256-114.615 256-256 256c-42.377 0-82.35-10.297-117.552-28.525z" fill="#c38778"/></g></g></g></g></g></g><path d="m512 256c0-25.191-3.639-49.532-10.419-72.526l-71.179-71.179-324.758 257.836 29.294 110.87 3.51 2.474c35.202 18.228 75.175 28.525 117.552 28.525 141.385 0 256-114.615 256-256z" fill="#a65d4e"/><g><path d="m138.449 483.475v-131.426l-56.851 10.247v81.108c16.965 15.795 36.077 29.314 56.851 40.071z" fill="#555a66"/></g><g><path d="m430.402 361.498c-116.268-29.904-232.536 29.904-348.804 0 0-83.068 0-166.136 0-249.204 116.268 29.904 232.536-29.905 348.804 0z" fill="#fff"/></g><g><path d="m255.644 112.34v249.204c58.253-7.491 116.506-15.028 174.758-.046 0-83.068 0-166.136 0-249.204-58.252-14.982-116.505-7.445-174.758.046z" fill="#e9edf5"/></g><g><g><path d="m282.842 289.302c-46.607 0-84.389-37.783-84.389-84.39 0-26.898 12.599-50.838 32.201-66.291-39.21 11.748-67.787 48.102-67.787 91.135 0 52.539 42.592 95.131 95.131 95.131 43.034 0 79.387-28.577 91.135-67.787-15.453 19.603-39.393 32.202-66.291 32.202z" fill="#ffc247"/></g><g><path d="m282.842 289.302c-9.52 0-18.661-1.6-27.198-4.506v40.062c.782.019 1.567.03 2.354.03 43.034 0 79.387-28.577 91.135-67.787-15.453 19.602-39.393 32.201-66.291 32.201z" fill="#ffa426"/></g><g><path d="m309.691 155.833 1.866 24.681 21.389 12.454-22.896 9.401-5.235 24.191-16.016-18.87-24.625 2.496 12.997-21.063-9.983-22.648 24.049 5.852z" fill="#ffa426"/></g></g></g></svg>