<?xml version="1.0" standalone="no"?>
<!DOCTYPE svg PUBLIC "-//W3C//DTD SVG 20010904//EN"
 "http://www.w3.org/TR/2001/REC-SVG-20010904/DTD/svg10.dtd">
<svg version="1.0" xmlns="http://www.w3.org/2000/svg"
 width="1280.000000pt" height="902.000000pt" viewBox="0 0 1280.000000 902.000000"
 preserveAspectRatio="xMidYMid meet">
<metadata>
Created by potrace 1.15, written by Peter Selinger 2001-2017
</metadata>
<g transform="translate(0.000000,902.000000) scale(0.100000,-0.100000)"
fill="#000000" stroke="none">
<path d="M8881 8926 l-93 -93 -5 -139 -5 -139 -96 -97 c-108 -109 -104 -91
-37 -198 l35 -54 0 -226 0 -225 -106 -94 -107 -95 24 -19 c23 -19 24 -19 33 2
10 24 7 23 166 48 81 13 170 18 300 17 162 0 200 -3 305 -26 66 -15 131 -31
144 -36 l25 -9 -27 -18 c-27 -17 -31 -17 -155 11 -115 26 -144 29 -307 29
-192 -1 -291 -13 -365 -47 -39 -17 -42 -21 -25 -28 39 -15 49 -39 47 -108 -1
-61 -4 -68 -38 -103 l-36 -37 23 -31 c26 -36 39 -39 39 -11 0 12 8 21 23 24
12 3 60 12 107 22 121 24 412 30 563 11 65 -8 120 -17 123 -20 12 -12 -48 -97
-68 -97 -5 0 -13 11 -18 24 -7 18 -23 29 -60 40 -90 27 -209 39 -315 33 -113
-7 -288 -48 -316 -73 -18 -16 -19 -40 -19 -393 0 -207 -3 -393 -6 -413 -6 -31
-12 -39 -40 -48 -31 -11 -34 -15 -34 -53 0 -49 -19 -90 -42 -95 -13 -3 -17 6
-20 42 l-3 44 -70 -27 -70 -27 4 -64 c3 -69 11 -80 51 -80 44 0 50 -16 50
-131 l0 -107 50 -60 50 -60 0 -378 c0 -432 -1 -424 85 -466 l45 -22 0 -402 0
-402 -45 -29 c-43 -27 -45 -30 -45 -77 l0 -48 33 6 c128 27 177 30 570 31
l418 0 -6 35 c-6 40 2 57 30 62 18 3 20 -3 23 -54 l3 -58 44 0 c30 0 45 -4 45
-12 -1 -34 -13 -36 -145 -21 -293 34 -918 14 -1035 -33 l-40 -16 1 -87 0 -86
102 -80 c77 -60 102 -86 101 -102 0 -13 -1 -171 -2 -353 l-2 -330 -275 0 -275
0 0 90 c0 96 -14 178 -37 224 -26 51 -113 135 -261 253 l-142 114 -121 -82
c-66 -45 -156 -115 -199 -156 l-80 -75 -20 23 c-10 13 -19 27 -20 32 0 4 -121
7 -269 7 l-270 0 -5 43 c-3 23 -7 74 -10 113 -8 99 -22 133 -93 217 -47 56
-61 79 -56 95 11 45 -7 110 -40 144 l-32 32 3 167 c6 352 -31 454 -236 650
-124 119 -205 176 -605 427 l-324 202 -139 -92 c-76 -52 -227 -145 -334 -207
-259 -152 -330 -200 -424 -290 -140 -136 -216 -265 -242 -413 -10 -58 -14
-150 -13 -303 l1 -219 -26 -23 c-23 -19 -26 -29 -26 -86 0 -63 -1 -65 -37 -89
-87 -57 -148 -137 -171 -220 -10 -37 -10 -38 40 -83 28 -25 49 -47 47 -49 -2
-2 -89 -32 -194 -66 -104 -35 -282 -94 -394 -133 l-203 -70 4 -116 c4 -105 8
-123 38 -191 33 -72 34 -80 38 -223 l4 -149 27 7 c14 4 99 24 189 44 l162 38
0 -330 0 -330 -397 6 c-219 4 -496 7 -615 7 l-218 0 0 181 0 180 -62 72 c-34
40 -65 72 -69 72 -18 0 -151 -129 -168 -163 l-19 -37 -7 40 c-3 22 -8 56 -11
75 -15 101 -85 180 -367 408 -109 88 -120 95 -140 83 -31 -20 -303 -236 -375
-299 -34 -29 -75 -75 -90 -100 -25 -44 -27 -54 -28 -172 0 -108 -3 -131 -22
-167 -27 -53 -27 -53 3 -53 23 0 25 -4 25 -40 l0 -40 -160 0 -160 0 37 -57 38
-56 3 -584 2 -583 -435 0 c-340 0 -436 -3 -439 -13 -2 -6 -12 -57 -21 -112
-10 -55 -20 -106 -22 -112 -4 -10 237 -13 1184 -13 l1189 0 43 -80 42 -80 510
0 c490 0 511 -1 549 -20 47 -24 99 -25 300 -5 214 21 238 20 263 -11 l20 -26
136 6 c75 4 357 15 626 26 270 11 688 29 930 40 242 11 598 27 790 35 193 8
379 17 416 20 l65 5 13 -36 13 -37 152 7 c83 4 347 13 586 21 1884 64 2291 77
2785 95 308 11 718 25 910 31 348 11 350 12 390 37 44 28 89 34 613 88 l272
28 0 648 0 648 -150 0 -150 0 -6 41 c-12 73 -58 127 -178 207 -61 39 -115 72
-122 72 -6 0 -54 -24 -105 -52 -119 -68 -200 -146 -225 -216 l-19 -52 -657 0
-657 0 -3 313 -3 312 -34 72 -34 73 -187 0 -186 0 -70 55 c-56 45 -246 177
-301 209 -13 7 -34 -7 -259 -182 -154 -119 -194 -173 -213 -288 l-9 -49 -1 56
c-3 140 82 260 287 403 l82 57 0 374 0 374 80 122 c84 129 86 133 95 275 l6
92 -28 7 c-40 10 -63 34 -63 67 l0 28 -85 0 -85 0 0 398 0 398 30 29 30 29 0
341 0 341 -27 53 c-30 62 -36 47 68 192 l69 96 0 135 c0 189 -1 193 -64 216
-105 40 -99 41 -95 -17 l4 -51 -36 0 c-41 0 -49 11 -49 66 0 29 -5 37 -35 51
l-35 17 0 377 c0 340 2 378 17 390 39 32 73 102 73 150 l0 48 -60 33 c-45 24
-60 38 -60 55 0 31 43 77 106 113 51 30 54 34 54 71 0 39 -1 39 -116 116
l-117 78 5 215 c5 235 6 239 75 329 18 24 33 48 33 52 0 5 -45 46 -100 91
l-100 83 0 161 0 162 -97 78 c-54 42 -103 81 -109 85 -6 5 -47 -28 -103 -85z
m264 -533 c33 -8 86 -26 117 -40 l57 -25 -14 -29 -15 -28 -67 24 c-159 55
-257 57 -441 9 -93 -24 -112 -26 -126 -15 -25 21 -20 29 32 54 140 71 302 89
457 50z m-193 -270 c16 -14 18 -34 18 -190 0 -101 -4 -182 -10 -194 -13 -24
-53 -25 -75 -2 -15 15 -17 38 -13 193 3 182 10 210 46 210 8 0 24 -7 34 -17z
m198 -1 c21 -17 22 -25 22 -188 1 -198 -2 -214 -41 -214 -16 0 -33 6 -38 13
-15 19 -25 263 -13 326 10 52 24 81 40 81 4 0 18 -8 30 -18z m-381 -39 c21
-17 22 -25 19 -178 l-3 -160 -30 0 -30 0 -3 135 c-3 140 3 220 18 220 4 0 17
-8 29 -17z m494 -303 c6 -76 5 -83 -8 -66 -12 16 -15 52 -14 165 2 133 2 139
9 66 4 -44 10 -118 13 -165z m-263 -780 c19 -19 20 -33 20 -250 l0 -230 -61 0
-61 0 4 233 c3 251 7 267 54 267 13 0 33 -9 44 -20z m205 6 c17 -12 19 -33 22
-250 l4 -236 -60 0 -61 0 0 228 c0 190 3 231 16 250 17 25 51 29 79 8z m-393
-101 c4 -22 7 -118 7 -212 l1 -173 -45 0 -45 0 0 203 c0 218 3 230 50 225 20
-2 26 -10 32 -43z m528 -185 l0 -200 -26 0 -26 0 4 188 c2 103 7 193 11 200 5
6 15 12 23 12 12 0 14 -33 14 -200z m-412 -482 l3 -48 92 0 c51 0 129 -3 174
-6 l82 -7 3 44 c3 42 5 44 36 47 32 3 32 3 32 -41 l0 -44 113 -30 112 -30 5
41 c6 45 23 55 55 32 14 -10 21 -31 25 -76 3 -34 3 -63 -1 -65 -3 -3 -51 4
-105 15 -185 35 -296 44 -529 44 -224 -1 -282 -6 -502 -45 -71 -13 -73 -12
-98 11 -48 45 -36 55 73 56 92 1 125 5 285 41 l67 15 0 49 0 50 38 -3 c37 -3
37 -3 40 -50z m552 -363 c52 -8 96 -17 98 -20 2 -2 -15 -32 -38 -67 -39 -60
-41 -61 -36 -28 14 91 20 84 -69 97 -232 34 -523 26 -762 -22 -146 -30 -133
-29 -133 -7 0 16 16 21 123 36 67 9 160 21 207 26 129 13 498 4 610 -15z
m-159 -454 c24 -19 24 -21 27 -255 l4 -236 -76 0 -76 0 1 213 c2 244 5 267 39
284 35 18 54 16 81 -6z m-327 -2 c14 -7 28 -19 32 -28 5 -9 10 -118 12 -243
l4 -226 -69 -4 c-37 -2 -71 -2 -75 0 -12 5 -10 437 2 467 5 14 20 30 32 35 31
12 33 12 62 -1z m-245 -56 c13 -53 17 -161 14 -330 l-3 -113 -41 0 -40 0 3
223 c3 197 5 225 22 249 23 35 31 30 45 -29z m760 0 c13 -56 17 -142 13 -310
l-2 -123 -40 0 -40 0 0 213 c0 195 2 215 20 245 11 18 24 31 29 28 5 -3 14
-27 20 -53z m-3708 -954 c16 -31 -3 -69 -36 -69 -34 0 -61 41 -45 69 15 29 65
28 81 0z m-1151 -58 c14 -27 13 -37 -6 -55 -23 -23 -51 -20 -69 8 -13 19 -14
29 -5 45 14 28 65 29 80 2z m4328 -373 c3 -32 0 -38 -17 -38 -10 0 -26 -3 -35
-6 -13 -5 -16 2 -16 41 0 46 0 46 33 43 29 -3 32 -6 35 -40z m410 0 c-3 -40
-5 -43 -35 -46 -33 -3 -33 -3 -33 42 0 46 0 46 36 46 l35 0 -3 -42z m-685 -35
c-9 -27 -34 -43 -65 -43 -24 0 -28 4 -28 30 0 29 1 30 50 30 43 0 49 -2 43
-17z m-2150 -199 c19 -5 27 -13 27 -28 l0 -22 -483 4 c-280 3 -597 0 -753 -7
-295 -13 -931 -47 -1061 -57 l-83 -6 0 30 c0 30 1 30 63 36 152 15 586 38
1147 60 135 5 1112 -3 1143 -10z m-1112 -239 c63 -13 158 -37 211 -54 90 -29
97 -34 103 -62 4 -17 5 -33 2 -35 -3 -3 -269 -8 -591 -11 -540 -6 -586 -5
-580 10 17 45 357 158 544 181 64 7 196 -4 311 -29z m978 8 c48 -13 159 -64
199 -91 7 -5 17 -26 22 -46 l8 -36 -316 0 c-371 1 -402 4 -402 34 0 32 10 41
85 78 168 84 269 99 404 61z m-2067 -105 c87 -43 107 -57 108 -75 0 -18 -7
-23 -42 -27 -149 -18 -214 -29 -255 -41 -50 -15 -65 -11 -98 25 l-20 22 50 46
c45 41 130 101 144 102 4 1 54 -23 113 -52z m3245 -1260 c66 -69 111 -210 99
-308 l-5 -45 65 -40 c36 -22 87 -63 113 -92 l48 -51 12 -108 c7 -60 15 -112
17 -116 3 -4 25 -22 50 -38 37 -26 44 -36 44 -63 0 -18 -10 -48 -22 -67 -20
-33 -22 -47 -22 -285 -1 -137 3 -340 8 -451 6 -136 6 -207 -1 -219 -14 -24
-21 74 -33 450 -10 343 -5 478 21 521 27 45 24 59 -26 99 -52 43 -66 81 -71
195 l-4 74 -52 54 c-29 29 -110 92 -180 139 -114 77 -129 85 -145 72 -76 -59
-133 -113 -195 -187 l-73 -85 2 -60 c4 -97 -20 -162 -81 -218 l-51 -47 28 -29
27 -29 4 -224 c5 -286 -15 -715 -33 -733 -11 -10 -12 18 -5 163 4 96 8 311 9
477 0 300 0 302 -22 323 -15 14 -23 32 -23 55 0 27 7 39 43 66 23 18 43 34 45
35 8 5 32 129 28 143 -17 53 38 150 121 214 l53 42 0 120 c0 144 15 185 92
257 56 53 61 53 115 -4z m493 -30 c51 -70 61 -111 58 -238 l-3 -115 -135 0
-135 0 -3 118 c-2 108 0 124 21 170 13 29 43 73 66 100 l43 47 30 -21 c16 -12
43 -39 58 -61z m2268 -50 l-3 -123 -35 0 -35 0 -3 123 -3 122 41 0 41 0 -3
-122z m-1848 -83 l0 -185 -35 0 -35 0 0 185 0 185 35 0 35 0 0 -185z m210 0
l0 -185 -35 0 -35 0 0 185 0 185 35 0 35 0 0 -185z m210 0 l0 -185 -35 0 -35
0 0 185 0 185 35 0 35 0 0 -185z m208 120 c2 -33 1 -88 -3 -122 l-7 -63 -33 0
-33 0 4 118 c2 65 4 121 4 125 0 5 15 7 33 5 32 -3 32 -3 35 -63z m-3248 -181
l0 -184 -35 0 -35 0 0 184 0 185 28 3 c15 2 30 2 35 0 4 -2 7 -86 7 -188z
m425 6 l0 -185 -32 -3 -33 -3 0 191 0 191 33 -3 32 -3 0 -185z m211 179 c3 -6
3 -92 -1 -190 l-7 -180 -32 3 -31 3 -3 182 c-2 167 -1 182 15 186 32 8 52 7
59 -4z m204 -180 l0 -190 -32 3 -33 3 -3 182 c-3 196 -5 188 51 192 16 1 17
-14 17 -190z m210 0 l0 -190 -32 3 -33 3 -3 175 c-2 156 -1 176 15 187 9 7 25
13 35 13 17 0 18 -13 18 -191z m208 -1 l2 -188 -35 0 -35 0 0 191 0 190 33 -3
32 -3 3 -187z m-2918 -3 l0 -185 -40 0 -40 0 0 185 0 185 40 0 40 0 0 -185z
m204 0 l1 -180 -37 -3 -38 -3 0 186 0 186 36 -3 37 -3 1 -180z m206 0 l0 -185
-35 0 -35 0 0 185 0 185 35 0 35 0 0 -185z m210 0 l0 -185 -35 0 -35 0 0 185
0 185 35 0 35 0 0 -185z m210 0 l0 -185 -35 0 -35 0 0 185 0 185 35 0 35 0 0
-185z m200 0 l0 -185 -35 0 -35 0 0 185 0 185 35 0 35 0 0 -185z m210 0 l0
-185 -35 0 -35 0 0 185 0 185 35 0 35 0 0 -185z m210 0 l0 -185 -35 0 -35 0 0
185 0 185 35 0 35 0 0 -185z m4534 114 c4 -3 4 -14 0 -23 -6 -15 -53 -16 -525
-16 -309 0 -519 4 -519 9 0 5 3 17 6 26 6 15 48 17 520 13 282 -1 515 -6 518
-9z m-7773 -131 l34 -12 -45 -7 c-59 -10 -174 -9 -230 0 -43 7 -44 8 -20 19
34 15 219 15 261 0z m-553 -45 c-119 -2 -317 -2 -440 0 -123 1 -25 2 217 2
242 0 342 -1 223 -2z m8234 -349 c27 -31 32 -45 37 -110 6 -68 9 -76 44 -112
l37 -38 0 -342 0 -342 60 0 60 0 0 385 0 385 45 0 45 0 0 -385 0 -385 210 0
210 0 0 233 0 233 35 34 c34 33 35 36 35 111 l0 77 66 56 c36 31 70 56 75 56
14 0 47 -17 101 -53 l48 -32 0 -87 0 -86 65 -41 65 -41 0 -299 0 -300 -52 -6
c-29 -4 -71 -5 -93 -3 l-40 3 -3 118 -3 117 -49 0 -50 0 0 -121 0 -120 -898 2
c-494 1 -904 -1 -910 -5 -9 -5 -12 5 -12 37 0 42 3 46 65 95 l65 53 0 338 0
339 123 4 c67 2 125 3 130 1 4 -2 7 -173 7 -379 l0 -374 90 0 89 0 3 354 3
354 38 54 c34 50 37 60 37 123 l0 69 62 63 61 62 34 -29 c18 -16 48 -46 65
-66z m2355 44 c16 -17 2 -18 -295 -18 -309 0 -312 0 -312 21 0 20 2 20 295 17
264 -3 296 -5 312 -20z m123 -117 c5 -11 10 -22 10 -25 0 -3 -196 -6 -435 -6
-373 0 -435 2 -435 15 0 7 8 19 18 24 11 7 166 11 424 11 393 0 408 -1 418
-19z m-11202 -56 l52 -36 0 -59 c0 -58 0 -59 45 -91 l45 -33 -2 -380 -3 -381
-192 -3 -193 -2 0 384 0 385 45 31 c45 31 45 31 45 90 0 58 0 58 48 94 26 19
49 36 52 36 3 0 29 -16 58 -35z m1664 -44 c81 -54 162 -135 178 -176 6 -15 10
-65 10 -113 l0 -87 105 -79 105 -79 0 -284 0 -283 -489 0 -488 0 -7 31 c-3 17
-6 147 -6 288 l1 256 104 75 105 75 0 101 c0 99 1 102 33 142 62 79 206 182
253 182 12 0 56 -22 96 -49z m5700 -111 l68 -55 0 -71 0 -72 45 -36 45 -37 0
-290 0 -289 -155 0 -154 0 -3 103 -3 102 -32 3 -33 3 0 -105 0 -106 -70 0 -70
0 0 293 1 292 44 34 45 33 0 70 c0 68 1 72 37 105 20 19 59 50 86 68 41 28 54
32 66 22 9 -6 46 -36 83 -67z m3703 -34 l35 -69 0 -213 0 -214 -329 0 -329 0
-7 163 c-7 159 6 352 25 387 7 11 14 3 32 -35 21 -46 23 -66 26 -257 l4 -208
43 0 43 0 4 198 3 197 40 73 c21 39 42 72 45 72 4 0 26 -35 51 -77 l44 -78 3
-192 4 -193 41 0 42 0 0 193 c0 209 -2 198 68 305 l42 62 17 -22 c10 -13 34
-54 53 -92z m-10465 58 c6 -15 10 -188 10 -420 l0 -394 -40 0 -40 0 0 389 c0
256 4 399 11 420 14 39 45 42 59 5z m10650 -144 c5 -29 10 -133 10 -231 l0
-179 -68 0 -67 0 2 78 c2 42 4 142 6 222 2 135 5 149 31 205 l28 60 24 -51
c13 -28 28 -75 34 -104z m-6790 80 c24 -24 25 -47 3 -72 -28 -31 -70 -22 -92
20 -28 53 45 96 89 52z m254 -2 c20 -29 20 -47 -1 -70 -33 -37 -93 -10 -93 43
0 49 66 67 94 27z m244 6 c37 -26 20 -94 -24 -94 -28 0 -74 30 -74 49 0 24 37
55 70 60 3 1 16 -6 28 -15z m256 -3 c26 -29 17 -73 -17 -85 -34 -12 -58 0 -71
37 -19 52 50 90 88 48z m256 -3 c24 -26 25 -37 4 -66 -19 -28 -57 -29 -84 -2
-24 24 -25 38 -4 68 19 28 57 28 84 0z m-792 -795 l3 -103 -43 0 c-24 0 -322
-9 -663 -20 -341 -10 -719 -22 -840 -25 -121 -3 -248 -8 -282 -11 l-62 -5 6
113 c3 62 7 114 8 116 5 6 1469 39 1665 38 l205 -1 3 -102z"/>
<path d="M9980 1515 c-42 -43 -44 -48 -51 -120 -6 -61 -14 -85 -41 -128 l-33
-52 -3 -362 -3 -363 -119 0 -120 0 0 375 0 375 -100 0 -100 0 0 -333 0 -332
-55 -44 c-45 -36 -85 -80 -85 -93 0 -2 398 -2 885 0 l885 2 0 120 0 120 64 0
c100 0 96 5 96 -126 l0 -114 65 0 65 0 0 283 0 283 -62 35 -63 34 -3 92 -3 91
-54 36 c-30 20 -59 36 -63 36 -5 0 -32 -24 -61 -54 l-51 -55 0 -68 c0 -66 -2
-71 -35 -103 l-35 -34 0 -243 0 -243 -132 -2 c-73 -1 -149 -1 -168 0 -19 0
-115 2 -212 2 l-178 2 0 347 c0 341 0 348 -21 367 -36 32 -60 92 -63 156 -3
57 -6 62 -52 109 l-50 49 -44 -45z"/>
<path d="M2911 1308 c-24 -12 -73 -48 -108 -81 l-63 -59 0 -118 0 -118 -77
-55 c-43 -30 -89 -67 -103 -82 l-25 -27 -2 -239 -2 -239 439 0 440 0 0 244 0
244 -105 79 -105 78 0 113 0 112 -42 47 c-50 54 -152 123 -182 123 -12 0 -41
-10 -65 -22z"/>
<path d="M2610 2557 c-327 -82 -597 -151 -599 -153 -2 -2 25 -34 59 -71 67
-73 110 -147 110 -188 0 -14 4 -25 10 -25 5 0 46 30 91 67 l82 67 48 -52 c26
-28 64 -72 84 -96 34 -42 36 -47 26 -83 -6 -21 -11 -95 -11 -165 l0 -128 263
0 c145 0 339 -3 430 -7 l167 -6 0 156 c0 140 2 156 18 161 9 3 71 14 137 26
66 12 124 25 128 29 4 4 5 51 1 105 -7 92 -8 96 -28 90 -12 -4 -87 -24 -167
-44 l-147 -37 -4 161 -4 161 -41 90 c-22 49 -44 90 -49 91 -5 1 -277 -66 -604
-149z"/>
</g>
</svg>
