<?xml version="1.0" standalone="no"?>
<!DOCTYPE svg PUBLIC "-//W3C//DTD SVG 20010904//EN"
 "http://www.w3.org/TR/2001/REC-SVG-20010904/DTD/svg10.dtd">
<svg version="1.0" xmlns="http://www.w3.org/2000/svg"
 width="1280.000000pt" height="640.000000pt" viewBox="0 0 1280.000000 640.000000"
 preserveAspectRatio="xMidYMid meet">
<g transform="translate(0.000000,640.000000) scale(0.100000,-0.100000)"
fill="#000000" stroke="none">
<path d="M6610 6004 c0 -8 5 -12 10 -9 6 4 8 11 5 16 -9 14 -15 11 -15 -7z"/>
<path d="M6596 5940 c-19 -39 -19 -40 -1 -61 16 -16 17 -24 7 -39 -6 -11 -9
-26 -6 -34 4 -9 -5 -20 -25 -31 -39 -20 -40 -45 -1 -88 40 -47 48 -87 21 -111
-27 -24 -27 -51 0 -69 14 -10 20 -23 17 -42 -3 -29 -7 -32 -77 -61 -48 -20
-73 -51 -75 -92 -1 -21 -47 -72 -221 -244 -218 -215 -272 -257 -332 -258 -13
0 -23 -6 -23 -14 0 -8 -11 -17 -24 -20 -28 -7 -39 -35 -37 -91 2 -38 -1 -43
-46 -75 -225 -162 -412 -352 -522 -532 -147 -243 -190 -379 -198 -640 -5 -169
-5 -178 16 -204 24 -30 27 -80 7 -109 -7 -11 -16 -36 -20 -56 l-6 -36 -68 -7
c-37 -3 -99 -6 -138 -6 l-70 0 -46 83 c-90 159 -224 290 -416 404 -117 70
-117 70 -98 98 14 22 14 24 -9 39 -13 9 -30 16 -38 16 -48 0 -251 211 -279
291 -7 20 -22 33 -54 45 -50 19 -58 45 -21 74 l22 18 -23 25 c-30 32 -23 77
19 125 36 40 36 55 3 79 -26 19 -33 60 -19 113 4 15 1 32 -8 44 -14 19 -15 19
-32 -8 -15 -23 -16 -31 -6 -47 18 -30 4 -88 -25 -101 -31 -14 -31 -43 0 -82
36 -47 42 -91 17 -113 -25 -21 -26 -36 -6 -53 28 -24 17 -49 -32 -72 -32 -15
-51 -32 -57 -50 -5 -15 -38 -56 -73 -93 -55 -57 -65 -64 -83 -55 -11 6 -20 15
-20 21 0 5 -18 -5 -40 -22 -22 -18 -40 -38 -40 -45 0 -7 -10 -20 -22 -28 -12
-9 -23 -26 -23 -38 0 -15 -7 -24 -20 -26 -33 -6 -38 -18 -20 -45 9 -15 14 -31
10 -36 -3 -6 -50 -33 -105 -61 -200 -103 -368 -285 -459 -496 -21 -48 -43 -90
-50 -92 -6 -2 -32 17 -58 42 -25 25 -50 46 -53 46 -4 0 -26 18 -49 40 l-41 40
-39 -37 c-22 -21 -67 -63 -102 -93 -66 -59 -119 -131 -119 -164 0 -11 -7 -27
-16 -37 -10 -11 -15 -36 -15 -73 0 -64 -2 -66 -94 -86 -33 -7 -64 -17 -68 -21
-5 -4 17 -14 50 -23 102 -29 103 -30 103 -104 0 -36 5 -82 12 -103 l11 -39 18
30 c26 43 49 30 49 -26 0 -51 -20 -67 -49 -40 -16 15 -19 15 -24 2 -8 -20 -37
-24 -296 -36 -159 -7 -227 -7 -231 0 -9 14 -6 529 3 596 8 65 23 103 42 110
21 8 19 21 -4 29 -10 3 -24 18 -30 33 -7 15 -23 35 -37 45 -24 18 -25 18 -54
-3 -17 -12 -30 -28 -30 -35 0 -8 -11 -22 -25 -31 -24 -16 -25 -18 -9 -35 29
-32 34 -96 34 -404 -1 -221 -4 -303 -13 -312 -13 -13 -554 -40 -582 -29 -15 5
-13 10 9 37 14 17 26 36 26 43 0 8 -27 18 -70 25 -91 17 -101 27 -100 104 1
34 -2 114 -5 178 -6 89 -4 122 6 140 8 13 16 65 19 114 l5 90 70 12 c39 6 83
16 98 22 29 11 28 31 -1 31 -19 0 -151 45 -160 55 -4 4 -5 32 -4 64 3 49 0 61
-22 84 -15 16 -26 37 -26 48 0 48 -41 104 -136 186 -27 23 -72 62 -99 87 l-51
45 -44 -39 c-25 -22 -49 -39 -54 -40 -5 0 -21 -11 -35 -24 -14 -13 -50 -46
-79 -72 -61 -55 -82 -89 -82 -133 0 -17 -8 -38 -19 -48 -13 -12 -22 -39 -27
-81 l-7 -62 -56 -16 c-30 -9 -73 -28 -95 -43 l-39 -26 69 -11 c94 -16 123 -29
128 -56 12 -64 23 -364 14 -392 -6 -17 -13 -64 -17 -105 -7 -82 -5 -80 -93
-105 -32 -10 -58 -22 -58 -29 0 -21 57 -80 69 -72 7 4 29 -4 50 -18 l38 -25
-5 -134 c-3 -94 -8 -140 -19 -156 -13 -21 -13 -26 2 -42 16 -18 16 -56 1 -612
-9 -326 -16 -668 -16 -760 l0 -168 6230 0 6230 0 0 733 c0 655 2 735 16 755
15 22 15 25 -3 44 -15 17 -19 40 -21 140 -2 66 -1 130 2 141 6 23 65 67 89 67
16 0 41 26 50 52 4 11 -8 34 -34 65 -39 48 -39 48 -112 53 l-72 5 -3 50 c-1
28 -10 66 -20 85 -10 21 -18 68 -20 119 -4 71 -1 91 19 132 19 41 20 53 11 74
-7 14 -12 50 -12 79 0 73 22 92 134 115 81 16 85 18 69 33 -10 9 -58 27 -108
40 l-90 23 -7 55 c-18 141 -55 224 -124 277 -63 48 -74 62 -74 92 0 44 43 69
152 90 50 9 93 22 95 27 9 26 -27 46 -125 68 -115 26 -133 36 -114 66 8 13 9
27 3 38 -5 9 -18 54 -29 99 -11 45 -27 95 -36 111 -19 37 -69 81 -140 123 -34
21 -59 43 -62 57 -4 12 -13 22 -21 22 -18 0 -66 32 -110 73 l-32 30 -66 -61
c-36 -34 -72 -62 -79 -62 -8 0 -16 -8 -19 -19 -2 -10 -32 -37 -65 -59 -33 -23
-74 -58 -91 -79 -32 -38 -61 -110 -61 -149 0 -13 -4 -25 -9 -28 -16 -10 -25
-85 -15 -133 8 -40 -2 -45 -143 -82 -59 -15 -108 -32 -109 -37 -2 -5 11 -20
27 -33 24 -19 49 -26 122 -33 50 -5 95 -14 99 -21 4 -7 8 -46 8 -87 1 -53 6
-87 20 -115 16 -33 19 -62 19 -165 0 -90 -4 -132 -14 -150 -9 -15 -14 -54 -15
-101 0 -49 -5 -80 -12 -87 -7 -6 -42 -15 -78 -21 -98 -17 -110 -20 -110 -32 0
-6 23 -34 50 -63 28 -29 50 -58 50 -64 0 -20 -370 -37 -396 -18 -25 19 -22
184 5 238 10 20 11 31 3 41 -28 33 -31 64 -10 103 16 30 19 48 13 93 -24 203
-111 379 -259 523 -74 73 -260 203 -395 276 -57 31 -106 63 -109 70 -2 7 1 24
8 37 13 25 7 45 -15 45 -7 0 -26 6 -42 14 -15 8 -44 20 -63 27 -42 15 -250
221 -269 266 -10 24 -26 37 -65 53 l-52 21 -48 -22 c-36 -16 -52 -30 -64 -58
-20 -44 -153 -202 -218 -260 -26 -23 -63 -46 -84 -52 -20 -6 -47 -19 -61 -29
-19 -15 -22 -21 -11 -31 32 -33 15 -56 -100 -135 -340 -236 -524 -457 -573
-689 -20 -94 -20 -199 0 -215 20 -17 19 -70 -2 -99 -13 -20 -14 -27 -3 -44 19
-31 40 -143 40 -214 0 -51 -3 -64 -19 -73 -11 -5 -78 -10 -150 -10 -115 0
-130 2 -135 18 -7 25 -17 233 -20 432 -4 192 8 326 29 350 12 13 8 22 -31 67
-32 37 -49 50 -63 46 -17 -4 -20 3 -26 54 -20 171 -38 263 -70 348 -41 108
-42 121 -15 135 25 13 26 28 3 37 -10 4 -40 28 -67 55 -44 44 -48 51 -42 82 7
38 -5 54 -24 31 -7 -8 -16 -15 -20 -15 -4 0 -27 25 -50 56 -104 138 -236 262
-414 390 -96 69 -117 96 -98 130 12 21 4 54 -13 54 -7 0 -18 6 -24 14 -7 8
-25 18 -41 21 -86 19 -148 67 -387 297 -78 75 -154 145 -168 154 -20 13 -25
23 -20 41 9 39 -27 80 -87 98 -29 8 -55 21 -60 28 -14 22 -8 56 12 67 26 14
26 42 -1 66 -27 25 -18 76 23 122 16 19 27 41 24 49 -3 8 -6 17 -6 19 0 3 -11
9 -25 14 -17 7 -25 17 -25 34 0 14 -5 28 -10 31 -7 4 -4 17 7 35 16 28 16 31
-2 64 -11 20 -22 36 -25 36 -3 0 -14 -18 -24 -40z m5124 -2579 c16 -32 13
-237 -5 -271 -16 -31 -59 -50 -76 -33 -6 6 -11 62 -12 126 -2 107 0 117 21
139 12 13 22 32 22 41 0 24 37 22 50 -2z m85 -167 c-1 -43 -5 -79 -10 -79 -12
0 -30 128 -21 151 3 8 12 14 19 11 8 -3 12 -28 12 -83z m-11085 -406 c11 -24
20 -56 20 -72 0 -28 1 -29 14 -10 13 17 15 17 21 3 9 -25 1 -154 -10 -154 -5
0 -12 14 -15 30 -6 30 -6 29 -13 -10 -11 -64 -31 -85 -81 -85 -27 0 -48 6 -56
15 -19 22 -9 185 13 218 9 15 17 35 17 47 0 24 33 60 55 60 9 0 25 -19 35 -42z
m-226 10 c24 -34 22 -193 -3 -251 -16 -38 -24 -45 -53 -50 -61 -9 -68 2 -68
107 0 91 18 160 52 204 16 19 55 14 72 -10z m72 -63 c8 -23 14 -80 14 -132 0
-77 -3 -93 -16 -93 -27 0 -44 63 -44 163 0 52 3 97 7 101 13 13 25 0 39 -39z
m-261 -65 c0 -103 -6 -134 -28 -138 -15 -3 -17 8 -17 96 0 112 5 134 29 130
13 -3 16 -18 16 -88z m53 -39 c-2 -69 -6 -86 -18 -86 -12 0 -16 17 -18 84 -3
100 1 119 23 101 12 -10 15 -32 13 -99z m492 10 c0 -82 -3 -103 -19 -122 -11
-13 -23 -20 -28 -16 -10 10 -10 195 -1 220 4 9 17 17 28 17 19 0 20 -6 20 -99z
m11624 -5 c9 -60 -22 -126 -59 -126 -37 0 -54 48 -38 112 4 17 59 58 79 58 7
0 15 -20 18 -44z m-10019 -212 c20 -8 45 -56 45 -88 0 -50 -8 -56 -75 -56 -35
0 -67 5 -70 10 -8 13 23 98 43 123 16 18 30 21 57 11z m218 -44 c13 -24 18
-44 14 -62 -6 -23 -13 -27 -63 -33 -44 -5 -60 -3 -72 9 -11 11 -12 19 -5 28 6
7 13 26 17 43 11 43 25 56 59 53 21 -2 35 -12 50 -38z"/>
<path d="M9751 4931 c-14 -26 12 -50 34 -31 11 9 12 16 2 31 -15 24 -24 24
-36 0z"/>
<path d="M9767 4834 c-4 -4 -7 -15 -7 -25 0 -10 -13 -25 -30 -34 -16 -9 -30
-22 -30 -30 0 -7 18 -35 40 -60 22 -25 40 -42 40 -36 0 6 14 26 30 44 37 42
38 64 5 79 -15 6 -28 24 -33 40 -4 16 -11 26 -15 22z"/>
<path d="M9757 4562 c-22 -24 -21 -34 3 -50 17 -11 24 -9 42 8 21 19 21 20 3
40 -22 25 -28 25 -48 2z"/>
<path d="M11910 4500 c0 -5 5 -10 10 -10 6 0 10 5 10 10 0 6 -4 10 -10 10 -5
0 -10 -4 -10 -10z"/>
<path d="M11905 4420 c-3 -5 -2 -17 3 -26 8 -14 10 -14 21 0 13 15 8 36 -9 36
-5 0 -12 -4 -15 -10z"/>
<path d="M8039 4270 c-6 -52 -1 -81 11 -59 4 8 4 34 1 59 l-7 45 -5 -45z"/>
<path d="M3478 3900 c-6 -38 -1 -57 12 -43 5 4 5 24 1 43 l-7 35 -6 -35z"/>
<path d="M560 3704 c0 -8 5 -12 10 -9 6 4 8 11 5 16 -9 14 -15 11 -15 -7z"/>
<path d="M552 3638 c2 -13 8 -23 13 -23 6 0 11 10 13 23 2 15 -2 22 -13 22
-11 0 -15 -7 -13 -22z"/>
<path d="M2510 3211 c0 -6 5 -13 10 -16 6 -3 10 1 10 9 0 9 -4 16 -10 16 -5 0
-10 -4 -10 -9z"/>
<path d="M2510 3145 c0 -14 4 -25 9 -25 12 0 23 29 15 41 -10 18 -24 9 -24
-16z"/>
<path d="M1650 3141 c0 -6 5 -13 10 -16 6 -3 10 1 10 9 0 9 -4 16 -10 16 -5 0
-10 -4 -10 -9z"/>
</g>
</svg>
