<?xml version="1.0" standalone="no"?>
<!DOCTYPE svg PUBLIC "-//W3C//DTD SVG 20010904//EN"
 "http://www.w3.org/TR/2001/REC-SVG-20010904/DTD/svg10.dtd">
<svg version="1.0" xmlns="http://www.w3.org/2000/svg"
 width="1274.000000pt" height="1280.000000pt" viewBox="0 0 1274.000000 1280.000000"
 preserveAspectRatio="xMidYMid meet">
<metadata>
Created by potrace 1.15, written by Peter Selinger 2001-2017
</metadata>
<g transform="translate(0.000000,1280.000000) scale(0.100000,-0.100000)"
fill="#000000" stroke="none">
<path d="M6366 12743 c-3 -27 -4 -69 -2 -95 2 -32 -1 -51 -10 -59 -19 -16 -18
-36 3 -48 15 -8 15 -11 3 -26 -12 -14 -12 -18 1 -26 11 -7 7 -16 -23 -45 -44
-41 -47 -56 -15 -81 38 -31 32 -58 -19 -82 -26 -12 -76 -54 -116 -96 -56 -59
-78 -75 -100 -75 -18 0 -28 -5 -28 -14 0 -9 -12 -16 -32 -18 -21 -2 -33 -8
-33 -18 0 -8 -9 -17 -20 -20 -80 -22 -228 -124 -318 -219 -53 -56 -78 -95
-122 -186 l-54 -114 -41 26 c-45 30 -46 34 -24 98 16 49 12 76 -17 114 -23 28
-25 77 -4 85 19 7 9 33 -15 41 -11 3 -22 15 -25 27 -4 11 -27 29 -53 41 -26
11 -53 27 -60 36 -8 9 -11 10 -7 3 4 -8 -10 -31 -34 -57 -23 -25 -41 -52 -41
-61 0 -10 -7 -25 -16 -35 -17 -19 -11 -39 12 -39 8 0 19 -12 24 -26 13 -33 13
-84 0 -84 -21 0 -8 -39 28 -86 21 -27 43 -60 49 -74 12 -26 40 -160 42 -195 1
-39 22 -149 67 -357 44 -202 46 -212 31 -244 l-16 -33 -39 22 c-35 19 -42 20
-57 7 -9 -8 -21 -24 -26 -37 l-8 -22 -43 19 c-49 22 -55 20 -75 -27 -8 -19
-16 -34 -18 -32 -2 2 -13 42 -24 89 -47 187 -134 308 -276 382 -67 35 -199 78
-239 78 -10 0 -24 8 -31 17 -10 13 -30 17 -88 19 -65 1 -83 6 -126 32 -27 17
-74 37 -103 44 -31 8 -52 19 -50 26 1 7 -3 12 -10 12 -6 0 -4 8 6 19 22 24 11
49 -28 59 -17 5 -31 15 -31 23 0 8 -6 18 -13 22 -7 5 -10 17 -7 28 4 12 1 21
-8 25 -8 3 -29 34 -47 70 -36 72 -52 79 -27 12 9 -24 17 -47 18 -53 0 -5 5
-15 10 -21 5 -6 7 -19 3 -28 -4 -10 0 -18 10 -22 9 -3 16 -14 16 -24 0 -10 5
-20 10 -22 7 -2 6 -14 -2 -34 -14 -40 -5 -64 25 -64 31 0 31 -23 1 -75 -12
-22 -30 -66 -39 -98 -13 -47 -28 -69 -72 -113 -36 -35 -53 -59 -49 -69 3 -9
-9 -36 -28 -63 -46 -64 -91 -156 -111 -226 -26 -87 -17 -222 19 -301 30 -65
84 -141 140 -195 19 -19 36 -38 36 -42 0 -5 -16 -8 -34 -8 -28 0 -38 -5 -48
-27 -14 -29 -42 -46 -32 -19 5 12 -2 18 -26 23 -20 3 -35 13 -37 25 -7 24 -29
23 -36 -2 -10 -39 -43 -23 -80 37 -33 54 -34 59 -21 85 19 37 19 38 -22 31
-28 -5 -40 -1 -62 19 -42 40 -66 48 -138 48 -52 0 -70 4 -81 18 -12 15 -13 14
-7 -11 4 -18 -1 -45 -15 -77 -25 -59 -27 -102 -4 -136 15 -24 15 -28 -1 -61
-9 -19 -15 -37 -13 -39 2 -2 17 0 34 5 29 8 34 6 77 -45 l47 -53 -20 -39 c-21
-41 -15 -62 20 -62 9 0 31 -5 50 -12 l33 -11 -39 -11 c-32 -9 -42 -18 -50 -44
-7 -26 -17 -34 -48 -43 -23 -6 -42 -19 -48 -32 -8 -19 -17 -22 -50 -19 -30 3
-39 1 -39 -11 0 -9 5 -19 11 -23 8 -5 6 -10 -5 -16 -9 -5 -16 -20 -16 -34 0
-20 -9 -29 -44 -45 -37 -16 -45 -25 -50 -54 -5 -27 -12 -35 -28 -35 -28 0 -68
-38 -61 -57 5 -13 2 -13 -15 -4 -20 11 -22 9 -22 -14 0 -52 -41 -31 -174 91
-69 63 -126 119 -126 125 0 5 -6 9 -14 9 -21 0 -39 64 -31 111 5 31 3 45 -11
60 -15 17 -16 22 -5 29 17 10 7 40 -13 40 -8 0 -17 -8 -21 -19 -9 -29 -42 -64
-50 -51 -4 7 -12 7 -26 -1 -30 -15 -52 -4 -99 52 -31 37 -39 53 -31 62 11 14
27 97 18 97 -3 0 -25 -8 -49 -19 -52 -22 -69 -21 -128 7 -57 27 -62 27 -186
-5 -91 -24 -106 -26 -114 -13 -5 8 -10 11 -10 6 0 -5 -8 -2 -17 6 -35 29 -48
31 -23 2 14 -16 28 -30 32 -32 13 -6 9 -52 -8 -84 -9 -17 -18 -66 -21 -108 -6
-75 -5 -77 26 -113 31 -35 32 -37 17 -66 -16 -31 -22 -101 -8 -101 4 0 25 11
47 25 22 13 47 25 55 25 17 0 150 -89 150 -102 0 -4 -8 -16 -17 -25 -26 -26
-19 -97 11 -116 19 -13 30 -13 71 -2 54 13 102 7 131 -19 11 -9 69 -53 129
-98 125 -92 155 -118 155 -134 0 -7 41 -42 90 -79 50 -37 90 -72 90 -79 0 -6
12 -16 28 -22 20 -8 424 -298 524 -377 26 -21 12 -64 -23 -72 -34 -8 -46 -23
-25 -31 14 -5 13 -10 -5 -33 -11 -14 -26 -26 -32 -26 -6 0 -13 -13 -14 -29 -1
-15 -8 -36 -16 -45 -8 -9 -18 -26 -21 -38 -4 -11 -13 -27 -21 -33 -8 -7 -15
-20 -15 -30 0 -10 -7 -20 -15 -24 -8 -3 -15 -14 -15 -24 0 -11 -7 -25 -15 -32
-8 -7 -15 -20 -15 -30 0 -10 -7 -23 -15 -30 -8 -7 -15 -20 -15 -30 0 -10 -7
-23 -15 -30 -8 -7 -15 -18 -15 -25 0 -8 -8 -28 -17 -47 -30 -61 -33 -68 -33
-84 0 -12 -7 -15 -25 -12 -22 5 -28 -2 -54 -58 -17 -36 -36 -64 -44 -64 -9 0
-23 -22 -33 -51 -11 -28 -24 -53 -29 -56 -9 -3 -245 75 -346 115 -14 6 -37 25
-50 42 -65 85 -92 100 -103 55 -4 -14 -13 -28 -21 -31 -17 -7 -539 148 -603
179 -36 17 -52 33 -71 69 -13 25 -33 49 -45 53 -18 6 -19 8 -3 12 21 6 22 17
2 33 -8 7 -15 9 -15 5 0 -4 -7 -2 -15 5 -18 15 -19 15 -33 -27 -9 -27 -8 -33
4 -33 19 0 17 -10 -6 -38 l-19 -23 -143 41 c-241 70 -501 151 -531 166 -28 15
-41 36 -52 87 -4 21 -16 33 -42 44 -41 17 -34 21 -94 -55 -18 -24 -19 -24 -68
-7 -27 9 -61 25 -75 36 -21 17 -24 24 -16 45 16 41 12 60 -16 75 -24 12 -28
12 -46 -11 -34 -42 -68 -59 -104 -53 -44 7 -104 -28 -193 -116 l-70 -68 -48 7
c-38 6 -44 5 -30 -4 40 -24 57 -44 57 -67 1 -13 0 -64 -1 -112 -1 -107 11
-142 61 -167 l38 -19 -10 -47 c-9 -41 -8 -49 8 -61 29 -21 41 -16 75 33 l31
46 62 -7 c86 -10 99 -19 94 -63 -3 -21 -8 -44 -12 -53 -5 -12 5 -21 45 -38
l51 -23 27 25 c28 26 80 47 118 47 13 0 143 -38 290 -85 146 -47 292 -92 324
-101 67 -19 70 -27 39 -95 -25 -57 -25 -73 0 -66 10 3 21 0 23 -6 2 -6 12 -2
23 9 12 12 27 21 35 21 9 0 29 9 45 21 60 44 98 41 370 -36 137 -39 272 -77
299 -84 50 -14 50 -14 49 -55 0 -37 2 -41 32 -52 29 -11 37 -9 61 9 47 34 112
35 271 1 79 -16 145 -31 147 -33 1 -2 -6 -37 -16 -78 -29 -119 -27 -126 26
-134 40 -6 45 -10 45 -32 0 -14 5 -45 11 -70 15 -59 -1 -94 -42 -94 -35 0 -36
-2 -40 -75 -4 -59 -4 -60 25 -65 16 -3 31 -11 33 -17 4 -10 -11 -11 -55 -7
-33 3 -62 1 -65 -3 -3 -4 -8 -29 -12 -55 l-7 -48 29 0 30 0 12 -87 c36 -262
42 -298 51 -315 14 -25 12 -55 -2 -61 -9 -3 -8 -10 6 -26 15 -16 17 -24 8 -33
-18 -18 -15 -35 7 -41 10 -2 20 -16 23 -30 6 -30 25 -24 -232 -77 -200 -42
-250 -43 -309 -9 -28 17 -39 18 -66 9 -31 -10 -33 -13 -28 -50 l5 -38 -68 -21
c-38 -11 -103 -27 -144 -36 -41 -9 -138 -35 -215 -57 -77 -23 -157 -45 -177
-49 -48 -11 -109 2 -138 29 -22 20 -24 20 -68 4 l-46 -17 3 -47 2 -47 -73 -21
c-40 -12 -185 -58 -323 -102 -282 -90 -313 -93 -385 -43 l-41 28 -45 -22 c-33
-16 -44 -26 -40 -37 3 -9 9 -36 11 -59 l6 -43 -48 -10 c-123 -26 -115 -28
-151 28 l-32 50 -29 -15 c-27 -14 -28 -17 -20 -52 13 -57 12 -60 -29 -80 -52
-25 -65 -69 -59 -197 l4 -99 -34 -33 -34 -33 49 6 c47 5 48 5 97 -47 28 -29
77 -70 109 -91 50 -33 67 -39 112 -39 49 0 54 -3 86 -40 32 -39 34 -40 57 -24
23 17 25 47 6 95 -4 11 7 22 42 41 84 45 96 44 139 -7 20 -25 45 -45 54 -45
32 0 67 38 74 80 4 26 14 45 30 56 14 8 175 62 358 119 l333 104 22 -27 c12
-15 22 -30 23 -34 0 -14 38 -8 59 9 12 10 23 29 26 43 11 57 41 69 594 234 79
23 86 24 98 8 7 -9 13 -23 13 -29 0 -20 38 -15 58 8 77 91 83 95 217 139 72
23 155 53 185 65 105 42 106 42 126 -18 74 -229 226 -539 392 -806 63 -101 64
-103 46 -121 -39 -39 -409 -309 -466 -342 -33 -18 -73 -47 -90 -65 -16 -17
-49 -44 -71 -60 -58 -39 -107 -84 -107 -98 0 -13 -27 -36 -172 -149 -54 -41
-98 -72 -98 -68 0 4 -5 -1 -11 -10 -15 -27 -74 -39 -130 -26 -43 10 -51 9 -69
-7 -25 -23 -26 -76 -3 -112 17 -25 16 -26 -12 -50 -17 -13 -43 -31 -60 -40
-16 -8 -38 -22 -47 -31 -16 -14 -22 -12 -67 16 -40 25 -51 28 -55 15 -11 -27
-6 -70 9 -83 22 -19 18 -39 -16 -78 -29 -33 -31 -39 -26 -96 8 -87 13 -114 25
-128 23 -28 17 -64 -15 -98 -33 -36 -37 -56 -5 -27 10 10 24 17 30 17 7 0 12
5 12 10 0 14 46 12 78 -4 15 -7 61 -19 102 -26 78 -12 109 -6 162 32 17 12 36
9 121 -19 13 -4 17 0 17 23 0 16 -6 40 -13 54 -12 23 -10 29 32 78 24 29 52
57 62 63 25 13 50 0 47 -25 -3 -18 2 -21 29 -20 17 1 43 10 57 20 24 18 26 23
21 74 -3 35 -1 62 7 75 12 18 140 143 255 248 46 41 72 47 80 17 3 -11 11 -20
18 -20 8 0 16 -8 19 -18 4 -10 25 -27 49 -38 33 -15 43 -25 47 -49 4 -25 13
-33 48 -45 36 -12 42 -18 42 -43 0 -16 7 -30 16 -34 10 -4 14 -13 10 -29 -7
-27 8 -39 45 -36 16 2 29 -3 32 -12 3 -8 24 -20 46 -27 32 -9 41 -18 46 -41 4
-17 17 -34 31 -40 29 -13 22 -28 -13 -28 -15 0 -34 -7 -44 -16 -16 -15 -16
-17 3 -50 19 -33 19 -35 3 -62 -10 -15 -29 -40 -44 -55 -22 -24 -31 -27 -64
-22 l-38 7 17 -35 c16 -33 16 -38 0 -77 -18 -44 -15 -67 16 -142 20 -46 20
-49 3 -75 l-18 -28 27 24 c20 19 38 25 83 26 89 3 90 3 129 37 29 26 43 31 76
29 l40 -2 -18 29 c-16 29 -16 31 12 81 30 56 64 85 64 55 0 -13 6 -15 28 -10
15 4 32 14 39 22 9 13 15 13 32 2 17 -11 25 -10 42 0 12 7 22 12 22 10 15 -31
28 -44 46 -46 20 -3 15 -11 -40 -70 -182 -194 -194 -434 -34 -673 29 -43 55
-89 59 -103 5 -22 72 -96 87 -96 3 0 14 -26 24 -58 10 -31 31 -81 47 -109 17
-31 24 -53 18 -53 -7 0 -10 -7 -6 -15 3 -10 -1 -15 -13 -15 -30 0 -47 -28 -33
-51 16 -25 6 -85 -15 -93 -9 -4 -12 -13 -8 -25 3 -10 0 -31 -6 -47 -22 -55
-39 -118 -30 -109 5 6 22 35 37 65 15 30 33 63 42 72 8 10 12 24 9 32 -4 9 -2
18 3 21 6 4 10 15 10 26 0 12 7 19 18 19 10 0 27 6 37 14 16 12 18 18 7 40
-16 36 -7 51 41 66 23 7 74 27 112 46 61 29 79 33 138 31 52 -1 72 2 80 14 7
8 50 25 97 37 254 66 387 195 451 437 l23 88 23 -29 c13 -16 23 -33 23 -37 0
-9 33 -2 69 16 20 10 25 9 29 -2 10 -29 52 -63 65 -53 29 24 56 23 71 -1 15
-22 13 -38 -23 -218 -36 -180 -61 -319 -76 -429 -12 -93 -36 -156 -78 -204
-41 -48 -54 -94 -30 -103 25 -10 4 -93 -23 -93 -19 0 -25 -27 -8 -40 7 -7 19
-30 24 -51 7 -24 23 -48 40 -61 17 -12 30 -29 30 -37 1 -14 2 -14 10 0 5 9 24
22 42 29 18 7 43 24 55 38 17 20 24 23 36 14 11 -9 18 -8 33 9 19 21 18 21 -9
44 -28 25 -35 49 -16 61 6 3 9 19 5 35 -4 21 -2 27 8 23 16 -6 40 52 26 61 -5
3 -13 20 -19 38 -5 18 -12 39 -16 49 -5 11 0 18 17 23 13 4 31 14 41 23 22 19
30 11 51 -54 19 -59 71 -149 122 -211 46 -56 182 -157 271 -201 40 -20 73 -42
73 -49 0 -8 14 -16 31 -20 17 -3 33 -12 36 -19 3 -8 19 -14 36 -14 25 0 46
-15 107 -75 44 -42 97 -83 122 -94 37 -16 45 -24 46 -45 0 -16 -7 -28 -19 -31
-11 -4 -22 -18 -26 -33 -5 -21 0 -31 25 -52 34 -28 40 -45 20 -53 -10 -4 -10
-8 2 -16 12 -8 12 -13 0 -35 -11 -22 -11 -28 2 -43 9 -11 16 -41 17 -73 1 -30
7 -73 13 -95 l11 -40 9 39 c4 22 7 66 4 98 -2 41 1 61 10 69 19 16 18 36 -3
48 -15 8 -15 11 -3 26 12 14 12 18 -1 26 -11 7 -7 16 24 45 43 41 46 56 14 81
-38 31 -32 57 21 84 26 13 78 57 116 96 54 57 76 73 98 73 18 0 28 5 28 14 0
9 12 16 33 18 20 2 32 8 32 18 0 8 9 17 20 20 11 3 45 18 75 34 160 83 287
208 355 350 25 52 45 99 45 104 0 17 27 34 35 22 4 -6 18 -15 31 -20 34 -13
39 -33 20 -91 -18 -54 -15 -79 15 -118 23 -28 25 -77 4 -85 -19 -7 -9 -33 15
-41 11 -3 22 -15 25 -27 4 -11 27 -29 53 -41 26 -11 53 -27 60 -36 8 -9 11
-10 7 -3 -4 8 10 31 34 57 23 25 41 52 41 61 0 10 7 25 16 35 17 19 11 39 -12
39 -8 0 -19 12 -24 26 -13 33 -13 84 0 84 21 0 8 39 -28 86 -21 27 -43 60 -49
74 -12 26 -40 160 -42 195 -1 39 -22 149 -67 357 -44 202 -46 212 -31 244 l16
33 39 -22 c35 -19 42 -20 57 -7 9 8 21 25 26 37 8 23 10 23 38 8 49 -25 70
-20 87 21 8 20 17 35 19 33 2 -2 13 -42 24 -89 47 -187 134 -308 276 -382 67
-35 199 -78 239 -78 10 0 24 -8 31 -17 10 -13 30 -17 87 -19 63 -1 83 -6 130
-33 31 -18 79 -38 105 -45 27 -7 47 -17 45 -24 -1 -7 3 -12 10 -12 6 0 4 -8
-6 -19 -22 -24 -11 -49 28 -59 17 -5 31 -15 31 -23 0 -8 6 -18 13 -22 7 -5 10
-17 7 -28 -4 -12 -1 -21 8 -25 8 -3 29 -34 47 -70 36 -73 52 -78 26 -9 -10 24
-18 48 -18 52 0 5 -4 13 -9 19 -5 6 -7 19 -3 28 4 10 0 18 -10 22 -9 3 -16 14
-16 24 0 10 -5 20 -10 22 -7 2 -6 14 2 34 14 40 5 64 -25 64 -31 0 -31 23 -1
75 12 22 30 66 39 98 13 47 28 69 72 113 34 34 53 59 50 69 -4 8 10 38 30 67
94 140 127 242 121 372 -3 80 -8 100 -41 167 -23 48 -60 101 -102 146 -36 39
-65 74 -65 77 0 3 16 6 34 6 28 0 38 5 48 27 14 29 42 46 32 19 -5 -12 2 -18
26 -23 20 -3 35 -13 37 -25 7 -24 29 -23 36 2 10 39 43 23 80 -37 33 -54 34
-59 21 -85 -19 -37 -19 -38 22 -31 28 5 40 1 62 -19 42 -40 66 -48 138 -48 52
0 70 -4 80 -17 12 -16 13 -14 8 13 -4 19 0 43 9 60 27 52 31 102 12 143 -16
36 -16 40 0 71 9 17 15 34 13 36 -3 2 -18 0 -35 -5 -29 -8 -34 -6 -77 45 l-47
53 20 39 c21 41 15 62 -20 62 -9 0 -31 5 -50 12 l-34 12 40 11 c32 9 42 18 50
43 7 26 17 34 48 43 23 6 42 19 48 32 8 19 17 22 50 19 30 -3 39 -1 39 11 0 9
-5 19 -11 23 -8 5 -6 10 5 16 9 5 16 20 16 34 0 20 9 29 44 45 37 16 45 25 50
54 5 27 12 35 28 35 28 0 68 38 61 57 -5 13 -2 13 15 4 20 -11 22 -9 22 14 0
52 41 31 174 -91 69 -64 126 -120 126 -125 0 -5 6 -9 14 -9 21 0 39 -64 31
-111 -5 -31 -3 -45 11 -60 15 -17 16 -22 5 -29 -17 -10 -7 -40 13 -40 8 0 17
8 21 19 9 29 42 64 50 51 4 -7 12 -7 26 1 30 15 52 4 99 -52 31 -37 39 -53 31
-62 -11 -14 -27 -97 -18 -97 3 0 25 8 49 19 52 22 69 21 128 -7 57 -27 62 -27
186 5 91 24 106 26 114 13 5 -8 10 -11 10 -6 0 5 8 2 18 -6 34 -29 47 -31 22
-2 -14 16 -28 30 -32 32 -13 6 -9 52 8 84 9 17 18 66 21 108 6 75 5 77 -26
113 -31 35 -32 37 -17 66 16 31 22 101 9 101 -5 0 -26 -11 -48 -25 -22 -13
-47 -25 -55 -25 -17 0 -150 89 -150 102 0 4 8 16 18 26 25 25 18 96 -12 115
-19 13 -30 13 -71 2 -54 -13 -102 -7 -131 19 -11 9 -64 50 -119 91 -122 90
-165 127 -165 142 0 6 -40 41 -90 78 -49 37 -90 72 -90 79 0 6 -12 16 -27 22
-23 9 -417 292 -515 370 -35 28 -28 70 13 79 34 8 46 23 25 31 -14 5 -13 10 5
33 11 14 26 26 32 26 6 0 13 13 14 29 1 15 8 36 16 45 8 9 18 26 21 38 4 11
13 27 21 33 8 7 15 20 15 30 0 10 7 20 15 24 8 3 15 14 15 24 0 11 7 25 15 32
8 7 15 20 15 30 0 10 7 23 15 30 8 7 15 20 15 30 0 10 7 23 15 30 8 7 15 18
15 25 0 8 8 28 17 47 30 61 33 68 33 84 0 12 7 15 25 12 22 -5 28 2 54 58 17
35 36 64 44 64 8 0 22 21 32 48 10 26 21 51 25 56 5 4 76 -15 160 -44 202 -69
214 -75 242 -110 66 -88 87 -98 105 -50 6 17 18 30 26 30 26 0 550 -161 596
-183 35 -17 52 -33 70 -69 13 -25 33 -49 45 -53 18 -6 19 -8 4 -12 -22 -6 -23
-17 -3 -33 8 -7 15 -9 15 -5 0 4 7 2 15 -5 18 -15 19 -15 33 28 9 26 8 32 -4
32 -19 0 -17 10 6 38 l19 23 143 -41 c254 -73 472 -141 515 -160 42 -19 56
-37 68 -93 4 -21 16 -33 42 -44 41 -17 34 -21 94 55 18 24 19 24 68 7 27 -9
61 -25 75 -36 21 -17 24 -24 16 -45 -16 -41 -12 -60 16 -75 24 -12 28 -12 46
11 34 42 68 59 104 53 44 -7 104 28 193 116 l70 68 48 -7 c38 -6 44 -5 30 4
-40 24 -57 44 -57 67 -1 13 0 64 1 112 1 107 -11 142 -61 167 l-38 19 10 47
c9 41 8 49 -8 61 -29 21 -41 16 -75 -33 l-31 -46 -62 7 c-86 10 -99 19 -94 63
3 21 8 44 12 53 5 12 -5 21 -45 38 l-51 22 -24 -22 c-26 -25 -86 -49 -122 -49
-12 0 -142 38 -289 85 -146 47 -292 92 -324 101 -67 19 -70 27 -39 95 25 57
25 73 0 66 -10 -3 -21 0 -23 6 -2 6 -12 2 -23 -9 -12 -12 -27 -21 -35 -21 -9
0 -29 -9 -45 -21 -60 -44 -98 -41 -370 36 -137 39 -271 77 -299 84 -50 14 -50
14 -49 55 0 37 -2 41 -32 52 -29 11 -37 9 -61 -9 -47 -34 -112 -35 -271 -1
-79 16 -145 31 -147 33 -1 2 6 37 16 78 29 119 27 126 -26 134 -40 6 -45 10
-45 32 0 14 -5 45 -11 70 -15 59 1 94 42 94 31 0 36 11 41 90 3 42 1 45 -26
50 -16 3 -31 11 -33 17 -4 10 11 11 55 7 33 -3 62 -1 65 3 3 4 8 29 12 56 l7
47 -29 0 -30 0 -12 88 c-7 48 -14 101 -16 117 -3 17 -9 64 -15 105 -6 41 -15
83 -20 92 -14 25 -12 55 3 61 8 3 7 10 -7 26 -15 16 -17 24 -8 33 18 18 15 35
-7 41 -10 2 -20 16 -23 30 -6 30 -25 24 232 77 200 42 250 43 309 9 28 -17 39
-18 66 -9 31 10 33 13 28 50 l-5 38 68 21 c38 11 103 27 144 36 41 9 138 35
215 57 77 23 157 45 178 49 47 11 108 -2 137 -29 22 -20 24 -20 68 -4 l46 17
-3 47 -2 46 88 27 c48 14 187 59 308 98 262 85 314 91 384 43 l42 -29 45 22
c33 16 44 26 40 37 -3 9 -9 35 -11 59 l-5 43 71 16 c39 9 77 16 83 16 6 0 26
-23 44 -50 32 -50 32 -50 61 -35 27 14 28 17 20 52 -13 57 -12 60 29 80 52 25
65 69 59 197 l-4 99 34 33 34 33 -49 -6 c-47 -5 -48 -5 -97 47 -28 29 -77 70
-109 91 -50 33 -67 39 -112 39 -49 0 -54 3 -86 40 -32 39 -34 40 -57 24 -23
-17 -25 -47 -6 -95 4 -11 -7 -22 -42 -41 -84 -45 -96 -44 -139 7 -20 25 -45
45 -54 45 -32 0 -67 -38 -74 -80 -4 -26 -14 -45 -30 -56 -14 -8 -175 -62 -358
-119 l-333 -104 -22 27 c-12 15 -22 30 -23 35 0 13 -38 7 -59 -10 -12 -10 -23
-29 -26 -43 -11 -57 -41 -69 -594 -234 -79 -23 -86 -24 -98 -8 -7 9 -13 23
-13 30 0 19 -38 14 -56 -7 -76 -90 -86 -97 -219 -141 -71 -23 -155 -53 -185
-65 -110 -44 -103 -47 -139 55 -84 240 -236 546 -392 791 -27 42 -49 79 -49
82 0 17 436 339 513 379 22 11 50 32 63 47 12 15 42 41 66 57 59 40 108 85
108 99 0 13 27 36 173 149 53 41 97 72 97 68 0 -4 5 1 11 10 15 27 74 39 130
26 43 -10 51 -9 69 7 24 22 27 76 4 110 -9 13 -13 28 -10 34 3 5 38 30 77 56
l71 47 48 -30 c40 -25 50 -28 54 -15 11 27 6 70 -9 83 -22 19 -18 39 16 78 29
33 31 39 26 96 -8 87 -13 114 -25 128 -23 28 -17 64 15 98 33 36 37 56 5 27
-10 -10 -24 -17 -30 -17 -7 0 -12 -4 -12 -10 0 -14 -46 -13 -73 2 -35 18 -159
39 -199 32 -20 -3 -44 -14 -54 -25 -21 -23 -52 -24 -101 -4 -19 8 -39 15 -44
15 -14 0 -10 -64 5 -85 13 -17 9 -24 -32 -73 -25 -29 -53 -57 -63 -63 -25 -13
-50 0 -47 25 3 18 -2 21 -29 20 -17 -1 -43 -10 -57 -20 -24 -18 -26 -23 -21
-74 3 -35 1 -62 -7 -75 -12 -18 -140 -143 -255 -247 -46 -42 -72 -48 -80 -18
-3 11 -11 20 -18 20 -8 0 -16 8 -19 18 -4 10 -25 27 -49 38 -33 15 -43 25 -47
49 -4 25 -13 33 -48 45 -36 12 -42 18 -42 43 0 16 -7 30 -16 34 -10 4 -14 13
-10 29 7 27 -8 39 -45 36 -16 -2 -29 3 -32 12 -3 8 -24 20 -46 27 -32 9 -41
18 -46 41 -4 17 -17 34 -31 40 -29 13 -22 28 13 28 15 0 34 7 44 16 16 15 16
17 -3 50 l-20 34 20 33 c38 61 65 79 106 71 l37 -6 -17 35 c-16 33 -16 38 0
77 18 44 15 67 -16 142 -20 46 -20 49 -3 75 l18 28 -27 -24 c-21 -20 -38 -25
-84 -26 -87 -2 -89 -3 -128 -37 -29 -26 -43 -31 -76 -29 l-40 2 18 -29 c16
-29 16 -31 -12 -81 -30 -56 -64 -85 -64 -55 0 13 -6 15 -27 10 -16 -4 -33 -14
-40 -22 -9 -13 -15 -13 -32 -2 -17 11 -25 10 -42 0 -12 -7 -22 -12 -22 -10
-15 31 -28 44 -46 46 -20 3 -15 11 40 70 182 194 194 434 34 673 -29 43 -55
90 -59 103 -3 13 -28 45 -54 70 -39 37 -52 59 -65 106 -9 32 -28 76 -42 96
-18 26 -22 40 -14 45 6 4 8 12 5 18 -4 7 1 11 12 11 31 0 48 27 34 51 -16 25
-6 85 15 93 9 4 12 13 8 25 -3 10 0 31 6 47 22 55 39 118 30 109 -5 -6 -22
-35 -37 -65 -15 -30 -33 -63 -42 -72 -8 -10 -12 -24 -8 -33 3 -9 0 -18 -8 -21
-8 -3 -12 -14 -9 -25 4 -14 0 -19 -14 -19 -11 0 -28 -6 -38 -14 -16 -12 -18
-18 -7 -40 16 -36 7 -51 -41 -66 -23 -6 -74 -27 -112 -46 -61 -29 -80 -33
-139 -31 -51 1 -71 -2 -79 -14 -7 -8 -52 -26 -102 -38 -246 -61 -382 -195
-446 -436 l-23 -88 -23 29 c-13 16 -23 33 -23 37 0 9 -33 2 -69 -16 -20 -10
-25 -9 -29 2 -3 8 -15 25 -28 38 -21 21 -25 22 -51 8 -37 -19 -40 -19 -58 8
-14 22 -12 40 24 218 36 180 61 319 76 429 12 93 36 156 78 204 41 48 54 94
30 103 -25 10 -4 93 23 93 19 0 25 27 8 40 -7 7 -19 30 -24 51 -7 24 -23 48
-40 61 -17 12 -30 29 -30 37 -1 14 -2 14 -10 0 -5 -9 -24 -22 -42 -29 -18 -7
-43 -24 -55 -38 -17 -20 -24 -23 -36 -14 -11 9 -18 8 -33 -9 -19 -21 -18 -21
9 -44 28 -25 35 -49 16 -61 -6 -3 -9 -19 -5 -35 4 -21 2 -27 -8 -23 -16 6 -40
-52 -26 -61 5 -3 13 -20 19 -38 5 -18 12 -39 16 -49 5 -11 0 -18 -17 -23 -13
-4 -31 -14 -41 -23 -22 -19 -30 -11 -51 54 -19 59 -71 149 -122 211 -46 56
-182 157 -271 201 -40 20 -73 42 -73 49 0 8 -14 16 -31 20 -17 3 -33 12 -36
19 -3 8 -19 14 -36 14 -25 0 -46 15 -107 75 -44 42 -97 83 -122 94 -37 16 -45
24 -45 45 0 16 6 28 18 31 11 4 22 18 26 33 5 21 0 31 -25 52 -34 28 -40 45
-19 53 9 4 9 8 -3 16 -12 8 -12 13 0 35 11 22 11 28 -2 43 -9 11 -16 41 -17
73 -2 51 -17 130 -25 130 -2 0 -7 -21 -10 -47z m-1019 -965 c-3 -7 -5 -2 -5
12 0 14 2 19 5 13 2 -7 2 -19 0 -25z m2083 22 c0 -5 -5 -10 -11 -10 -5 0 -7 5
-4 10 3 6 8 10 11 10 2 0 4 -4 4 -10z m70 -22 c0 -13 -23 -5 -28 10 -2 7 2 10
12 6 9 -3 16 -11 16 -16z m-2280 2 c0 -5 -4 -10 -10 -10 -5 0 -10 5 -10 10 0
6 5 10 10 10 6 0 10 -4 10 -10z m80 0 c0 -5 -7 -10 -15 -10 -8 0 -15 5 -15 10
0 6 7 10 15 10 8 0 15 -4 15 -10z m-1597 -1640 c27 -39 23 -65 -5 -32 -16 18
-38 57 -38 66 0 16 18 2 43 -34z m-23 -50 c0 -5 -13 -16 -30 -25 l-29 -15 -21
39 c-24 48 -24 46 -3 67 16 15 19 14 50 -20 18 -19 33 -40 33 -46z m5450 74
c0 -13 -42 -74 -51 -74 -14 0 -11 12 11 48 17 28 40 43 40 26z m78 -26 c4 -23
-27 -88 -43 -88 -7 0 -22 8 -34 18 l-21 17 27 38 c28 40 65 48 71 15z m-5633
-65 l26 -38 -22 -17 c-29 -25 -36 -23 -59 15 -30 49 -25 73 17 76 7 1 24 -16
38 -36z m5718 15 c5 -17 -10 -58 -30 -80 -14 -16 -17 -16 -39 -1 -29 19 -30
27 -3 64 21 30 64 40 72 17z m-5770 -121 c-7 -12 -60 50 -67 78 -3 13 9 4 34
-24 21 -25 36 -49 33 -54z m5792 33 c-25 -36 -45 -51 -45 -34 0 12 62 85 68
80 3 -3 -8 -24 -23 -46z m960 -230 c-16 -16 -33 -30 -39 -30 -5 0 3 14 19 30
16 17 33 30 39 30 5 0 -3 -13 -19 -30z m-7720 -39 c-3 -3 -18 8 -33 23 l-27
29 32 -23 c18 -13 30 -26 28 -29z m7785 40 c0 -11 -58 -61 -71 -61 -18 0 -8
19 24 44 34 27 47 32 47 17z m-7898 -38 c43 -42 47 -58 18 -73 -22 -12 -60 2
-60 22 0 6 -7 19 -16 29 -17 19 -11 59 9 59 6 0 28 -17 49 -37z m67 -16 c1 -5
-12 2 -28 15 -17 13 -30 27 -30 31 -1 5 12 -2 28 -15 17 -13 30 -27 30 -31z
m7901 30 c0 -12 -14 -39 -31 -59 -26 -33 -32 -36 -50 -25 -27 17 -24 31 18 72
42 40 63 45 63 12z m70 -76 c0 -15 -70 -63 -87 -59 -33 6 -24 28 19 48 47 21
68 25 68 11z m-8083 -26 c20 -13 22 -19 12 -31 -16 -20 -22 -18 -71 23 l-43
36 39 -6 c21 -3 49 -13 63 -22z m8124 -43 c-7 -17 -24 -41 -38 -54 -24 -23
-25 -23 -39 -4 -21 30 -18 39 28 74 48 37 68 30 49 -16z m-8197 5 c36 -31 38
-35 25 -55 -8 -12 -17 -22 -20 -22 -14 0 -69 72 -69 90 0 29 19 24 64 -13z
m8275 -34 c0 -5 -21 -25 -45 -45 -44 -37 -74 -48 -74 -29 0 13 49 51 65 51 7
0 18 7 25 15 13 16 30 20 29 8z m-8379 -18 c7 -8 20 -15 29 -15 20 -1 68 -36
59 -45 -4 -4 -15 -4 -25 -1 -24 8 -101 75 -87 76 6 0 17 -7 24 -15z m34 -80
c11 -8 17 -17 15 -20 -3 -2 -21 9 -40 26 -33 29 -14 25 25 -6z m4521 -105
c349 -52 693 -163 990 -319 968 -508 1554 -1446 1602 -2561 17 -400 -76 -893
-242 -1280 -236 -553 -676 -1059 -1202 -1383 -1291 -795 -3041 -448 -3963 784
-451 603 -661 1407 -564 2159 59 462 215 895 454 1258 516 785 1314 1275 2221
1362 160 15 544 4 704 -20z m-6106 -1189 c11 -7 10 -14 -5 -41 -17 -28 -23
-31 -53 -26 -47 7 -57 20 -43 51 9 20 19 25 49 25 21 0 44 -4 52 -9z m11581
-42 c0 -11 -23 -26 -52 -33 -21 -5 -31 -1 -47 21 -25 31 -23 35 32 43 31 5 45
2 55 -9 6 -8 12 -18 12 -22z m-11655 -99 c6 -9 -21 -69 -47 -102 -18 -24 -58
-13 -58 16 0 32 36 84 62 89 13 2 26 5 30 6 4 0 10 -3 13 -9z m11703 -34 c7
-6 16 -26 21 -44 8 -27 7 -34 -9 -42 -40 -22 -46 -16 -87 79 l-14 33 38 -6
c21 -4 44 -13 51 -20z m-11778 -167 c0 -28 -18 -69 -31 -69 -20 0 -79 32 -79
43 0 25 33 46 71 45 31 0 39 -4 39 -19z m11878 -22 c15 -18 -12 -44 -55 -53
-28 -6 -31 -4 -40 34 l-11 41 32 3 c34 4 57 -4 74 -25z m-11961 -2816 l10 -39
-34 -4 c-46 -5 -91 26 -71 49 7 8 21 19 33 23 40 17 52 11 62 -29z m11859 13
c19 -9 34 -22 34 -29 0 -22 -35 -43 -72 -43 -41 0 -47 13 -28 62 11 30 20 32
66 10z m-11806 -151 c7 -16 19 -43 27 -62 l14 -33 -38 6 c-46 9 -60 22 -72 64
-8 26 -6 34 7 42 29 16 48 11 62 -17z m11751 7 c33 0 -17 -109 -51 -111 -11
-1 -26 -2 -32 -3 -20 -2 -13 28 17 79 18 32 31 45 42 41 8 -3 19 -6 24 -6z
m-11652 -197 c12 -14 19 -28 16 -31 -3 -3 -25 -8 -50 -12 -39 -6 -47 -4 -56
12 -13 23 2 45 34 51 12 2 25 5 29 6 4 0 16 -11 27 -26z m11584 -2 c7 -7 7
-19 -1 -36 -9 -20 -19 -25 -49 -25 -59 0 -69 11 -47 50 17 28 23 31 53 26 19
-3 39 -10 44 -15z m-1637 -1372 c4 -8 0 -7 -12 0 -29 17 -54 37 -54 45 0 9 57
-31 66 -45z m-8276 2 c0 -12 -49 -51 -63 -51 -6 0 -19 -7 -29 -17 -10 -9 -21
-13 -25 -10 -3 4 -4 8 -2 10 2 1 23 19 47 40 40 35 72 48 72 28z m8244 -27
c26 -20 45 -38 42 -42 -3 -3 -14 2 -24 11 -10 10 -24 17 -31 17 -16 0 -61 30
-61 41 0 18 29 8 74 -27z m-8202 -30 c11 -23 9 -28 -18 -50 -48 -40 -64 -47
-70 -30 -6 17 10 51 39 84 26 28 35 28 49 -4z m8147 -9 c32 -36 41 -75 19 -75
-7 0 -30 15 -52 33 -36 31 -38 35 -25 55 18 29 22 28 58 -13z m-47 -72 l43
-36 -39 6 c-21 3 -49 13 -63 22 -20 13 -22 19 -12 31 16 20 22 18 71 -23z
m-8037 7 c0 -16 -91 -58 -102 -46 -4 4 8 21 27 37 36 30 75 35 75 9z m65 -56
c0 -16 -71 -84 -87 -84 -23 0 -14 45 18 82 26 33 32 36 50 25 10 -6 19 -17 19
-23z m7891 26 c10 -6 19 -16 19 -22 0 -6 7 -19 16 -29 17 -19 11 -59 -9 -59
-15 0 -87 71 -87 87 0 6 8 17 18 22 21 13 20 13 43 1z m-7841 -59 c0 -14 -50
-51 -69 -51 -11 0 -6 10 17 30 33 30 52 38 52 21z m7809 -44 c1 -5 -12 2 -28
15 -17 13 -30 27 -30 31 -1 5 12 -2 28 -15 17 -13 30 -27 30 -31z m-68 6 l24
-27 -32 23 c-33 23 -40 31 -25 31 5 0 19 -12 33 -27z m-7736 -13 c-16 -16 -33
-30 -39 -30 -5 0 3 14 19 30 16 17 33 30 39 30 5 0 -3 -13 -19 -30z m985 -196
c0 -12 -62 -85 -68 -80 -6 7 48 86 59 86 5 0 9 -3 9 -6z m5814 -79 c3 -13 -9
-4 -34 24 -21 25 -36 49 -33 54 7 12 60 -50 67 -78z m-5744 13 c0 -5 -9 -23
-21 -39 -21 -30 -64 -40 -72 -16 -5 16 10 57 30 79 14 16 17 16 39 1 13 -8 24
-20 24 -25z m5680 0 c24 -40 25 -64 4 -72 -27 -10 -32 -7 -59 32 l-26 37 22
18 c29 24 36 22 59 -15z m-5610 -36 l21 -17 -28 -37 c-48 -65 -92 -37 -58 37
19 39 33 43 65 17z m5530 -21 c35 -69 0 -101 -49 -45 -17 19 -31 39 -31 44 0
7 43 37 57 40 2 0 12 -18 23 -39z m-5470 -8 c0 -15 -40 -73 -50 -73 -15 0 -13
8 11 46 19 31 39 45 39 27z m5396 -46 c9 -16 13 -31 10 -35 -3 -3 -7 -3 -9 -1
-37 46 -56 77 -50 82 9 10 32 -12 49 -46z m-3798 -1645 c2 -7 -2 -10 -12 -6
-9 3 -16 11 -16 16 0 13 23 5 28 -10z m2129 -14 c-3 -7 -5 -2 -5 12 0 14 2 19
5 13 2 -7 2 -19 0 -25z m73 22 c0 -5 -7 -10 -15 -10 -8 0 -15 5 -15 10 0 6 7
10 15 10 8 0 15 -4 15 -10z m70 0 c0 -5 -4 -10 -10 -10 -5 0 -10 5 -10 10 0 6
5 10 10 10 6 0 10 -4 10 -10z m-2210 -14 c0 -3 -4 -8 -10 -11 -5 -3 -10 -1
-10 4 0 6 5 11 10 11 6 0 10 -2 10 -4z"/>
</g>
</svg>
