<?xml version="1.0" standalone="no"?>
<!DOCTYPE svg PUBLIC "-//W3C//DTD SVG 20010904//EN"
 "http://www.w3.org/TR/2001/REC-SVG-20010904/DTD/svg10.dtd">
<svg version="1.0" xmlns="http://www.w3.org/2000/svg"
 width="1280.000000pt" height="640.000000pt" viewBox="0 0 1280.000000 640.000000"
 preserveAspectRatio="xMidYMid meet">
<metadata>
Created by potrace 1.15, written by Peter Selinger 2001-2017
</metadata>
<g transform="translate(0.000000,640.000000) scale(0.100000,-0.100000)"
fill="#000000" stroke="none">
<path d="M11711 4827 c-1 -26 -8 -45 -25 -60 -124 -116 -132 -126 -150 -208
-4 -17 -17 -31 -36 -39 -47 -19 -33 -75 20 -82 24 -3 25 -7 28 -74 l3 -72 -37
-19 c-55 -28 -53 -79 3 -128 l28 -23 3 -342 3 -341 -41 -16 c-51 -20 -54 -52
-8 -95 29 -27 33 -39 40 -102 10 -104 -2 -569 -16 -578 -6 -4 -21 -8 -33 -8
-19 0 -23 -6 -23 -29 0 -18 8 -35 18 -43 20 -14 41 -49 47 -76 1 -9 6 -108 10
-219 l8 -203 -615 0 -615 0 -8 43 c-4 23 -9 182 -11 352 -4 337 -10 463 -24
480 -11 13 -10 7 -16 210 -4 176 2 209 46 248 21 19 27 32 23 49 -8 34 -43 68
-70 68 -22 0 -23 3 -23 88 l0 89 40 18 c34 15 38 20 29 37 -11 20 -15 22 -61
32 -24 5 -28 12 -28 39 0 50 -31 90 -96 123 -76 38 -84 46 -84 85 0 39 -9 34
-13 -8 -3 -23 -23 -50 -79 -104 -62 -61 -77 -81 -83 -114 -11 -67 -15 -73 -51
-96 -40 -25 -40 -37 3 -58 37 -19 43 -34 43 -118 0 -65 -14 -88 -36 -59 -11
16 -13 15 -28 -6 -29 -40 -21 -84 23 -126 l38 -37 7 -115 c9 -155 6 -268 -8
-278 -6 -5 -29 -9 -51 -8 -22 1 -56 -4 -77 -12 -32 -13 -39 -12 -58 1 -21 14
-26 14 -62 0 -36 -14 -40 -14 -58 2 -10 9 -24 14 -30 10 -6 -4 -21 3 -33 15
l-20 23 -19 -22 c-10 -13 -23 -21 -30 -18 -7 2 -30 -2 -51 -11 -34 -13 -39
-13 -56 2 -14 13 -24 14 -45 7 -21 -8 -26 -8 -26 4 0 8 9 20 20 27 33 21 26
55 -15 68 l-35 12 0 63 c0 57 3 65 27 83 l27 20 -32 16 c-23 12 -32 24 -32 40
0 29 -42 81 -81 102 -16 8 -36 29 -43 47 -14 32 -14 32 -15 5 -1 -18 -16 -41
-51 -74 -38 -36 -52 -57 -57 -86 -4 -27 -15 -46 -36 -62 -29 -23 -29 -24 -8
-31 27 -8 41 -42 41 -100 0 -43 -14 -68 -23 -43 -7 19 -36 -21 -37 -49 0 -17
-5 -22 -22 -20 -14 1 -26 -6 -33 -19 -9 -19 -13 -20 -29 -8 -14 10 -24 10 -38
3 -18 -10 -19 -8 -11 38 16 96 9 223 -16 293 -47 128 -137 233 -257 297 -32
17 -66 41 -74 53 -8 11 -33 25 -55 31 -30 8 -58 30 -111 85 -68 72 -71 75 -57
100 17 33 16 44 -2 64 -16 18 -23 69 -12 87 4 6 3 14 -3 18 -5 3 -10 25 -11
48 -1 23 -4 53 -8 67 -11 35 -19 -124 -10 -170 6 -28 4 -39 -12 -56 -23 -24
-24 -37 -4 -54 21 -18 19 -44 -6 -66 -12 -10 -41 -47 -66 -81 -34 -48 -53 -65
-82 -74 -21 -6 -45 -21 -52 -32 -8 -12 -30 -35 -49 -52 -158 -139 -198 -191
-238 -313 -21 -64 -25 -97 -26 -194 0 -65 -3 -118 -5 -118 -3 0 -17 12 -32 26
l-27 26 -35 -26 c-31 -24 -36 -25 -47 -11 -27 33 -49 37 -77 15 -23 -18 -29
-19 -47 -7 -23 16 -21 -5 -32 342 -4 121 -9 262 -11 313 -3 70 -1 102 11 126
35 73 37 87 21 119 -19 38 -19 71 0 101 14 21 13 24 -5 41 -11 10 -20 24 -20
32 0 8 -14 27 -32 43 l-31 29 -31 -26 c-17 -14 -35 -35 -41 -47 -5 -12 -17
-21 -25 -21 -22 0 -24 -41 -3 -57 14 -9 18 -26 18 -60 0 -25 -3 -44 -7 -41
-11 6 -10 -61 0 -73 5 -5 15 -24 22 -42 12 -30 11 -34 -14 -57 -15 -14 -29
-25 -32 -25 -3 0 -12 16 -20 36 -60 143 -217 300 -360 360 -19 8 -34 21 -34
29 0 9 -10 15 -25 15 -16 0 -25 6 -25 15 0 9 -6 15 -12 14 -35 -4 -51 6 -93
61 -26 34 -64 72 -85 85 -41 26 -46 48 -17 77 22 23 22 51 -2 72 -14 13 -19
32 -20 74 -1 75 -11 178 -21 222 l-8 35 -2 -40 c-2 -22 -3 -62 -2 -90 0 -27
-4 -55 -10 -62 -6 -7 -7 -21 -2 -30 15 -35 10 -78 -13 -109 -27 -37 -28 -47
-6 -70 28 -28 23 -54 -17 -80 -20 -13 -55 -51 -78 -84 -32 -44 -49 -60 -66
-60 -13 0 -26 -7 -30 -15 -3 -8 -15 -15 -26 -15 -11 0 -20 -6 -20 -12 0 -7
-24 -24 -52 -38 -129 -63 -259 -189 -326 -318 -24 -45 -46 -82 -51 -82 -4 0
-19 13 -34 28 -27 28 -27 30 -12 65 8 19 19 38 24 41 5 3 5 24 0 48 -22 106
-22 107 -5 114 20 8 21 33 1 40 -8 4 -15 15 -15 26 0 11 -17 36 -37 56 l-36
37 -34 -31 c-18 -17 -33 -35 -33 -41 0 -6 -9 -22 -20 -36 -18 -23 -19 -27 -5
-40 17 -17 21 -107 5 -107 -17 0 -11 -45 11 -97 20 -45 21 -60 15 -228 -3 -99
-6 -265 -6 -370 0 -172 -2 -192 -20 -215 l-19 -25 -28 28 c-36 33 -40 33 -74
1 l-28 -27 -31 26 c-30 25 -32 26 -56 11 -13 -9 -24 -20 -24 -25 0 -5 -4 -9
-8 -9 -5 0 -7 44 -4 98 9 211 -69 370 -253 512 -30 23 -55 48 -55 55 0 10 -22
24 -90 55 -8 4 -29 28 -47 55 -17 26 -45 62 -61 79 -36 39 -45 63 -26 70 17 7
19 47 2 64 -7 7 -13 53 -15 114 -4 113 -23 162 -24 63 -1 -129 -4 -164 -17
-176 -16 -17 -15 -58 2 -65 19 -7 9 -40 -20 -59 -13 -8 -42 -39 -64 -69 -32
-42 -49 -55 -77 -61 -19 -3 -47 -18 -62 -33 -14 -14 -58 -48 -98 -74 -188
-127 -273 -300 -244 -502 6 -45 14 -91 17 -104 6 -22 6 -22 -25 -5 -25 15 -34
16 -51 6 -27 -17 -41 -16 -33 2 3 9 -2 24 -12 35 -10 11 -15 26 -12 34 8 20
-10 31 -27 17 -27 -22 -46 -2 -46 48 0 66 8 87 38 100 l25 12 -30 19 c-22 13
-32 28 -36 57 -5 29 -19 51 -58 88 -28 28 -55 59 -59 70 l-9 20 0 -20 c-1 -12
-18 -31 -46 -49 -54 -33 -75 -61 -75 -96 0 -20 -8 -30 -37 -44 l-38 -18 33
-16 c31 -15 32 -17 32 -83 l0 -67 -35 -12 c-42 -14 -44 -31 -10 -72 34 -40 32
-52 -5 -33 -29 15 -33 15 -57 -3 -25 -18 -28 -18 -54 -3 -23 13 -34 14 -59 4
-26 -10 -30 -9 -28 4 2 8 -7 22 -20 31 -22 14 -23 14 -29 -6 -3 -14 -13 -22
-28 -22 -12 0 -28 -7 -35 -14 -10 -13 -16 -13 -47 2 -32 15 -37 15 -63 0 -25
-14 -31 -14 -47 -2 -23 17 -73 18 -73 2 0 -7 -5 -5 -11 5 -8 14 -14 16 -25 6
-11 -9 -18 -9 -29 1 -13 11 -15 43 -15 194 2 197 7 218 60 256 19 14 30 30 30
45 0 18 4 23 15 19 11 -4 15 0 15 16 0 20 -4 22 -34 16 -28 -5 -39 -2 -60 17
-21 20 -26 33 -26 73 0 69 7 86 43 109 42 27 43 37 2 59 -33 18 -43 36 -60
110 -4 18 -34 56 -81 101 -67 64 -74 75 -75 110 l-1 40 -8 -35 c-5 -19 -6 -38
-4 -42 3 -4 -20 -20 -52 -35 -69 -32 -124 -82 -125 -114 -1 -13 -2 -30 -3 -38
0 -8 -14 -18 -30 -22 -28 -8 -66 -36 -66 -49 0 -4 18 -15 40 -25 28 -13 40
-24 40 -39 0 -12 3 -51 7 -88 l6 -68 -30 0 c-32 0 -67 -31 -75 -67 -4 -15 3
-30 24 -50 55 -52 58 -66 56 -260 -1 -129 -5 -183 -15 -198 -8 -13 -13 -52
-13 -115 0 -56 -5 -101 -11 -107 -7 -7 -8 -18 -2 -29 4 -11 6 -156 3 -323 l-5
-304 -34 -3 c-20 -3 -44 2 -58 11 -23 16 -48 12 -38 -5 3 -5 -13 -9 -35 -8
-22 0 -40 4 -40 9 0 13 -34 11 -47 -2 -7 -7 -121 -11 -337 -12 -295 -2 -326 0
-326 14 0 19 -39 29 -115 29 -32 0 -55 5 -57 12 -3 7 -32 14 -72 16 l-67 4 2
181 c1 161 4 184 22 214 11 19 26 37 34 40 7 3 13 20 13 38 0 31 -3 34 -32 37
l-33 3 -8 140 c-4 77 -6 220 -5 318 3 172 4 179 26 197 12 10 28 31 35 47 6
15 18 28 26 28 9 0 15 11 15 28 1 23 -2 27 -26 27 -18 0 -28 -5 -28 -15 0 -12
-5 -13 -24 -3 -33 14 -35 42 -39 401 l-2 289 28 23 c56 49 55 111 -2 135 -30
12 -31 15 -31 72 0 71 12 98 44 98 17 0 26 7 30 26 4 15 6 27 4 28 -2 2 -17
12 -35 24 -24 17 -33 32 -38 65 -6 35 -20 54 -86 119 -71 69 -79 81 -79 114 0
42 -8 41 -16 -2 -6 -33 -27 -50 -74 -59 -62 -12 -99 -42 -112 -91 -11 -41 -15
-44 -45 -44 -31 0 -33 -2 -33 -33 0 -28 5 -36 35 -50 l36 -17 -3 -78 -3 -77
-37 -3 c-35 -3 -37 -5 -44 -47 -5 -38 -3 -49 18 -74 50 -59 52 -88 24 -425
-13 -171 -29 -313 -35 -319 -8 -8 -21 -8 -44 1 -52 19 -66 16 -63 -13 1 -14
11 -34 21 -45 10 -11 14 -20 10 -20 -5 0 4 -13 19 -29 52 -54 55 -91 35 -336
-10 -121 -18 -246 -19 -277 0 -65 -18 -91 -58 -86 -21 2 -27 -2 -33 -25 -6
-21 -2 -34 15 -55 50 -60 55 -79 53 -238 l-2 -149 -105 -1 c-139 0 -130 3
-130 -49 0 -42 -2 -45 -27 -45 -15 0 -53 -5 -84 -12 -72 -15 -109 -2 -109 37
0 25 -1 25 -81 25 -81 0 -81 0 -75 -24 4 -16 1 -26 -9 -30 -16 -6 -18 -1 -15
60 1 23 -3 44 -7 47 -5 3 -33 9 -61 13 l-52 7 0 -337 0 -336 6400 0 6400 0 0
306 0 306 -92 -6 c-345 -25 -421 -28 -428 -16 -5 9 -13 8 -28 -1 -17 -11 -25
-11 -46 1 -23 12 -28 11 -40 -5 -7 -10 -25 -19 -39 -19 -24 -2 -26 2 -31 49
-3 27 -7 117 -10 198 -6 161 4 218 48 267 17 19 21 33 17 54 -5 26 -10 30 -40
30 -45 1 -48 11 -61 246 -6 102 -13 224 -17 272 -7 108 0 146 33 181 22 24 24
32 17 70 -8 37 -12 42 -38 45 -17 2 -33 7 -37 10 -3 4 -18 150 -33 325 -26
301 -26 320 -10 359 9 23 25 52 35 66 19 23 19 36 3 95 -2 9 -9 15 -14 11 -5
-3 -23 -3 -39 1 l-30 7 0 74 0 75 35 20 c27 16 35 28 35 49 0 25 -4 29 -31 32
-28 3 -33 8 -45 46 -15 52 -31 66 -104 88 -68 21 -78 29 -89 68 l-9 31 -1 -38z
m171 -382 c3 -37 1 -40 -24 -43 -24 -3 -27 0 -26 30 1 35 26 74 39 61 4 -5 9
-26 11 -48z m-114 6 c8 -4 12 -19 10 -32 -2 -18 -13 -26 -46 -36 l-44 -12 6
27 c6 25 39 62 55 62 3 0 12 -4 19 -9z m-128 -61 c0 -36 -12 -50 -42 -50 -10
0 -4 72 8 91 12 21 34 -5 34 -41z m-10663 28 c6 -7 13 -28 16 -45 7 -34 -1
-39 -43 -33 -22 3 -23 5 -15 49 7 41 24 52 42 29z m131 -41 c6 -6 14 -25 18
-41 6 -26 5 -28 -17 -21 -61 19 -69 25 -69 50 0 21 5 25 29 25 16 0 33 -6 39
-13z m119 -34 c1 -10 2 -23 3 -28 1 -6 2 -18 1 -27 -1 -15 -5 -16 -26 -6 -20
9 -25 18 -25 48 0 20 3 40 6 43 11 11 40 -10 41 -30z m4410 -505 c-3 -8 -6 -5
-6 6 -1 11 2 17 5 13 3 -3 4 -12 1 -19z m1603 12 c0 -5 -4 -10 -10 -10 -5 0
-10 5 -10 10 0 6 5 10 10 10 6 0 10 -4 10 -10z m-1640 -10 c0 -5 -4 -10 -10
-10 -5 0 -10 5 -10 10 0 6 5 10 10 10 6 0 10 -4 10 -10z m4577 -308 c-16 -15
-17 -14 -17 13 0 17 3 48 7 70 l7 40 10 -53 c8 -45 6 -56 -7 -70z m-56 81 c6
-16 13 -40 16 -55 5 -25 3 -28 -21 -28 -25 0 -26 2 -26 55 0 59 14 72 31 28z
m-131 -24 c0 -10 5 -21 10 -24 6 -3 10 -17 10 -31 0 -19 -5 -24 -24 -24 -19 0
-24 6 -29 38 -9 51 1 86 19 71 8 -6 14 -20 14 -30z m76 -55 c-8 -20 -36 -17
-36 4 0 9 5 35 12 57 l11 40 9 -43 c5 -24 7 -50 4 -58z m-7407 -11 c0 -18 -3
-33 -9 -33 -6 0 -9 27 -9 63 1 49 3 56 9 32 4 -16 8 -45 9 -62z m71 22 c0 -53
-1 -55 -26 -55 -25 0 -26 2 -19 37 16 87 45 98 45 18z m56 -19 c6 -39 4 -48
-7 -44 -9 3 -15 23 -17 59 -4 67 15 56 24 -15z m82 7 c-3 -54 -5 -58 -28 -58
-18 0 -26 6 -28 20 -4 30 26 95 44 95 12 0 14 -11 12 -57z m7063 -36 c-8 -8
-11 2 -10 39 l1 49 10 -38 c7 -28 7 -42 -1 -50z m-32 25 c0 -30 -2 -33 -9 -17
-12 28 -12 67 0 60 6 -3 10 -23 9 -43z m-7287 8 c3 -16 1 -30 -4 -30 -4 0 -8
14 -8 30 0 17 2 30 4 30 2 0 6 -13 8 -30z m285 -42 c-2 -13 -4 -5 -4 17 -1 22
1 32 4 23 2 -10 2 -28 0 -40z m30 -30 c-2 -13 -4 -3 -4 22 0 25 2 35 4 23 2
-13 2 -33 0 -45z m6213 -357 c5 -11 10 -33 10 -50 0 -28 -3 -31 -30 -31 -28 0
-30 2 -30 38 0 55 29 81 50 43z m-77 -30 c11 -44 3 -61 -28 -61 -31 0 -39 18
-31 66 6 29 11 35 28 32 15 -2 25 -13 31 -37z m124 -38 c-2 -16 -4 -3 -4 27 0
30 2 43 4 28 2 -16 2 -40 0 -55z m-5530 -25 c-2 -18 -4 -6 -4 27 0 33 2 48 4
33 2 -15 2 -42 0 -60z m91 30 c3 -47 3 -48 -27 -48 -29 0 -31 3 -31 34 0 50 9
68 34 64 17 -2 22 -11 24 -50z m86 26 c10 -25 7 -72 -5 -79 -5 -4 -22 -4 -36
0 -23 5 -24 9 -18 43 4 20 9 40 11 44 9 14 42 8 48 -8z m5147 -69 c-9 -17 -24
53 -15 72 6 14 9 9 14 -22 3 -22 4 -44 1 -50z m-5101 30 c0 -13 -3 -30 -6 -39
-11 -28 -20 -9 -16 33 4 43 22 47 22 6z"/>
</g>
</svg>
