<?xml version="1.0" standalone="no"?>
<!DOCTYPE svg PUBLIC "-//W3C//DTD SVG 20010904//EN"
 "http://www.w3.org/TR/2001/REC-SVG-20010904/DTD/svg10.dtd">
<svg version="1.0" xmlns="http://www.w3.org/2000/svg"
 width="1280.000000pt" height="844.000000pt" viewBox="0 0 1280.000000 844.000000"
 preserveAspectRatio="xMidYMid meet">
<metadata>
Created by potrace 1.15, written by Peter Selinger 2001-2017
</metadata>
<g transform="translate(0.000000,844.000000) scale(0.100000,-0.100000)"
fill="#000000" stroke="none">
<path d="M976 8425 c-27 -27 -29 -55 -7 -86 26 -35 26 -41 1 -57 -24 -14 -26
-50 -5 -78 11 -14 13 -35 9 -79 -10 -117 -11 -120 -53 -141 -74 -36 -89 -104
-42 -194 12 -23 21 -56 21 -74 0 -19 9 -45 21 -60 l21 -26 -22 -18 c-21 -17
-22 -21 -9 -55 7 -20 11 -39 8 -41 -2 -3 -25 0 -49 5 -25 6 -58 8 -74 5 -16
-3 -35 -1 -42 5 -11 9 -14 8 -14 -1 0 -8 -8 -22 -17 -32 -17 -19 -34 -100 -36
-173 0 -27 17 -84 53 -175 53 -132 54 -137 58 -252 4 -117 -3 -142 -28 -100
-9 16 -11 16 -20 0 -13 -21 -67 -33 -85 -18 -11 9 -16 5 -27 -17 -7 -15 -20
-28 -28 -28 -16 0 -27 -50 -36 -160 -5 -57 -3 -64 42 -140 124 -215 114 -186
119 -352 4 -140 7 -600 6 -726 -1 -56 -2 -58 -23 -51 -13 4 -26 12 -31 18 -5
7 -11 6 -17 -6 -9 -14 -20 -16 -63 -11 -28 3 -58 10 -64 16 -9 6 -18 5 -28 -3
-12 -10 -15 -10 -15 4 0 9 -4 16 -10 16 -5 0 -10 -15 -10 -32 0 -18 -7 -42
-15 -52 -8 -11 -15 -30 -15 -41 0 -12 -7 -35 -14 -51 -8 -16 -18 -59 -22 -96
l-7 -67 42 -38 c51 -45 114 -144 177 -276 l46 -99 -6 -116 c-8 -141 -8 -191 0
-486 4 -173 3 -239 -7 -268 -10 -31 -10 -41 0 -51 10 -9 15 -8 27 7 13 19 14
19 14 -5 0 -13 -11 -48 -25 -77 -30 -65 -30 -62 -5 -62 18 0 19 -3 9 -22 -20
-38 -118 -146 -139 -153 -21 -7 -28 -35 -10 -35 8 0 10 -251 8 -807 -3 -772
-4 -809 -22 -836 -21 -32 -16 -46 8 -22 15 15 16 14 16 -20 0 -28 -7 -43 -33
-68 -36 -34 -56 -103 -39 -134 7 -11 4 -21 -8 -33 -10 -10 -23 -26 -29 -36 -9
-17 -12 -17 -21 -4 -5 8 -12 20 -14 25 -3 6 -12 1 -22 -10 -9 -11 -18 -15 -20
-10 -3 6 -9 17 -14 25 -9 13 -12 12 -26 -5 -15 -20 -21 -17 -38 20 -3 6 -12 1
-21 -10 -14 -17 -17 -18 -25 -5 -5 8 -10 19 -10 24 0 4 -7 6 -15 2 -11 -4 -15
2 -15 23 0 16 6 31 14 34 22 9 49 54 40 68 -4 6 -7 57 -8 113 -1 94 -3 106
-35 168 -36 73 -120 172 -170 201 l-31 18 0 -1020 0 -1021 6400 0 6400 0 0
966 0 965 -31 -18 c-38 -23 -56 -42 -112 -124 -51 -77 -66 -142 -61 -273 2
-63 7 -83 23 -100 27 -29 28 -66 2 -66 -11 0 -23 -4 -26 -10 -3 -5 -28 -10
-55 -10 -27 0 -52 -5 -55 -10 -10 -17 -71 -11 -87 8 -12 12 -16 38 -16 93 0
60 -5 89 -28 145 l-29 69 1 763 c0 578 3 765 12 774 16 16 15 38 -2 38 -19 0
-95 85 -112 126 -12 28 -12 39 -3 50 9 11 9 21 -1 44 -7 17 -10 44 -6 62 4 18
6 40 5 48 -7 75 -8 495 -1 504 5 6 8 38 5 71 -2 33 -6 112 -9 175 l-5 115 36
79 c54 118 113 214 160 261 23 23 45 50 48 58 7 18 -10 122 -24 149 -5 10 -9
31 -9 47 0 17 -4 32 -9 35 -5 3 -12 21 -15 39 -5 25 -11 33 -26 32 -11 -1 -23
-4 -26 -8 -13 -13 -122 -8 -128 6 -5 9 -7 9 -12 0 -3 -7 -16 -13 -29 -13 -21
0 -23 5 -27 63 -1 34 -1 235 2 447 l5 385 43 80 c23 44 57 102 75 129 27 42
32 58 31 105 -2 98 -14 149 -40 166 -13 8 -24 22 -24 30 0 11 -7 14 -24 9 -13
-3 -37 1 -53 10 -17 8 -40 12 -52 9 -23 -6 -23 -6 -19 108 3 111 5 117 52 224
39 87 49 121 49 165 0 69 -10 135 -29 180 l-15 35 -84 -3 c-47 -2 -85 -2 -85
1 0 2 5 18 11 36 10 27 8 35 -7 52 -17 19 -17 21 3 57 11 20 18 43 16 50 -3 7
7 39 21 71 41 91 31 144 -31 183 -19 11 -38 31 -43 44 -13 32 -14 154 -2 184
10 26 8 40 -10 78 -10 18 -8 26 10 45 47 50 8 118 -49 86 l-24 -13 29 -6 c37
-6 43 -23 16 -50 -16 -16 -25 -18 -40 -10 -31 17 -35 11 -10 -15 21 -22 23
-29 13 -58 -6 -17 -11 -87 -12 -155 -1 -124 -11 -168 -36 -158 -18 6 -46 -31
-38 -51 3 -7 -2 -39 -12 -69 -20 -65 -15 -117 16 -150 13 -14 19 -29 15 -41
-4 -13 1 -26 14 -38 l20 -18 -21 -34 c-20 -31 -20 -35 -5 -58 15 -23 15 -26
-4 -45 -11 -11 -29 -20 -40 -20 -11 0 -20 -5 -20 -11 0 -6 -27 -40 -60 -77
-53 -59 -60 -71 -65 -121 -3 -31 -10 -75 -16 -98 -12 -53 2 -94 59 -182 42
-64 42 -65 42 -158 0 -57 -4 -93 -10 -93 -6 0 -13 -8 -17 -17 -9 -28 -65 -83
-84 -83 -10 0 -19 -11 -22 -28 -3 -15 -17 -39 -30 -52 -25 -25 -26 -32 -44
-203 l-6 -59 50 -51 c94 -99 84 -45 83 -498 l-1 -404 -24 -25 c-14 -14 -25
-31 -25 -36 0 -9 -89 -89 -100 -89 -3 0 -23 -19 -44 -43 -21 -23 -49 -45 -61
-48 -18 -5 -23 -15 -29 -57 -10 -90 -7 -116 24 -177 21 -42 39 -63 63 -75 19
-9 53 -41 76 -73 l43 -57 -7 -175 c-4 -96 -6 -184 -6 -195 3 -64 0 -387 -5
-545 -5 -183 -5 -185 -40 -264 -19 -44 -44 -90 -55 -102 -16 -17 -18 -26 -10
-41 16 -31 10 -1438 -7 -1455 -10 -10 -25 -5 -79 24 -70 38 -75 45 -88 122 -8
48 -21 33 -30 -36 -4 -26 -14 -53 -22 -60 -14 -11 -19 -8 -37 17 -45 64 -118
126 -195 164 l-79 40 -7 53 c-13 99 -35 96 -50 -6 -7 -45 -12 -51 -73 -95 -36
-25 -87 -65 -115 -89 -28 -25 -53 -40 -58 -35 -5 5 -10 135 -11 288 l-3 280
-89 3 -89 3 6 52 c10 81 -5 120 -63 162 -27 20 -59 48 -70 62 -15 20 -20 22
-20 9 0 -9 -23 -38 -51 -64 -66 -61 -79 -87 -79 -164 0 -35 -4 -68 -8 -74 -4
-6 -39 -28 -78 -47 -39 -20 -74 -43 -78 -52 -3 -9 -6 -68 -6 -130 0 -63 -4
-125 -10 -139 -9 -25 -12 -25 -67 -20 -32 3 -70 6 -85 6 -34 -1 -44 12 -52 70
-4 26 -11 50 -16 53 -14 9 -40 -37 -40 -72 0 -36 -21 -53 -67 -53 -58 0 -73
10 -73 46 0 21 -7 38 -19 46 -14 10 -19 29 -23 81 -4 69 -4 69 -60 121 l-56
51 -45 -45 c-52 -52 -67 -78 -67 -117 0 -42 -14 -60 -34 -44 -25 21 -22 173 5
256 18 53 20 70 11 90 -9 19 -8 43 4 102 23 110 15 273 -19 370 -31 90 -103
199 -170 258 -60 52 -193 125 -230 125 -13 0 -30 7 -37 15 -6 7 -31 17 -55 21
-50 7 -43 -12 -64 174 -8 72 -7 88 6 102 8 10 13 24 9 33 -9 25 -36 30 -54 9
-16 -17 -16 -17 0 -5 20 15 38 7 38 -16 0 -11 -7 -14 -25 -10 -25 4 -25 4 -9
-14 14 -16 15 -24 6 -45 -7 -13 -12 -48 -13 -77 0 -29 -4 -73 -7 -98 l-7 -47
-90 -47 c-94 -50 -150 -86 -198 -129 -16 -14 -32 -26 -35 -28 -42 -19 -171
-257 -208 -383 -21 -72 -24 -211 -5 -308 l13 -68 -39 -47 c-22 -26 -45 -57
-52 -70 -9 -18 -20 -22 -58 -22 -43 0 -50 -4 -109 -64 -64 -63 -64 -63 -135
-70 -39 -4 -75 -4 -80 1 -4 4 -12 36 -18 70 -11 70 -28 97 -83 137 -26 19 -38
35 -38 52 0 13 -4 24 -10 24 -5 0 -10 -10 -10 -23 0 -25 -17 -47 -37 -47 -8 0
-13 12 -13 32 0 50 -37 115 -86 150 -27 19 -48 43 -53 62 -7 23 -9 25 -10 10
-1 -24 -36 -60 -45 -46 -3 6 4 31 15 57 19 43 20 52 8 87 -10 32 -10 52 4 126
22 110 22 289 1 389 -66 319 -301 614 -544 684 -25 7 -52 18 -60 25 -8 7 -34
17 -56 23 -39 10 -42 14 -48 54 -3 23 -9 81 -12 130 -2 48 -10 100 -16 115
l-10 27 -14 -32 c-8 -18 -16 -72 -18 -120 -6 -135 -14 -162 -45 -169 -14 -3
-46 -14 -71 -24 -194 -80 -272 -131 -377 -245 -88 -95 -145 -196 -178 -310
-13 -49 -33 -117 -42 -149 -23 -80 -24 -369 -2 -436 13 -37 13 -50 3 -75 -7
-16 -18 -51 -24 -77 -11 -40 -20 -52 -60 -78 -48 -31 -100 -112 -100 -157 0
-35 -19 -37 -38 -4 -20 36 -28 38 -37 11 -3 -11 -25 -31 -49 -45 -52 -31 -76
-77 -76 -151 0 -49 -2 -55 -25 -64 -39 -15 -98 1 -112 30 -7 14 -30 45 -51 69
-37 43 -41 45 -105 49 -66 4 -67 5 -91 46 -14 24 -43 59 -65 79 l-40 36 15 83
c42 228 -42 480 -219 662 -59 60 -177 141 -273 186 l-62 30 -7 62 c-4 33 -7
79 -7 100 1 22 -4 51 -9 65 -7 20 -6 30 7 44 8 9 14 26 12 36 -4 21 -35 30
-51 14 -7 -7 -3 -8 12 -4 15 4 21 1 21 -11 0 -9 -7 -19 -15 -22 -8 -4 -12 -10
-10 -15 6 -9 -23 -250 -31 -258 -2 -2 -44 -15 -94 -27 -143 -36 -258 -108
-347 -217 -52 -63 -80 -121 -110 -226 -21 -73 -25 -107 -25 -221 1 -188 6
-261 20 -287 14 -25 27 -222 17 -253 -11 -33 -32 -23 -39 18 -7 49 -45 106
-73 110 -15 2 -24 13 -28 32 -7 32 -25 51 -25 26 0 -8 -21 -29 -46 -46 -48
-34 -74 -78 -53 -91 7 -4 9 -14 6 -23 -5 -11 -1 -16 13 -16 11 0 20 -4 20 -10
0 -10 -14 -14 -37 -11 -8 1 -13 -9 -13 -24 0 -14 -6 -28 -14 -31 -8 -3 -12
-12 -9 -20 3 -8 0 -21 -7 -29 -6 -8 -9 -19 -5 -24 3 -6 2 -18 -3 -27 -7 -12
-11 -13 -17 -5 -5 9 -10 9 -22 0 -12 -10 -16 -10 -23 1 -7 11 -11 11 -23 1
-13 -10 -18 -8 -31 11 -9 12 -16 34 -16 48 0 14 -3 43 -7 65 -5 31 -8 35 -14
20 -4 -11 -8 -37 -8 -57 -1 -57 -20 -90 -47 -84 -13 4 -26 1 -30 -5 -5 -9 -11
-7 -20 5 -11 16 -13 16 -23 -1 -9 -17 -10 -17 -24 1 -13 18 -14 18 -21 1 -6
-17 -8 -17 -25 -1 -17 16 -19 16 -25 0 -6 -16 -8 -15 -26 1 -17 16 -20 34 -22
164 l-3 146 -84 45 -85 46 3 61 c3 80 -15 117 -84 177 -41 35 -55 54 -55 74
l-1 27 -13 -31 c-8 -18 -28 -37 -49 -47 -19 -10 -47 -31 -61 -48 -27 -32 -35
-56 -14 -43 8 5 9 0 3 -17 -4 -13 -10 -46 -14 -74 l-6 -50 -90 -5 -90 -5 -3
-297 c-1 -164 -6 -298 -10 -298 -5 0 -21 14 -38 31 -38 40 -108 89 -128 89 -9
0 -16 7 -16 16 0 8 -13 20 -30 25 -32 12 -35 19 -45 99 -4 30 -10 59 -13 64
-9 15 -21 -25 -21 -75 -1 -44 -22 -79 -48 -79 -15 0 -141 -67 -171 -91 -28
-22 -53 -54 -56 -72 -5 -29 -31 -87 -38 -87 -5 0 -11 6 -14 14 -3 8 -18 19
-34 26 -29 12 -40 41 -40 106 0 56 -18 38 -25 -25 -5 -46 -11 -61 -28 -69 -87
-41 -119 -53 -125 -47 -4 4 -7 339 -7 744 0 633 2 740 15 756 13 15 12 19 -2
29 -26 19 -110 195 -103 217 4 11 1 26 -5 34 -8 10 -8 19 0 34 7 15 8 27 0 40
-13 26 -13 64 2 96 9 19 9 28 0 37 -16 16 -17 470 -1 499 8 15 7 24 -2 35 -9
11 -9 20 0 41 8 18 9 29 1 37 -13 13 -14 255 -1 289 16 41 71 96 105 105 25 6
39 22 74 82 32 56 41 81 36 100 -3 14 -8 51 -11 83 -3 35 -9 57 -16 54 -13 -4
-107 86 -107 103 0 7 -6 10 -14 7 -14 -6 -99 76 -109 105 -3 10 -18 20 -32 24
l-25 6 0 413 c0 252 4 424 10 440 6 14 39 55 75 90 62 62 65 67 65 112 0 26
-7 66 -15 88 -8 22 -14 56 -15 76 0 25 -6 41 -20 50 -12 8 -27 32 -35 54 -8
22 -19 39 -26 37 -17 -4 -79 57 -95 95 -9 20 -14 69 -14 127 l0 95 51 78 c49
76 51 80 45 133 -3 30 -9 84 -12 119 -4 35 -13 71 -21 80 -78 91 -113 136
-113 147 0 6 -8 10 -17 8 -10 -2 -29 5 -43 15 -24 19 -25 21 -8 48 16 27 16
30 -4 62 l-21 32 23 16 c16 11 21 22 17 41 -4 19 2 35 20 56 21 25 24 38 21
77 -3 26 -15 66 -27 89 -17 34 -19 45 -9 51 9 6 10 15 3 35 -11 31 -35 44 -35
20 0 -9 -5 -16 -10 -16 -16 0 -30 46 -30 97 0 25 -5 63 -12 84 -10 34 -9 42 7
59 16 18 17 26 8 48 -40 97 -39 90 -15 115 27 28 28 68 4 90 -23 21 -36 21
-56 2z m44 -26 c0 -20 -21 -49 -35 -49 -15 0 -21 40 -8 53 10 11 43 8 43 -4z"/>
<path d="M6504 4200 c-32 -13 -36 -46 -9 -78 l23 -27 21 25 c25 30 26 53 5 74
-8 9 -16 16 -17 15 -1 0 -12 -4 -23 -9z m29 -24 c3 -8 0 -22 -8 -32 -11 -15
-15 -16 -29 -5 -12 10 -13 18 -5 32 11 22 35 25 42 5z"/>
</g>
</svg>
