<?xml version="1.0" encoding="UTF-8" standalone="no"?>
<!DOCTYPE svg PUBLIC "-//W3C//DTD SVG 1.1//EN" "http://www.w3.org/Graphics/SVG/1.1/DTD/svg11.dtd">
<svg width="100%" height="100%" viewBox="0 0 2319 521" version="1.1" xmlns="http://www.w3.org/2000/svg" xmlns:xlink="http://www.w3.org/1999/xlink" xml:space="preserve" xmlns:serif="http://www.serif.com/" style="fill-rule:evenodd;clip-rule:evenodd;stroke-linejoin:round;stroke-miterlimit:2;">
    <g transform="matrix(1,0,0,1,-109.776,-1324.02)">
        <g transform="matrix(-5.775e-16,3.14376,-3.14376,-5.775e-16,2418.88,665.565)">
            <g transform="matrix(-5.84322e-17,-0.31809,0.31809,-5.84322e-17,-211.71,769.423)">
                <path d="M2360.39,1588.06C2374.68,1588.04 2383.54,1583.9 2386.98,1575.61C2386.98,1572.77 2384.6,1566.61 2379.79,1557.22C2373.62,1545.22 2369.26,1535.43 2366.71,1527.73C2361.51,1511.95 2358,1497.24 2356.13,1483.48C2355.39,1478.16 2354.89,1474.94 2354.61,1473.69C2353.87,1470.81 2352.51,1468.04 2350.48,1465.26C2351.89,1460.57 2354.15,1453.95 2357.21,1445.45C2358.23,1442.97 2359.14,1441.78 2359.99,1441.78C2360.66,1441.78 2361.96,1442.97 2363.83,1445.45C2371.92,1456.71 2378.71,1466.79 2384.26,1475.67C2386.46,1479.36 2387.59,1481.96 2387.59,1483.48C2387.59,1484.61 2387.09,1485.18 2386.07,1485.18C2384.03,1485.18 2380.36,1483.54 2375.03,1480.14C2374.53,1480.14 2374.13,1480.49 2373.79,1481.22C2375.66,1487.84 2378.6,1497.01 2382.68,1508.67C2391.9,1534.87 2396.53,1554 2396.53,1565.93C2396.53,1576.4 2393.94,1586.92 2388.67,1597.57C2381.71,1611.72 2372.27,1618.79 2360.27,1618.79L2360.27,1618.73C2344.89,1618.63 2333.92,1608.91 2327.27,1589.41C2326.48,1586.87 2325.58,1586.87 2324.56,1589.41C2315.73,1612.05 2303.29,1623.37 2287.21,1623.37C2270.86,1623.37 2261.13,1613.02 2258.01,1592.36C2257.84,1590.61 2257.56,1589.76 2257.27,1589.7C2256.94,1589.93 2256.37,1590.83 2255.41,1592.36C2251.5,1598.81 2245.73,1605.38 2238.09,1612.17C2225.87,1623.03 2213.81,1628.47 2201.82,1628.47C2179.18,1628.47 2167.87,1617.03 2167.87,1594.17C2167.87,1591.73 2167.36,1590.5 2166.34,1590.5C2165.55,1590.5 2163.97,1591.11 2161.58,1592.36C2119.82,1613.41 2069.74,1630.33 2011.4,1643.01C1954.87,1655.39 1901.56,1661.62 1851.48,1661.62C1786.07,1661.62 1739.28,1655.79 1711.14,1644.25L1711.14,1644.17C1698.78,1639.08 1688.73,1633.26 1680.93,1626.71C1680.42,1635.31 1678.1,1642.5 1674.03,1648.32C1670.24,1653.7 1666.22,1656.35 1661.91,1656.35C1648.39,1656.35 1630.4,1645.39 1607.88,1623.48C1594.64,1634.74 1588.07,1646.39 1588.07,1658.52C1588.07,1667.5 1590.73,1683.41 1595.99,1706.21C1599.22,1719.51 1602.39,1732.81 1605.56,1746.11C1610.14,1770.11 1611.67,1787.82 1610.14,1799.41C1608.73,1810.16 1607.53,1815.54 1606.58,1815.54C1605.67,1815.54 1604.88,1810.23 1604.14,1799.7C1603.91,1793.13 1602.84,1783.39 1600.92,1770.39C1586.77,1718.49 1579.76,1683.75 1579.76,1666.15C1579.76,1644.98 1585.69,1626.48 1597.68,1610.74C1605.38,1600.63 1611.95,1595.53 1617.32,1595.53C1618.57,1595.53 1619.47,1595.98 1619.99,1596.94C1631.75,1581.15 1643.29,1573.29 1654.68,1573.29C1660.11,1573.29 1666.44,1576.52 1673.75,1582.97C1677.81,1587.15 1681.83,1591.28 1685.86,1595.36C1694.06,1603.34 1702.48,1609.39 1711.2,1613.52L1711.2,1613.55C1720.11,1617.73 1735.14,1621.45 1756.25,1624.73C1783.41,1628.8 1814.76,1630.9 1850.24,1630.9C1906.09,1630.9 1964.43,1624.45 2025.26,1611.54C2086.16,1598.64 2134.87,1582.4 2171.43,1562.77C2174.21,1561.29 2176.3,1560.62 2177.71,1560.62C2179.86,1560.62 2180.37,1562.2 2179.24,1565.37C2177.99,1569.04 2177.38,1572.44 2177.38,1575.61C2177.38,1582.69 2180.31,1588.17 2186.15,1592.08C2191.7,1595.75 2198.88,1597.62 2207.65,1597.62C2220.15,1597.62 2232.15,1593.04 2243.58,1583.92C2244.6,1583.08 2249.35,1578.22 2257.73,1569.33C2265.48,1561.01 2269.73,1556.88 2270.35,1556.88C2272.16,1556.88 2272.5,1558.75 2271.25,1562.42C2269.62,1567.24 2268.77,1570.34 2268.77,1571.77C2268.77,1575.22 2270.29,1579.23 2273.24,1583.7C2277.14,1589.65 2282.23,1592.64 2288.56,1592.64C2305.38,1592.64 2319.74,1580.54 2331.74,1556.43C2332.99,1553.94 2334.41,1552.75 2336.05,1552.75C2337.4,1552.75 2338.03,1553.83 2338.03,1556.09C2338.03,1556.93 2337.92,1558.23 2337.68,1560.1C2337.4,1561.92 2337.29,1563.33 2337.29,1564.24C2337.29,1571.31 2339.44,1577.02 2343.8,1581.43C2348.14,1585.83 2353.64,1588.04 2360.39,1588.06ZM1663.44,1618.27C1662.82,1614.04 1661.02,1610.18 1658.07,1606.56C1654.68,1602.49 1651.17,1600.45 1647.43,1600.45C1645.22,1600.45 1642.05,1601.41 1638.09,1603.34C1634.07,1605.32 1632.09,1606.68 1632.09,1607.53C1634.76,1609.85 1639.56,1613.24 1646.52,1617.66C1654.39,1622.57 1659.48,1625.01 1661.75,1625.01C1663.56,1625.01 1664.12,1622.74 1663.44,1618.27Z" style="fill:rgb(0,162,181);fill-rule:nonzero;"/>
            </g>
        </g>
        <g transform="matrix(-5.775e-16,3.14376,-3.14376,-5.775e-16,2418.88,665.565)">
            <path d="M227.863,284.309C224.73,284.309 222.156,284.793 220.141,285.766C219.008,285.766 216.305,284.867 212.039,283.031C211.52,282.812 211.266,282.617 211.266,282.453C211.266,282.254 211.535,282.02 212.094,281.77C213.191,281.246 216.254,280.043 221.273,278.152C226.477,276.172 229.68,275 230.887,274.677C231.805,274.427 232.488,274.281 232.938,274.281C234.379,274.281 233.516,275.669 230.348,278.441C229.895,278.763 230.094,278.927 230.941,278.927C231.227,278.927 241.234,278.224 260.965,276.785C280.691,275.344 291.797,274.625 294.266,274.625C301.859,274.625 308.539,275.794 314.297,278.099C315.469,278.582 316.313,278.98 316.836,279.285C317.609,279.734 317.719,280.004 317.18,280.113C316.586,280.238 315.344,280.184 313.453,279.953C310.859,279.664 307.836,279.5 304.379,279.5C301.246,279.5 288.395,280.312 265.805,281.914C243.215,283.516 230.563,284.309 227.863,284.309Z" style="fill:rgb(255,97,5);fill-rule:nonzero;"/>
        </g>
        <g transform="matrix(-5.775e-16,3.14376,-3.14376,-5.775e-16,2418.88,665.565)">
            <path d="M287.297,300.992C282.277,302.648 277.598,303.785 273.223,304.359C271.531,304.594 270.504,304.754 270.109,304.844C269.191,305.078 268.289,305.512 267.426,306.176C265.914,305.711 263.824,304.988 261.125,304.016C260.336,303.695 259.957,303.406 259.957,303.137C259.957,302.918 260.336,302.504 261.125,301.93C264.707,299.355 267.91,297.176 270.738,295.43C271.906,294.711 272.734,294.352 273.223,294.352C273.582,294.352 273.762,294.512 273.762,294.836C273.762,295.484 273.223,296.656 272.16,298.348C272.16,298.508 272.27,298.652 272.504,298.742C274.609,298.148 277.523,297.215 281.23,295.918C289.566,292.984 295.633,291.508 299.449,291.508C303.246,291.508 306.574,292.082 309.402,293.219C314.227,295.109 316.637,298.383 316.637,303.047C316.637,307.996 314.477,311.902 310.195,314.762C307.621,316.492 303.77,318.02 298.621,319.352C303.805,319.949 308.25,321.586 311.992,324.285C316.531,327.617 318.797,331.863 318.797,337.047C318.797,342.734 316.078,346.73 310.625,349.016C307.566,350.277 303.984,350.906 299.844,350.906C294.371,350.906 289.277,350.258 284.563,348.965C283.285,348.602 282.438,348.422 282.023,348.422C281.789,348.422 281.684,348.496 281.684,348.621C281.684,348.855 282.313,349.379 283.57,350.187C285.57,351.465 289.602,352.797 295.688,354.203C303.535,356.02 308.27,357.207 309.887,357.766C312.137,358.504 313.957,359.566 315.324,360.934C316.457,362.051 317.035,363.004 317.035,363.812C317.035,367.469 314.711,370.277 310.086,372.273C306.254,373.895 301.609,374.703 296.172,374.703C292.375,374.703 288.234,374.129 283.77,372.957C282.762,372.687 282.023,372.434 281.52,372.164C280.906,371.805 280.836,371.57 281.285,371.445C281.809,371.301 282.727,371.375 284.059,371.645C287.461,372.293 290.555,372.617 293.398,372.617C304.398,372.617 309.906,370.293 309.906,365.668C309.906,363.687 308.41,362.051 305.461,360.734C303.605,359.926 300.059,358.934 294.859,357.766C289.098,356.414 284.887,355.281 282.203,354.344C279.145,353.266 276.426,351.934 274.051,350.332C271.387,348.602 270.055,347.109 270.055,345.832C270.055,344.805 271.152,344.285 273.367,344.285C275.203,344.285 278.891,344.805 284.473,345.848C290.07,346.875 293.813,347.398 295.738,347.398C299.898,347.398 303.156,346.535 305.496,344.789C307.855,343.043 309.023,340.629 309.023,337.535C309.023,331.934 307.262,327.742 303.75,324.934C300.977,322.719 297.559,321.602 293.488,321.602C289.586,321.602 285.805,321.945 282.168,322.594C279.594,323.043 277.145,323.656 274.844,324.449C272.824,325.094 271.871,325.418 271.996,325.418C269.766,325.418 266.707,324.68 262.816,323.223C261.972,322.898 261.558,322.629 261.558,322.43C261.558,322.215 262.117,321.836 263.215,321.316C267.551,319.227 274.195,317.59 283.141,316.383C291.512,315.25 297.484,313.613 301.086,311.469C304.688,309.344 306.484,306.086 306.484,301.73C306.484,298.078 305.152,295.684 302.527,294.551C301.609,294.551 299.664,295.305 296.656,296.836C292.859,298.797 289.727,300.184 287.297,300.992Z" style="fill:rgb(255,97,5);fill-rule:nonzero;"/>
        </g>
        <g transform="matrix(-5.775e-16,3.14376,-3.14376,-5.775e-16,2418.88,665.565)">
            <path d="M227.863,394.09C224.73,394.09 222.156,394.574 220.141,395.547C219.008,395.547 216.305,394.648 212.039,392.812C211.52,392.594 211.266,392.398 211.266,392.234C211.266,392.039 211.535,391.805 212.094,391.551C213.191,391.031 216.254,389.824 221.273,387.934C226.477,385.953 229.68,384.785 230.887,384.461C231.805,384.207 232.488,384.062 232.938,384.062C234.379,384.062 233.516,385.449 230.348,388.223C229.895,388.547 230.094,388.707 230.941,388.707C231.227,388.707 241.234,388.004 260.965,386.566C280.691,385.125 291.797,384.406 294.266,384.406C301.859,384.406 308.539,385.574 314.297,387.879C315.469,388.367 316.313,388.762 316.836,389.066C317.609,389.516 317.719,389.789 317.18,389.895C316.586,390.02 315.344,389.969 313.453,389.734C310.859,389.445 307.836,389.285 304.379,389.285C301.246,389.285 288.395,390.094 265.805,391.695C243.215,393.297 230.563,394.09 227.863,394.09Z" style="fill:rgb(0,123,221);fill-rule:nonzero;"/>
        </g>
        <g transform="matrix(-5.775e-16,3.14376,-3.14376,-5.775e-16,2418.88,665.565)">
            <g transform="matrix(-5.84322e-17,-0.31809,0.31809,-5.84322e-17,-211.71,769.423)">
                <path d="M1104.92,1628.52C1114.69,1628.5 1124.24,1624.72 1133.44,1617.14C1136.1,1614.88 1137.46,1606.73 1137.46,1592.58C1137.46,1583.99 1135.26,1549.47 1130.84,1488.97C1126.43,1428.48 1124.22,1392.83 1124.22,1381.96C1124.22,1372.11 1122.63,1364.08 1119.58,1357.68C1119.58,1354.24 1122.46,1345.75 1128.18,1332.23C1128.8,1330.58 1129.42,1329.8 1130.05,1329.8C1130.67,1329.8 1131.35,1330.69 1132.2,1332.51C1133.84,1336.02 1137.63,1345.64 1143.57,1361.37C1149.68,1377.78 1153.42,1387.79 1154.61,1391.47C1155.23,1394.59 1155.57,1396.74 1155.57,1397.93C1155.57,1402.45 1151.27,1399.79 1142.66,1389.94C1141.64,1388.53 1141.14,1389.15 1141.14,1391.81C1141.14,1392.44 1143.07,1419.32 1146.97,1472.57C1150.82,1525.75 1152.8,1557.5 1152.8,1567.74C1152.8,1597.39 1147.42,1620.77 1136.78,1637.74C1127.79,1652.06 1117.14,1659.24 1104.86,1659.24L1104.86,1659.19C1101.49,1659.19 1098.91,1658.84 1097.05,1658.11C1097.05,1695.3 1091.56,1720.31 1080.64,1733.2C1069.38,1746.5 1053.2,1760.03 1032.09,1773.72C1005.38,1791.05 982.415,1799.7 963.282,1799.7C945.687,1799.7 932.731,1791.89 924.403,1776.32C918.584,1765.57 915.698,1753.3 915.698,1739.49C915.698,1717.99 920.166,1696.14 929.157,1673.97C931.147,1669.15 932.558,1666.72 933.467,1666.72C933.92,1666.83 934.08,1667.33 934.08,1668.24C934.08,1669.78 933.627,1672.15 932.731,1675.31C926.503,1697.33 923.385,1714.08 923.385,1725.5C923.385,1735.46 926.614,1744.92 933.011,1753.92C940.591,1764.56 950.377,1769.93 962.374,1769.93C976.301,1769.93 993.617,1764.34 1014.27,1753.18C1030.74,1744.24 1047.14,1733.16 1063.44,1719.85C1077.76,1708.08 1085.96,1699.99 1088,1695.58C1088,1678.37 1083.14,1660.15 1073.4,1640.9C1071.59,1637.23 1070.69,1634.41 1070.69,1632.31C1070.69,1630.79 1072.66,1623.59 1076.63,1610.7C1077.37,1608.2 1078.15,1607.01 1079.12,1607.01C1080.14,1607.01 1081.38,1608.66 1082.97,1612.05C1085.68,1618.1 1087.78,1621.79 1089.08,1623.09C1092.47,1626.71 1097.74,1628.52 1104.92,1628.47L1104.92,1628.52Z" style="fill:rgb(0,123,221);fill-rule:nonzero;"/>
            </g>
        </g>
        <g transform="matrix(-5.775e-16,3.14376,-3.14376,-5.775e-16,2418.88,665.565)">
            <g transform="matrix(-5.84322e-17,-0.31809,0.31809,-5.84322e-17,-211.71,769.423)">
                <path d="M889.945,1551.48C911.275,1542.49 937.56,1534.01 968.885,1525.99L912.357,1510.37C906.585,1508.72 902.74,1507.93 900.643,1507.93C898.603,1507.93 896.908,1508.83 895.434,1510.65C894.022,1512.45 891.529,1513.08 888.077,1512.45C876.191,1512.06 863.185,1511.28 849.088,1510.02C846.202,1509.63 844.791,1508.39 844.791,1506.35C844.791,1505.33 845.074,1503.97 845.699,1502.32L855.536,1483.31C857.18,1480.03 859.221,1478.21 861.651,1477.77C879.702,1475.33 893.679,1474.43 903.749,1475.05C926.503,1483.03 957.903,1492.94 998.024,1504.82C1006.24,1506.63 1020.39,1508.89 1040.41,1511.56C1059.88,1514.04 1070.86,1515.57 1073.29,1516.14C1075.78,1516.76 1076.4,1518.23 1075.16,1520.44L1066.21,1538.27C1065.03,1540.53 1063.16,1541.66 1060.73,1541.66L1020.15,1541.66C1006.63,1541.66 979.922,1547.66 939.975,1559.77C930.188,1562.59 913.529,1569.03 889.977,1579.09C906.313,1590.97 914.507,1605.61 914.507,1622.98C914.507,1630.16 911.791,1637.63 906.352,1645.39C900.297,1653.92 893.629,1658.17 886.213,1658.17C878.008,1658.17 869.007,1653.92 859.221,1645.39C848.243,1635.99 841.169,1624.89 838,1612.05C825.375,1643.4 808.295,1659.08 786.729,1659.08L786.729,1658.91C783.286,1658.9 780.77,1658.56 779.152,1658C779.152,1679.05 777.901,1695.01 775.468,1705.87C772.975,1717.93 768.677,1727.15 762.563,1733.49C745.526,1750.07 725.045,1764.73 701.111,1777.4C670.384,1793.35 641.638,1801.4 614.818,1801.4C576.282,1801.4 549.742,1782.55 535.253,1744.86C532.367,1737.5 530.955,1728.11 530.955,1716.63C530.955,1709.05 531.518,1701.35 532.76,1693.6C534.627,1682.11 537.18,1672.09 540.459,1663.49C541.478,1660.84 542.499,1659.54 543.518,1659.54C544.536,1659.54 544.756,1661.23 544.143,1664.73C542.892,1670.06 541.701,1675.38 540.459,1680.69C538.422,1690.09 537.403,1697.05 537.403,1701.57C537.403,1717.13 542.609,1731.45 553.021,1744.53C567.168,1761.95 587.653,1770.67 614.473,1770.67C637.843,1770.67 662.292,1765.12 687.873,1754.08C707.962,1745.26 726.802,1734.11 744.398,1720.59C758.95,1709.33 767.435,1700.96 769.928,1695.4C769.928,1678.2 765.115,1659.98 755.439,1640.75C753.622,1637.06 752.726,1634.24 752.726,1632.14C752.726,1630.73 754.64,1623.48 758.545,1610.35C759.343,1608.09 760.192,1607.01 760.978,1607.01C761.997,1607.01 763.361,1608.66 765.005,1611.89C767.659,1617.82 769.696,1621.57 771.107,1622.98C774.399,1626.43 779.655,1628.18 786.839,1628.18L786.839,1628.36C800.942,1628.32 813.7,1621.53 824.982,1608.09C827.758,1604.82 832.904,1596.6 840.493,1583.53C842.298,1580.36 844.225,1578.78 846.265,1578.78C847.331,1578.78 848.18,1579.06 848.915,1579.69L848.915,1578.33C848.915,1571.88 862.559,1562.88 889.945,1551.44L889.945,1551.48ZM891.136,1619.92C885.537,1611.43 875.625,1606.05 861.478,1603.79C857.809,1603.17 855.989,1603.45 855.989,1604.53C855.989,1605.14 856.555,1606.23 857.636,1607.64C867.816,1620.31 878.008,1626.71 888.36,1626.71C891.639,1626.71 893.286,1626.04 893.286,1624.67C893.286,1623.65 892.548,1622.07 891.136,1619.92Z" style="fill:rgb(0,124,208);fill-rule:nonzero;"/>
            </g>
        </g>
        <g transform="matrix(-5.775e-16,3.14376,-3.14376,-5.775e-16,2418.88,665.565)">
            <path d="M226.043,594.285C222.91,594.285 220.34,594.77 218.32,595.742C217.188,595.742 214.488,594.844 210.223,593.008C209.699,592.793 209.449,592.594 209.449,592.43C209.449,592.234 209.719,592 210.277,591.746C211.375,591.227 214.434,590.02 219.457,588.129C224.656,586.148 227.863,584.98 229.066,584.656C229.984,584.402 230.672,584.258 231.121,584.258C232.559,584.258 231.695,585.645 228.527,588.418C228.078,588.742 228.277,588.902 229.121,588.902C229.41,588.902 239.418,588.203 259.144,586.762C278.875,585.32 289.98,584.602 292.445,584.602C300.043,584.602 306.719,585.77 312.48,588.074C313.648,588.562 314.496,588.957 315.02,589.262C315.793,589.715 315.898,589.984 315.359,590.09C314.766,590.219 313.523,590.164 311.633,589.93C309.043,589.641 306.02,589.48 302.563,589.48C299.43,589.48 286.578,590.289 263.988,591.891C241.398,593.492 228.742,594.285 226.043,594.285Z" style="fill:rgb(255,176,0);fill-rule:nonzero;"/>
        </g>
        <g transform="matrix(-5.775e-16,3.14376,-3.14376,-5.775e-16,2418.88,665.565)">
            <g transform="matrix(-5.84322e-17,-0.31809,0.31809,-5.84322e-17,-211.71,769.423)">
                <path d="M474.144,1627.67C483.91,1627.65 493.456,1623.86 502.661,1616.3C505.324,1614.04 506.676,1605.88 506.676,1591.73C506.676,1583.14 504.466,1548.62 500.058,1488.12C495.648,1427.63 493.438,1391.98 493.438,1381.11C493.438,1371.27 491.853,1363.24 488.798,1356.84C488.798,1353.39 491.683,1344.9 497.393,1331.38C498.018,1329.74 498.644,1328.95 499.26,1328.95C499.886,1328.95 500.561,1329.85 501.42,1331.66C503.054,1335.16 506.849,1344.79 512.791,1360.52C518.896,1376.93 522.64,1386.95 523.819,1390.62C524.445,1393.74 524.79,1395.89 524.79,1397.08C524.79,1401.6 520.48,1398.94 511.882,1389.1C510.864,1387.68 510.361,1388.3 510.361,1390.96C510.361,1391.59 512.275,1418.46 516.183,1471.72C520.037,1524.91 522.014,1556.65 522.014,1566.89C522.014,1596.55 516.636,1619.92 506,1636.89C497,1651.21 486.364,1658.39 474.085,1658.39L474.085,1658.34C470.712,1658.34 468.129,1658 466.276,1657.26C466.276,1694.45 460.783,1719.45 449.868,1732.36C438.607,1745.65 422.42,1759.18 401.31,1772.87C374.6,1790.18 351.626,1798.84 332.502,1798.84C314.907,1798.84 301.939,1791.05 293.626,1775.47C287.792,1764.73 284.906,1752.45 284.906,1738.64C284.906,1717.13 289.376,1695.3 298.377,1673.1C300.354,1668.3 301.778,1665.87 302.674,1665.87C303.13,1665.98 303.303,1666.49 303.303,1667.39C303.303,1668.92 302.847,1671.3 301.939,1674.47C295.714,1696.49 292.605,1713.24 292.605,1724.66C292.605,1734.62 295.837,1744.07 302.222,1753.07C309.811,1763.71 319.597,1769.09 331.594,1769.09C345.521,1769.09 362.836,1763.47 383.481,1752.34C399.948,1743.4 416.368,1732.29 432.662,1719.01C446.982,1707.23 455.184,1699.14 457.225,1694.73C457.225,1677.53 452.349,1659.3 442.622,1640.06C440.805,1636.39 439.909,1633.55 439.909,1631.46C439.909,1629.94 441.886,1622.74 445.851,1609.85C446.577,1607.36 447.375,1606.16 448.334,1606.16C449.353,1606.16 450.604,1607.81 452.188,1611.2C454.901,1617.26 456.989,1620.94 458.29,1622.24C461.692,1625.86 466.948,1627.67 474.144,1627.62L474.144,1627.67Z" style="fill:rgb(255,176,0);fill-rule:nonzero;"/>
            </g>
        </g>
        <g transform="matrix(-5.775e-16,3.14376,-3.14376,-5.775e-16,2418.88,665.565)">
            <g transform="matrix(-5.84322e-17,-0.31809,0.31809,-5.84322e-17,-211.71,769.423)">
                <path d="M223.907,1558.01C235.284,1558 250.763,1554.55 270.366,1547.71C278.681,1544.88 296.512,1537.92 323.847,1526.83L266.241,1509.52C264.311,1509 262.274,1509.8 260.123,1511.95C258.539,1513.47 256.219,1514.1 253.05,1513.82C243.606,1513.3 230.638,1512.45 214.171,1511.32C210.782,1511.04 209.135,1510.08 209.135,1508.44C209.135,1507.42 209.701,1505.83 210.782,1503.62L220.789,1485.24C222.213,1482.46 224.08,1480.94 226.278,1480.6C238.277,1478.79 252.374,1477.88 268.561,1477.88C268.954,1477.88 280.668,1481.68 303.696,1489.19C328.711,1497.52 346.196,1502.84 356.266,1505.1C366.288,1507.42 381.281,1510.13 401.25,1513.3C419.867,1516.42 430.452,1517.94 433.055,1517.94C434.357,1517.94 435.266,1518.07 435.659,1518.23C436.567,1518.68 436.397,1519.93 435.206,1522.08L424.46,1541.72C423.442,1543.58 421.857,1544.48 419.707,1544.48C417.324,1544.48 412.461,1544.04 405.107,1543.13C397.688,1542.22 391.24,1541.72 385.582,1541.72C367.64,1541.72 347.671,1545.78 325.542,1553.88C307.6,1561.47 289.659,1568.99 271.608,1576.57C251.858,1584.66 235.954,1588.74 223.848,1588.74L223.848,1588.68C210.751,1588.67 200.418,1584.93 192.841,1577.48C188.54,1573.18 184.242,1566.16 179.945,1556.43C176.653,1549.01 173.717,1545.28 171.054,1545.28C167.15,1545.28 161.438,1549.25 153.849,1557.22C145.646,1565.7 141.569,1573.01 141.569,1579C141.569,1584.16 143.999,1589.41 148.925,1594.86L149.361,1594.66C158.532,1590.6 168.739,1588.57 179.945,1588.57C188.65,1588.57 195.503,1592.25 200.587,1599.55C205.636,1606.84 208.176,1616.52 208.176,1628.47C208.176,1638.42 206.029,1646.57 201.731,1653.03C197.421,1659.47 191.772,1662.7 184.698,1662.7C174.676,1662.7 165.455,1658.17 157.017,1649.06C150.4,1641.7 145.143,1632.59 141.236,1621.89C125.787,1628.86 118.028,1641.48 118.028,1659.82C118.028,1668.81 120.691,1684.71 126.011,1707.52C129.179,1720.81 132.345,1734.16 135.514,1747.46C140.157,1771.41 141.692,1789.16 140.157,1800.71C138.743,1811.47 137.554,1816.85 136.596,1816.85C135.687,1816.85 134.901,1811.58 134.162,1801C133.93,1794.5 132.861,1784.69 130.934,1771.69C116.787,1719.8 109.776,1685.05 109.776,1667.45C109.776,1635.26 118.028,1613.19 134.618,1601.3L134.662,1601.28C132.174,1593.82 131.154,1587.65 131.61,1582.86C133.317,1564.01 139.654,1547.49 150.46,1533.28C160.076,1520.78 169.014,1514.55 177.219,1514.55C180.055,1514.55 183.114,1518.29 186.283,1525.75C190.58,1535.88 194.375,1542.85 197.764,1546.75C204.212,1554.22 212.929,1557.95 223.907,1557.95L223.907,1558.01ZM185.594,1630.33C189.731,1630.51 191.772,1629.48 191.772,1627.21C191.772,1624.05 189.106,1621.22 183.79,1618.68C179.649,1616.69 172.871,1616.3 163.355,1617.42C168.058,1625.52 175.462,1629.82 185.594,1630.33Z" style="fill:rgb(255,176,0);fill-rule:nonzero;"/>
            </g>
        </g>
        <g transform="matrix(-5.775e-16,3.14376,-3.14376,-5.775e-16,2418.88,665.565)">
            <path d="M302.977,567.195C302.887,567.32 302.688,567.32 302.398,567.195L295.992,564.082C295.598,563.883 295.414,563.668 295.414,563.453C295.414,563.109 296.262,561.723 297.953,559.238C299.645,556.773 300.637,555.531 300.926,555.531C302.039,555.531 304.344,556.613 307.871,558.809C308.32,559.059 308.43,559.348 308.215,559.637C306.344,562.066 304.613,564.602 302.977,567.195Z" style="fill:rgb(255,97,5);fill-rule:nonzero;"/>
        </g>
        <g transform="matrix(-5.775e-16,3.14376,-3.14376,-5.775e-16,2418.88,665.565)">
            <path d="M328.59,709.665L323.461,707.18C323.063,706.985 322.883,706.766 322.883,706.551C322.883,706.227 323.73,704.825 325.422,702.34C327.113,699.875 328.105,698.633 328.391,698.633C329.508,698.633 331.813,699.731 335.32,701.907C335.754,702.161 335.863,702.45 335.664,702.735C334.078,704.879 332.406,707.309 330.641,710.008C332.695,710.926 334.441,711.825 335.879,712.707C336.328,712.961 336.438,713.231 336.223,713.536C334.352,715.965 332.621,718.504 330.984,721.094C330.895,721.223 330.695,721.223 330.406,721.094L324,717.981C323.605,717.786 323.426,717.567 323.406,717.352C323.426,717.047 324.109,715.86 325.512,713.77C326.914,711.68 327.941,710.332 328.59,709.665Z" style="fill:rgb(255,97,5);fill-rule:nonzero;"/>
        </g>
        <g transform="matrix(-5.775e-16,3.14376,-3.14376,-5.775e-16,2418.88,665.565)">
            <path d="M348.137,248.324C344.844,239.27 341.352,229.66 337.625,219.508C337.445,218.984 337.375,218.68 337.445,218.57C337.535,218.445 337.805,218.48 338.273,218.68C339.695,219.254 340.559,219.742 340.867,220.082C343.926,228.617 347.813,238.586 352.547,249.98C351.199,249.641 349.738,249.082 348.137,248.324Z" style="fill:rgb(255,97,5);fill-rule:nonzero;"/>
        </g>
        <g transform="matrix(-5.775e-16,3.14376,-3.14376,-5.775e-16,2418.88,665.565)">
            <path d="M257.418,64.781C259.234,64.781 260.98,65.41 262.637,66.652C264.438,67.984 265.34,69.531 265.34,71.332C265.34,73.184 264.438,74.102 262.637,74.102C261.344,74.102 259.453,73.383 256.949,71.906C254.465,70.449 253.223,69.191 253.223,68.164C253.223,67.246 253.621,66.453 254.41,65.789C255.203,65.121 256.211,64.781 257.418,64.781ZM259.469,66.398C257.777,66.398 256.933,67.57 256.933,69.875C256.933,70.199 257.453,70.738 258.515,71.492C259.578,72.266 260.316,72.644 260.746,72.644C261.324,72.395 261.629,71.531 261.629,70.07C261.629,67.625 260.91,66.398 259.469,66.398Z" style="fill:rgb(255,97,5);fill-rule:nonzero;"/>
        </g>
        <g transform="matrix(-5.775e-16,3.14376,-3.14376,-5.775e-16,2418.88,665.565)">
            <path d="M334.492,18.629C332.242,12.273 329.797,5.398 327.148,-2.035C326.969,-2.559 326.898,-2.863 326.969,-2.953C327.059,-3.098 327.328,-3.063 327.797,-2.863C329.219,-2.27 330.086,-1.801 330.391,-1.441C332.566,4.805 335.43,12.059 338.992,20.285C337.625,19.941 336.113,19.383 334.492,18.629Z" style="fill:rgb(255,97,5);fill-rule:nonzero;"/>
        </g>
        <g transform="matrix(-5.775e-16,3.14376,-3.14376,-5.775e-16,2418.88,665.565)">
            <path d="M244.98,319.785C246.258,319.785 247.57,320.074 248.941,320.633C250.703,321.371 251.586,322.34 251.586,323.512C251.586,325.367 250.309,326.699 247.77,327.473C251.027,328.352 252.664,329.973 252.664,332.312C252.664,333.195 252.215,333.969 251.336,334.617C250.289,335.375 248.922,335.734 247.23,335.734L243.234,335.734C242.91,335.734 242.676,335.969 242.551,336.398C242.426,336.832 242.082,337.047 241.523,337.047C240.641,337.047 239.777,336.687 238.934,335.93C238.195,335.246 237.816,334.727 237.816,334.367C237.816,333.914 238.699,333.68 240.445,333.68C241.363,333.68 242.117,333.754 242.746,333.898C243.359,334.043 243.898,334.113 244.352,334.113C245.305,334.113 246.223,333.934 247.086,333.539C248.113,333.07 248.617,332.512 248.617,331.828C248.617,330.945 248.203,330.117 247.41,329.344C246.617,328.586 245.684,328.191 244.602,328.191C243.988,328.191 242.93,328.371 241.434,328.75C239.922,329.109 239.004,329.289 238.645,329.289C238.32,329.289 237.797,329.129 237.098,328.805C236.41,328.48 236.051,328.227 236.051,328.066C236.051,327.777 237.043,327.383 239.039,326.914C241.02,326.445 242.477,326.195 243.434,326.195C246.168,326.195 247.535,325.148 247.535,323.027C247.535,322.125 247.066,321.551 246.168,321.332C242.965,323.152 240.535,324.07 238.844,324.07C237.852,324.07 236.988,323.816 236.25,323.332C235.727,322.988 235.441,322.773 235.422,322.648C235.422,322.504 235.746,322.414 236.395,322.34C237.313,322.25 238.051,322.109 238.645,321.91C238.699,321.875 239.832,321.422 242.012,320.578C243.305,320.055 244.297,319.785 244.98,319.785Z" style="fill:rgb(255,97,5);fill-rule:nonzero;"/>
        </g>
        <g transform="matrix(-5.775e-16,3.14376,-3.14376,-5.775e-16,2418.88,665.565)">
            <path d="M231.695,348.027C228.402,338.973 224.91,329.363 221.184,319.211C221.004,318.687 220.934,318.383 221.004,318.273C221.094,318.148 221.363,318.184 221.832,318.383C223.254,318.957 224.117,319.445 224.426,319.785C227.484,328.316 231.371,338.289 236.105,349.684C234.758,349.34 233.297,348.785 231.695,348.027Z" style="fill:rgb(255,97,5);fill-rule:nonzero;"/>
        </g>
        <g transform="matrix(-5.775e-16,3.14376,-3.14376,-5.775e-16,2418.88,665.565)">
            <path d="M335.773,374.145C332.477,365.09 328.984,355.48 325.262,345.328C325.078,344.805 325.008,344.5 325.078,344.391C325.172,344.266 325.441,344.301 325.906,344.5C327.328,345.074 328.195,345.562 328.5,345.902C331.559,354.434 335.449,364.406 340.184,375.801C338.832,375.461 337.375,374.902 335.773,374.145Z" style="fill:rgb(255,97,5);fill-rule:nonzero;"/>
        </g>
        <g transform="matrix(-5.775e-16,3.14376,-3.14376,-5.775e-16,2418.88,665.565)">
            <path d="M246.762,430.52C248.039,430.52 249.355,430.809 250.723,431.367C252.484,432.105 253.367,433.078 253.367,434.246C253.367,436.102 252.09,437.434 249.551,438.207C252.809,439.09 254.449,440.711 254.449,443.051C254.449,443.93 253.996,444.707 253.117,445.352C252.07,446.109 250.703,446.469 249.012,446.469L245.016,446.469C244.691,446.469 244.457,446.703 244.332,447.137C244.207,447.566 243.863,447.785 243.305,447.785C242.426,447.785 241.559,447.422 240.715,446.668C239.977,445.984 239.598,445.461 239.598,445.102C239.598,444.652 240.48,444.418 242.227,444.418C243.145,444.418 243.898,444.488 244.531,444.633C245.141,444.777 245.684,444.848 246.133,444.848C247.086,444.848 248.004,444.668 248.867,444.273C249.895,443.805 250.398,443.246 250.398,442.563C250.398,441.68 249.984,440.852 249.191,440.078C248.398,439.324 247.465,438.926 246.383,438.926C245.773,438.926 244.711,439.109 243.215,439.484C241.703,439.844 240.785,440.027 240.426,440.027C240.102,440.027 239.578,439.863 238.879,439.539C238.195,439.215 237.836,438.965 237.836,438.801C237.836,438.512 238.824,438.117 240.82,437.648C242.801,437.18 244.262,436.93 245.215,436.93C247.949,436.93 249.316,435.887 249.316,433.762C249.316,432.863 248.852,432.285 247.949,432.07C244.746,433.887 242.316,434.805 240.625,434.805C239.633,434.805 238.77,434.555 238.031,434.066C237.512,433.727 237.223,433.508 237.203,433.383C237.203,433.238 237.527,433.148 238.176,433.078C239.094,432.988 239.832,432.844 240.426,432.645C240.48,432.609 241.613,432.16 243.793,431.313C245.09,430.793 246.078,430.52 246.762,430.52Z" style="fill:rgb(255,97,5);fill-rule:nonzero;"/>
        </g>
        <g transform="matrix(-5.775e-16,3.14376,-3.14376,-5.775e-16,2418.88,665.565)">
            <path d="M232.434,454.246C229.141,445.191 225.648,435.578 221.922,425.426C221.742,424.906 221.672,424.598 221.742,424.492C221.832,424.367 222.102,424.402 222.57,424.598C223.992,425.176 224.855,425.66 225.16,426.004C228.223,434.535 232.109,444.508 236.844,455.902C235.492,455.559 234.035,455 232.434,454.246Z" style="fill:rgb(255,97,5);fill-rule:nonzero;"/>
        </g>
        <g transform="matrix(-5.775e-16,3.14376,-3.14376,-5.775e-16,2418.88,665.565)">
            <path d="M234.254,480.219C236.07,480.219 237.816,480.848 239.473,482.09C241.273,483.422 242.172,484.973 242.172,486.77C242.172,488.625 241.273,489.543 239.473,489.543C238.176,489.543 236.285,488.824 233.785,487.348C231.301,485.891 230.059,484.629 230.059,483.602C230.059,482.684 230.453,481.895 231.246,481.227C232.039,480.562 233.047,480.219 234.254,480.219ZM236.305,481.84C234.613,481.84 233.766,483.008 233.766,485.312C233.766,485.637 234.289,486.176 235.352,486.934C236.41,487.707 237.148,488.086 237.582,488.086C238.156,487.832 238.465,486.969 238.465,485.512C238.465,483.062 237.742,481.84 236.305,481.84Z" style="fill:rgb(255,97,5);fill-rule:nonzero;"/>
        </g>
        <g transform="matrix(-5.775e-16,3.14376,-3.14376,-5.775e-16,2418.88,665.565)">
            <path d="M277.074,532.961C274.824,526.605 272.375,519.73 269.73,512.297C269.551,511.773 269.477,511.469 269.551,511.379C269.641,511.234 269.91,511.27 270.379,511.469C271.801,512.062 272.664,512.531 272.969,512.891C275.148,519.137 278.012,526.391 281.574,534.617C280.207,534.274 278.695,533.715 277.074,532.961Z" style="fill:rgb(255,97,5);fill-rule:nonzero;"/>
        </g>
        <g transform="matrix(-5.775e-16,3.14376,-3.14376,-5.775e-16,2418.88,665.565)">
            <path d="M276.59,552.832C277.363,553.191 277.848,553.48 278.012,553.715C278.172,553.91 278.063,554.02 277.703,554.055C277.344,554.055 276.859,553.965 276.246,553.805C275.633,553.641 274.48,553.391 272.824,553.066C271.98,552.957 271.172,552.902 270.379,552.902C264.258,552.902 258.91,555.531 254.32,560.789C254.035,561.113 253.676,561.164 253.242,560.93L250.668,559.473C250.434,559.348 250.434,559.133 250.668,558.844C254.594,553.695 260.191,551.102 267.461,551.102C271.098,551.102 274.141,551.68 276.59,552.832Z" style="fill:rgb(255,97,5);fill-rule:nonzero;"/>
        </g>
        <g transform="matrix(-5.775e-16,3.14376,-3.14376,-5.775e-16,2418.88,665.565)">
            <path d="M370.711,572.867C367.414,563.812 363.926,554.199 360.199,544.047C360.02,543.527 359.945,543.219 360.02,543.113C360.109,542.984 360.379,543.02 360.848,543.219C362.27,543.797 363.133,544.281 363.438,544.625C366.496,553.156 370.387,563.129 375.121,574.52C373.77,574.18 372.313,573.621 370.711,572.867Z" style="fill:rgb(255,97,5);fill-rule:nonzero;"/>
        </g>
        <g transform="matrix(-5.775e-16,3.14376,-3.14376,-5.775e-16,2418.88,665.565)">
            <path d="M245.879,635.129C247.156,635.129 248.473,635.414 249.84,635.973C251.605,636.711 252.484,637.684 252.484,638.852C252.484,640.707 251.207,642.039 248.672,642.812C251.93,643.695 253.566,645.316 253.566,647.656C253.566,648.539 253.117,649.312 252.234,649.961C251.191,650.715 249.82,651.074 248.129,651.074L244.133,651.074C243.809,651.074 243.574,651.309 243.449,651.742C243.324,652.172 242.98,652.391 242.426,652.391C241.543,652.391 240.68,652.031 239.832,651.273C239.094,650.59 238.715,650.066 238.715,649.707C238.715,649.258 239.598,649.023 241.344,649.023C242.262,649.023 243.02,649.094 243.648,649.238C244.262,649.383 244.801,649.457 245.25,649.457C246.203,649.457 247.121,649.277 247.984,648.879C249.012,648.41 249.516,647.852 249.516,647.168C249.516,646.289 249.102,645.461 248.309,644.684C247.52,643.93 246.582,643.535 245.504,643.535C244.891,643.535 243.828,643.715 242.336,644.09C240.82,644.453 239.902,644.633 239.543,644.633C239.219,644.633 238.699,644.469 237.996,644.145C237.313,643.82 236.953,643.57 236.953,643.406C236.953,643.121 237.941,642.723 239.941,642.254C241.922,641.789 243.379,641.535 244.332,641.535C247.066,641.535 248.438,640.492 248.438,638.367C248.438,637.469 247.969,636.891 247.066,636.676C243.863,638.492 241.434,639.41 239.742,639.41C238.754,639.41 237.887,639.16 237.148,638.672C236.629,638.332 236.34,638.117 236.32,637.988C236.32,637.844 236.645,637.754 237.293,637.684C238.211,637.594 238.949,637.449 239.543,637.25C239.598,637.215 240.73,636.766 242.91,635.918C244.207,635.398 245.195,635.129 245.879,635.129Z" style="fill:rgb(255,97,5);fill-rule:nonzero;"/>
        </g>
        <g transform="matrix(-5.775e-16,3.14376,-3.14376,-5.775e-16,2418.88,665.565)">
            <path d="M233.801,661.246C230.508,652.191 227.016,642.578 223.289,632.426C223.109,631.906 223.039,631.598 223.109,631.492C223.199,631.367 223.469,631.402 223.938,631.598C225.359,632.176 226.223,632.66 226.531,633.004C229.59,641.535 233.477,651.508 238.211,662.902C236.863,662.56 235.402,662 233.801,661.246Z" style="fill:rgb(255,97,5);fill-rule:nonzero;"/>
        </g>
        <g transform="matrix(-5.775e-16,3.14376,-3.14376,-5.775e-16,2418.88,665.565)">
            <path d="M349.902,719.168C346.609,710.118 343.117,700.504 339.391,690.352C339.211,689.828 339.137,689.523 339.211,689.414C339.301,689.289 339.57,689.324 340.039,689.523C341.461,690.098 342.324,690.586 342.629,690.926C345.691,699.461 349.578,709.43 354.313,720.825C352.961,720.485 351.504,719.926 349.902,719.168Z" style="fill:rgb(255,97,5);fill-rule:nonzero;"/>
        </g>
        <g transform="matrix(-5.775e-16,3.14376,-3.14376,-5.775e-16,2418.88,665.565)">
            <path d="M324.809,664.199C322.559,657.844 320.113,650.969 317.465,643.535C317.285,643.012 317.215,642.707 317.285,642.617C317.375,642.473 317.645,642.508 318.113,642.707C319.535,643.301 320.398,643.766 320.707,644.129C322.883,650.375 325.746,657.629 329.309,665.852C327.941,665.512 326.43,664.953 324.809,664.199Z" style="fill:rgb(255,97,5);fill-rule:nonzero;"/>
        </g>
        <g transform="matrix(-5.775e-16,3.14376,-3.14376,-5.775e-16,2418.88,665.565)">
            <path d="M228.852,530.746C228.852,528.926 229.934,527.289 232.094,525.848C234.254,524.391 237.078,523.367 240.57,522.789C240.93,522.719 241.145,522.68 241.199,522.699C241.309,522.629 241.309,522.574 241.199,522.539C241.145,522.52 240.93,522.43 240.57,522.305C238.48,522.016 235.367,521.297 231.246,520.145C228.277,518.918 226.801,517.57 226.801,516.094C226.801,515.355 227.305,514.598 228.313,513.844C229.195,513.195 229.895,512.871 230.453,512.871C230.887,512.871 231.445,512.98 232.129,513.215C233.027,513.5 233.496,513.844 233.496,514.238C233.496,514.402 233.137,514.762 232.434,515.32C231.73,515.859 231.391,516.434 231.391,517.031C231.391,518.324 234.469,519.531 240.605,520.648C243.289,521.133 245.18,521.672 246.277,522.25C247.031,522.68 247.41,523.023 247.41,523.328C247.41,523.582 247.066,523.707 246.383,523.727C245.305,523.707 243.215,524.336 240.102,525.578C236.988,526.805 235.441,527.684 235.441,528.207C235.441,528.566 235.547,528.801 235.781,528.891C235.996,529 236.125,529.289 236.125,529.773C236.125,530.332 235.711,531.051 234.898,531.953C234.09,532.852 233.426,533.285 232.938,533.285C232.723,533.285 231.984,532.922 230.723,532.168C229.465,531.41 228.852,530.945 228.852,530.746Z" style="fill:rgb(255,97,5);fill-rule:nonzero;"/>
        </g>
        <g transform="matrix(-5.775e-16,3.14376,-3.14376,-5.775e-16,2418.88,665.565)">
            <path d="M261.09,354.562C259.508,355.281 258.371,356.504 257.652,358.215C259.164,358.215 260.406,358.395 261.344,358.719C261.394,358.504 261.594,357.172 261.918,354.742C261.953,354.598 261.937,354.488 261.883,354.434C261.773,354.328 261.504,354.383 261.09,354.562ZM261.09,360.016C260.297,359.781 259.433,359.781 258.515,360.016C257.527,360.25 257.039,360.699 257.039,361.328C257.039,361.691 257.347,362.195 257.976,362.824C258.625,363.473 259.109,363.777 259.433,363.777C260.207,363.777 260.765,362.516 261.09,360.016ZM256.66,364.082C254.934,364.586 253.727,364.48 253.008,363.758C252.449,363.203 252.18,362.555 252.18,361.797C252.18,361.078 252.414,360.25 252.918,359.312C254.719,356.039 256.894,353.859 259.469,352.781C259.633,352.707 259.867,352.652 260.137,352.652C261.019,352.652 262.043,352.941 263.215,353.5C264.367,354.039 264.941,354.578 264.941,355.121C264.941,355.301 264.797,356.828 264.492,359.672C266.488,361.113 268.273,362.895 269.84,365.039C271.691,367.559 273.098,369.863 274.031,371.969C274.266,372.398 275.184,374.848 276.82,379.277C277.074,379.961 277.199,380.426 277.199,380.68C277.199,380.789 277.164,380.84 277.109,380.84C276.965,380.84 276.641,380.445 276.121,379.652C274.211,376.414 272.305,373.172 270.395,369.934C268.199,366.227 266.148,363.363 264.203,361.328C263.629,363.922 262.457,365.199 260.711,365.199C259.289,365.199 257.922,364.84 256.66,364.082Z" style="fill:rgb(255,97,5);fill-rule:nonzero;"/>
        </g>
        <g transform="matrix(-5.775e-16,3.14376,-3.14376,-5.775e-16,2418.88,665.565)">
            <path d="M236.719,297.699C236.539,297.629 236.41,297.539 236.359,297.449C236.305,297.395 236.305,297.359 236.395,297.34C236.484,297.305 236.609,297.305 236.809,297.34C238.391,297.52 239.797,297.969 241.039,298.691C242.281,299.391 242.91,300.148 242.91,300.992C242.93,301.895 242.461,302.594 241.488,303.062C240.516,303.531 239.219,303.73 237.602,303.676C235.566,303.602 232.613,302.828 228.707,301.352C225.289,300.094 222.859,298.977 221.418,298.043C220.789,297.629 220.445,297.34 220.43,297.215C220.535,297.176 220.914,297.305 221.543,297.574C226.172,299.645 229.895,300.992 232.738,301.605C233.875,301.859 234.898,301.965 235.816,301.965C237.078,301.965 238.031,301.73 238.68,301.262C239.203,300.902 239.418,300.543 239.348,300.148C239.184,299.355 238.301,298.527 236.719,297.699Z" style="fill:rgb(255,97,5);fill-rule:nonzero;"/>
        </g>
        <g transform="matrix(-5.775e-16,3.14376,-3.14376,-5.775e-16,2418.88,665.565)">
            <path d="M272.52,186.441C272.52,184.715 274.176,183.004 277.488,181.277C280.531,179.711 283.914,178.613 287.656,178C288.02,177.926 288.215,177.891 288.289,177.891C288.379,177.836 288.379,177.785 288.289,177.746C288.215,177.711 288.02,177.641 287.656,177.512C284.438,177.047 280.188,176.164 274.895,174.867C271.945,173.625 270.469,172.277 270.469,170.816C270.469,170.063 270.973,169.324 271.98,168.566C272.863,167.918 273.563,167.594 274.121,167.594C274.555,167.594 275.094,167.703 275.777,167.937C276.695,168.227 277.145,168.566 277.145,168.965C277.145,169.125 276.805,169.484 276.102,170.027C275.398,170.582 275.059,171.16 275.059,171.734C275.059,172.941 279.27,174.309 287.695,175.84C290.375,176.344 292.266,176.867 293.363,177.461C294.121,177.875 294.496,178.234 294.496,178.539C294.496,178.793 294.156,178.918 293.473,178.918C292.355,178.918 289.711,179.621 285.551,181.023C281.25,182.465 279.109,183.418 279.109,183.902C279.109,184.262 279.215,184.496 279.449,184.586C279.664,184.695 279.793,184.984 279.793,185.469C279.793,186.027 279.379,186.746 278.566,187.648C277.758,188.547 277.094,188.98 276.605,188.98C276.391,188.98 275.652,188.621 274.391,187.863C273.133,187.109 272.52,186.641 272.52,186.441Z" style="fill:rgb(255,97,5);fill-rule:nonzero;"/>
        </g>
        <g transform="matrix(-5.775e-16,3.14376,-3.14376,-5.775e-16,2418.88,665.565)">
            <path d="M306.648,445.48C309.133,448.234 310.391,451.797 310.391,456.137C310.391,457.504 310.031,458.602 309.328,459.465C308.629,460.328 307.727,460.742 306.648,460.742C304.738,460.742 302.832,459.953 300.926,458.348C299.25,456.766 297.559,455.18 295.867,453.562C295.508,453.238 295.234,453.328 295.039,453.867C294.625,455.055 294.426,456.316 294.426,457.684C294.426,458.422 294.625,459.25 295.039,460.133C295.109,460.328 295.129,460.457 295.074,460.508C295.02,460.562 294.875,460.547 294.66,460.457C293.328,459.914 292.445,459.34 292.016,458.762C291.457,458.062 291.188,457 291.188,455.559C291.188,452.32 291.961,450.699 293.543,450.699C294.73,450.699 296.426,451.742 298.602,453.813C300.098,455.289 301.609,456.746 303.121,458.207C303.949,458.852 304.668,459.16 305.242,459.16C306.574,459.16 307.242,457.664 307.242,454.676C307.242,451.941 306.758,448.988 305.82,445.805C305.566,444.922 305.516,444.473 305.621,444.473C305.73,444.473 306.07,444.813 306.648,445.48Z" style="fill:rgb(255,97,5);fill-rule:nonzero;"/>
        </g>
        <g transform="matrix(-5.775e-16,3.14376,-3.14376,-5.775e-16,2418.88,665.565)">
            <path d="M305.605,644.973C308.539,648.23 310.016,652.406 310.016,657.52C310.016,659.121 309.582,660.418 308.754,661.426C307.926,662.435 306.883,662.937 305.605,662.937C303.355,662.937 301.121,662 298.871,660.113C296.875,658.258 294.895,656.387 292.914,654.496C292.48,654.098 292.156,654.227 291.926,654.836C291.438,656.242 291.203,657.734 291.203,659.336C291.203,660.203 291.438,661.172 291.926,662.219C292.031,662.435 292.051,662.594 291.977,662.648C291.926,662.724 291.742,662.703 291.492,662.594C289.926,661.95 288.883,661.282 288.359,660.598C287.711,659.789 287.387,658.527 287.387,656.836C287.387,653.02 288.305,651.129 290.16,651.129C291.563,651.129 293.563,652.352 296.137,654.785C297.898,656.512 299.664,658.238 301.465,659.969C302.438,660.723 303.266,661.082 303.949,661.082C305.516,661.082 306.305,659.336 306.305,655.809C306.305,652.586 305.746,649.113 304.633,645.352C304.324,644.324 304.254,643.805 304.379,643.805C304.508,643.805 304.922,644.18 305.605,644.973Z" style="fill:rgb(255,97,5);fill-rule:nonzero;"/>
        </g>
        <g transform="matrix(-5.775e-16,3.14376,-3.14376,-5.775e-16,2418.88,665.565)">
            <path d="M225.305,366.227C226.961,366.227 228.852,366.91 230.977,368.297C233.191,369.68 235.078,371.5 236.645,373.715C237.258,374.594 237.582,375.117 237.582,375.281C237.582,375.316 237.563,375.316 237.527,375.316C237.402,375.316 236.914,374.957 236.105,374.199C232.129,370.547 229.48,368.711 228.133,368.711C226.871,368.711 226.242,369.305 226.242,370.473C226.242,371.141 226.422,371.715 226.781,372.238C227.035,372.633 227.18,372.887 227.215,372.977C227.141,373.047 227.105,373.121 227.07,373.227C226.945,373.191 226.602,373.121 226.043,373.031C223.309,372.434 221.941,371.066 221.941,368.926C221.941,367.125 223.055,366.227 225.305,366.227Z" style="fill:rgb(255,97,5);fill-rule:nonzero;"/>
        </g>
        <g transform="matrix(-5.775e-16,3.14376,-3.14376,-5.775e-16,2418.88,665.565)">
            <path d="M226.711,565.918C228.367,565.918 230.258,566.602 232.379,567.988C234.594,569.375 236.484,571.191 238.051,573.406C238.66,574.289 238.984,574.809 238.984,574.973C238.984,575.008 238.969,575.008 238.934,575.008C238.805,575.008 238.32,574.648 237.512,573.891C233.531,570.238 230.887,568.402 229.535,568.402C228.277,568.402 227.645,568.996 227.645,570.164C227.645,570.832 227.824,571.406 228.188,571.93C228.438,572.324 228.582,572.578 228.617,572.668C228.547,572.738 228.512,572.812 228.473,572.918C228.348,572.883 228.008,572.812 227.449,572.723C224.711,572.129 223.344,570.758 223.344,568.617C223.344,566.816 224.461,565.918 226.711,565.918Z" style="fill:rgb(255,97,5);fill-rule:nonzero;"/>
        </g>
        <g transform="matrix(-5.775e-16,3.14376,-3.14376,-5.775e-16,2418.88,665.565)">
            <path d="M320.598,20.93C320.508,21.059 320.309,21.059 320.023,20.93L313.613,17.816C313.219,17.621 313.039,17.402 313.039,17.187C313.039,16.844 313.883,15.461 315.574,12.977C317.27,10.508 318.258,9.266 318.547,9.266C319.66,9.266 321.965,10.348 325.492,12.543C325.945,12.797 326.051,13.082 325.836,13.371C323.965,15.801 322.234,18.34 320.598,20.93Z" style="fill:rgb(255,97,5);fill-rule:nonzero;"/>
        </g>
    </g>
</svg>
