<svg id="Capa_1" enable-background="new 0 0 512 512" height="512" viewBox="0 0 512 512" width="512" xmlns="http://www.w3.org/2000/svg"><g><g><g><g><g><g><g><circle cx="256" cy="256" fill="#7584f2" r="256"/></g></g></g></g></g></g><path d="m512 256c0-18.328-1.926-36.206-5.587-53.442l-133.737-133.738-19.646 31.529-31.529-31.529-16.748 34.427-34.428-34.427-13.263 37.913-37.912-37.913-8.992 42.183-42.183-42.183-28.65 374.481 63.079 63.079c17.284 3.682 35.214 5.62 53.596 5.62 141.385 0 256-114.615 256-256z" fill="#4253ce"/><g><g><path d="m139.324 68.82h28.65v32.702h-28.65z" fill="#ff9500"/></g><g><path d="m241.675 68.82h28.65v32.702h-28.65z" fill="#ff9500"/></g><g><path d="m256 68.82h14.325v32.702h-14.325z" fill="#fe6a16"/></g><g><path d="m190.5 68.82h28.65v32.702h-28.65z" fill="#ff9500"/></g><g><path d="m344.025 68.82h28.65v32.702h-28.65z" fill="#fe6a16"/></g><g><path d="m292.85 68.82h28.65v32.702h-28.65z" fill="#fe6a16"/></g></g><g><g><path d="m139.324 410.599h28.65v32.702h-28.65z" fill="#ff9500"/></g><g><path d="m241.675 410.599h28.65v32.702h-28.65z" fill="#ff9500"/></g><g><path d="m256 410.599h14.325v32.702h-14.325z" fill="#fe6a16"/></g><g><path d="m190.5 410.599h28.65v32.702h-28.65z" fill="#ff9500"/></g><g><path d="m344.025 410.599h28.65v32.702h-28.65z" fill="#fe6a16"/></g><g><path d="m292.85 410.599h28.65v32.702h-28.65z" fill="#fe6a16"/></g></g><g><path d="m139.324 97.324h233.351v317.358h-233.351z" fill="#ffc247"/></g><g><path d="m256 97.324h116.676v317.358h-116.676z" fill="#ffa426"/></g><g><g><path d="m204.397 204.398h103.205v103.203h-103.205z" fill="#ff9500" transform="matrix(.707 -.707 .707 .707 -106.039 256.003)"/></g><g><path d="m256 328.976 72.976-72.977-72.976-72.976z" fill="#fe6a16"/></g><g><path d="m335.034 209.731v-74.215h-74.215z" fill="#fe6a16"/></g><g><path d="m251.181 135.516h-74.215v74.217z" fill="#ff9500"/></g><g><path d="m176.966 302.268v74.221h74.22z" fill="#ff9500"/></g><g><path d="m260.813 376.489h74.221v-74.222z" fill="#fe6a16"/></g></g></g></svg>