<?xml version="1.0" encoding="iso-8859-1"?>
<!-- Generator: Adobe Illustrator 19.0.0, SVG Export Plug-In . SVG Version: 6.00 Build 0)  -->
<svg version="1.1" id="Layer_1" xmlns="http://www.w3.org/2000/svg" xmlns:xlink="http://www.w3.org/1999/xlink" x="0px" y="0px"
	 viewBox="0 0 512 512" style="enable-background:new 0 0 512 512;" xml:space="preserve">
<g>
	<path style="fill:#FFC61B;" d="M256,512c-76.68,0-148.678-33.953-197.536-93.153c-5.156-6.247-4.27-15.49,1.975-20.645
		c6.246-5.156,15.49-4.27,20.645,1.975C124.35,452.603,188.105,482.671,256,482.671c124.986,0,226.671-101.685,226.671-226.671
		c0-51.6-16.888-100.208-48.838-140.567C390.517,60.712,325.699,29.329,256,29.329C131.014,29.329,29.329,131.014,29.329,256
		c0,8.099-6.565,14.664-14.664,14.664S0,264.099,0,256C0,114.842,114.842,0,256,0c78.717,0,151.916,35.438,200.828,97.228
		C492.922,142.823,512,197.725,512,256C512,397.158,397.158,512,256,512z"/>
	<path style="fill:#FFC61B;" d="M256.292,454.328c-7.735,0-15.521-0.449-23.327-1.356c-44.747-5.204-85.271-24.828-117.191-56.748
		C78.318,358.768,57.693,308.969,57.693,256s20.627-102.768,58.081-140.224c42-42.002,100.036-62.836,159.224-57.175
		c8.063,0.771,13.972,7.933,13.201,15.994c-0.771,8.063-7.929,13.969-15.996,13.201c-50.443-4.838-99.9,12.928-135.689,48.718
		c-31.916,31.916-49.492,74.35-49.492,119.484s17.577,87.569,49.492,119.484c27.2,27.2,61.723,43.921,99.84,48.354
		c51.68,6.012,102.39-11.613,139.129-48.354c31.916-31.916,49.492-74.35,49.492-119.484s-17.577-87.569-49.492-119.484
		c-5.726-5.726-5.726-15.012,0-20.738c5.726-5.726,15.012-5.728,20.74,0c37.456,37.456,58.081,87.253,58.081,140.224
		s-20.627,102.768-58.081,140.224C358.657,433.79,308.65,454.328,256.292,454.328z"/>
</g>
<polygon style="fill:#FEE187;" points="139.371,258.915 328.607,149.59 293.776,365.342 234.385,286.288 "/>
<path style="fill:#FFC61B;" d="M336.93,137.517c-4.662-3.214-10.756-3.456-15.659-0.623L132.036,246.217
	c-5.091,2.942-7.933,8.64-7.221,14.478c0.714,5.836,4.847,10.683,10.497,12.312l90.298,26.013l56.443,75.13
	c2.81,3.741,7.18,5.857,11.724,5.857c1.167,0,2.349-0.141,3.515-0.428c5.71-1.409,10.023-6.095,10.962-11.9l34.831-215.752
	C343.987,146.339,341.59,140.73,336.93,137.517z M284.794,328.972L252.45,285.92l20.755-30.111
	c4.597-6.668,2.917-15.799-3.751-20.397c-6.668-4.599-15.801-2.917-20.397,3.751l-20.755,30.111l-51.745-14.906l132.652-76.635
	L284.794,328.972z"/>
<g>
</g>
<g>
</g>
<g>
</g>
<g>
</g>
<g>
</g>
<g>
</g>
<g>
</g>
<g>
</g>
<g>
</g>
<g>
</g>
<g>
</g>
<g>
</g>
<g>
</g>
<g>
</g>
<g>
</g>
</svg>
