<svg id="Capa_1" enable-background="new 0 0 512 512" height="512" viewBox="0 0 512 512" width="512" xmlns="http://www.w3.org/2000/svg"><g><g><g><g><g><g><g><g><g><g><g><g><g><g><g><g><g><g><g><g><g><circle cx="256" cy="256" fill="#7584f2" r="256"/></g></g></g></g></g></g></g></g></g></g></g></g></g></g></g></g></g></g></g></g><path d="m510.817 280.771-93.683-93.683 9.487 48.365-173.462-173.461-11.506 7.883.556 42.784 13.414 13.414-52.195 169.578-108.562-108.562-11.927 55.781 43.681 160.356 107.884 107.884c7.087.589 14.256.89 21.496.89 133.028 0 242.357-101.467 254.817-231.229z" fill="#4253ce"/><g><path d="m165.201 248.242h181.598v128.857h-181.598z" fill="#fff"/></g><g><path d="m256.359 248.242h90.44v128.857h-90.44z" fill="#e9edf5"/></g><g><g><g><g><g><path d="m353.147 214.814c0-53.653-97.147-97.147-97.147-97.147s-97.147 43.494-97.147 97.147c0 9.865 1.475 19.384 4.209 28.355h185.876c2.733-8.971 4.209-18.491 4.209-28.355z" fill="#ffc247"/></g></g></g></g></g><g><g><g><g><g><path d="m353.147 214.813c0-51.779-90.469-94.091-96.788-96.983v125.339h92.579c2.733-8.971 4.209-18.49 4.209-28.356z" fill="#ffa426"/></g></g></g></g></g><g><path d="m155.443 232.107h201.114v24.576h-201.114z" fill="#ffb13b"/></g><g><path d="m256.359 232.107h100.198v24.576h-100.198z" fill="#ff9500"/></g><g><path d="m269.398 108.88c-14.503 0-26.259-11.757-26.259-26.26 0-8.37 3.921-15.819 10.02-20.628-12.201 3.656-21.093 14.968-21.093 28.359 0 16.349 13.253 29.602 29.602 29.602 13.391 0 24.703-8.892 28.359-21.093-4.81 6.099-12.259 10.02-20.629 10.02z" fill="#ffb13b"/></g><g><path d="m269.398 108.879c-4.747 0-9.196-1.266-13.039-3.47v14.059c1.723.312 3.495.484 5.308.484 13.391 0 24.703-8.892 28.359-21.093-4.809 6.1-12.258 10.02-20.628 10.02z" fill="#ff9500"/></g><g><g><path d="m370.771 321.039c-63.386 63.386-166.156 63.386-229.542 0-36.582-36.581-52.005-86.275-46.363-133.951-37.349 69.304-26.773 157.611 31.754 216.137 71.455 71.454 187.305 71.454 258.76 0 58.527-58.527 69.103-146.833 31.754-216.137 5.642 47.676-9.782 97.37-46.363 133.951z" fill="#ffc247"/></g></g><g><g><path d="m417.133 187.088c5.642 47.675-9.781 97.37-46.363 133.951-31.602 31.602-72.993 47.444-114.412 47.535v88.238c46.707-.091 93.385-17.951 129.021-53.587 58.527-58.526 69.103-146.832 31.754-216.137z" fill="#ffa426"/></g></g></g></svg>