<?xml version="1.0" encoding="utf-8"?>

<!DOCTYPE svg PUBLIC "-//W3C//DTD SVG 1.1//EN" "http://www.w3.org/Graphics/SVG/1.1/DTD/svg11.dtd">
<svg version="1.1" id="Layer_1" xmlns="http://www.w3.org/2000/svg" xmlns:xlink="http://www.w3.org/1999/xlink" x="0px" y="0px"
	 viewBox="0 0 1650.098 1650.098" enable-background="new 0 0 1650.098 1650.098" xml:space="preserve">
<g>
	<path d="M915.287,66.208c0,0,42.944-42.471,101.674-9.891c9.929,7.447,37.77,29.167,32.231,66.984c0,0-10.55,11.752-20.456-6.229
		c0,0-3.114-14.273,11.178-14.273c-21.1-24.164-74.392-22.318-69.486,32.231c4.363-13.614,44.662-37.793,60.778,14.297
		c1.23,8.044,3.025,40.144-24.881,58.723l24.513,0.62c0,0,25.153-18.447,34.45-57.481c8.052-1.241,21.294-9.852,16.135-29.749
		c-4.073-15.701,42.626-55.038,59.521-31.611c-11.504-15.953-44.635-39.057-75.633,9.285
		c4.344-22.341-58.172-116.607-162.953-51.508C902.36,47.606,904.792,62.5,915.287,66.208z"/>
	<path d="M66.208,734.811c0,0-42.471-42.944-9.891-101.674c7.447-9.929,29.167-37.77,66.984-32.231c0,0,11.752,10.55-6.229,20.456
		c0,0-14.273,3.114-14.273-11.178c-24.164,21.1-22.318,74.392,32.231,69.486c-13.614-4.363-37.793-44.662,14.297-60.778
		c8.044-1.23,40.144-3.025,58.723,24.881l0.62-24.513c0,0-18.447-25.153-57.481-34.45c-1.241-8.052-9.852-21.294-29.749-16.135
		c-15.701,4.073-55.038-42.626-31.611-59.521c-15.953,11.504-39.057,44.635,9.285,75.633
		c-22.341-4.344-116.607,58.172-51.508,162.953C47.606,747.738,62.5,745.307,66.208,734.811z"/>
	<path d="M734.811,1583.89c0,0-42.944,42.471-101.674,9.891c-9.929-7.447-37.77-29.167-32.231-66.984c0,0,10.55-11.752,20.456,6.229
		c0,0,3.114,14.273-11.178,14.273c21.1,24.164,74.392,22.318,69.486-32.231c-4.363,13.614-44.662,37.793-60.778-14.297
		c-1.23-8.044-3.025-40.144,24.881-58.723l-24.513-0.62c0,0-25.153,18.447-34.45,57.481c-8.052,1.241-21.294,9.852-16.135,29.749
		c4.073,15.7-42.626,55.038-59.521,31.611c11.504,15.953,44.635,39.057,75.633-9.285c-4.344,22.341,58.172,116.607,162.953,51.508
		C747.738,1602.492,745.307,1587.598,734.811,1583.89z"/>
	<path d="M1583.89,915.287c0,0,42.471,42.944,9.891,101.674c-7.447,9.929-29.167,37.77-66.984,32.231c0,0-11.752-10.55,6.229-20.456
		c0,0,14.273-3.114,14.273,11.178c24.164-21.1,22.318-74.392-32.231-69.486c13.614,4.363,37.793,44.662-14.297,60.778
		c-8.044,1.23-40.144,3.025-58.723-24.881l-0.62,24.513c0,0,18.447,25.153,57.481,34.45c1.241,8.052,9.852,21.294,29.749,16.135
		c15.7-4.073,55.038,42.626,31.611,59.521c15.953-11.504,39.057-44.635-9.285-75.633c22.341,4.344,116.607-58.172,51.508-162.953
		C1602.492,902.36,1587.598,904.792,1583.89,915.287z"/>
	<path d="M1583.89,734.811c0,0,42.471-42.944,9.891-101.674c-7.447-9.929-29.167-37.77-66.984-32.231c0,0-11.752,10.55,6.229,20.456
		c0,0,14.273,3.114,14.273-11.178c24.164,21.1,22.318,74.392-32.231,69.486c13.614-4.363,37.793-44.662-14.297-60.778
		c-8.044-1.23-40.144-3.025-58.723,24.881l-0.62-24.513c0,0,18.447-25.153,57.481-34.45c1.241-8.052,9.852-21.294,29.749-16.135
		c15.7,4.073,55.038-42.626,31.611-59.521c15.953,11.504,39.057,44.635-9.285,75.633c22.341-4.344,116.607,58.172,51.508,162.953
		C1602.492,747.738,1587.598,745.307,1583.89,734.811z"/>
	<path d="M734.811,66.208c0,0-42.944-42.471-101.674-9.891c-9.929,7.447-37.77,29.167-32.231,66.984c0,0,10.55,11.752,20.456-6.229
		c0,0,3.114-14.273-11.178-14.273c21.1-24.164,74.392-22.318,69.486,32.231c-4.363-13.614-44.662-37.793-60.778,14.297
		c-1.23,8.044-3.025,40.144,24.881,58.723l-24.513,0.62c0,0-25.153-18.447-34.45-57.481c-8.052-1.241-21.294-9.852-16.135-29.749
		c4.073-15.701-42.626-55.038-59.521-31.611c11.504-15.953,44.635-39.057,75.633,9.285c-4.344-22.341,58.172-116.607,162.953-51.508
		C747.738,47.606,745.307,62.5,734.811,66.208z"/>
	<path d="M66.208,915.287c0,0-42.471,42.944-9.891,101.674c7.447,9.929,29.167,37.77,66.984,32.231c0,0,11.752-10.55-6.229-20.456
		c0,0-14.273-3.114-14.273,11.178c-24.164-21.1-22.318-74.392,32.231-69.486c-13.614,4.363-37.793,44.662,14.297,60.778
		c8.044,1.23,40.144,3.025,58.723-24.881l0.62,24.513c0,0-18.447,25.153-57.481,34.45c-1.241,8.052-9.852,21.294-29.749,16.135
		c-15.701-4.073-55.038,42.626-31.611,59.521c-15.953-11.504-39.057-44.635,9.285-75.633
		c-22.341,4.344-116.607-58.172-51.508-162.953C47.606,902.36,62.5,904.792,66.208,915.287z"/>
	<path d="M915.287,1583.89c0,0,42.944,42.471,101.674,9.891c9.929-7.447,37.77-29.167,32.231-66.984c0,0-10.55-11.752-20.456,6.229
		c0,0-3.114,14.273,11.178,14.273c-21.1,24.164-74.392,22.318-69.486-32.231c4.363,13.614,44.662,37.793,60.778-14.297
		c1.23-8.044,3.025-40.144-24.881-58.723l24.513-0.62c0,0,25.153,18.447,34.45,57.481c8.052,1.241,21.294,9.852,16.135,29.749
		c-4.073,15.7,42.626,55.038,59.521,31.611c-11.504,15.953-44.635,39.057-75.633-9.285c4.344,22.341-58.172,116.607-162.953,51.508
		C902.36,1602.492,904.792,1587.598,915.287,1583.89z"/>
	<path d="M825.049,233.079c10.505,5.588,22.211,10.5,36.256,14.765c77.378,23.505,148.474-20.247,148.474-20.247l-32.988-3.192
		c-34.105,14.235-66.499-0.128-73.325-6.295c-31.611-31.688-43.177-22.582-50.228-13.071c0.621-8.665,26.685-43.999,1.261-78.713
		c-8.894-12.17-19.466-15.436-29.448-14.544c-9.983-0.892-20.555,2.374-29.448,14.544c-25.425,34.714,0.64,70.048,1.261,78.713
		c-7.051-9.511-18.617-18.617-50.228,13.071c-6.827,6.167-39.221,20.529-73.325,6.295l-32.988,3.192
		c0,0,71.095,43.751,148.474,20.247C802.838,243.579,814.544,238.667,825.049,233.079z M1417.02,825.049
		c-5.588,10.505-10.5,22.211-14.765,36.256c-23.505,77.378,20.246,148.474,20.246,148.474l3.192-32.988
		c-14.235-34.105,0.128-66.499,6.295-73.325c31.688-31.611,22.582-43.177,13.071-50.228c8.665,0.621,43.999,26.685,78.713,1.261
		c12.17-8.894,15.436-19.466,14.544-29.448c0.892-9.983-2.374-20.555-14.544-29.448c-34.714-25.425-70.048,0.64-78.713,1.261
		c9.511-7.051,18.617-18.617-13.071-50.228c-6.167-6.827-20.529-39.221-6.295-73.325l-3.192-32.988
		c0,0-43.751,71.095-20.246,148.474C1406.52,802.838,1411.431,814.544,1417.02,825.049z M825.049,1417.02
		c-10.505-5.588-22.211-10.5-36.256-14.765c-77.378-23.505-148.474,20.246-148.474,20.246l32.988,3.192
		c34.105-14.235,66.499,0.128,73.325,6.295c31.611,31.688,43.177,22.582,50.228,13.071c-0.621,8.665-26.685,43.999-1.261,78.713
		c8.894,12.17,19.466,15.436,29.448,14.544c9.983,0.892,20.555-2.374,29.448-14.544c25.425-34.714-0.64-70.048-1.261-78.713
		c7.051,9.511,18.617,18.617,50.228-13.071c6.827-6.167,39.221-20.529,73.325-6.295l32.988-3.192c0,0-71.095-43.751-148.474-20.246
		C847.261,1406.52,835.554,1411.431,825.049,1417.02z M233.079,825.049c5.588-10.505,10.5-22.211,14.765-36.256
		c23.505-77.378-20.247-148.474-20.247-148.474l-3.192,32.988c14.235,34.105-0.128,66.499-6.295,73.325
		c-31.688,31.611-22.582,43.177-13.071,50.228c-8.665-0.621-43.999-26.685-78.713-1.261c-12.17,8.894-15.436,19.466-14.544,29.448
		c-0.892,9.983,2.374,20.555,14.544,29.448c34.714,25.425,70.048-0.64,78.713-1.261c-9.511,7.051-18.617,18.617,13.071,50.228
		c6.167,6.827,20.529,39.221,6.295,73.325l3.192,32.988c0,0,43.751-71.095,20.247-148.474
		C243.579,847.261,238.667,835.554,233.079,825.049z M859.443,210.005c14.875-6.183,42.781,32.875,63.214,32.891
		c0,0-38.43,0.605-66.317-11.807C856.34,231.088,844.588,216.195,859.443,210.005z M210.005,790.656
		c-6.183-14.875,32.875-42.781,32.891-63.214c0,0,0.605,38.43-11.807,66.317C231.088,793.758,216.195,805.511,210.005,790.656z
		 M790.656,1440.094c-14.875,6.183-42.781-32.875-63.214-32.891c0,0,38.43-0.605,66.317,11.807
		C793.758,1419.01,805.511,1433.904,790.656,1440.094z M1440.094,859.443c6.183,14.875-32.875,42.781-32.891,63.214
		c0,0-0.605-38.43,11.807-66.317C1419.01,856.34,1433.904,844.588,1440.094,859.443z M1419.01,793.758
		c-12.411-27.887-11.807-66.317-11.807-66.317c0.016,20.433,39.073,48.339,32.891,63.214
		C1433.904,805.511,1419.01,793.758,1419.01,793.758z M793.758,231.088c-27.887,12.412-66.317,11.807-66.317,11.807
		c20.433-0.016,48.339-39.073,63.214-32.891C805.511,216.195,793.758,231.088,793.758,231.088z M231.088,856.34
		c12.412,27.887,11.807,66.317,11.807,66.317c-0.016-20.433-39.073-48.339-32.891-63.214
		C216.195,844.588,231.088,856.34,231.088,856.34z M856.34,1419.01c27.887-12.411,66.317-11.807,66.317-11.807
		c-20.433,0.016-48.339,39.073-63.214,32.891C844.588,1433.904,856.34,1419.01,856.34,1419.01z M825.049,136.96
		c27.604,5.926,29.402,36.684,20.159,52.589c-11.17,19.215,1.202,37.832,1.202,37.832c-3.42-1.918-11.287-6.745-21.362-13.358
		c-10.075,6.613-17.942,11.44-21.362,13.358c0,0,12.373-18.617,1.202-37.832C795.648,173.644,797.446,142.887,825.049,136.96z
		 M1513.138,825.049c-5.926,27.604-36.684,29.402-52.589,20.159c-19.215-11.17-37.832,1.202-37.832,1.202
		c1.918-3.42,6.745-11.287,13.358-21.362c-6.613-10.075-11.44-17.942-13.358-21.362c0,0,18.617,12.373,37.832,1.202
		C1476.454,795.648,1507.212,797.446,1513.138,825.049z M825.049,1513.138c-27.604-5.926-29.402-36.684-20.159-52.589
		c11.17-19.215-1.202-37.832-1.202-37.832c3.42,1.918,11.287,6.745,21.362,13.358c10.075-6.613,17.942-11.44,21.362-13.358
		c0,0-12.373,18.617-1.202,37.832C854.451,1476.454,852.653,1507.212,825.049,1513.138z M136.96,825.049
		c5.926-27.604,36.684-29.402,52.589-20.159c19.215,11.17,37.832-1.202,37.832-1.202c-1.918,3.42-6.745,11.287-13.358,21.362
		c6.613,10.075,11.44,17.942,13.358,21.362c0,0-18.617-12.373-37.832-1.202C173.644,854.451,142.887,852.653,136.96,825.049z"/>
	<path d="M825.049,273.38l280.733-0.037l275.461-4.487l-4.487,275.461l-0.037,280.733l0.037,280.733l4.487,275.461l-275.461-4.487
		l-280.733-0.037l-280.733,0.037l-275.461,4.487l4.487-275.461l0.037-280.733l-0.037-280.733l-4.487-275.461l275.461,4.487
		L825.049,273.38z M1387.449,262.649l-278.693-4.54c-3.113,0.398-6.243,0.387-9.222-0.049c-29.166-0.004-155.8-0.02-274.485-0.036
		c-118.685,0.015-245.318,0.032-274.485,0.036c-2.979,0.437-6.109,0.447-9.222,0.049l-278.693,4.54l-4.54,278.693
		c0.398,3.113,0.387,6.243-0.049,9.222c-0.004,29.166-0.02,155.8-0.036,274.485c0.015,118.685,0.032,245.318,0.036,274.485
		c0.437,2.979,0.447,6.109,0.049,9.222l4.54,278.693l278.693,4.54c3.113-0.398,6.243-0.387,9.222,0.049
		c29.166,0.004,155.8,0.02,274.485,0.036c118.685-0.015,245.318-0.032,274.485-0.036c2.979-0.437,6.109-0.447,9.222-0.049
		l278.693-4.54l4.54-278.693c-0.398-3.113-0.387-6.243,0.049-9.222c0.004-29.166,0.02-155.8,0.036-274.485
		c-0.015-118.685-0.032-245.318-0.036-274.485c-0.437-2.979-0.447-6.109-0.049-9.222L1387.449,262.649z"/>
	<path d="M1430.278,219.821c-67.468,8.664-74.199-0.187-100.288-18.947c-24.175-17.361-47.086-60.762-102.892-70.087
		c-58.374-9.735-77.282,31.394-82.207,46.621c4.604-26.01-26.995-49.84-54.185-29.322c-38.573,29.129-8.068,56.434-8.068,56.434
		c-46.524,6.167-102.299,16.073-161.804-20.541c-9.914-8.665-46.497-34.729-28.481-83.057c0,0-11.791-4.344-17.376-14.894
		c0,0-52.109,129.546,136.353,139.514c17.958,2.498,56.725-6.128,87.094-5.469c11.919,0,27.511,3.654,26.588,14.971
		c-1.707,20.991-33.027,18.245-35.87,8.611c-1.52-5.159,0-7.098,0-7.098c-1.978,11.062,17.737,11.054,18.164,0.853
		c0.64-15.243-26.103-17.593-26.103,0.854c0,12.005,8.299,18.325,18.33,19.796c2.979,0.437,6.109,0.447,9.222,0.049
		c12.915-1.65,25.507-10.294,25.507-24.395c0-19.296-23.117-22.989-34.462-22.989c50.83-19.804,162.612-32.798,217.164,0.698
		c44.996,27.631,84.949,18.97,110.435,11.274c-7.696,25.486-16.357,65.439,11.274,110.435
		c33.496,54.553,20.502,166.335,0.698,217.164c0-11.345-3.693-34.462-22.989-34.462c-14.101,0-22.744,12.592-24.395,25.507
		c-0.398,3.113-0.387,6.243,0.049,9.222c1.471,10.032,7.791,18.331,19.796,18.331c18.447,0,16.096-26.743,0.854-26.103
		c-10.201,0.427-10.209,20.142,0.853,18.164c0,0-1.939,1.52-7.098,0c-9.635-2.843-12.38-34.163,8.611-35.87
		c11.318-0.923,14.971,14.669,14.971,26.588c0.659,30.37-7.967,69.136-5.469,87.095c9.968,188.462,139.514,136.353,139.514,136.353
		c-10.55-5.585-14.894-17.376-14.894-17.376c-48.328,18.016-74.392-18.567-83.057-28.481
		c-36.615-59.506-26.708-115.281-20.541-161.804c0,0,27.305,30.505,56.434-8.068c20.518-27.189-3.313-58.788-29.322-54.185
		c15.228-4.926,56.356-23.834,46.621-82.207c-9.324-55.806-52.726-78.717-70.087-102.892
		C1430.464,294.019,1421.614,287.289,1430.278,219.821z M1430.278,1430.278c-8.664-67.468,0.187-74.199,18.947-100.288
		c17.361-24.175,60.762-47.086,70.087-102.892c9.735-58.374-31.394-77.282-46.621-82.207c26.01,4.604,49.84-26.995,29.322-54.185
		c-29.129-38.573-56.434-8.068-56.434-8.068c-6.167-46.524-16.073-102.299,20.541-161.804c8.665-9.914,34.729-46.497,83.057-28.481
		c0,0,4.344-11.791,14.894-17.376c0,0-129.546-52.109-139.514,136.353c-2.498,17.958,6.128,56.725,5.469,87.094
		c0,11.919-3.654,27.511-14.971,26.588c-20.991-1.707-18.245-33.027-8.611-35.87c5.159-1.52,7.098,0,7.098,0
		c-11.062-1.978-11.054,17.737-0.853,18.164c15.243,0.64,17.593-26.103-0.854-26.103c-12.004,0-18.325,8.299-19.796,18.33
		c-0.437,2.979-0.447,6.109-0.049,9.222c1.65,12.915,10.294,25.507,24.395,25.507c19.296,0,22.989-23.117,22.989-34.462
		c19.804,50.83,32.798,162.612-0.698,217.164c-27.631,44.996-18.97,84.949-11.274,110.435
		c-25.486-7.696-65.438-16.357-110.435,11.274c-54.553,33.496-166.335,20.502-217.164,0.698c11.345,0,34.462-3.693,34.462-22.989
		c0-14.101-12.592-22.744-25.507-24.395c-3.113-0.398-6.243-0.387-9.222,0.049c-10.032,1.471-18.33,7.791-18.33,19.796
		c0,18.447,26.743,16.096,26.103,0.854c-0.427-10.201-20.142-10.209-18.164,0.853c0,0-1.52-1.939,0-7.098
		c2.843-9.635,34.163-12.38,35.87,8.611c0.923,11.318-14.669,14.971-26.588,14.971c-30.37,0.659-69.136-7.967-87.094-5.469
		c-188.462,9.968-136.353,139.514-136.353,139.514c5.585-10.55,17.376-14.894,17.376-14.894
		c-18.016-48.328,18.567-74.392,28.481-83.057c59.506-36.615,115.281-26.708,161.804-20.541c0,0-30.505,27.305,8.068,56.434
		c27.189,20.518,58.788-3.313,54.185-29.322c4.926,15.228,23.834,56.356,82.207,46.621c55.806-9.324,78.717-52.726,102.892-70.087
		C1356.079,1430.464,1362.809,1421.614,1430.278,1430.278z M219.821,1430.278c67.468-8.664,74.199,0.187,100.288,18.947
		c24.175,17.361,47.086,60.762,102.892,70.087c58.373,9.735,77.282-31.394,82.207-46.621c-4.604,26.01,26.995,49.84,54.185,29.322
		c38.573-29.129,8.068-56.434,8.068-56.434c46.524-6.167,102.299-16.073,161.804,20.541c9.914,8.665,46.497,34.729,28.481,83.057
		c0,0,11.791,4.344,17.376,14.894c0,0,52.109-129.546-136.353-139.514c-17.958-2.498-56.725,6.128-87.095,5.469
		c-11.919,0-27.511-3.654-26.588-14.971c1.707-20.991,33.027-18.245,35.87-8.611c1.52,5.159,0,7.098,0,7.098
		c1.978-11.062-17.737-11.054-18.164-0.853c-0.64,15.243,26.103,17.593,26.103-0.854c0-12.004-8.299-18.325-18.331-19.796
		c-2.979-0.437-6.109-0.447-9.222-0.049c-12.915,1.65-25.507,10.294-25.507,24.395c0,19.296,23.117,22.989,34.462,22.989
		c-50.83,19.804-162.611,32.798-217.164-0.698c-44.996-27.631-84.949-18.97-110.435-11.274
		c7.696-25.486,16.357-65.438-11.274-110.435c-33.496-54.553-20.502-166.335-0.698-217.164c0,11.345,3.693,34.462,22.989,34.462
		c14.101,0,22.744-12.592,24.395-25.507c0.398-3.113,0.387-6.243-0.049-9.222c-1.471-10.032-7.791-18.33-19.796-18.33
		c-18.447,0-16.096,26.743-0.854,26.103c10.201-0.427,10.209-20.142-0.853-18.164c0,0,1.939-1.52,7.098,0
		c9.635,2.843,12.381,34.163-8.611,35.87c-11.318,0.923-14.971-14.669-14.971-26.588c-0.659-30.37,7.967-69.136,5.469-87.094
		C215.574,822.868,86.028,874.977,86.028,874.977c10.55,5.585,14.894,17.376,14.894,17.376
		c48.328-18.016,74.392,18.567,83.057,28.481c36.614,59.506,26.708,115.281,20.541,161.804c0,0-27.305-30.505-56.434,8.068
		c-20.518,27.189,3.312,58.788,29.322,54.185c-15.228,4.926-56.356,23.834-46.621,82.207c9.324,55.806,52.726,78.717,70.087,102.892
		C219.634,1356.079,228.485,1362.809,219.821,1430.278z M219.821,219.821c8.664,67.468-0.187,74.199-18.947,100.288
		c-17.361,24.175-60.762,47.086-70.087,102.892c-9.735,58.373,31.394,77.282,46.621,82.207c-26.01-4.604-49.84,26.995-29.322,54.185
		c29.129,38.573,56.434,8.068,56.434,8.068c6.167,46.524,16.073,102.299-20.541,161.804c-8.665,9.914-34.729,46.497-83.057,28.481
		c0,0-4.344,11.791-14.894,17.376c0,0,129.546,52.109,139.514-136.353c2.498-17.958-6.128-56.725-5.469-87.095
		c0-11.919,3.654-27.511,14.971-26.588c20.991,1.707,18.245,33.027,8.611,35.87c-5.159,1.52-7.098,0-7.098,0
		c11.062,1.978,11.054-17.737,0.853-18.164c-15.243-0.64-17.593,26.103,0.854,26.103c12.005,0,18.325-8.299,19.796-18.331
		c0.437-2.979,0.447-6.109,0.049-9.222c-1.65-12.915-10.294-25.507-24.395-25.507c-19.296,0-22.989,23.117-22.989,34.462
		c-19.804-50.83-32.798-162.611,0.698-217.164c27.631-44.996,18.97-84.949,11.274-110.435
		c25.486,7.696,65.439,16.357,110.435-11.274c54.553-33.496,166.335-20.502,217.164-0.698c-11.345,0-34.462,3.693-34.462,22.989
		c0,14.101,12.592,22.744,25.507,24.395c3.113,0.398,6.243,0.387,9.222-0.049c10.032-1.471,18.331-7.791,18.331-19.796
		c0-18.447-26.743-16.096-26.103-0.854c0.427,10.201,20.142,10.209,18.164-0.853c0,0,1.52,1.939,0,7.098
		c-2.843,9.635-34.163,12.381-35.87-8.611c-0.923-11.318,14.669-14.971,26.588-14.971c30.37-0.659,69.136,7.967,87.095,5.469
		c188.462-9.968,136.353-139.514,136.353-139.514c-5.585,10.55-17.376,14.894-17.376,14.894
		c18.016,48.328-18.567,74.392-28.481,83.057c-59.506,36.614-115.281,26.708-161.804,20.541c0,0,30.505-27.305-8.068-56.434
		c-27.189-20.518-58.788,3.312-54.185,29.322c-4.926-15.228-23.834-56.356-82.207-46.621
		c-55.806,9.324-78.717,52.726-102.892,70.087C294.019,219.634,287.289,228.485,219.821,219.821z M1243.214,151.864
		c17.978,5.585,37.196,12.412,63.222,43.441c0,0-45.244-38.476-148.784-13.707C1157.651,181.597,1165.738,135.093,1243.214,151.864z
		 M151.864,406.885c5.585-17.978,12.412-37.196,43.441-63.222c0,0-38.476,45.244-13.707,148.784
		C181.597,492.448,135.093,484.36,151.864,406.885z M406.885,1498.234c-17.978-5.585-37.196-12.412-63.222-43.441
		c0,0,45.244,38.476,148.784,13.707C492.448,1468.501,484.36,1515.006,406.885,1498.234z M1498.234,1243.214
		c-5.585,17.978-12.412,37.196-43.441,63.222c0,0,38.476-45.244,13.707-148.784
		C1468.501,1157.651,1515.006,1165.738,1498.234,1243.214z M1468.501,492.448c24.769-103.54-13.707-148.784-13.707-148.784
		c31.029,26.026,37.855,45.244,43.441,63.222C1515.006,484.36,1468.501,492.448,1468.501,492.448z M492.448,181.597
		c-103.54-24.769-148.784,13.707-148.784,13.707c26.026-31.029,45.244-37.856,63.222-43.441
		C484.36,135.093,492.448,181.597,492.448,181.597z M181.597,1157.651c-24.769,103.54,13.707,148.784,13.707,148.784
		c-31.029-26.026-37.856-45.244-43.441-63.222C135.093,1165.738,181.597,1157.651,181.597,1157.651z M1157.651,1468.501
		c103.54,24.769,148.784-13.707,148.784-13.707c-26.026,31.029-45.244,37.855-63.222,43.441
		C1165.738,1515.006,1157.651,1468.501,1157.651,1468.501z M1093.169,194.591c-3.716-6.19-11.752-24.784,11.81-34.093
		c23.532-9.293,32.747,19.99,22.283,27.306c-10.472,7.319-19.839,8.665-19.839,8.665S1096.892,200.797,1093.169,194.591z
		 M194.591,556.929c-6.19,3.716-24.784,11.752-34.093-11.81c-9.293-23.532,19.99-32.747,27.306-22.283
		c7.319,10.472,8.665,19.839,8.665,19.839S200.797,553.206,194.591,556.929z M556.929,1455.508
		c3.716,6.19,11.752,24.784-11.81,34.093c-23.532,9.293-32.747-19.99-22.283-27.306c10.472-7.319,19.839-8.665,19.839-8.665
		S553.206,1449.302,556.929,1455.508z M1455.508,1093.169c6.19-3.716,24.784-11.752,34.093,11.81
		c9.293,23.532-19.99,32.747-27.306,22.283c-7.319-10.472-8.665-19.839-8.665-19.839S1449.302,1096.892,1455.508,1093.169z
		 M1453.63,542.675c0,0,1.346-9.367,8.665-19.839c7.315-10.464,36.599-1.249,27.306,22.283
		c-9.309,23.563-27.903,15.526-34.093,11.81C1449.302,553.206,1453.63,542.675,1453.63,542.675z M542.675,196.468
		c0,0-9.367-1.346-19.839-8.665c-10.464-7.315-1.249-36.599,22.283-27.306c23.563,9.309,15.526,27.903,11.81,34.093
		C553.206,200.797,542.675,196.468,542.675,196.468z M196.468,1107.423c0,0-1.346,9.367-8.665,19.839
		c-7.315,10.464-36.599,1.249-27.306-22.283c9.309-23.563,27.903-15.526,34.093-11.81
		C200.797,1096.892,196.468,1107.423,196.468,1107.423z M1107.423,1453.63c0,0,9.367,1.346,19.839,8.665
		c10.464,7.315,1.249,36.599-22.283,27.306c-23.563-9.309-15.526-27.903-11.81-34.093
		C1096.892,1449.302,1107.423,1453.63,1107.423,1453.63z"/>
	<path d="M925.31,91.551c16.663-16.057,8.301-37.844,8.301-37.844s-2.42,5.605-5.368,8.793c-12.21,13.179-20.588,3.723-23.931-0.737
		c-5.131-6.834-5.616-14.649,1.462-19.525c7.078-4.879,16.356-5.624,16.356-5.624s-26.778-10.814-43.7,9.037
		c-14.157,16.6-4.519,36.009,4.395,44.922C891.732,99.487,911.882,104.498,925.31,91.551z"/>
	<path d="M91.551,724.789c-16.057-16.663-37.844-8.301-37.844-8.301s5.605,2.42,8.793,5.368c13.179,12.21,3.723,20.588-0.737,23.931
		c-6.834,5.131-14.649,5.616-19.525-1.462c-4.879-7.078-5.624-16.356-5.624-16.356s-10.814,26.778,9.037,43.7
		c16.6,14.157,36.009,4.519,44.922-4.395C99.487,758.366,104.498,738.216,91.551,724.789z"/>
	<path d="M724.789,1558.547c-16.663,16.057-8.301,37.844-8.301,37.844s2.42-5.604,5.368-8.793
		c12.21-13.179,20.588-3.723,23.931,0.737c5.131,6.834,5.616,14.649-1.462,19.525c-7.078,4.879-16.356,5.624-16.356,5.624
		s26.778,10.814,43.7-9.037c14.157-16.6,4.519-36.009-4.395-44.922C758.366,1550.611,738.216,1545.6,724.789,1558.547z"/>
	<path d="M1558.547,925.31c16.057,16.663,37.844,8.301,37.844,8.301s-5.604-2.42-8.793-5.368
		c-13.179-12.21-3.723-20.588,0.737-23.931c6.834-5.131,14.649-5.616,19.525,1.462c4.879,7.078,5.624,16.356,5.624,16.356
		s10.814-26.778-9.037-43.7c-16.6-14.157-36.009-4.519-44.922,4.395C1550.611,891.732,1545.6,911.882,1558.547,925.31z"/>
	<path d="M1558.547,724.789c16.057-16.663,37.844-8.301,37.844-8.301s-5.604,2.42-8.793,5.368
		c-13.179,12.21-3.723,20.588,0.737,23.931c6.834,5.131,14.649,5.616,19.525-1.462c4.879-7.078,5.624-16.356,5.624-16.356
		s10.814,26.778-9.037,43.7c-16.6,14.157-36.009,4.519-44.922-4.395C1550.611,758.366,1545.6,738.216,1558.547,724.789z"/>
	<path d="M724.789,91.551c-16.663-16.057-8.301-37.844-8.301-37.844s2.42,5.605,5.368,8.793c12.21,13.179,20.588,3.723,23.931-0.737
		c5.131-6.834,5.616-14.649-1.462-19.525c-7.078-4.879-16.356-5.624-16.356-5.624s26.778-10.814,43.7,9.037
		c14.157,16.6,4.519,36.009-4.395,44.922C758.366,99.487,738.216,104.498,724.789,91.551z"/>
	<path d="M91.551,925.31c-16.057,16.663-37.844,8.301-37.844,8.301s5.605-2.42,8.793-5.368c13.179-12.21,3.723-20.588-0.737-23.931
		c-6.834-5.131-14.649-5.616-19.525,1.462c-4.879,7.078-5.624,16.356-5.624,16.356s-10.814-26.778,9.037-43.7
		c16.6-14.157,36.009-4.519,44.922,4.395C99.487,891.732,104.498,911.882,91.551,925.31z"/>
	<path d="M925.31,1558.547c16.663,16.057,8.301,37.844,8.301,37.844s-2.42-5.604-5.368-8.793
		c-12.21-13.179-20.588-3.723-23.931,0.737c-5.131,6.834-5.616,14.649,1.462,19.525c7.078,4.879,16.356,5.624,16.356,5.624
		s-26.778,10.814-43.7-9.037c-14.157-16.6-4.519-36.009,4.395-44.922C891.732,1550.611,911.882,1545.6,925.31,1558.547z"/>
</g>
</svg>
