<?xml version="1.0" encoding="utf-8"?>

<!DOCTYPE svg PUBLIC "-//W3C//DTD SVG 1.1//EN" "http://www.w3.org/Graphics/SVG/1.1/DTD/svg11.dtd">
<svg version="1.1" id="Layer_1" xmlns="http://www.w3.org/2000/svg" xmlns:xlink="http://www.w3.org/1999/xlink" x="0px" y="0px"
	 viewBox="0 0 1654.92 1654.92" enable-background="new 0 0 1654.92 1654.92" xml:space="preserve">
<g>
	<path d="M1435.324,575.674c72.307,72.268,118.862,118.765,119.073,118.897c1.747-0.033,3.277-1.123,4.82-1.86
		c7.684,4.65,4.045,15.135,4.287,17.135c1.86-1.493,4.17-2.057,6.467-2.46c5.236,8.667-13.802-11.528,40.52,43.073
		c20.31-15.666,26.034,26.966-3.37,33.506c-7.455,1.835-8.837-1.672-10.848,2.067c-16.002,31.922,11.491,39.711,19.558,30.312
		c5.726-6.902,1.109-15.413-4.29-14.298c7.188,9.22-1.701,13.657-5.747,11.761c-4.537-1.41-7.221-6.627-5.977-11.151
		c1.849-8.307,14.173-9.517,20.718-2.003c5.457,5.751,3.272,16.673-3.427,21.995c-11.373,8.867-39.757,3.704-36.383-29.969
		c-0.097-0.597,0.25-1.45-0.283-1.817c-1.112-0.119-9.115,0.317-17.671-4.47c-2.25-1.223-4.064-3.79-3.044-6.397
		c-1.807-0.087-3.77-0.05-5.31-1.123c-1.807-1.233-3.207-3.287-3.18-5.527c-0.04-1.38,0.97-2.43,1.72-3.467
		c-10.214-2.049-11.34-8.219-7.027-12.941c-11.384-3.698-11.835-10.558-5.994-16.608c-9.658-2.084-12.194-9.967-3.027-14.974
		c-5.374-12.935-18.355-5.444-17.731,2.677c0.927,2.047,3.28,3.287,3.667,5.634c0.543,2.31-0.59,5.277-3.057,5.87
		c-5.915,0.719-5.596-11.966-2.424-17.538c5.045-9.396,28.202-18.397,31.132,15.018c0.362,4.885-0.641,23.704,11.971,35.659
		c10.109,10.507,17.275,11.711,21.165,13.544c0.137-0.623,0.303-1.23,0.323-1.85c-0.679-0.552-32.566-13.691-30.516-42.69
		c0.548-12.805-1.764-25.92-13.988-29.809c-17.109-5.357-20.072,6.56-21.562,7.481c-6.335-0.343-0.21-23.859,15.471-20.331
		c-38.885-38.933-77.354-77.443-115.259-115.383c-0.025-53.63-0.054-108.062-0.088-163.088c-8.594,13.582-29.553,1.286-25.316-3.437
		c1.705-0.402,12.226,5.929,20.536-9.957c5.893-11.394-1.745-22.302-11.187-30.969c-21.955-19.055-8.698-50.893-8.609-51.764
		c-0.453-0.424-1-0.735-1.537-1.08c-1.454,4.047-5.67,9.966-5.389,24.543c-0.464,17.371,13.552,29.97,16.75,33.68
		c21.556,25.7-1.183,35.71-11.395,32.633c-6.183-1.697-15.379-10.441-10.688-14.115c2.164-1.325,5.063-0.028,6.313,1.989
		c1.386,1.933,0.599,4.474,1.391,6.577c5.301,6.184,19.777,2.301,14.431-10.645c-10.023,2.942-13.804-4.426-8.448-12.729
		c-8.408-0.147-12.94-5.317-7.505-15.982c-6.388-0.289-9.955-5.448-4.182-14.12c-1.263-0.203-2.72-0.231-3.668-1.235
		c-1.603-1.565-2.065-4.007-1.659-6.157c0.33-1.848,1.744-3.211,2.961-4.549c-2.565-1.122-3.097-4.219-2.371-6.676
		c2.666-9.435,8.632-14.786,9.334-15.656c0.118-0.637-0.731-0.995-1.084-1.485c-26.196-21.425-9.777-45.146,4.535-46.918
		c8.5-0.974,17.768,5.205,17.976,13.13c0.685,9.941-8.885,17.8-16.067,13.233c-4.078-2.319-5.869-7.906-3.658-12.111
		c1.52-4.202,10.943-7.35,12.38,4.252c4.607-3.029,1.854-12.312-7.076-13.144c-12.35-0.942-26.283,24.007,7.604,35.264
		c4.066,1.222,2.563-2.235,9.132-6.209c25.417-16.167,51.514,18.025,26.075,21.309c0.198,77.02-0.621,49.278,1.806,59.109
		c-1.909,1.339-3.941,2.574-6.313,2.833c1.243,1.585,11.23,6.426,9.085,15.147c-1.612,0.57-3.465,0.882-4.724,2.093
		C1435.393,407.646,1435.351,473.444,1435.324,575.674z M1435.324,1079.246c0.027,102.23,0.069,168.028,0.125,168.27
		c1.259,1.212,3.112,1.523,4.724,2.093c2.145,8.722-7.841,13.562-9.085,15.147c2.371,0.259,4.403,1.494,6.313,2.833
		c-2.426,9.831-1.608-17.911-1.806,59.109c25.439,3.284-0.658,37.477-26.075,21.309c-6.569-3.974-5.066-7.431-9.132-6.209
		c-33.887,11.257-19.955,36.206-7.604,35.264c8.93-0.832,11.683-10.115,7.076-13.144c-1.437,11.603-10.86,8.454-12.38,4.252
		c-2.211-4.205-0.42-9.792,3.658-12.111c7.181-4.566,16.751,3.292,16.067,13.233c-0.208,7.925-9.476,14.104-17.976,13.13
		c-14.313-1.772-30.732-25.493-4.535-46.918c0.354-0.49,1.202-0.849,1.084-1.485c-0.702-0.871-6.669-6.221-9.334-15.656
		c-0.726-2.456-0.193-5.554,2.371-6.676c-1.216-1.339-2.631-2.701-2.961-4.549c-0.405-2.15,0.057-4.592,1.659-6.157
		c0.948-1.004,2.404-1.032,3.668-1.235c-5.774-8.671-2.207-13.83,4.182-14.12c-5.435-10.665-0.903-15.835,7.505-15.982
		c-5.356-8.303-1.575-15.671,8.448-12.729c5.347-12.946-9.13-16.829-14.431-10.645c-0.792,2.103-0.005,4.644-1.391,6.577
		c-1.249,2.018-4.149,3.314-6.313,1.989c-4.691-3.674,4.505-12.418,10.688-14.115c10.211-3.077,32.951,6.933,11.395,32.633
		c-3.198,3.71-17.215,16.308-16.75,33.68c-0.282,14.577,3.935,20.496,5.389,24.543c0.537-0.344,1.084-0.655,1.537-1.08
		c-0.09-0.871-13.347-32.709,8.609-51.764c9.442-8.667,17.081-19.575,11.187-30.969c-8.31-15.886-18.831-9.554-20.536-9.957
		c-4.237-4.722,16.722-17.019,25.316-3.437c0.034-55.026,0.063-109.458,0.088-163.088c37.905-37.94,76.374-76.45,115.259-115.383
		c-15.681,3.527-21.807-19.988-15.471-20.331c1.49,0.921,4.452,12.838,21.562,7.481c12.224-3.889,14.536-17.004,13.988-29.809
		c-2.05-28.999,29.836-42.138,30.516-42.69c-0.02-0.62-0.187-1.227-0.323-1.85c-3.89,1.834-11.056,3.037-21.165,13.544
		c-12.612,11.955-11.609,30.775-11.971,35.659c-2.93,33.415-26.088,24.414-31.132,15.018c-3.172-5.572-3.492-18.257,2.424-17.538
		c2.467,0.593,3.6,3.56,3.057,5.87c-0.387,2.347-2.74,3.587-3.667,5.634c-0.624,8.121,12.357,15.612,17.731,2.677
		c-9.167-5.007-6.632-12.891,3.027-14.974c-5.841-6.049-5.39-12.91,5.994-16.608c-4.313-4.722-3.187-10.892,7.027-12.941
		c-0.75-1.037-1.76-2.087-1.72-3.467c-0.027-2.24,1.373-4.294,3.18-5.527c1.54-1.073,3.504-1.037,5.31-1.123
		c-1.02-2.607,0.793-5.174,3.044-6.397c8.557-4.787,16.559-4.351,17.671-4.47c0.533-0.367,0.187-1.22,0.283-1.817
		c-3.374-33.673,25.009-38.836,36.383-29.969c6.699,5.322,8.884,16.244,3.427,21.995c-6.545,7.513-18.869,6.303-20.718-2.003
		c-1.243-4.524,1.44-9.741,5.977-11.151c4.046-1.896,12.936,2.541,5.747,11.761c5.399,1.116,10.017-7.395,4.29-14.298
		c-8.067-9.399-35.561-1.609-19.558,30.312c2.011,3.739,3.392,0.232,10.848,2.067c29.405,6.54,23.68,49.172,3.37,33.506
		c-54.322,54.602-35.284,34.406-40.52,43.073c-2.297-0.403-4.607-0.967-6.467-2.46c-0.242,2,3.397,12.484-4.287,17.135
		c-1.543-0.737-3.073-1.827-4.82-1.86C1554.187,960.48,1507.631,1006.977,1435.324,1079.246z M1079.246,1435.324
		c-72.268,72.307-118.765,118.862-118.897,119.073c0.033,1.747,1.123,3.277,1.86,4.82c-4.65,7.684-15.135,4.045-17.135,4.287
		c1.493,1.86,2.057,4.17,2.46,6.467c-8.667,5.236,11.528-13.802-43.073,40.52c15.666,20.31-26.966,26.034-33.506-3.37
		c-1.835-7.455,1.672-8.837-2.067-10.848c-31.922-16.002-39.712,11.491-30.312,19.558c6.902,5.726,15.413,1.109,14.298-4.29
		c-9.22,7.188-13.657-1.701-11.761-5.747c1.41-4.537,6.627-7.221,11.151-5.977c8.307,1.849,9.517,14.173,2.003,20.718
		c-5.751,5.457-16.673,3.272-21.995-3.427c-8.867-11.373-3.704-39.757,29.969-36.383c0.597-0.097,1.45,0.25,1.817-0.283
		c0.119-1.112-0.317-9.115,4.47-17.671c1.223-2.25,3.79-4.064,6.397-3.044c0.087-1.807,0.05-3.77,1.123-5.31
		c1.233-1.807,3.287-3.207,5.527-3.18c1.38-0.04,2.43,0.97,3.467,1.72c2.049-10.214,8.219-11.34,12.941-7.027
		c3.698-11.384,10.558-11.835,16.608-5.994c2.084-9.658,9.967-12.194,14.974-3.027c12.935-5.374,5.444-18.355-2.677-17.731
		c-2.047,0.927-3.287,3.28-5.634,3.667c-2.31,0.543-5.277-0.59-5.87-3.057c-0.719-5.915,11.966-5.596,17.538-2.424
		c9.396,5.045,18.397,28.202-15.018,31.132c-4.885,0.362-23.704-0.641-35.659,11.971c-10.507,10.109-11.711,17.275-13.544,21.165
		c0.623,0.137,1.23,0.303,1.85,0.323c0.552-0.679,13.691-32.566,42.69-30.516c12.805,0.548,25.92-1.764,29.809-13.988
		c5.357-17.109-6.56-20.072-7.481-21.562c0.343-6.335,23.859-0.21,20.331,15.471c38.933-38.885,77.443-77.354,115.383-115.259
		c53.63-0.025,108.062-0.054,163.088-0.088c-13.582-8.594-1.286-29.553,3.437-25.316c0.402,1.705-5.929,12.226,9.957,20.536
		c11.394,5.893,22.302-1.745,30.969-11.187c19.055-21.955,50.893-8.698,51.764-8.609c0.424-0.453,0.735-1,1.08-1.537
		c-4.047-1.454-9.966-5.67-24.543-5.389c-17.371-0.464-29.97,13.552-33.68,16.75c-25.7,21.556-35.71-1.183-32.633-11.395
		c1.697-6.183,10.441-15.379,14.115-10.688c1.325,2.164,0.028,5.063-1.989,6.313c-1.933,1.386-4.474,0.599-6.577,1.391
		c-6.184,5.301-2.301,19.777,10.645,14.431c-2.942-10.023,4.426-13.804,12.729-8.448c0.147-8.408,5.317-12.94,15.982-7.505
		c0.289-6.388,5.448-9.955,14.12-4.182c0.203-1.263,0.231-2.72,1.235-3.668c1.565-1.603,4.007-2.065,6.157-1.659
		c1.848,0.33,3.21,1.744,4.549,2.961c1.122-2.565,4.219-3.097,6.676-2.371c9.436,2.666,14.786,8.632,15.656,9.334
		c0.636,0.118,0.995-0.731,1.485-1.084c21.425-26.196,45.146-9.777,46.918,4.535c0.974,8.5-5.204,17.768-13.13,17.976
		c-9.941,0.685-17.8-8.885-13.233-16.067c2.319-4.078,7.906-5.869,12.111-3.658c4.202,1.52,7.35,10.943-4.252,12.38
		c3.029,4.607,12.312,1.854,13.144-7.076c0.942-12.35-24.007-26.283-35.264,7.604c-1.222,4.066,2.235,2.563,6.209,9.132
		c16.167,25.417-18.026,51.514-21.309,26.075c-77.02,0.198-49.278-0.621-59.109,1.806c-1.339-1.909-2.574-3.941-2.833-6.313
		c-1.585,1.243-6.426,11.23-15.147,9.085c-0.57-1.612-0.881-3.465-2.093-4.724
		C1247.274,1435.393,1181.476,1435.351,1079.246,1435.324z M575.674,1435.324c-102.23,0.027-168.028,0.069-168.27,0.125
		c-1.212,1.259-1.523,3.112-2.093,4.724c-8.721,2.145-13.562-7.841-15.147-9.085c-0.259,2.371-1.494,4.403-2.833,6.313
		c-9.831-2.426,17.911-1.608-59.109-1.806c-3.284,25.439-37.477-0.658-21.309-26.075c3.974-6.569,7.431-5.066,6.209-9.132
		c-11.257-33.887-36.206-19.955-35.264-7.604c0.832,8.93,10.115,11.683,13.144,7.076c-11.603-1.437-8.454-10.86-4.252-12.38
		c4.205-2.211,9.792-0.42,12.111,3.658c4.566,7.181-3.292,16.751-13.233,16.067c-7.925-0.208-14.103-9.476-13.13-17.976
		c1.772-14.313,25.493-30.732,46.918-4.535c0.49,0.354,0.848,1.202,1.485,1.084c0.871-0.702,6.221-6.669,15.656-9.334
		c2.456-0.726,5.554-0.193,6.676,2.371c1.339-1.216,2.701-2.631,4.549-2.961c2.15-0.405,4.592,0.057,6.157,1.659
		c1.004,0.948,1.032,2.404,1.235,3.668c8.671-5.774,13.83-2.207,14.12,4.182c10.665-5.435,15.835-0.903,15.982,7.505
		c8.303-5.356,15.671-1.575,12.729,8.448c12.946,5.347,16.829-9.13,10.645-14.431c-2.103-0.792-4.644-0.005-6.577-1.391
		c-2.018-1.249-3.314-4.149-1.989-6.313c3.674-4.691,12.418,4.505,14.115,10.688c3.077,10.211-6.933,32.951-32.633,11.395
		c-3.71-3.198-16.308-17.215-33.68-16.75c-14.577-0.282-20.496,3.935-24.543,5.389c0.344,0.537,0.655,1.084,1.08,1.537
		c0.871-0.09,32.709-13.347,51.764,8.609c8.667,9.442,19.575,17.081,30.969,11.187c15.886-8.31,9.554-18.831,9.957-20.536
		c4.722-4.237,17.019,16.722,3.437,25.316c55.026,0.034,109.458,0.063,163.088,0.088c37.94,37.905,76.45,76.374,115.383,115.259
		c-3.527-15.681,19.988-21.807,20.331-15.471c-0.921,1.49-12.838,4.452-7.481,21.562c3.889,12.224,17.004,14.536,29.809,13.988
		c28.999-2.05,42.138,29.836,42.69,30.516c0.62-0.02,1.227-0.187,1.85-0.323c-1.834-3.89-3.037-11.056-13.544-21.165
		c-11.955-12.612-30.775-11.609-35.659-11.971c-33.415-2.93-24.414-26.088-15.018-31.132c5.572-3.172,18.257-3.492,17.538,2.424
		c-0.593,2.467-3.56,3.6-5.87,3.057c-2.347-0.387-3.587-2.74-5.634-3.667c-8.121-0.624-15.612,12.357-2.677,17.731
		c5.007-9.167,12.891-6.632,14.974,3.027c6.05-5.841,12.91-5.39,16.608,5.994c4.722-4.313,10.892-3.187,12.941,7.027
		c1.037-0.75,2.087-1.76,3.467-1.72c2.24-0.027,4.294,1.373,5.527,3.18c1.073,1.54,1.037,3.504,1.123,5.31
		c2.607-1.02,5.174,0.793,6.397,3.044c4.787,8.557,4.351,16.559,4.47,17.671c0.367,0.533,1.22,0.187,1.817,0.283
		c33.673-3.374,38.836,25.009,29.969,36.383c-5.322,6.699-16.244,8.884-21.995,3.427c-7.513-6.545-6.303-18.869,2.003-20.718
		c4.524-1.243,9.741,1.44,11.151,5.977c1.896,4.046-2.541,12.936-11.761,5.747c-1.116,5.399,7.395,10.017,14.298,4.29
		c9.399-8.067,1.609-35.561-30.312-19.558c-3.739,2.011-0.232,3.392-2.067,10.848c-6.54,29.405-49.172,23.68-33.506,3.37
		c-54.602-54.322-34.406-35.284-43.073-40.52c0.403-2.297,0.967-4.607,2.46-6.467c-2-0.242-12.484,3.397-17.135-4.287
		c0.737-1.543,1.827-3.073,1.86-4.82C694.44,1554.187,647.943,1507.631,575.674,1435.324z M219.596,1079.246
		c-72.307-72.268-118.862-118.765-119.073-118.897c-1.747,0.033-3.277,1.123-4.82,1.86c-7.684-4.65-4.045-15.135-4.287-17.135
		c-1.86,1.493-4.17,2.057-6.467,2.46c-5.236-8.667,13.802,11.528-40.52-43.073c-20.31,15.666-26.034-26.966,3.37-33.506
		c7.455-1.835,8.837,1.672,10.847-2.067c16.002-31.922-11.491-39.712-19.558-30.312c-5.726,6.902-1.109,15.413,4.29,14.298
		c-7.189-9.22,1.701-13.657,5.747-11.761c4.537,1.41,7.221,6.627,5.977,11.151c-1.849,8.307-14.173,9.517-20.718,2.003
		c-5.457-5.751-3.272-16.673,3.427-21.995c11.373-8.867,39.757-3.704,36.383,29.969c0.097,0.597-0.25,1.45,0.283,1.817
		c1.112,0.119,9.115-0.317,17.671,4.47c2.25,1.223,4.064,3.79,3.044,6.397c1.807,0.087,3.77,0.05,5.31,1.123
		c1.807,1.233,3.207,3.287,3.18,5.527c0.04,1.38-0.97,2.43-1.72,3.467c10.214,2.049,11.34,8.219,7.027,12.941
		c11.384,3.698,11.835,10.558,5.994,16.608c9.658,2.084,12.194,9.967,3.027,14.974c5.374,12.935,18.355,5.444,17.731-2.677
		c-0.927-2.047-3.28-3.287-3.667-5.634c-0.543-2.31,0.59-5.277,3.057-5.87c5.915-0.719,5.596,11.966,2.423,17.538
		c-5.045,9.396-28.202,18.397-31.132-15.018c-0.362-4.885,0.641-23.704-11.971-35.659c-10.108-10.507-17.275-11.711-21.165-13.544
		c-0.137,0.623-0.303,1.23-0.323,1.85c0.679,0.552,32.566,13.691,30.516,42.69c-0.548,12.805,1.764,25.92,13.988,29.809
		c17.109,5.357,20.072-6.56,21.562-7.481c6.335,0.343,0.21,23.859-15.471,20.331c38.885,38.933,77.354,77.443,115.258,115.383
		c0.025,53.63,0.054,108.062,0.088,163.088c8.594-13.582,29.553-1.286,25.316,3.437c-1.705,0.402-12.226-5.929-20.536,9.957
		c-5.893,11.394,1.745,22.302,11.187,30.969c21.955,19.055,8.698,50.893,8.609,51.764c0.453,0.424,0.999,0.735,1.537,1.08
		c1.454-4.047,5.67-9.966,5.389-24.543c0.464-17.371-13.552-29.97-16.75-33.68c-21.556-25.7,1.183-35.71,11.395-32.633
		c6.183,1.697,15.379,10.441,10.688,14.115c-2.164,1.325-5.063,0.028-6.313-1.989c-1.386-1.933-0.599-4.474-1.391-6.577
		c-5.301-6.184-19.777-2.301-14.431,10.645c10.023-2.942,13.804,4.426,8.448,12.729c8.408,0.147,12.94,5.317,7.505,15.982
		c6.388,0.289,9.955,5.448,4.182,14.12c1.263,0.203,2.72,0.231,3.668,1.235c1.603,1.565,2.065,4.007,1.659,6.157
		c-0.33,1.848-1.744,3.21-2.961,4.549c2.565,1.122,3.097,4.219,2.371,6.676c-2.666,9.436-8.632,14.786-9.335,15.656
		c-0.118,0.636,0.731,0.995,1.084,1.485c26.196,21.425,9.777,45.146-4.535,46.918c-8.5,0.974-17.768-5.204-17.976-13.13
		c-0.685-9.941,8.885-17.8,16.067-13.233c4.078,2.319,5.869,7.906,3.658,12.111c-1.52,4.202-10.944,7.35-12.38-4.252
		c-4.607,3.029-1.854,12.312,7.076,13.144c12.35,0.942,26.283-24.007-7.604-35.264c-4.065-1.222-2.562,2.235-9.132,6.209
		c-25.417,16.167-51.514-18.026-26.075-21.309c-0.198-77.02,0.621-49.278-1.806-59.109c1.909-1.339,3.941-2.574,6.313-2.833
		c-1.243-1.585-11.23-6.426-9.085-15.147c1.612-0.57,3.465-0.881,4.724-2.093C219.527,1247.274,219.568,1181.476,219.596,1079.246z
		 M219.596,575.674c-0.027-102.23-0.069-168.028-0.125-168.27c-1.259-1.212-3.112-1.523-4.724-2.093
		c-2.145-8.721,7.841-13.562,9.085-15.147c-2.371-0.259-4.403-1.494-6.313-2.833c2.426-9.831,1.608,17.911,1.806-59.109
		c-25.439-3.284,0.659-37.477,26.075-21.309c6.569,3.974,5.066,7.431,9.132,6.209c33.887-11.257,19.955-36.206,7.604-35.264
		c-8.93,0.832-11.683,10.115-7.076,13.144c1.437-11.603,10.86-8.454,12.38-4.252c2.211,4.205,0.42,9.792-3.658,12.111
		c-7.181,4.566-16.751-3.292-16.067-13.233c0.208-7.925,9.476-14.103,17.976-13.13c14.312,1.772,30.732,25.493,4.535,46.918
		c-0.354,0.49-1.202,0.848-1.084,1.485c0.702,0.871,6.669,6.221,9.335,15.656c0.726,2.456,0.193,5.554-2.371,6.676
		c1.216,1.339,2.631,2.701,2.961,4.549c0.405,2.15-0.057,4.592-1.659,6.157c-0.948,1.004-2.404,1.032-3.668,1.235
		c5.774,8.671,2.207,13.83-4.182,14.12c5.435,10.665,0.903,15.835-7.505,15.982c5.356,8.303,1.575,15.671-8.448,12.729
		c-5.347,12.946,9.129,16.829,14.431,10.645c0.792-2.103,0.005-4.644,1.391-6.577c1.249-2.018,4.149-3.314,6.313-1.989
		c4.691,3.674-4.505,12.418-10.688,14.115c-10.211,3.077-32.951-6.933-11.395-32.633c3.198-3.71,17.215-16.308,16.75-33.68
		c0.282-14.577-3.935-20.496-5.389-24.543c-0.537,0.344-1.084,0.655-1.537,1.08c0.09,0.871,13.347,32.709-8.609,51.764
		c-9.442,8.667-17.081,19.575-11.187,30.969c8.31,15.886,18.831,9.554,20.536,9.957c4.237,4.722-16.722,17.019-25.316,3.437
		c-0.034,55.026-0.063,109.458-0.088,163.088c-37.905,37.94-76.374,76.45-115.258,115.383c15.681-3.527,21.807,19.988,15.471,20.331
		c-1.49-0.921-4.452-12.838-21.562-7.481c-12.224,3.889-14.536,17.004-13.988,29.809c2.05,28.999-29.836,42.138-30.516,42.69
		c0.02,0.62,0.187,1.227,0.323,1.85c3.89-1.834,11.056-3.037,21.165-13.544c12.612-11.955,11.609-30.775,11.971-35.659
		c2.93-33.415,26.088-24.414,31.132-15.018c3.172,5.572,3.492,18.257-2.423,17.538c-2.467-0.593-3.6-3.56-3.057-5.87
		c0.387-2.347,2.74-3.587,3.667-5.634c0.624-8.121-12.357-15.612-17.731-2.677c9.168,5.007,6.632,12.891-3.027,14.974
		c5.841,6.05,5.39,12.91-5.994,16.608c4.313,4.722,3.187,10.892-7.027,12.941c0.75,1.037,1.76,2.087,1.72,3.467
		c0.027,2.24-1.373,4.294-3.18,5.527c-1.54,1.073-3.504,1.037-5.31,1.123c1.02,2.607-0.793,5.174-3.044,6.397
		c-8.557,4.787-16.559,4.351-17.671,4.47c-0.533,0.367-0.187,1.22-0.283,1.817c3.374,33.673-25.009,38.836-36.383,29.969
		c-6.699-5.322-8.884-16.244-3.427-21.995c6.545-7.513,18.869-6.303,20.718,2.003c1.243,4.524-1.44,9.741-5.977,11.151
		c-4.046,1.896-12.936-2.541-5.747-11.761c-5.399-1.116-10.017,7.395-4.29,14.298c8.067,9.399,35.561,1.609,19.558-30.312
		c-2.011-3.739-3.392-0.232-10.847-2.067c-29.405-6.54-23.68-49.172-3.37-33.506c54.322-54.602,35.284-34.406,40.52-43.073
		c2.297,0.403,4.607,0.967,6.467,2.46c0.242-2-3.397-12.484,4.287-17.135c1.543,0.737,3.074,1.827,4.82,1.86
		C100.733,694.44,147.289,647.943,219.596,575.674z M575.674,219.596c72.268-72.307,118.765-118.862,118.897-119.073
		c-0.033-1.747-1.123-3.277-1.86-4.82c4.65-7.684,15.135-4.045,17.135-4.287c-1.493-1.86-2.057-4.17-2.46-6.467
		c8.667-5.236-11.528,13.802,43.073-40.52c-15.666-20.31,26.966-26.034,33.506,3.37c1.835,7.455-1.672,8.837,2.067,10.847
		c31.922,16.002,39.711-11.491,30.312-19.558c-6.902-5.726-15.413-1.109-14.298,4.29c9.22-7.189,13.657,1.701,11.761,5.747
		c-1.41,4.537-6.627,7.221-11.151,5.977c-8.307-1.849-9.517-14.173-2.003-20.718c5.751-5.457,16.673-3.272,21.995,3.427
		c8.867,11.373,3.704,39.757-29.969,36.383c-0.597,0.097-1.45-0.25-1.817,0.283c-0.119,1.112,0.317,9.115-4.47,17.671
		c-1.223,2.25-3.79,4.064-6.397,3.044c-0.087,1.807-0.05,3.77-1.123,5.31c-1.233,1.807-3.287,3.207-5.527,3.18
		c-1.38,0.04-2.43-0.97-3.467-1.72c-2.049,10.214-8.219,11.34-12.941,7.027c-3.698,11.384-10.558,11.835-16.608,5.994
		c-2.084,9.658-9.967,12.194-14.974,3.027c-12.935,5.374-5.444,18.355,2.677,17.731c2.047-0.927,3.287-3.28,5.634-3.667
		c2.31-0.543,5.277,0.59,5.87,3.057c0.719,5.915-11.966,5.596-17.538,2.423c-9.396-5.045-18.397-28.202,15.018-31.132
		c4.885-0.362,23.704,0.641,35.659-11.971c10.507-10.108,11.711-17.275,13.544-21.165c-0.623-0.137-1.23-0.303-1.85-0.323
		c-0.552,0.679-13.691,32.566-42.69,30.516c-12.805-0.548-25.92,1.764-29.809,13.988c-5.357,17.109,6.56,20.072,7.481,21.562
		c-0.343,6.335-23.859,0.21-20.331-15.471c-38.933,38.885-77.443,77.354-115.383,115.258c-53.63,0.025-108.062,0.054-163.088,0.088
		c13.582,8.594,1.286,29.553-3.437,25.316c-0.402-1.705,5.929-12.226-9.957-20.536c-11.394-5.893-22.302,1.745-30.969,11.187
		c-19.055,21.955-50.893,8.698-51.764,8.609c-0.424,0.453-0.735,0.999-1.08,1.537c4.047,1.454,9.966,5.67,24.543,5.389
		c17.371,0.464,29.97-13.552,33.68-16.75c25.7-21.556,35.71,1.183,32.633,11.395c-1.697,6.183-10.441,15.379-14.115,10.688
		c-1.325-2.164-0.028-5.063,1.989-6.313c1.933-1.386,4.474-0.599,6.577-1.391c6.184-5.301,2.301-19.777-10.645-14.431
		c2.942,10.023-4.426,13.804-12.729,8.448c-0.147,8.408-5.317,12.94-15.982,7.505c-0.289,6.388-5.448,9.955-14.12,4.182
		c-0.203,1.263-0.231,2.72-1.235,3.668c-1.565,1.603-4.007,2.065-6.157,1.659c-1.848-0.33-3.211-1.744-4.549-2.961
		c-1.122,2.565-4.219,3.097-6.676,2.371c-9.435-2.666-14.786-8.632-15.656-9.335c-0.637-0.118-0.995,0.731-1.485,1.084
		c-21.425,26.196-45.146,9.777-46.918-4.535c-0.974-8.5,5.205-17.768,13.13-17.976c9.941-0.685,17.8,8.885,13.233,16.067
		c-2.319,4.078-7.906,5.869-12.111,3.658c-4.202-1.52-7.35-10.944,4.252-12.38c-3.029-4.607-12.312-1.854-13.144,7.076
		c-0.942,12.35,24.007,26.283,35.264-7.604c1.222-4.065-2.235-2.562-6.209-9.132c-16.167-25.417,18.025-51.514,21.309-26.075
		c77.02-0.198,49.278,0.621,59.109-1.806c1.339,1.909,2.574,3.941,2.833,6.313c1.585-1.243,6.426-11.23,15.147-9.085
		c0.57,1.612,0.882,3.465,2.093,4.724C407.646,219.527,473.444,219.568,575.674,219.596z M1079.246,219.596
		c102.23-0.027,168.028-0.069,168.27-0.125c1.212-1.259,1.523-3.112,2.093-4.724c8.722-2.145,13.562,7.841,15.147,9.085
		c0.259-2.371,1.494-4.403,2.833-6.313c9.831,2.426-17.911,1.608,59.109,1.806c3.284-25.439,37.477,0.659,21.309,26.075
		c-3.974,6.569-7.431,5.066-6.209,9.132c11.257,33.887,36.206,19.955,35.264,7.604c-0.832-8.93-10.115-11.683-13.144-7.076
		c11.603,1.437,8.454,10.86,4.252,12.38c-4.205,2.211-9.792,0.42-12.111-3.658c-4.566-7.181,3.292-16.751,13.233-16.067
		c7.925,0.208,14.104,9.476,13.13,17.976c-1.772,14.312-25.493,30.732-46.918,4.535c-0.49-0.354-0.849-1.202-1.485-1.084
		c-0.871,0.702-6.221,6.669-15.656,9.335c-2.456,0.726-5.554,0.193-6.676-2.371c-1.339,1.216-2.701,2.631-4.549,2.961
		c-2.15,0.405-4.592-0.057-6.157-1.659c-1.004-0.948-1.032-2.404-1.235-3.668c-8.671,5.774-13.83,2.207-14.12-4.182
		c-10.665,5.435-15.835,0.903-15.982-7.505c-8.303,5.356-15.671,1.575-12.729-8.448c-12.946-5.347-16.829,9.129-10.645,14.431
		c2.103,0.792,4.644,0.005,6.577,1.391c2.018,1.249,3.314,4.149,1.989,6.313c-3.674,4.691-12.418-4.505-14.115-10.688
		c-3.077-10.211,6.933-32.951,32.633-11.395c3.71,3.198,16.308,17.215,33.68,16.75c14.577,0.282,20.496-3.935,24.543-5.389
		c-0.344-0.537-0.655-1.084-1.08-1.537c-0.871,0.09-32.709,13.347-51.764-8.609c-8.667-9.442-19.575-17.081-30.969-11.187
		c-15.886,8.31-9.554,18.831-9.957,20.536c-4.722,4.237-17.019-16.722-3.437-25.316c-55.026-0.034-109.458-0.063-163.088-0.088
		c-37.94-37.905-76.45-76.374-115.383-115.258c3.527,15.681-19.988,21.807-20.331,15.471c0.921-1.49,12.838-4.452,7.481-21.562
		c-3.889-12.224-17.004-14.536-29.809-13.988c-28.999,2.05-42.138-29.836-42.69-30.516c-0.62,0.02-1.227,0.187-1.85,0.323
		c1.834,3.89,3.037,11.056,13.544,21.165c11.955,12.612,30.775,11.609,35.659,11.971c33.415,2.93,24.414,26.088,15.018,31.132
		c-5.572,3.172-18.257,3.492-17.538-2.423c0.593-2.467,3.56-3.6,5.87-3.057c2.347,0.387,3.587,2.74,5.634,3.667
		c8.121,0.624,15.612-12.357,2.677-17.731c-5.007,9.168-12.891,6.632-14.974-3.027c-6.049,5.841-12.91,5.39-16.608-5.994
		c-4.722,4.313-10.892,3.187-12.941-7.027c-1.037,0.75-2.087,1.76-3.467,1.72c-2.24,0.027-4.294-1.373-5.527-3.18
		c-1.073-1.54-1.037-3.504-1.123-5.31c-2.607,1.02-5.174-0.793-6.397-3.044c-4.787-8.557-4.351-16.559-4.47-17.671
		c-0.367-0.533-1.22-0.187-1.817-0.283c-33.673,3.374-38.836-25.009-29.969-36.383c5.322-6.699,16.244-8.884,21.995-3.427
		c7.513,6.545,6.303,18.869-2.003,20.718c-4.524,1.243-9.741-1.44-11.151-5.977c-1.896-4.046,2.541-12.936,11.761-5.747
		c1.116-5.399-7.395-10.017-14.298-4.29c-9.399,8.067-1.609,35.561,30.312,19.558c3.739-2.011,0.232-3.392,2.067-10.847
		c6.54-29.405,49.172-23.68,33.506-3.37c54.602,54.322,34.406,35.284,43.073,40.52c-0.403,2.297-0.967,4.607-2.46,6.467
		c2,0.242,12.484-3.397,17.135,4.287c-0.737,1.543-1.827,3.074-1.86,4.82C960.48,100.733,1006.977,147.289,1079.246,219.596z
		 M1341.276,218.533c-1.704,8.093-7.004,6.875-10.669,6.94c-2.943-0.005-48.264-0.085-51.811,0.141
		c1.66,5.742,1.622,11.777,2.72,17.622c1.882,9.54,9.178,16.93,14.322,18.697c-0.515-2.187-12.528-9.108-10.829-15.925
		c2.296-0.292,4.611,0.264,6.93-0.038c-1.457-4.314-0.274-8.92-1.405-13.276c-0.391-1.782-2.31-2.791-2.433-4.667
		c5.06,0.193,14.35,6.767,15.93,13.351c0.245,0.066,0.735,0.203,0.981,0.269c-0.019-2.154-0.005-4.394,1.089-6.331
		c2.555-0.269,2.258,3.093,4.026,4.191c2.008,1.683,4.846,1.829,6.883,3.503c4.719,3.12,3.595,9.238,13.511,7.435
		C1345.62,247.239,1350.262,228.132,1341.276,218.533 M760.206,33.561c4.518,6.928-0.091,9.814-2.637,12.451
		c-2.084,2.078-34.188,34.068-36.536,36.736c5.234,2.887,9.474,7.181,14.384,10.537c8.077,5.414,18.461,5.482,23.348,3.094
		c-1.911-1.182-15.299,2.418-18.918-3.604c1.417-1.83,3.447-3.074,4.874-4.927c-4.08-2.02-6.5-6.114-10.381-8.394
		c-1.537-0.983-3.607-0.34-5.02-1.58c3.714-3.442,14.932-5.362,20.705-1.823c0.22-0.127,0.663-0.377,0.883-0.503
		c-1.537-1.51-3.11-3.104-3.707-5.247c1.617-1.997,3.784,0.59,5.81,0.117c2.61-0.23,4.72-2.133,7.344-2.39
		c5.543-1.131,9.074,3.99,14.811-4.297C783.577,50.787,773.348,33.994,760.206,33.561 M218.533,313.644
		c8.093,1.704,6.875,7.004,6.94,10.669c-0.005,2.943-0.085,48.264,0.141,51.811c5.742-1.659,11.777-1.622,17.622-2.72
		c9.54-1.882,16.93-9.178,18.697-14.322c-2.187,0.515-9.108,12.528-15.925,10.829c-0.292-2.296,0.264-4.611-0.038-6.93
		c-4.314,1.457-8.92,0.273-13.276,1.405c-1.782,0.391-2.791,2.31-4.667,2.433c0.193-5.06,6.767-14.35,13.351-15.93
		c0.066-0.245,0.203-0.735,0.269-0.981c-2.154,0.019-4.394,0.005-6.331-1.089c-0.269-2.555,3.093-2.258,4.191-4.026
		c1.683-2.008,1.829-4.846,3.503-6.883c3.12-4.719,9.238-3.595,7.435-13.512C247.239,309.299,228.132,304.658,218.533,313.644
		 M33.561,894.714c6.928-4.518,9.814,0.091,12.451,2.637c2.078,2.084,34.068,34.188,36.736,36.536
		c2.887-5.234,7.181-9.474,10.537-14.384c5.414-8.077,5.482-18.461,3.094-23.348c-1.182,1.911,2.418,15.299-3.604,18.918
		c-1.83-1.417-3.074-3.447-4.927-4.874c-2.02,4.08-6.114,6.501-8.394,10.381c-0.983,1.537-0.34,3.607-1.58,5.02
		c-3.442-3.714-5.362-14.932-1.823-20.705c-0.127-0.22-0.377-0.663-0.503-0.883c-1.51,1.537-3.104,3.11-5.247,3.707
		c-1.997-1.617,0.59-3.784,0.117-5.81c-0.23-2.61-2.133-4.72-2.39-7.344c-1.131-5.543,3.99-9.074-4.297-14.811
		C50.787,871.343,33.994,881.572,33.561,894.714 M313.644,1436.387c1.704-8.093,7.004-6.875,10.669-6.94
		c2.943,0.005,48.264,0.085,51.811-0.141c-1.659-5.742-1.622-11.777-2.72-17.622c-1.882-9.54-9.178-16.93-14.322-18.697
		c0.515,2.187,12.528,9.108,10.829,15.925c-2.296,0.292-4.611-0.264-6.93,0.038c1.457,4.314,0.273,8.92,1.405,13.276
		c0.391,1.782,2.31,2.791,2.433,4.667c-5.06-0.193-14.35-6.767-15.93-13.351c-0.245-0.066-0.735-0.203-0.981-0.269
		c0.019,2.154,0.005,4.394-1.089,6.331c-2.555,0.269-2.258-3.093-4.026-4.191c-2.008-1.683-4.846-1.829-6.883-3.503
		c-4.719-3.12-3.595-9.238-13.512-7.435C309.299,1407.681,304.658,1426.788,313.644,1436.387 M894.714,1621.359
		c-4.518-6.928,0.091-9.814,2.637-12.451c2.084-2.078,34.188-34.068,36.536-36.736c-5.234-2.887-9.474-7.181-14.384-10.537
		c-8.077-5.414-18.461-5.482-23.348-3.094c1.911,1.182,15.299-2.418,18.918,3.604c-1.417,1.83-3.447,3.074-4.874,4.927
		c4.08,2.02,6.501,6.114,10.381,8.394c1.537,0.983,3.607,0.34,5.02,1.58c-3.714,3.442-14.932,5.362-20.705,1.823
		c-0.22,0.127-0.663,0.377-0.883,0.503c1.537,1.51,3.11,3.104,3.707,5.247c-1.617,1.997-3.784-0.59-5.81-0.117
		c-2.61,0.23-4.72,2.134-7.344,2.39c-5.543,1.13-9.074-3.99-14.811,4.297C871.343,1604.133,881.572,1620.926,894.714,1621.359
		 M1436.387,1341.276c-8.093-1.704-6.875-7.004-6.94-10.669c0.005-2.943,0.085-48.264-0.141-51.811
		c-5.742,1.66-11.777,1.622-17.622,2.72c-9.54,1.882-16.93,9.178-18.697,14.322c2.187-0.515,9.108-12.528,15.925-10.829
		c0.292,2.296-0.264,4.611,0.038,6.93c4.314-1.457,8.92-0.274,13.276-1.405c1.782-0.391,2.791-2.31,4.667-2.433
		c-0.193,5.06-6.767,14.35-13.351,15.93c-0.066,0.245-0.203,0.735-0.269,0.981c2.154-0.019,4.394-0.005,6.331,1.089
		c0.269,2.555-3.093,2.258-4.191,4.026c-1.683,2.008-1.829,4.846-3.503,6.883c-3.12,4.719-9.238,3.595-7.435,13.511
		C1407.681,1345.62,1426.788,1350.262,1436.387,1341.276 M1621.359,760.206c-6.928,4.518-9.814-0.091-12.451-2.637
		c-2.078-2.084-34.068-34.188-36.736-36.536c-2.887,5.234-7.181,9.474-10.537,14.384c-5.414,8.077-5.482,18.461-3.094,23.348
		c1.182-1.911-2.418-15.299,3.604-18.918c1.83,1.417,3.074,3.447,4.927,4.874c2.02-4.08,6.114-6.5,8.394-10.381
		c0.983-1.537,0.34-3.607,1.58-5.02c3.442,3.714,5.362,14.932,1.823,20.705c0.127,0.22,0.377,0.663,0.503,0.883
		c1.51-1.537,3.104-3.11,5.247-3.707c1.997,1.617-0.59,3.784-0.117,5.81c0.23,2.61,2.134,4.72,2.39,7.344
		c1.13,5.543-3.99,9.074,4.297,14.811C1604.133,783.577,1620.926,773.348,1621.359,760.206 M1436.387,313.644
		c-9.599-8.986-28.707-4.345-31.912,10.753c-1.803,9.916,4.315,8.793,7.435,13.512c1.674,2.037,1.82,4.875,3.503,6.883
		c1.098,1.768,4.46,1.471,4.191,4.026c-1.938,1.094-4.177,1.108-6.331,1.089c0.066,0.245,0.203,0.735,0.269,0.981
		c6.584,1.58,13.158,10.87,13.351,15.93c-1.876-0.123-2.885-2.041-4.667-2.433c-4.356-1.131-8.962,0.052-13.276-1.405
		c-0.302,2.319,0.255,4.634-0.038,6.93c-6.817,1.699-13.739-10.314-15.925-10.829c1.767,5.145,9.158,12.44,18.697,14.322
		c5.846,1.099,11.88,1.061,17.622,2.72c0.227-3.547,0.146-48.868,0.141-51.811C1429.512,320.648,1428.294,315.348,1436.387,313.644
		 M894.714,33.561c-13.141,0.434-23.371,17.226-14.961,30.169c5.737,8.287,9.269,3.167,14.811,4.297
		c2.623,0.257,4.734,2.16,7.344,2.39c2.027,0.473,4.194-2.113,5.81-0.117c-0.597,2.144-2.17,3.737-3.707,5.247
		c0.22,0.127,0.663,0.377,0.883,0.503c5.772-3.538,16.991-1.618,20.705,1.823c-1.413,1.24-3.484,0.597-5.02,1.58
		c-3.88,2.28-6.3,6.374-10.381,8.394c1.427,1.853,3.457,3.097,4.874,4.927c-3.619,6.022-17.008,2.422-18.918,3.604
		c4.887,2.388,15.272,2.321,23.348-3.094c4.91-3.357,9.151-7.651,14.384-10.537c-2.348-2.668-34.452-34.658-36.536-36.736
		C894.805,43.375,890.196,40.488,894.714,33.561 M313.644,218.533c-8.986,9.599-4.345,28.707,10.753,31.912
		c9.916,1.803,8.793-4.315,13.512-7.435c2.037-1.674,4.875-1.82,6.883-3.503c1.768-1.098,1.471-4.46,4.026-4.191
		c1.094,1.938,1.108,4.177,1.089,6.331c0.245-0.066,0.735-0.203,0.981-0.269c1.58-6.584,10.87-13.158,15.93-13.351
		c-0.123,1.876-2.041,2.885-2.433,4.667c-1.131,4.356,0.052,8.962-1.405,13.276c2.319,0.302,4.634-0.255,6.93,0.038
		c1.699,6.817-10.314,13.739-10.829,15.925c5.145-1.767,12.44-9.158,14.322-18.697c1.099-5.846,1.061-11.88,2.72-17.622
		c-3.547-0.227-48.868-0.146-51.811-0.141C320.648,225.408,315.348,226.626,313.644,218.533 M33.561,760.206
		c0.434,13.141,17.226,23.371,30.169,14.961c8.287-5.737,3.167-9.269,4.297-14.811c0.257-2.623,2.16-4.734,2.39-7.344
		c0.473-2.027-2.113-4.194-0.117-5.81c2.144,0.597,3.737,2.17,5.247,3.707c0.127-0.22,0.377-0.663,0.503-0.883
		c-3.538-5.772-1.618-16.991,1.823-20.705c1.24,1.413,0.597,3.484,1.58,5.02c2.28,3.88,6.374,6.3,8.394,10.381
		c1.853-1.427,3.097-3.457,4.927-4.874c6.022,3.619,2.422,17.008,3.604,18.918c2.388-4.887,2.321-15.272-3.094-23.348
		c-3.357-4.91-7.651-9.151-10.537-14.384c-2.668,2.348-34.658,34.452-36.736,36.536C43.375,760.115,40.488,764.724,33.561,760.206
		 M218.533,1341.276c9.599,8.986,28.707,4.345,31.912-10.754c1.803-9.916-4.315-8.793-7.435-13.511
		c-1.674-2.037-1.82-4.875-3.503-6.883c-1.098-1.768-4.46-1.471-4.191-4.026c1.938-1.094,4.177-1.108,6.331-1.089
		c-0.066-0.245-0.203-0.735-0.269-0.981c-6.584-1.58-13.158-10.87-13.351-15.93c1.876,0.123,2.885,2.041,4.667,2.433
		c4.356,1.131,8.962-0.052,13.276,1.405c0.302-2.319-0.255-4.634,0.038-6.93c6.817-1.699,13.739,10.314,15.925,10.829
		c-1.767-5.145-9.158-12.44-18.697-14.322c-5.846-1.099-11.88-1.061-17.622-2.72c-0.227,3.547-0.146,48.868-0.141,51.811
		C225.408,1334.272,226.626,1339.572,218.533,1341.276 M760.206,1621.359c13.141-0.434,23.371-17.226,14.961-30.169
		c-5.737-8.287-9.269-3.167-14.811-4.297c-2.623-0.257-4.734-2.16-7.344-2.39c-2.027-0.473-4.194,2.114-5.81,0.117
		c0.597-2.144,2.17-3.737,3.707-5.247c-0.22-0.127-0.663-0.377-0.883-0.503c-5.772,3.538-16.991,1.618-20.705-1.823
		c1.413-1.24,3.484-0.597,5.02-1.58c3.88-2.28,6.3-6.374,10.381-8.394c-1.427-1.854-3.457-3.097-4.874-4.927
		c3.619-6.022,17.008-2.422,18.918-3.604c-4.887-2.388-15.272-2.321-23.348,3.094c-4.91,3.357-9.151,7.651-14.384,10.537
		c2.348,2.668,34.452,34.658,36.536,36.736C760.115,1611.545,764.724,1614.432,760.206,1621.359 M1341.276,1436.387
		c8.986-9.599,4.345-28.707-10.754-31.912c-9.916-1.803-8.793,4.315-13.511,7.435c-2.037,1.674-4.875,1.82-6.883,3.503
		c-1.768,1.098-1.471,4.46-4.026,4.191c-1.094-1.938-1.108-4.177-1.089-6.331c-0.245,0.066-0.735,0.203-0.981,0.269
		c-1.58,6.584-10.87,13.158-15.93,13.351c0.123-1.876,2.041-2.885,2.433-4.667c1.131-4.356-0.052-8.962,1.405-13.276
		c-2.319-0.302-4.634,0.255-6.93-0.038c-1.699-6.817,10.314-13.739,10.829-15.925c-5.145,1.767-12.44,9.158-14.322,18.697
		c-1.099,5.846-1.061,11.88-2.72,17.622c3.547,0.227,48.868,0.146,51.811,0.141
		C1334.272,1429.512,1339.572,1428.294,1341.276,1436.387 M1621.359,894.714c-0.434-13.141-17.226-23.371-30.169-14.961
		c-8.287,5.737-3.167,9.269-4.297,14.811c-0.257,2.623-2.16,4.734-2.39,7.344c-0.473,2.027,2.114,4.194,0.117,5.81
		c-2.144-0.597-3.737-2.17-5.247-3.707c-0.127,0.22-0.377,0.663-0.503,0.883c3.538,5.772,1.618,16.991-1.823,20.705
		c-1.24-1.413-0.597-3.484-1.58-5.02c-2.28-3.88-6.374-6.3-8.394-10.381c-1.854,1.427-3.097,3.457-4.927,4.874
		c-6.022-3.619-2.422-17.008-3.604-18.918c-2.388,4.887-2.321,15.272,3.094,23.348c3.357,4.91,7.651,9.151,10.537,14.384
		c2.668-2.348,34.658-34.452,36.736-36.536C1611.545,894.805,1614.432,890.196,1621.359,894.714 M1252.362,223.318
		c3.575,10.214,13.52,11.32,17.934,14.964c2.833,2.022,4.893,4.861,7.024,7.562c-0.99-7.482-7.27-13.313-14.304-15.331
		C1258.736,229.371,1255.587,226.132,1252.362,223.318 M700.718,99.816c9.75,4.695,17.564-1.555,23.262-2.1
		c3.434-0.573,6.897-0.023,10.314,0.38c-5.99-4.59-14.554-4.274-20.955-0.727C709.506,99.589,704.989,99.526,700.718,99.816
		 M223.318,402.557c10.214-3.575,11.32-13.52,14.964-17.934c2.022-2.833,4.861-4.893,7.562-7.024
		c-7.482,0.99-13.313,7.27-15.331,14.304C229.371,396.184,226.132,399.333,223.318,402.557 M99.816,954.201
		c4.695-9.75-1.555-17.564-2.1-23.262c-0.573-3.434-0.023-6.897,0.38-10.314c-4.59,5.99-4.274,14.554-0.727,20.955
		C99.589,945.414,99.526,949.931,99.816,954.201 M402.557,1431.602c-3.575-10.214-13.52-11.32-17.934-14.964
		c-2.833-2.022-4.893-4.861-7.024-7.562c0.99,7.482,7.27,13.313,14.304,15.331C396.184,1425.549,399.333,1428.787,402.557,1431.602
		 M954.201,1555.104c-9.75-4.695-17.564,1.555-23.262,2.1c-3.434,0.573-6.897,0.023-10.314-0.38
		c5.99,4.59,14.554,4.274,20.955,0.727C945.414,1555.331,949.931,1555.394,954.201,1555.104 M1431.602,1252.362
		c-10.214,3.575-11.32,13.52-14.964,17.934c-2.022,2.833-4.861,4.893-7.562,7.024c7.482-0.99,13.313-7.27,15.331-14.304
		C1425.549,1258.736,1428.787,1255.587,1431.602,1252.362 M1555.104,700.718c-4.695,9.75,1.555,17.564,2.1,23.262
		c0.573,3.434,0.023,6.897-0.38,10.314c4.59-5.99,4.274-14.554,0.727-20.955C1555.331,709.506,1555.394,704.989,1555.104,700.718
		 M1431.602,402.557c-2.814-3.225-6.053-6.374-7.194-10.654c-2.018-7.034-7.849-13.314-15.331-14.304
		c2.701,2.131,5.539,4.191,7.562,7.024C1420.282,389.038,1421.388,398.983,1431.602,402.557 M954.201,99.816
		c-4.27-0.29-8.787-0.227-12.621-2.447c-6.401-3.547-14.965-3.864-20.955,0.727c3.417-0.403,6.88-0.953,10.314-0.38
		C936.637,98.26,944.451,104.51,954.201,99.816 M402.557,223.318c-3.225,2.814-6.374,6.053-10.654,7.194
		c-7.034,2.018-13.314,7.849-14.304,15.331c2.131-2.701,4.191-5.539,7.024-7.562C389.038,234.638,398.983,233.532,402.557,223.318
		 M99.816,700.718c-0.29,4.27-0.227,8.787-2.447,12.621c-3.547,6.401-3.864,14.965,0.727,20.955
		c-0.403-3.417-0.953-6.88-0.38-10.314C98.26,718.283,104.51,710.468,99.816,700.718 M223.318,1252.362
		c2.814,3.225,6.053,6.374,7.194,10.654c2.018,7.034,7.849,13.314,15.331,14.304c-2.701-2.131-5.539-4.191-7.562-7.024
		C234.638,1265.882,233.532,1255.937,223.318,1252.362 M700.718,1555.104c4.27,0.29,8.787,0.227,12.621,2.447
		c6.401,3.547,14.965,3.864,20.955-0.727c-3.417,0.403-6.88,0.953-10.314,0.38C718.283,1556.659,710.468,1550.41,700.718,1555.104
		 M1252.362,1431.602c3.225-2.814,6.374-6.053,10.654-7.194c7.034-2.018,13.314-7.849,14.304-15.331
		c-2.131,2.701-4.191,5.539-7.024,7.562C1265.882,1420.282,1255.937,1421.388,1252.362,1431.602 M1555.104,954.201
		c0.29-4.27,0.227-8.787,2.447-12.621c3.547-6.401,3.864-14.965-0.727-20.955c0.403,3.417,0.953,6.88,0.38,10.314
		C1556.659,936.637,1550.41,944.451,1555.104,954.201 M1422.258,581.087c19.527,19.523,39.488,39.482,59.894,59.887
		c38.381,38.325,58.892,60.062,65.345,62.025c0.483-1.397,1.05-2.757,1.693-4.074c-0.701-0.915-47.362-47.723-120.177-120.637
		c-0.07-103.046-0.174-169.138-0.325-170.281c-1.386-0.476-2.749-1.037-4.078-1.683c-3.175,5.951-2.308,35.825-2.348,90.064
		C1422.262,525.246,1422.261,553.474,1422.258,581.087z M1422.258,1073.833c0.003,27.612,0.005,55.84,0.005,84.698
		c0.04,54.239-0.828,84.113,2.348,90.064c1.329-0.646,2.692-1.207,4.078-1.683c0.151-1.143,0.255-67.235,0.325-170.281
		c72.815-72.914,119.476-119.722,120.177-120.637c-0.643-1.317-1.21-2.677-1.693-4.074c-6.453,1.963-26.964,23.7-65.345,62.025
		C1461.746,1034.351,1441.785,1054.311,1422.258,1073.833z M1073.833,1422.258c-19.523,19.527-39.482,39.488-59.887,59.894
		c-38.325,38.381-60.062,58.892-62.025,65.345c1.397,0.483,2.757,1.05,4.074,1.693c0.915-0.701,47.723-47.362,120.637-120.177
		c103.046-0.07,169.138-0.174,170.281-0.325c0.476-1.386,1.037-2.749,1.683-4.078c-5.951-3.175-35.825-2.308-90.064-2.348
		C1129.674,1422.262,1101.445,1422.261,1073.833,1422.258z M581.087,1422.258c-27.612,0.003-55.84,0.005-84.698,0.005
		c-54.239,0.04-84.113-0.828-90.064,2.348c0.646,1.329,1.207,2.692,1.683,4.078c1.143,0.151,67.235,0.255,170.281,0.325
		c72.914,72.815,119.722,119.476,120.637,120.177c1.317-0.643,2.677-1.21,4.074-1.693c-1.963-6.453-23.7-26.964-62.025-65.345
		C620.568,1461.746,600.609,1441.785,581.087,1422.258z M232.662,1073.833c-19.527-19.523-39.488-39.482-59.894-59.887
		c-38.381-38.325-58.892-60.062-65.345-62.025c-0.483,1.397-1.05,2.757-1.693,4.074c0.701,0.915,47.362,47.723,120.177,120.637
		c0.07,103.046,0.174,169.138,0.325,170.281c1.386,0.476,2.748,1.037,4.078,1.683c3.175-5.951,2.308-35.825,2.348-90.064
		C232.657,1129.674,232.659,1101.445,232.662,1073.833z M232.662,581.087c-0.003-27.612-0.005-55.84-0.005-84.698
		c-0.04-54.239,0.827-84.113-2.348-90.064c-1.329,0.646-2.692,1.207-4.078,1.683c-0.151,1.143-0.255,67.235-0.325,170.281
		C153.091,651.202,106.43,698.01,105.729,698.925c0.643,1.317,1.21,2.677,1.693,4.074c6.453-1.963,26.964-23.7,65.345-62.025
		C193.174,620.568,213.135,600.609,232.662,581.087z M581.087,232.662c19.523-19.527,39.482-39.488,59.887-59.894
		c38.325-38.381,60.062-58.892,62.025-65.345c-1.397-0.483-2.757-1.05-4.074-1.693c-0.915,0.701-47.723,47.362-120.637,120.177
		c-103.046,0.07-169.138,0.174-170.281,0.325c-0.476,1.386-1.037,2.748-1.683,4.078c5.951,3.175,35.825,2.308,90.064,2.348
		C525.246,232.657,553.474,232.659,581.087,232.662z M1073.833,232.662c27.612-0.003,55.84-0.005,84.698-0.005
		c54.239-0.04,84.113,0.827,90.064-2.348c-0.646-1.329-1.207-2.692-1.683-4.078c-1.143-0.151-67.235-0.255-170.281-0.325
		c-72.914-72.815-119.722-119.476-120.637-120.177c-1.317,0.643-2.677,1.21-4.074,1.693c1.963,6.453,23.7,26.964,62.025,65.345
		C1034.351,193.174,1054.311,213.135,1073.833,232.662z M1298.026,245.245c-0.246,3.222,7.457,20.33,31.092,16.406
		c-0.189-1.014-0.589-1.961-1.047-2.871C1302.911,261.801,1303.27,245.99,1298.026,245.245 M748.512,83.031
		c2.104,2.452,19.648,9.102,33.586-10.384c-0.85-0.583-1.803-0.97-2.77-1.29C763.673,91.284,752.747,79.85,748.512,83.031
		 M245.245,356.894c3.222,0.246,20.33-7.457,16.406-31.092c-1.014,0.189-1.961,0.589-2.871,1.047
		C261.801,352.009,245.99,351.65,245.245,356.894 M83.031,906.408c2.452-2.104,9.102-19.648-10.384-33.586
		c-0.583,0.85-0.97,1.803-1.29,2.77C91.284,891.246,79.85,902.173,83.031,906.408 M356.894,1409.675
		c0.246-3.222-7.457-20.33-31.092-16.406c0.189,1.014,0.589,1.961,1.047,2.871C352.009,1393.118,351.65,1408.93,356.894,1409.675
		 M906.408,1571.889c-2.104-2.452-19.648-9.102-33.586,10.384c0.85,0.583,1.803,0.97,2.77,1.29
		C891.246,1563.635,902.173,1575.07,906.408,1571.889 M1409.675,1298.026c-3.222-0.246-20.33,7.457-16.406,31.092
		c1.014-0.189,1.961-0.589,2.871-1.047C1393.118,1302.911,1408.93,1303.27,1409.675,1298.026 M1571.889,748.512
		c-2.452,2.104-9.102,19.648,10.384,33.586c0.583-0.85,0.97-1.803,1.29-2.77C1563.635,763.673,1575.07,752.747,1571.889,748.512
		 M1409.675,356.894c-0.745-5.244-16.557-4.885-13.535-30.045c-0.91-0.457-1.857-0.858-2.871-1.047
		C1389.346,349.437,1406.453,357.139,1409.675,356.894 M906.408,83.031c-4.235-3.181-15.162,8.253-30.816-11.674
		c-0.967,0.32-1.92,0.707-2.77,1.29C886.76,92.133,904.303,85.483,906.408,83.031 M356.894,245.245
		c-5.244,0.745-4.885,16.557-30.045,13.535c-0.457,0.91-0.858,1.857-1.047,2.871C349.437,265.574,357.139,248.466,356.894,245.245
		 M83.031,748.512c-3.181,4.235,8.253,15.162-11.674,30.816c0.32,0.967,0.707,1.92,1.29,2.77
		C92.133,768.16,85.483,750.616,83.031,748.512 M245.245,1298.026c0.745,5.244,16.557,4.885,13.535,30.045
		c0.91,0.457,1.857,0.858,2.871,1.047C265.574,1305.483,248.466,1297.78,245.245,1298.026 M748.512,1571.889
		c4.235,3.181,15.162-8.253,30.816,11.674c0.967-0.32,1.92-0.707,2.77-1.29C768.16,1562.786,750.616,1569.437,748.512,1571.889
		 M1298.026,1409.675c5.244-0.745,4.885-16.557,30.045-13.535c0.457-0.91,0.858-1.857,1.047-2.871
		C1305.483,1389.346,1297.78,1406.453,1298.026,1409.675 M1571.889,906.408c3.181-4.235-8.253-15.162,11.674-30.816
		c-0.32-0.967-0.707-1.92-1.29-2.77C1562.786,886.76,1569.437,904.303,1571.889,906.408 M1335.378,255.168
		c-1.601,3.769,5.744,20.883,20.215,23.699C1335.877,268.248,1338.186,260.049,1335.378,255.168 M781.941,63.636
		c1.533,3.797,18.828,10.705,31.052,2.464C791.543,72.533,787.377,65.102,781.941,63.636 M255.168,319.542
		c3.769,1.601,20.883-5.744,23.699-20.215C268.248,319.043,260.049,316.734,255.168,319.542 M63.636,872.979
		c3.797-1.533,10.705-18.828,2.464-31.052C72.533,863.377,65.102,867.542,63.636,872.979 M319.542,1399.751
		c1.601-3.769-5.744-20.883-20.215-23.699C319.043,1386.671,316.734,1394.871,319.542,1399.751 M872.979,1591.284
		c-1.533-3.797-18.828-10.705-31.052-2.464C863.377,1582.387,867.542,1589.818,872.979,1591.284 M1399.751,1335.378
		c-3.769-1.601-20.883,5.744-23.699,20.215C1386.671,1335.877,1394.871,1338.186,1399.751,1335.378 M1591.284,781.941
		c-3.797,1.533-10.705,18.828-2.464,31.052C1582.387,791.543,1589.818,787.377,1591.284,781.941 M1399.751,319.542
		c-4.88-2.808-13.08-0.499-23.699-20.215C1378.868,313.798,1395.982,321.143,1399.751,319.542 M872.979,63.636
		c-5.436,1.466-9.602,8.896-31.052,2.464C854.15,74.341,871.445,67.434,872.979,63.636 M319.542,255.168
		c-2.808,4.88-0.499,13.08-20.215,23.699C313.798,276.052,321.143,258.938,319.542,255.168 M63.636,781.941
		c1.466,5.436,8.896,9.602,2.464,31.052C74.341,800.769,67.434,783.474,63.636,781.941 M255.168,1335.378
		c4.88,2.808,13.08,0.499,23.699,20.215C276.052,1341.122,258.938,1333.777,255.168,1335.378 M781.941,1591.284
		c5.436-1.466,9.602-8.896,31.052-2.464C800.769,1580.578,783.474,1587.486,781.941,1591.284 M1335.378,1399.751
		c2.808-4.88,0.499-13.08,20.215-23.699C1341.122,1378.868,1333.777,1395.982,1335.378,1399.751 M1591.284,872.979
		c-1.466-5.436-8.896-9.602-2.464-31.052C1580.578,854.15,1587.486,871.445,1591.284,872.979"/>
</g>
</svg>
