<svg height="512" viewBox="0 0 512 512" width="512" xmlns="http://www.w3.org/2000/svg"><g id="Flat"><path d="m40 128h32v16h-32z" fill="#f7e5a3"/><path d="m248 104h16v40h-16z" fill="#f7e5a3"/><path d="m256 104h8v40h-8z" fill="#f7c733"/><path d="m216 216h80v104h-80z" fill="#f7e5a3"/><path d="m296 216v104h-8v-96h-72v-8z" fill="#f7c733"/><path d="m184 320h144v96h-144z" fill="#f7e5a3"/><path d="m296 216h-80a54.02217 54.02217 0 0 1 23.8999-81.56l16.1001-6.44 16.1001 6.44a54.02217 54.02217 0 0 1 23.8999 81.56z" fill="#f7e5a3"/><path d="m296 216h-16a58.81038 58.81038 0 0 0 -21.5498-86.78l-2.4502-1.22 16.1001 6.44a54.02217 54.02217 0 0 1 23.8999 81.56z" fill="#f7c733"/><path d="m248 208h16v40h-16z" fill="#f7c733"/><path d="m256 208h8v40h-8z" fill="#f18f04"/><path d="m280 288h-48a37.41441 37.41441 0 0 1 20.25-54.75l3.75-1.25 3.75 1.25a37.41456 37.41456 0 0 1 20.25 54.75z" fill="#f7c733"/><path d="m280 288h-5.3501l.56006-.94a37.90739 37.90739 0 0 0 -19.20996-55.06l3.75 1.25a37.41456 37.41456 0 0 1 20.25 54.75z" fill="#f18f04"/><path d="m232 288h48v32h-48z" fill="#f7c733"/><path d="m232 312h48v8h-48z" fill="#f18f04"/><path d="m280 288v32h-8v-24h-40v-8z" fill="#f18f04"/><path d="m248 304h16v16h-16z" fill="#b67d4d"/><path d="m104 248h16v40h-16z" fill="#f7e5a3"/><path d="m112 248h8v40h-8z" fill="#f7c733"/><path d="m129.25 309.5-1.25 2.5h-32l-1.25-2.5a26.4603 26.4603 0 0 1 17.25-37.5 26.4603 26.4603 0 0 1 17.25 37.5z" fill="#f7e5a3"/><path d="m129.25 309.5-1.25 2.5h-8l4.68994-9.37a21.94129 21.94129 0 0 0 -12.68994-30.63 26.4603 26.4603 0 0 1 17.25 37.5z" fill="#f7c733"/><path d="m72 336h80v80h-80z" fill="#f7e5a3"/><path d="m96 312h32v24h-32z" fill="#f7e5a3"/><path d="m392 248h16v40h-16z" fill="#f7e5a3"/><path d="m400 248h8v40h-8z" fill="#f7c733"/><path d="m417.25 309.5-1.25 2.5h-32l-1.25-2.5a26.4603 26.4603 0 0 1 17.25-37.5 26.4603 26.4603 0 0 1 17.25 37.5z" fill="#f7e5a3"/><path d="m417.25 309.5-1.25 2.5h-8l4.68994-9.37a21.94129 21.94129 0 0 0 -12.68994-30.63 26.4603 26.4603 0 0 1 17.25 37.5z" fill="#f7c733"/><g fill="#f7e5a3"><path d="m360 336h80v80h-80z"/><path d="m384 312h32v24h-32z"/><path d="m40 248h32v168h-32z"/><path d="m440 248.5h32v167.5h-32z"/><path d="m64 208a39.63321 39.63321 0 0 0 6.6564 21.98458l1.3436 2.01542v16h-32v-16l1.3436-2.01541a39.63321 39.63321 0 0 0 6.6564-21.98459 39.63321 39.63321 0 0 0 -6.6564-21.98458l-1.3436-2.01542v-16h32v16l-1.3436 2.01541a39.63321 39.63321 0 0 0 -6.6564 21.98459z"/><path d="m48 96h16v72h-16z"/><path d="m464 208a39.63321 39.63321 0 0 0 6.6564 21.98458l1.3436 2.01542v16h-32v-16l1.3436-2.01541a39.63321 39.63321 0 0 0 6.6564-21.98459 39.63321 39.63321 0 0 0 -6.6564-21.98458l-1.3436-2.01542v-16h32v16l-1.3436 2.01541a39.63321 39.63321 0 0 0 -6.6564 21.98459z"/><path d="m472 128v16h-8v24h-16v-24h-8v-16h8v-32h16v32z"/></g><path d="m472 128v16h-8v24h-16v-8h8v-64h8v32z" fill="#f7c733"/><path d="m472 336h24v80h-24z" fill="#f7e5a3"/><path d="m16 336h24v80h-24z" fill="#f7e5a3"/><path d="m256 352a54.62737 54.62737 0 0 0 -16 38.62737v25.37263h32v-25.37261a54.62737 54.62737 0 0 0 -16-38.62739z" fill="#b67d4d"/><path d="m208 384h16v32h-16z" fill="#b67d4d"/><path d="m288 384h16v32h-16z" fill="#b67d4d"/><path d="m312 216h16v40h-16z" fill="#f7c733"/><path d="m320 216h8v40h-8z" fill="#f18f04"/><path d="m337.25 277.5-1.25 2.5h-32l-1.25-2.5a26.4603 26.4603 0 0 1 17.25-37.5 26.4603 26.4603 0 0 1 17.25 37.5z" fill="#f7c733"/><path d="m337.25 277.5-1.25 2.5h-8l4.68994-9.37a21.94129 21.94129 0 0 0 -12.68994-30.63 26.4603 26.4603 0 0 1 17.25 37.5z" fill="#f18f04"/><path d="m304 280h32v40h-32z" fill="#f7c733"/><path d="m336 280v40h-8v-32h-24v-8z" fill="#f18f04"/><path d="m184 216h16v40h-16z" fill="#f7c733"/><path d="m192 216h8v40h-8z" fill="#f18f04"/><path d="m209.25 277.5-1.25 2.5h-32l-1.25-2.5a26.4603 26.4603 0 0 1 17.25-37.5 26.4603 26.4603 0 0 1 17.25 37.5z" fill="#f7c733"/><path d="m209.25 277.5-1.25 2.5h-8l4.68994-9.37a21.94129 21.94129 0 0 0 -12.68994-30.63 26.4603 26.4603 0 0 1 17.25 37.5z" fill="#f18f04"/><path d="m176 280h32v40h-32z" fill="#f7c733"/><path d="m208 280v40h-8v-32h-24v-8z" fill="#f18f04"/><path d="m328 304h32v112h-32z" fill="#f7e5a3" transform="matrix(-1 0 0 -1 688 720)"/><path d="m152 304h32v112h-32z" fill="#f7e5a3"/><path d="m376 384h16v32h-16z" fill="#b67d4d"/><path d="m408 384h16v32h-16z" fill="#b67d4d"/><path d="m88 384h16v32h-16z" fill="#b67d4d"/><path d="m120 384h16v32h-16z" fill="#b67d4d"/><path d="m72 128v16h-8v24h-16v-8h8v-64h8v32z" fill="#f7c733"/><path d="m240 216h8v8h-8z" fill="#f18f04"/><path d="m184 320h8v96h-8z" fill="#f18f04"/><path d="m320 320h8v96h-8z" fill="#f18f04"/><path d="m96 312v8h24v8h-24v8h32v-24z" fill="#f7c733"/><path d="m384 312v8h24v8h-24v8h32v-24z" fill="#f7c733"/><path d="m72 336h8v80h-8z" fill="#f18f04"/><path d="m32 336h8v80h-8z" fill="#f18f04"/><path d="m432 336h8v80h-8z" fill="#f18f04"/><path d="m472 336h8v80h-8z" fill="#f18f04"/><path d="m360 336h8v80h-8z" fill="#f18f04"/><path d="m144 336h8v80h-8z" fill="#f18f04"/><path d="m40 248h32v8h-32z" fill="#f7c733"/><path d="m440 248h32v8h-32z" fill="#f7c733"/></g></svg>