<svg id="Capa_1" enable-background="new 0 0 512 512" height="512" viewBox="0 0 512 512" width="512" xmlns="http://www.w3.org/2000/svg"><g><path d="m512 121-30 16.199 30 13.801v180l-30 30v61l30 30v45c0 8.401-6.599 15-15 15h-226l-30-30h-120l-30 30h-76c-8.401 0-15-6.599-15-15v-45l30-30v-61l-30-30v-180l30-16.199-30-13.801v-106c0-8.401 6.599-15 15-15h482c8.401 0 15 6.599 15 15z" fill="#613d5c"/><path d="m512 121-30 16.199 30 13.801v180l-30 30v61l30 30v45c0 8.401-6.599 15-15 15h-226l-30-30h-60v-482h316c8.401 0 15 6.599 15 15z" fill="#4b2746"/><path d="m0 121h512v30h-512z" fill="#fed843"/><path d="m136 211h-60c-8.291 0-15-6.709-15-15s6.709-15 15-15h60c8.291 0 15 6.709 15 15s-6.709 15-15 15z" fill="#fed843"/><g fill="#fabe2c"><path d="m376 211h-120c-8.291 0-15-6.709-15-15s6.709-15 15-15h120c8.291 0 15 6.709 15 15s-6.709 15-15 15z"/><circle cx="436" cy="196" r="15"/><circle cx="196" cy="196" r="15"/><path d="m181 121h331v30h-331z"/></g><path d="m0 331h512v121h-512z" fill="#fff5f5"/><path d="m181 331h331v121h-331z" fill="#efe2dd"/><path d="m271 256v256h-180v-256c0-8.401 6.599-15 15-15h150c8.401 0 15 6.599 15 15z" fill="#fed843"/><path d="m271 256v256h-90v-271h75c8.401 0 15 6.599 15 15z" fill="#fabe2c"/></g></svg>