<?xml version="1.0" encoding="UTF-8"?> <svg xmlns="http://www.w3.org/2000/svg" xmlns:xlink="http://www.w3.org/1999/xlink" width="828.77" height="810" viewBox="0 0 828.77 810"><defs><linearGradient id="linear-gradient" x1="1" y1="0.5" x2="0" y2="0.5" gradientUnits="objectBoundingBox"><stop offset="0" stop-color="#9ddbe5"></stop><stop offset="1" stop-color="#6cb2c1"></stop></linearGradient><linearGradient id="linear-gradient-2" x1="2.581" y1="-2.757" x2="1.652" y2="-3.041" gradientUnits="objectBoundingBox"><stop offset="0" stop-color="#77a6ad"></stop><stop offset="0.832" stop-color="#a8c8cc"></stop></linearGradient><linearGradient id="linear-gradient-3" x1="11.702" y1="10.957" x2="11.597" y2="11.842" xlink:href="#linear-gradient-2"></linearGradient><linearGradient id="linear-gradient-4" x1="0.5" x2="0.5" y2="1.115" gradientUnits="objectBoundingBox"><stop offset="0.006" stop-color="#8cc0b4"></stop><stop offset="1" stop-color="#3d7e79"></stop></linearGradient><linearGradient id="linear-gradient-5" x1="0.5" y1="-0.25" x2="0.5" y2="1" xlink:href="#linear-gradient-4"></linearGradient><linearGradient id="linear-gradient-6" x1="0.5" y1="1.25" x2="0.5" gradientUnits="objectBoundingBox"><stop offset="0" stop-color="#f1f3bc"></stop><stop offset="0.279" stop-color="#c1e1bb"></stop><stop offset="0.994" stop-color="#6b9c6f"></stop></linearGradient><linearGradient id="linear-gradient-7" x1="12.479" y1="-3.078" x2="15.576" y2="-3.078" gradientUnits="objectBoundingBox"><stop offset="0.14" stop-color="#a2cced"></stop><stop offset="0.352" stop-color="#9ecaec"></stop><stop offset="0.534" stop-color="#94c6ea"></stop><stop offset="0.704" stop-color="#82bfe7"></stop><stop offset="0.868" stop-color="#69b5e3"></stop><stop offset="0.989" stop-color="#52acdf"></stop></linearGradient><linearGradient id="linear-gradient-8" x1="0.049" y1="-0.306" x2="0.049" y2="0.719" xlink:href="#linear-gradient-4"></linearGradient><linearGradient id="linear-gradient-9" x1="0.078" y1="-0.306" x2="0.078" y2="0.64" xlink:href="#linear-gradient-4"></linearGradient><linearGradient id="linear-gradient-10" x1="-1.439" y1="0.5" x2="-2.671" y2="0.5" xlink:href="#linear-gradient"></linearGradient><linearGradient id="linear-gradient-11" x1="-3.711" y1="-4.7" x2="-2.733" y2="-4.499" xlink:href="#linear-gradient-2"></linearGradient><linearGradient id="linear-gradient-12" x1="10.509" y1="21.049" x2="10.779" y2="19.96" xlink:href="#linear-gradient-2"></linearGradient><linearGradient id="linear-gradient-13" x1="0.5" y1="-0.25" x2="0.5" y2="1" xlink:href="#linear-gradient-6"></linearGradient><linearGradient id="linear-gradient-14" x1="24.186" y1="0.068" x2="24.442" y2="0.776" gradientUnits="objectBoundingBox"><stop offset="0.205" stop-color="#fbcfac"></stop><stop offset="1" stop-color="#f9b191"></stop></linearGradient><linearGradient id="linear-gradient-15" x1="0.362" y1="0.207" x2="0.869" y2="0.833" gradientUnits="objectBoundingBox"><stop offset="0" stop-color="#fbcfac"></stop><stop offset="1" stop-color="#f9b191"></stop></linearGradient><linearGradient id="linear-gradient-16" x1="0.5" y1="1.007" x2="0.5" y2="0" xlink:href="#linear-gradient-15"></linearGradient><linearGradient id="linear-gradient-17" x1="0.28" y1="0.439" x2="0.28" y2="-0.563" xlink:href="#linear-gradient-15"></linearGradient><linearGradient id="linear-gradient-18" x1="41.195" y1="0.359" x2="41.195" y2="-0.654" xlink:href="#linear-gradient-15"></linearGradient><linearGradient id="linear-gradient-20" x1="0" y1="0.5" x2="1" y2="0.5" xlink:href="#linear-gradient-15"></linearGradient><linearGradient id="linear-gradient-21" x1="0.5" y1="-0.007" x2="0.5" y2="1" xlink:href="#linear-gradient-15"></linearGradient><linearGradient id="linear-gradient-22" x1="-0.007" y1="0.5" x2="1" y2="0.5" gradientUnits="objectBoundingBox"><stop offset="0" stop-color="#97c6d5"></stop><stop offset="0.304" stop-color="#a2cedb"></stop><stop offset="1" stop-color="#b8e0e8"></stop></linearGradient><linearGradient id="linear-gradient-23" y1="0.5" x2="1" y2="0.5" gradientUnits="objectBoundingBox"><stop offset="0" stop-color="#d1f2f2"></stop><stop offset="1" stop-color="#bee5ed"></stop></linearGradient><linearGradient id="linear-gradient-24" x1="96.415" y1="0.5" x2="97.415" y2="0.5" gradientUnits="objectBoundingBox"><stop offset="0" stop-color="#abd8ac"></stop><stop offset="0.503" stop-color="#c9decf"></stop><stop offset="1" stop-color="#e3f3f1"></stop></linearGradient><linearGradient id="linear-gradient-25" x1="0" y1="0.5" x2="1" y2="0.5" xlink:href="#linear-gradient-24"></linearGradient><linearGradient id="linear-gradient-26" x1="12.251" y1="0.756" x2="11.596" y2="0.232" xlink:href="#linear-gradient-15"></linearGradient><linearGradient id="linear-gradient-27" x1="0.89" y1="0.921" x2="0.294" y2="0.288" xlink:href="#linear-gradient-15"></linearGradient></defs><g id="Quran-memorization" transform="translate(0 0)"><g id="Group_901" data-name="Group 901" transform="translate(0 0)"><path id="Path_69" data-name="Path 69" d="M1289.757,163.159S871.248,124.071,812.3,378.484s372.917,474.338,372.917,474.338,474.337,312.064,449.371-78.016S1289.757,163.159,1289.757,163.159Z" transform="translate(-806.77 -161)" fill="#ecf1ee" opacity="0.44"></path></g><g id="Group_900" data-name="Group 900" transform="translate(131.328 118.107)"><path id="Path_2047" data-name="Path 2047" d="M454.95,502.11c63.889-42.245,115.68-96.864,132.34-162.263,26.7-104.822-41.184-130.163-79.922-147.93s-74.471-46.978-83.006-91.4S393.411-7.768,328.779.776,135.508,49.3,66.921,230.239c-41.244,108.8-39.57,204.394-17.933,271.871Z" transform="translate(-27.703 0)" fill="#e2f0e6"></path><g id="Group_740" data-name="Group 740" transform="translate(0 182.196)"><g id="Group_733" data-name="Group 733" transform="translate(0 79.806)"><g id="Group_729" data-name="Group 729" transform="translate(291.717 20.435)"><path id="Path_2048" data-name="Path 2048" d="M440.547,345.77a7.726,7.726,0,0,0-4.588-5.413c-1.616-.638-11.175.14-15.607,1.794q-1.9.13-3.788.316a7.541,7.541,0,0,0,2.149-2.057c1.686-2.467,1.17-6.493-1.567-7.692a5.315,5.315,0,0,0-5.07.773,11.922,11.922,0,0,0-3.341,4.137,16.635,16.635,0,0,0-2.146,6.24q-5,.91-9.9,2.23a122.779,122.779,0,0,0-18.655,6.689,87.883,87.883,0,0,0-16.181,9.154c-5.254,3.887-9.914,8.727-12.528,14.8-.531,1.235,1.288,2.312,1.824,1.066,4.7-10.92,15.692-17.4,25.979-22.281q3.625-1.719,7.369-3.19a9.616,9.616,0,0,1,3.547,2.785c1.233,1.388,2.449,2.908,4.161,3.627s4.091.262,4.778-1.464c.74-1.861-.874-3.863-2.65-4.788a14.917,14.917,0,0,0-6.453-1.433,120.665,120.665,0,0,1,15.715-4.465l.092.089a43.213,43.213,0,0,0,3.3,7.131,9.286,9.286,0,0,0,6.222,4.413c2.6.338,5.526-1.317,5.947-3.907.517-3.169-2.589-5.736-5.558-6.963a25.232,25.232,0,0,0-5.683-1.6q3.19-.555,6.4-.938,2.653-.315,5.314-.512c2.691.846,5.193,2.935,7.666,4.819,2.68,2.042,5.627,3.958,8.526,3.757S441.335,349.5,440.547,345.77Z" transform="translate(-232.11 -190.677)" fill="url(#linear-gradient)"></path><g id="Group_727" data-name="Group 727" transform="translate(7.555)"><g id="Group_726" data-name="Group 726"><path id="Path_2049" data-name="Path 2049" d="M270.655,349.039s-26.27-71.267,27.359-113.28l16.034,14.311-8.707-19.293s9.125-10.868,30-7.791l3.185,13.214,2.346-12.31s6.9-3.779,20.872,5.018C361.746,228.906,324.348,253.862,270.655,349.039Z" transform="translate(-264.222 -222.436)" fill="url(#linear-gradient-2)"></path><path id="Path_2050" data-name="Path 2050" d="M270.787,347.409s73.329,5.466,99.334-57.5l-18.1-11.585,20.926,3.185s8.007-11.716-.581-30.99l-13.584.492,12.143-5.867s-.452-7.965-8.749-16.277C362.174,228.865,327.407,250.81,270.787,347.409Z" transform="translate(-262.325 -220.579)" fill="url(#linear-gradient-3)"></path></g></g><g id="Group_728" data-name="Group 728" transform="translate(45.391 67.019)"><path id="Path_2051" data-name="Path 2051" d="M376.956,287.62c-27.625,25.5-24.083,14.875-56.666,22.667s-26.208,75.791-26.208,75.791a18.359,18.359,0,0,0,4.567,6.059c1.114-1.482,2.221-2.971,3.213-4.536,3.959-6.243,7.7-12.618,11.909-18.7a124.085,124.085,0,0,1,12.074-15.037c.037-10.916,1.29-22.292,5.874-32.306a1.544,1.544,0,0,1,2.093-.549,1.576,1.576,0,0,1,.549,2.094c-3.912,8.547-5.174,18.253-5.412,27.647a162.668,162.668,0,0,1,17.48-14.048c9.141-6.6,18.635-12.7,28.323-18.472a1.632,1.632,0,0,1,.021-.556,69.554,69.554,0,0,1,4.564-13.044c1.972-4.645,4.115-9.217,6.06-13.874a1.57,1.57,0,0,1,1.883-1.069,1.539,1.539,0,0,1,1.068,1.882c-1.977,4.735-4.141,9.388-6.157,14.106a81.875,81.875,0,0,0-3.907,10.47q5.135-3,10.327-5.9a213.047,213.047,0,0,1,26.542-12.863c.026-1.374.052-2.955.052-4.806C415.2,279.119,404.581,262.12,376.956,287.62Z" transform="translate(-293.577 -274.434)" fill="url(#linear-gradient-4)"></path><path id="Path_2052" data-name="Path 2052" d="M419.9,307.24c-5.745-5.743-6.484-6.869-6.475-12.455q-1.549.619-3.079,1.271a262.465,262.465,0,0,0-27.318,14.032Q373.816,315.36,364.8,321c.442-.116.887-.227,1.331-.33,12.574-2.931,26.171-1.708,38.6,1.382,1.913.477,1.1,3.427-.813,2.952A100.5,100.5,0,0,0,394,323.065a82.246,82.246,0,0,0-18.934-.687c-15.017,1.331-18.026,3.988-19.154,4.4q-6.968,4.665-13.689,9.681A123.6,123.6,0,0,0,325,351.562a132.425,132.425,0,0,0-12.948,16.981c-1.976,3.01-3.882,6.066-5.774,9.128-1.768,2.86-3.466,5.764-5.457,8.477-.477.651-.962,1.3-1.446,1.945,8.687,5.765,24.088,8.117,48.984,11.23,34,4.249,39.666-20.542,40.375-36.834s17.708-18.416,32.583-27.625S427.7,315.031,419.9,307.24Z" transform="translate(-291.901 -268.554)" fill="url(#linear-gradient-5)"></path></g><path id="Path_2053" data-name="Path 2053" d="M298.554,362.333s-.61-20.743,14.642-20.134,17.083,25.625,17.083,25.625,10.981-35.385,25.014-28.064,1.83,32.334,1.83,32.334,26.234-23.183,30.506-11.591-9.762,27.453-9.762,27.453,15.253-13.421,21.963-1.219-15.862,20.742-15.862,20.742H283.912s-29.895-3.05-25.014-18.3,21.963-9.151,21.963-9.151-10.372-18.913-3.051-25.014S298.554,362.333,298.554,362.333Z" transform="translate(-258.36 -188.83)" fill="url(#linear-gradient-6)"></path></g><g id="Group_732" data-name="Group 732"><path id="Path_2054" data-name="Path 2054" d="M180.4,320.505a57.52,57.52,0,0,1-4.971-5.023,100.053,100.053,0,0,1-10.417-13.906,103.519,103.519,0,0,1-10.641-22.589,100.284,100.284,0,0,1-4.985-30.243,112.681,112.681,0,0,1,6.264-37.23q.845-2.482,1.789-4.93c.106-.276-2.693,16.571,2.6,27.821,5.421,11.529-5.305,21.36-5.305,21.36l-2.131,3.1a97.286,97.286,0,0,0,3.239,16.021,100.328,100.328,0,0,0,10,22.892,101.549,101.549,0,0,0,10.5,14.589c1.228,1.415,2.494,2.792,3.81,4.11.4.4.8.79,1.205,1.174.062.059.126.117.188.177l0,0,.24.217.082.073a1.473,1.473,0,0,1,.318,1.92A1.272,1.272,0,0,1,180.4,320.505Z" transform="translate(5.636 -206.581)" fill="url(#linear-gradient-7)"></path><g id="Group_730" data-name="Group 730" transform="translate(74.613 25.164)"><path id="Path_2055" data-name="Path 2055" d="M95.969,230.8a108.912,108.912,0,0,0,12.109,12.13c4.377,3.9,8.883,7.659,13.258,11.565,1.927,1.722,3.833,3.474,5.644,5.319a34.729,34.729,0,0,1,4.346,5.013c2.134,3.245,2.592,7.588,2.49,11.372-.092,3.434-.419,6.8.663,10.119a14.1,14.1,0,0,0,5.54,7.393c2.542,1.832,5.317,3.323,7.562,5.542a60.761,60.761,0,0,1,12.71,19.127c3.006,6.875,5.2,14.071,8.068,21,.728,1.757,1.48,3.511,2.238,5.266,5.474-10.752,13.774-31.5,2.922-42.109-15.05-14.706-21.4-10.253-18.507-32.017s-4.261-28.589-24.115-26.507-16.158-8.4-22.411-15.071c-2.9-3.092-9.641-3.663-15.133-1.652C94.16,228.5,95.047,229.668,95.969,230.8Z" transform="translate(-85.163 -226.105)" fill="url(#linear-gradient-8)"></path><path id="Path_2056" data-name="Path 2056" d="M164.144,334.064c-2.552-6.869-4.811-13.928-8.335-20.383a54.8,54.8,0,0,0-6.54-9.511,35.168,35.168,0,0,0-7.638-6.545c-2.647-1.731-5.232-3.573-7-6.258a19.742,19.742,0,0,1-3.061-10.427c-.053-3.568.523-7.164-.257-10.694a11.459,11.459,0,0,0-1.877-4.489q-.481-.63-1-1.232-.24-.284-.486-.562c-.064-.073-.33-.37-.344-.388a134.67,134.67,0,0,0-11.574-10.751c-4.55-3.936-9.142-7.83-13.5-11.982a70.06,70.06,0,0,1-10.855-12.38l-.031-.049c-4.3,2.963-6.53,8.147-2.659,15.6,9.017,17.359,20.026,12.8,18.4,27.359s-3.209,23.565,9.552,24.877,13.567,12.59,9.189,32.239S148.193,366.7,168.619,350.8c0,0,.575-.9,1.472-2.477C168.015,343.579,165.923,338.855,164.144,334.064Z" transform="translate(-86.998 -225.438)" fill="url(#linear-gradient-9)"></path></g><path id="Path_2057" data-name="Path 2057" d="M110.932,377.619a111.772,111.772,0,0,0-12.785-6.682,135.211,135.211,0,0,0-20.554-7.37q-5.4-1.454-10.91-2.458a18.346,18.346,0,0,0-2.364-6.874,13.15,13.15,0,0,0-3.681-4.56,5.855,5.855,0,0,0-5.587-.851c-3.016,1.32-3.584,5.756-1.727,8.474a8.293,8.293,0,0,0,2.368,2.266q-2.084-.2-4.173-.347c-4.884-1.822-15.416-2.681-17.2-1.977a8.515,8.515,0,0,0-5.055,5.965c-.867,4.106,2.016,7.62,5.21,7.842s6.442-1.889,9.395-4.139c2.726-2.076,5.482-4.378,8.447-5.31q2.933.218,5.854.563,3.54.421,7.058,1.035a27.886,27.886,0,0,0-6.263,1.759c-3.27,1.352-6.692,4.179-6.124,7.672.465,2.854,3.686,4.677,6.553,4.3s5.269-2.445,6.856-4.86a47.693,47.693,0,0,0,3.635-7.858l.1-.1A132.745,132.745,0,0,1,87.3,369.035a16.424,16.424,0,0,0-7.111,1.578c-1.957,1.021-3.735,3.226-2.919,5.277.757,1.9,3.379,2.406,5.265,1.614s3.225-2.467,4.583-4a10.611,10.611,0,0,1,3.908-3.069q4.12,1.62,8.12,3.515a113.36,113.36,0,0,1,10.463,5.559A16.44,16.44,0,0,1,110.932,377.619Z" transform="translate(-29.109 -165.599)" fill="url(#linear-gradient-10)"></path><g id="Group_731" data-name="Group 731" transform="translate(22.122 91.629)"><path id="Path_2058" data-name="Path 2058" d="M158.353,388.133s13.388-71.168-43.7-102.154l-12.8,16,5.123-19.52s-10.3-8.77-29.441-2.565l-.9,12.928-4.158-11.2s-7.088-2.458-18.826,8.029C53.655,289.648,92.773,307.176,158.353,388.133Z" transform="translate(-44.139 -277.672)" fill="url(#linear-gradient-11)"></path><path id="Path_2059" data-name="Path 2059" d="M158.613,385.519S90.544,402.293,56.1,347.222L71.286,333.46l-19.167,6.314s-9.387-9.744-4.372-29.227L60.6,308.856l-12.348-3.59s-.838-7.561,5.643-16.691C53.891,288.575,90.057,303.69,158.613,385.519Z" transform="translate(-46.272 -274.523)" fill="url(#linear-gradient-12)"></path></g><path id="Path_2060" data-name="Path 2060" d="M108.861,362.333s-.61-20.743,14.642-20.134,17.083,25.625,17.083,25.625,10.981-35.385,25.014-28.064,1.83,32.334,1.83,32.334,26.234-23.183,30.5-11.591-9.761,27.453-9.761,27.453,15.253-13.421,21.963-1.219-15.862,20.742-15.862,20.742H94.219s-29.895-3.05-25.014-18.3,21.963-9.151,21.963-9.151S80.8,361.113,88.118,355.012,108.861,362.333,108.861,362.333Z" transform="translate(-17.681 -168.395)" fill="url(#linear-gradient-13)"></path></g></g><path id="Path_2061" data-name="Path 2061" d="M140.513,414.409,375.58,407.7l90.643,118.968H74.646Z" transform="translate(-15.953 -68.674)" fill="#e2f0e6"></path><path id="Path_2062" data-name="Path 2062" d="M139.472,414.441l208.373-6.593L377,470.087l-37.775.236s42.408,11.935,19.467,21.65-92.2,16.423-110.2,24.075c0,0-53.429-12.248-86.49-17.528s-33.529-21.876,5.6-27.578l-47.1.709Z" transform="translate(-4.496 -68.63)" fill="none" stroke="#a8c4cc" stroke-miterlimit="10" stroke-width="0.346"></path><path id="Path_2063" data-name="Path 2063" d="M178.184,188.539l1.383.731.184-.949Z" transform="translate(12.519 -132.05)" fill="#e2e2e2"></path><path id="Path_2064" data-name="Path 2064" d="M254.385,188.537l-1.5.815-.026-1.037Z" transform="translate(33.371 -132.052)" fill="#e2e2e2"></path><g id="Group_739" data-name="Group 739" transform="translate(118.808 17.216)"><path id="Path_2065" data-name="Path 2065" d="M145.745,306.639s-23.794,64.669-10.981,74.431,38.435-17.083,43.316-67.11Z" transform="translate(-120.309 -115.085)" fill="url(#linear-gradient-14)"></path><path id="Path_2066" data-name="Path 2066" d="M226.6,242.108s-19.523-18.3-39.657-3.66-34.47,48.808-53.382,106.767c0,0,8.236,14.488,43.012,13.269,0,0,15.4-56.434,23.335-70.466S205.854,241.5,226.6,242.108Z" transform="translate(-119.563 -136.425)" fill="#cce3eb"></path><path id="Path_2067" data-name="Path 2067" d="M299.515,304.863s23.793,64.67,10.981,74.432-38.436-17.083-43.316-67.11Z" transform="translate(-80.96 -115.598)" fill="url(#linear-gradient-15)"></path><path id="Path_2068" data-name="Path 2068" d="M228.957,240.333s19.523-18.3,39.655-3.66S303.083,285.48,322,343.438c0,0-8.236,14.49-43.012,13.271,0,0-15.4-56.434-23.335-70.466S249.7,239.723,228.957,240.333Z" transform="translate(-92.003 -136.938)" fill="#cce3eb"></path><path id="Path_2069" data-name="Path 2069" d="M216.629,237.7s-35.995,3.662-42.706,41.487,0,122.018-3.66,128.73c0,0,16.472,26.234,65.89,21.353s64.061-24.4,64.061-24.4-.785-4.588-2-11.836c-4.185-25-13.47-81.626-13.255-90.66.61-25.623-6.711-62.84-45.757-66.5Z" transform="translate(-108.959 -135.529)" fill="#cce3eb"></path><path id="Path_2070" data-name="Path 2070" d="M203.656,234.2s-4.576,15.558,10.981,20.591,18.76-21.049,18.76-21.049Z" transform="translate(-99.493 -136.144)" fill="url(#linear-gradient-16)"></path><g id="Group_734" data-name="Group 734" transform="translate(68.896)"><path id="Path_2071" data-name="Path 2071" d="M271.5,223.59s9.761-35.385-6.711-51.248-44.536-18.913-61.619-7.321S175.109,188.2,179.99,219.929s19.523,30.5,19.523,30.5h57.349S270.893,244.332,271.5,223.59Z" transform="translate(-175.381 -158.02)" fill="#1e394c"></path><path id="Path_2072" data-name="Path 2072" d="M244.671,210.717s2.972-11.957,9.448-8.422,4.939,18.668-7.853,19.831Z" transform="translate(-156.359 -145.418)" fill="url(#linear-gradient-17)"></path><path id="Path_2073" data-name="Path 2073" d="M189.368,211.784s-3.434-11.832-9.767-8.048-4.211,18.845,8.616,19.511Z" transform="translate(-176.153 -145.029)" fill="url(#linear-gradient-18)"></path><path id="Path_2074" data-name="Path 2074" d="M202.638,168.757c-1.183.833-16.016,11.9-19.219,39.808s6.406,43.012,17.846,48.96,28.826,9.152,44.383.915,22.422-19.217,22.422-31.571,0-34.318-9.609-48.5S230.549,149.081,202.638,168.757Z" transform="translate(-174.234 -157.638)" fill="url(#linear-gradient-16)"></path></g><path id="Path_2075" data-name="Path 2075" d="M267.409,372.413s50.984-12.746,70.339-12.274,33.988,5.193,39.181,24.077-33.045,52.872-74.587,60.425-114.241,6.61-151.535-11.8-33.989-62.786-10.386-69.867,60.426,7.553,68.451,8.5S239.085,382.8,267.409,372.413Z" transform="translate(-122.7 -99.633)" fill="#1e394c"></path><path id="Path_2076" data-name="Path 2076" d="M263.24,411.222a51.032,51.032,0,0,0-2.2-7.159c27.479-7.3,61.58-23.741,50.849-21.665,0-27.643-54,13.675-74.725,6.451-46.775-16.312-107.758,2.052-78.99,24.141,1.2,7.15,14.769,9.586,20.894,9.574,9.549-.019,18.523,7.094,28.015,6.042,10.856-1.2,21.222,9.592,31.81,7.093C248.571,433.415,264.856,421.049,263.24,411.222Z" transform="translate(-114.594 -95.984)" fill="#0e2a3e"></path><g id="Group_735" data-name="Group 735" transform="translate(2.635 282.371)"><path id="Path_2077" data-name="Path 2077" d="M234.794,402.385s40.114,14.249,55.01,20.785c10.55,4.63,17.266,4.342,20.058,5.9,7.241,4.052,13.148,9.8,15.955,15.3s2,14.2-3.006,16.026-11.185,4.1-14.344.787-22.705-12.653-26.291-14.376-48.963-6.144-65.335-14.638S220.888,399.128,234.794,402.385Z" transform="translate(-99.891 -369.881)" fill="url(#linear-gradient-20)"></path><path id="Path_2078" data-name="Path 2078" d="M165.489,379.97s114.87,26.858,125.063,37.624c0,0,1.1,25.982-10.381,35.338,0,0-45.562-8.547-65.018-10.682-16.444-1.8-69.562-3.7-88.4-36.772C116.259,387.067,149.577,370.193,165.489,379.97Z" transform="translate(-124.744 -377.1)" fill="#1e394c"></path></g><path id="Path_2079" data-name="Path 2079" d="M233.151,407.38S195,426.277,180.988,434.53c-9.928,5.845-16.632,6.356-19.217,8.236-6.711,4.881-11.9,11.287-14.032,17.083s-.305,14.338,4.88,15.557,11.592,2.745,14.338-.915S188,459.239,191.359,457.1s47.891-11.9,63.144-22.268S246.573,402.5,233.151,407.38Z" transform="translate(-115.719 -86.183)" fill="url(#linear-gradient-21)"></path><path id="Path_2080" data-name="Path 2080" d="M310.465,376.734S199.581,417,190.734,428.9c0,0,1.984,25.929,14.49,33.861,0,0,44.232-13.88,63.3-18.3,16.115-3.738,68.635-11.907,83.43-46.976C360.188,377.955,325.108,365.142,310.465,376.734Z" transform="translate(-103.045 -96.107)" fill="#1e394c"></path><path id="Path_2081" data-name="Path 2081" d="M225.856,348.8s38.086-1.1,56.03,16.112c-4.028-24.9-6.957-36.62-6.957-36.62S230.983,330.491,225.856,348.8Z" transform="translate(-92.898 -108.829)" fill="#a8c4cc"></path><path id="Path_2082" data-name="Path 2082" d="M170.315,317.5s8.057,54.931,23.8,65.918c-24.169-3.3-23.071-6.593-23.071-6.593S168.484,339.1,170.315,317.5Z" transform="translate(-109.134 -111.949)" fill="#a8c4cc"></path><path id="Path_2083" data-name="Path 2083" d="M217.005,306.882s17.387-15.9,46.672-7.46c0,0-6.354,39.871-6.135,48.731,0,0-33.306-1.4-39,13.524Z" transform="translate(-95.455 -117.884)" fill="url(#linear-gradient-22)"></path><g id="Group_738" data-name="Group 738" transform="translate(73.505 180.624)"><g id="Group_736" data-name="Group 736"><path id="Path_2084" data-name="Path 2084" d="M229.252,308.166l-.865,10.343-39.256,35.1s-4.387-4.7-4.387-5.015c0-4.085-5.015-44.194-5.015-44.194S201.9,288.106,229.252,308.166Z" transform="translate(-179.729 -298.159)" fill="url(#linear-gradient-23)"></path><path id="Path_2085" data-name="Path 2085" d="M189.131,312.094l4.461,36.13-4.461,3.989s-4.387-4.7-4.387-5.015c0-4.085-5.015-44.194-5.015-44.194Z" transform="translate(-179.729 -296.759)" fill="url(#linear-gradient-24)"></path><path id="Path_2086" data-name="Path 2086" d="M228.083,312.916s-21.262-13.233-45.4-4.143l4.881,45.909s27.759.152,39.889,7.755Z" transform="translate(-178.874 -296.013)" fill="#134e5e"></path><path id="Path_2087" data-name="Path 2087" d="M194.777,335.126a7.017,7.017,0,0,0,4.4,5.578c1.427.5,2.864.735,3.922,1.911a4.931,4.931,0,0,1,1.231,3.936.5.5,0,0,0,.983.2A14.915,14.915,0,0,1,206.8,342.5a4.987,4.987,0,0,1,3.617-2.454c2.562-.568,3.389-2.763,3.568-5.172a27.787,27.787,0,0,0-.4-8.052,10.219,10.219,0,0,0-4.447-6.5c-1.882-1.258-4.792-2.744-5.373-5.1a5.265,5.265,0,0,0-.113-3.138.5.5,0,0,0-.945.335,4.633,4.633,0,0,1,.171.652.492.492,0,0,0-.093.2,4.423,4.423,0,0,0-.04,1.9,4.226,4.226,0,0,1-1.391,2.011,24.562,24.562,0,0,1-3.449,1.959,5.983,5.983,0,0,0-2.256,1.984,7.825,7.825,0,0,0-.745,3.778C194.719,328.227,194.139,331.826,194.777,335.126Zm.822-1.356a37.365,37.365,0,0,1,.1-5.263c.1-1.8.068-3.663.329-5.447.4-2.775,3.369-3.359,5.376-4.686a5.81,5.81,0,0,0,1.811-1.89,10.835,10.835,0,0,0,3.859,3.706,14.051,14.051,0,0,1,3.8,2.993,9.7,9.7,0,0,1,1.721,3.825,24.206,24.206,0,0,1,.3,8.611c-.2,1.371-.7,2.8-2.115,3.306-1.262.447-2.423.472-3.484,1.388a8.26,8.26,0,0,0-2.274,3.678,5.919,5.919,0,0,0-3.65-3.644c-1.518-.534-3.012-.8-4.106-2.084A7.889,7.889,0,0,1,195.6,333.771Z" transform="translate(-175.466 -294.231)" fill="#d1f2f2"></path><path id="Path_2088" data-name="Path 2088" d="M202.152,318.542a.173.173,0,0,0-.2.073,10.176,10.176,0,0,1-1.279,1.542,20.154,20.154,0,0,0-2.142,1.877c-.931,1.181-.766,2.635-.745,4.045q.031,2.069.081,4.136c.006.309,0,.33,0,.571a4.706,4.706,0,0,0,.237,1.482,4,4,0,0,0,1.526,2.06c.473.324.991.571,1.447.923a5.612,5.612,0,0,1,1.31,1.5.365.365,0,0,0,.423-.04,10.521,10.521,0,0,1,1.227-1.529,22.119,22.119,0,0,0,2.146-1.936c.914-1.195.729-2.645.69-4.055q-.06-2.067-.138-4.135c-.012-.308-.009-.329-.01-.571a4.653,4.653,0,0,0-.255-1.478,4.008,4.008,0,0,0-1.553-2.038c-.478-.318-1-.558-1.462-.9a4.915,4.915,0,0,1-1.177-1.445A.153.153,0,0,0,202.152,318.542Z" transform="translate(-174.518 -292.272)" fill="#77a6ad"></path></g><g id="Group_737" data-name="Group 737" transform="translate(48.045 0.205)"><path id="Path_2089" data-name="Path 2089" d="M217.005,307.289l.606,11.175,39.256,35.1s4.389-4.7,4.389-5.015c0-4.085,5.015-44.194,5.015-44.194S246.976,288.985,217.005,307.289Z" transform="translate(-217.005 -298.318)" fill="#d1f2f2"></path><path id="Path_2090" data-name="Path 2090" d="M248.932,312.094l-4.461,36.13,4.461,3.989s4.389-4.7,4.389-5.015c0-4.085,5.015-44.194,5.015-44.194Z" transform="translate(-209.07 -296.964)" fill="url(#linear-gradient-25)"></path><path id="Path_2091" data-name="Path 2091" d="M217.242,312.435s26.234-13.88,44.536-2.136L257.2,356.361s-28.216-.762-39.583,6.078Z" transform="translate(-216.937 -296.22)" fill="#134e5e"></path><path id="Path_2092" data-name="Path 2092" d="M244.453,324.9a7.811,7.811,0,0,0-.746-3.778,5.97,5.97,0,0,0-2.254-1.984A24.489,24.489,0,0,1,238,317.179a4.237,4.237,0,0,1-1.392-2.011,4.441,4.441,0,0,0-.039-1.9.509.509,0,0,0-.093-.2,4.469,4.469,0,0,1,.171-.652.5.5,0,0,0-.945-.335,5.255,5.255,0,0,0-.113,3.138c-.581,2.359-3.492,3.845-5.375,5.1a10.228,10.228,0,0,0-4.447,6.5,27.785,27.785,0,0,0-.4,8.052c.178,2.409,1.005,4.6,3.566,5.172a4.989,4.989,0,0,1,3.618,2.454,14.955,14.955,0,0,1,1.491,4.247.5.5,0,0,0,.983-.2,4.931,4.931,0,0,1,1.231-3.936c1.058-1.177,2.5-1.41,3.922-1.911a7.019,7.019,0,0,0,4.4-5.578C245.214,331.826,244.634,328.227,244.453,324.9Zm-2.372,13.366c-1.1,1.286-2.589,1.551-4.108,2.084a5.92,5.92,0,0,0-3.649,3.644,8.262,8.262,0,0,0-2.275-3.678c-1.059-.916-2.221-.941-3.483-1.388-1.418-.5-1.911-1.935-2.115-3.306a24.235,24.235,0,0,1,.3-8.611,9.719,9.719,0,0,1,1.722-3.825,14.064,14.064,0,0,1,3.8-2.993,10.825,10.825,0,0,0,3.859-3.706,5.81,5.81,0,0,0,1.811,1.89c2.007,1.328,4.974,1.911,5.377,4.686.259,1.784.231,3.648.329,5.447a37.364,37.364,0,0,1,.1,5.263A7.878,7.878,0,0,1,242.082,338.265Z" transform="translate(-214.622 -294.436)" fill="#d1f2f2"></path></g><path id="Path_2093" data-name="Path 2093" d="M234.806,319.4a.171.171,0,0,0-.2.059,10.284,10.284,0,0,1-1.387,1.445,20.019,20.019,0,0,0-2.274,1.717c-1.013,1.11-.954,2.573-1.035,3.98q-.12,2.065-.219,4.131c-.015.308-.022.329-.041.57a4.676,4.676,0,0,0,.129,1.5,4,4,0,0,0,1.373,2.164c.449.358.947.642,1.378,1.026a5.6,5.6,0,0,1,1.2,1.592.168.168,0,0,0,.256.059.171.171,0,0,0,.169-.07,10.657,10.657,0,0,1,1.334-1.436,22.122,22.122,0,0,0,2.281-1.776c1-1.124.919-2.584.981-3.993q.091-2.067.161-4.133c.012-.309.017-.33.032-.571a4.66,4.66,0,0,0-.148-1.493,4,4,0,0,0-1.4-2.146c-.454-.352-.956-.628-1.392-1.005a4.933,4.933,0,0,1-1.069-1.526A.154.154,0,0,0,234.806,319.4Z" transform="translate(-165.311 -292.025)" fill="#77a6ad"></path></g><path id="Path_2094" data-name="Path 2094" d="M187.1,330.768a72.259,72.259,0,0,1,0-11.333,15.534,15.534,0,0,1,2.011-6.4s5.024-2.464,5.024,1.971-.5,6.406,3.517,11.826c2.089,2.818,9.547,6.9,15.576,6.9s8.543-5.42,10.05-3.449,4.523,2.957,1.508,7.391-11.557,12.319-18.09,9.855-8.542-3.449-8.542-3.449-10.109,13.729-34.169,34.491c-12.562,10.841-30.991,3.871-32.158-3.449C129.311,359.346,162.065,336.631,187.1,330.768Z" transform="translate(-120.103 -113.436)" fill="url(#linear-gradient-26)"></path><path id="Path_2095" data-name="Path 2095" d="M268.761,328.993a72.441,72.441,0,0,0,0-11.333,15.534,15.534,0,0,0-2.011-6.4s-5.024-2.464-5.024,1.971.5,6.406-3.517,11.826c-2.091,2.818-9.547,6.9-15.576,6.9s-8.543-5.42-10.05-3.449-4.523,2.957-1.508,7.391,11.558,12.318,18.09,9.855,8.541-3.449,8.541-3.449,10.109,13.729,34.169,34.491c12.562,10.841,30.991,3.871,32.158-3.449C326.545,357.571,293.792,334.856,268.761,328.993Z" transform="translate(-91.763 -113.949)" fill="url(#linear-gradient-27)"></path></g><path id="Path_2096" data-name="Path 2096" d="M178.2,188.093q-.019.769-.019,1.545c.13.17,25.706-3.56,50.892-3.605a342.974,342.974,0,0,1,46.881,3.605q0-.619-.012-1.236-21.012-2.66-42.656-3.889C217.548,184.792,198.491,186.228,178.2,188.093Z" transform="translate(12.178 -133.15)" fill="#e2e2e2"></path><path id="Path_2097" data-name="Path 2097" d="M178.2,200.375c0-30.768,21.888-55.712,48.887-55.712s48.887,24.944,48.887,55.712a342.974,342.974,0,0,0-46.881-3.605C203.9,196.816,178.329,200.546,178.2,200.375Z" transform="translate(12.183 -144.663)" fill="#fff"></path></g><path id="Path_2098" data-name="Path 2098" d="M180.339,269.194s-2.564,34.058-9.888,61.89l.366,13.183A318.81,318.81,0,0,0,180.339,269.194Z" transform="translate(10.499 75.173)" fill="#a8c4cc"></path><path id="Path_2099" data-name="Path 2099" d="M254.553,264.648s5.127,43.213,9.155,54.565c1.1,12.452,2.564,18.311,2.564,18.311S256.383,329.468,254.553,264.648Z" transform="translate(34.06 73.914)" fill="#a8c4cc"></path><g id="Group_746" data-name="Group 746" transform="translate(354.99 302.577)"><ellipse id="Ellipse_228" data-name="Ellipse 228" cx="56.396" cy="4.028" rx="56.396" ry="4.028" transform="translate(59.038 253.246)" fill="#c8d6c4" opacity="0.43"></ellipse><g id="Group_745" data-name="Group 745" transform="translate(41 49)"><g id="Group_741" data-name="Group 741" transform="translate(0 18.271)"><path id="Path_2100" data-name="Path 2100" d="M354.322,370.415s-29.583-14.674-21.536-36.92,13.017-23.194-2.366-35.736-37.631-44.021-9.467-46.387S347.7,286.4,371.125,291.6,407.335,394.79,354.322,370.415Z" transform="translate(-307.451 -251.264)" fill="#71b180"></path><path id="Path_2101" data-name="Path 2101" d="M377.606,372.618c-5.681,2.635-13.321,2.377-23.284-2.2,0,0-29.583-14.674-21.536-36.92s13.017-23.194-2.366-35.736-37.631-44.021-9.467-46.387a25.868,25.868,0,0,1,7.508.4c-7.925,3.293-15.811,9.824-5.62,21.91,16.967,20.125,26.043,27.228,24.07,40.25C344.986,326.63,346.081,355.459,377.606,372.618Z" transform="translate(-307.451 -251.263)" fill="#33648a" opacity="0.25"></path></g><g id="Group_742" data-name="Group 742" transform="translate(69.006 49.368)"><path id="Path_2102" data-name="Path 2102" d="M389.027,362.734s26.034-.947,24.614-19.644-2.143-19.429,14.2-25.323c28.874-10.413,6.015-65.87-17.513-31-16.33,24.2-23.43,18.756-34.08,20.649S342.4,371.017,389.027,362.734Z" transform="translate(-360.99 -275.391)" fill="#71b180"></path><path id="Path_2103" data-name="Path 2103" d="M374.926,307.413c10.65-1.893,17.749,3.55,34.08-20.649,12.315-18.251,24.432-11.743,29.058.088-6.928-2.122-17.452-3.4-18.762,7.878-1.7,14.629-35.923,38.646-35.224,68.5-.455.049-.893.081-1.334.115-4.979-13.131-11.551-30.163-17.176-44.674C368.577,312.417,372.169,307.9,374.926,307.413Z" transform="translate(-359.667 -275.39)" fill="#33648a" opacity="0.29"></path></g><g id="Group_743" data-name="Group 743" transform="translate(38.721)"><path id="Path_2104" data-name="Path 2104" d="M389.781,372.971s32.3-31.595,21.3-36.92-32.661,12.071-20.59-6.745,26.125-48.122,9.44-43.507-17.894,9.685-15.83-12.228c2.671-28.345-13.134-42.955-28.044-33.725s12.779,71.71,2.485,64.965-18.815-12.425-20.946-4.26,29.474,40.223,17.751,34.79c-14.556-6.745-16.685,5.324-12.07,12.779S367.062,399.952,389.781,372.971Z" transform="translate(-337.493 -237.088)" fill="#134e5e"></path><path id="Path_2105" data-name="Path 2105" d="M343.276,348.116c-4.614-7.455-2.485-19.524,12.07-12.779,11.724,5.433-19.88-26.626-17.751-34.79s10.65-2.485,20.946,4.26-17.4-55.736-2.485-64.965c6.933-4.292,14.037-3.374,19.411,1.629-7.718,1.888-13.9,8.1-9.614,24.86,9.075,35.514,14.6,65.109-1.973,56.428-15.611-8.178,18.131,29.507,18.474,56.665C362.982,390.494,347.379,354.742,343.276,348.116Z" transform="translate(-337.493 -237.083)" fill="#1e394c" opacity="0.48"></path></g><g id="Group_744" data-name="Group 744" transform="translate(36.997 133.817)"><path id="Path_2106" data-name="Path 2106" d="M412.536,346.683l-6.251,56.606A13.967,13.967,0,0,1,392.4,415.721H356.32a13.966,13.966,0,0,1-13.88-12.433l-6.252-56.606a5.2,5.2,0,0,1,5.17-5.772h66.009A5.2,5.2,0,0,1,412.536,346.683Z" transform="translate(-336.155 -340.911)" fill="#cce3eb"></path><path id="Path_2107" data-name="Path 2107" d="M341.357,340.911h22.887a5.2,5.2,0,0,0-5.17,5.772l6.252,56.606a13.965,13.965,0,0,0,13.88,12.431H356.32a13.965,13.965,0,0,1-13.88-12.431l-6.252-56.606A5.2,5.2,0,0,1,341.357,340.911Z" transform="translate(-336.155 -340.911)" fill="#a8c4cc"></path></g></g></g></g></g></svg> 