<?xml version="1.0" encoding="utf-8"?>
<!-- Svg Vector Icons : http://www.onlinewebfonts.com/icon -->
<!DOCTYPE svg PUBLIC "-//W3C//DTD SVG 1.1//EN" "http://www.w3.org/Graphics/SVG/1.1/DTD/svg11.dtd">
<svg version="1.1" xmlns="http://www.w3.org/2000/svg" xmlns:xlink="http://www.w3.org/1999/xlink" x="0px" y="0px" viewBox="0 0 1000 1000" enable-background="new 0 0 1000 1000" xml:space="preserve">
<metadata> Svg Vector Icons : http://www.onlinewebfonts.com/icon </metadata>
<g><path d="M325.1,10c-25.1,21.6-45.9,45.5-62.3,71.7c-16.4,26.2-29.7,54.4-39.8,84.8c-10.1,30.4-17.3,62.1-21.5,95.3c-4.2,33.2-6.3,67.5-6.3,103.1c0,57.9,11.2,113.1,33.5,165.4c22.3,52.4,52.9,98.2,91.6,137.7c38.7,39.4,84.5,70.8,137.2,94.2c52.7,23.4,109.4,35.1,170.1,35.1c35.6,0,70.3-1.7,104.2-5.2c33.9-3.5,66.3-9.8,97.4-18.8c31.1-9.1,60.2-21.5,87.4-37.2c27.2-15.7,51.7-36.1,73.3-61.3c-18.8,46.1-44.2,88.5-75.9,127.2c-31.8,38.7-68.1,72.1-108.9,100c-40.8,27.9-85.5,49.6-134,64.9c-48.5,15.4-99.3,23-152.3,23c-70.5,0-136.6-13.3-198.4-39.8s-115.7-62.8-161.8-108.9c-46.1-46.1-82.4-100-108.9-161.8C23.3,617.8,10,551.7,10,481.2c0-53,7.7-103.8,23-152.3s37-93.2,64.9-134c27.9-40.8,61.3-77.1,100-108.9C236.7,54.1,279.1,28.8,325.1,10L325.1,10z"/></g>
</svg>