<?xml version="1.0" encoding="UTF-8"?>
<svg xmlns="http://www.w3.org/2000/svg" xmlns:xlink="http://www.w3.org/1999/xlink" width="512" height="512" viewBox="0 0 58 59" version="1.1"><!-- Generator: Sketch 51.3 (57544) - http://www.bohemiancoding.com/sketch --><title>002 - Mosque</title><desc>Created with Sketch.</desc><defs/><g id="Page-1" stroke="none" stroke-width="1" fill="none" fill-rule="evenodd"><g id="002---Mosque" transform="translate(0.000000, -1.000000)" fill-rule="nonzero"><rect id="Rectangle-path" fill="#F9EAB0" x="18" y="30" width="22" height="30"/><rect id="Rectangle-path" fill="#F5EFCA" x="18" y="32" width="22" height="28"/><rect id="Rectangle-path" fill="#F9EAB0" x="3" y="11" width="6" height="25"/><rect id="Rectangle-path" fill="#F5EFCA" x="3" y="13" width="6" height="23"/><path d="M39.6,30 L18.4,30 C18.4,30 14.18,27.88 15.14,21.99 C16.77,11.97 29,13.97 29,7.96 C29,13.97 41.23,11.97 42.86,21.99 C43.82,27.88 39.6,30 39.6,30 Z" id="Shape" fill="#2FA8CC"/><path d="M9.7847,11 C10.8027423,10.2477579 11.2632901,8.9535498 10.9493,7.7273 C10.367,3.6364 6,4.4549 6,2 C6,4.4549 1.632,3.6364 1.05,7.7273 C0.735944993,8.95348757 1.19636909,10.2476815 2.2143,11 L9.7847,11 Z" id="Shape" fill="#2FA8CC"/><rect id="Rectangle-path" fill="#F9EAB0" x="49.001" y="11" width="6" height="25"/><rect id="Rectangle-path" fill="#F5EFCA" x="49.001" y="13" width="6" height="23"/><path d="M55.7857,11 C56.8036309,10.2476815 57.264055,8.95348757 56.95,7.7273 C56.3677,3.6364 52,4.4549 52,2 C52,4.4549 47.6325,3.6364 47.05,7.7273 C46.7361613,8.95369501 47.1969977,10.2479362 48.2153,11 L55.7857,11 Z" id="Shape" fill="#2FA8CC"/><path d="M1,36 L18,36 L18,60 L1,60 C0.44771525,60 0,59.5522847 0,59 L0,37 C-1.11022302e-16,36.4477153 0.44771525,36 1,36 Z" id="Shape" fill="#F9EAB0"/><path d="M40,36 L57,36 C57.5522847,36 58,36.4477153 58,37 L58,59 C58,59.5522847 57.5522847,60 57,60 L40,60 L40,36 Z" id="Shape" fill="#F9EAB0"/><path d="M31.81,37.3677 L29,34.96 L26.1905,37.3681 C23.5308511,39.6478008 22.0001098,42.9758344 22,46.4788 L22,60 L36,60 L36,46.4788 C36.0001321,42.975775 34.4695689,39.6475854 31.81,37.3677 Z" id="Shape" fill="#FAC176"/><path d="M26,60 L26,51 C26.0074747,48.7244873 27.0321827,46.5715551 28.7935,45.1308 L29,44.96 L29.2065,45.1312 C30.9677094,46.5718662 31.9924059,48.7246275 32,51 L32,60 L26,60 Z" id="Shape" fill="#F18D46"/><path d="M10.9976,41.598 L9,40 L7.0024,41.598 C5.10467942,43.1161962 3.99997533,45.4147195 4,47.845 L4,60 L14,60 L14,47.845 C14.0000247,45.4147195 12.8953206,43.1161962 10.9976,41.598 Z" id="Shape" fill="#FAC176"/><path d="M10.1985,44.3583 L9,43 L7.8015,44.3583 C6.59002921,45.8584702 5.951491,47.740554 6,49.6682 L6,60 L12,60 L12,49.6682 C12.048509,47.740554 11.4099708,45.8584702 10.1985,44.3583 Z" id="Shape" fill="#F18D46"/><path d="M50.9976,41.598 L49,40 L47.0024,41.598 C45.1046794,43.1161962 43.9999753,45.4147195 44,47.845 L44,60 L54,60 L54,47.845 C54.0000247,45.4147195 52.8953206,43.1161962 50.9976,41.598 Z" id="Shape" fill="#FAC176"/><path d="M50.1985,44.3583 L49,43 L47.8015,44.3583 C46.5900292,45.8584702 45.951491,47.740554 46,49.6682 L46,60 L52,60 L52,49.6682 C52.048509,47.740554 51.4099708,45.8584702 50.1985,44.3583 Z" id="Shape" fill="#F18D46"/><path d="M30,17.96 L30,30 L28,30 L28,17.96 C28,17.4077153 28.4477153,16.96 29,16.96 C29.5522847,16.96 30,17.4077153 30,17.96 Z" id="Shape" fill="#4482C3"/><path d="M24,30 L21.75,30 C19.5160242,26.9249028 19.2664284,22.8338703 21.11,19.51 C21.2701973,19.1910236 21.5886537,18.9819846 21.9450309,18.9618745 C22.3014081,18.9417645 22.6413598,19.1136501 22.836425,19.4125794 C23.0314902,19.7115086 23.0519221,20.0918957 22.89,20.41 C20.25,25.7 23.67,29.22 23.71,29.25 C23.9081683,29.4478776 24.0134967,29.7202786 24,30 Z" id="Shape" fill="#4482C3"/><path d="M36.25,30 L34,30 C33.9865033,29.7202786 34.0918317,29.4478776 34.29,29.25 C34.45,29.1 37.72,25.64 35.11,20.41 C34.9480779,20.0918957 34.9685098,19.7115086 35.163575,19.4125794 C35.3586402,19.1136501 35.6985919,18.9417645 36.0549691,18.9618745 C36.4113463,18.9819846 36.7298027,19.1910236 36.89,19.51 C38.7335716,22.8338703 38.4839758,26.9249028 36.25,30 Z" id="Shape" fill="#4482C3"/><path d="M29,9 C26.7195225,8.99898632 24.7281394,7.45635115 24.1572,5.2485 C24.0682409,4.90239896 24.1706819,4.53512928 24.4259347,4.28503789 C24.6811874,4.0349465 25.0504728,3.94002824 25.3946847,4.03603789 C25.7388965,4.13204754 26.0057409,4.40439896 26.0947,4.7505 C26.3884162,5.88109026 27.3116798,6.73838774 28.460904,6.94764152 C29.6101283,7.1568953 30.776316,6.68005063 31.4496908,5.72555086 C32.1230657,4.7710511 32.1811682,3.512481 31.5986,2.5 C31.3219053,2.02188709 31.4851871,1.40999466 31.9633,1.1333 C32.4414129,0.85660534 33.0533053,1.01988709 33.33,1.498 C34.2231767,3.04523346 34.2232439,4.95139875 33.3301762,6.49869517 C32.4371086,8.04599158 30.7865318,8.99943911 29,9 Z" id="Shape" fill="#FAC176"/></g></g></svg>
