<svg id="Capa_1" enable-background="new 0 0 512 512" height="512" viewBox="0 0 512 512" width="512" xmlns="http://www.w3.org/2000/svg"><g><path d="m139.289 217.039h233.421v53.373h-233.421z" fill="#aca6d6" transform="matrix(-1 0 0 -1 512 487.452)"/><path d="m351.764 217.039h20.947v53.373h-20.947z" fill="#978ecb"/><path d="m60.454 70.057c-4.142 0-7.5-3.358-7.5-7.5v-38.111c0-4.142 3.358-7.5 7.5-7.5s7.5 3.358 7.5 7.5v38.111c0 4.142-3.358 7.5-7.5 7.5z" fill="#f5fcff"/><path d="m89.36 219.81-1.99 7.5 1.99 7.5v93.28l-20.95 4.75-10.79 2.45-26.07-7.2v-208.5l28.9-4.66 7.96 1.28 20.95 3.38z" fill="#c8effe"/><path d="m89.36 119.59-20.95-3.38v173.228c0 2.575-2.087 4.662-4.662 4.662h-6.168c-7.85 0-14.22 6.37-14.22 14.23v19.76l14.259 7.2 31.74-7.2v-33.99-59.29l-1.99-7.5 1.99-7.5v-100.22z" fill="#99e6fc"/><path d="m38.294 72.732 14.943-16.068c3.898-4.191 10.535-4.191 14.433 0l14.943 16.068c4.336 4.662 6.746 10.793 6.746 17.159v29.7h-57.81v-29.7c-.001-6.366 2.41-12.497 6.745-17.159z" fill="#fec165"/><path d="m82.613 72.732-14.943-16.067c-3.898-4.191-10.535-4.191-14.433 0l-3.257 3.502 11.686 12.566c4.336 4.662 6.746 10.792 6.746 17.159v29.7h20.947v-29.7c-.001-6.367-2.411-12.498-6.746-17.16z" fill="#fdb441"/><path d="m15.377 495.054h48.931l7.954-84.766-7.954-82.196h-48.931c-4.35 0-7.877 3.526-7.877 7.877v151.209c0 4.35 3.526 7.876 7.877 7.876z" fill="#f5fcff"/><path d="m43.361 328.092v166.962h20.947l7.954-84.766-7.954-82.196z" fill="#ddf4fe"/><path d="m89.36 219.81v15h-81.86c-4.14 0-7.5-3.36-7.5-7.5s3.36-7.5 7.5-7.5z" fill="#f5fcff"/><path d="m68.41 219.81h20.95v15h-20.95z" fill="#ddf4fe"/><path d="m60.454 190.299c-4.142 0-7.5-3.358-7.5-7.5v-11.78c0-4.142 3.358-7.5 7.5-7.5s7.5 3.358 7.5 7.5v11.78c0 4.142-3.358 7.5-7.5 7.5z" fill="#f5fcff"/><path d="m256 70.057c-4.142 0-7.5-3.358-7.5-7.5v-38.111c0-4.142 3.358-7.5 7.5-7.5s7.5 3.358 7.5 7.5v38.111c0 4.142-3.358 7.5-7.5 7.5z" fill="#f5fcff"/><path d="m451.546 70.057c-4.142 0-7.5-3.358-7.5-7.5v-38.111c0-4.142 3.358-7.5 7.5-7.5s7.5 3.358 7.5 7.5v38.111c0 4.142-3.358 7.5-7.5 7.5z" fill="#f5fcff"/><path d="m133.176 260.139h245.649c5.553 0 10.055 4.502 10.055 10.055v57.898l-132.88 8.704-132.88-8.704v-57.898c0-5.553 4.502-10.055 10.056-10.055z" fill="#c8effe"/><path d="m378.824 260.139h-20.947c5.553 0 10.055 4.502 10.055 10.055v57.898l3.174 1.164 17.773-1.164v-57.898c.001-5.553-4.501-10.055-10.055-10.055z" fill="#99e6fc"/><path d="m203.219 74.741 48.448-23.715c2.733-1.338 5.932-1.338 8.665 0l48.448 23.715c49.02 23.996 80.099 73.811 80.099 128.389v14.049c0 5.596-4.537 10.133-10.133 10.133h-245.492c-5.596 0-10.133-4.537-10.133-10.133v-14.049c-.001-54.578 31.078-104.393 80.098-128.389z" fill="#fec165"/><path d="m308.78 74.741-48.448-23.715c-2.733-1.338-5.932-1.338-8.665 0l-6.141 3.006 42.307 20.709c49.021 23.996 80.099 73.811 80.099 128.389v14.049c0 5.596-4.537 10.133-10.133 10.133h20.947c5.596 0 10.133-4.537 10.133-10.133v-14.049c.001-54.578-31.078-104.393-80.099-128.389z" fill="#fdb441"/><path d="m480.45 119.59v208.5l-20.95 5.36-7.95 2.04-28.91-7.4v-93.28l4.25-7.5-4.25-7.5v-100.22l28.91-8.42 7.95 2.32z" fill="#c8effe"/><path d="m480.45 119.59v208.5l-20.95 5.36v-219.96z" fill="#99e6fc"/><path d="m473.706 72.732-14.943-16.068c-3.898-4.191-10.535-4.191-14.433 0l-14.943 16.068c-4.336 4.662-6.746 10.793-6.746 17.159v29.7h57.81v-29.7c.001-6.366-2.41-12.497-6.745-17.159z" fill="#fec165"/><path d="m473.706 72.732-14.943-16.068c-3.898-4.191-10.535-4.191-14.433 0l-3.257 3.502 11.686 12.565c4.336 4.662 6.746 10.793 6.746 17.159v29.7h20.947v-29.7c0-6.365-2.411-12.496-6.746-17.158z" fill="#fdb441"/><path d="m265.26 495.054h231.364c4.35 0 7.877-3.526 7.877-7.877v-151.208c0-4.35-3.526-7.877-7.877-7.877h-231.364l-9.26 81.346z" fill="#f5fcff"/><path d="m496.623 328.092h-20.947c4.35 0 7.877 3.526 7.877 7.877v151.209c0 4.35-3.526 7.876-7.877 7.876h20.947c4.35 0 7.877-3.526 7.877-7.876v-151.209c0-4.35-3.526-7.877-7.877-7.877z" fill="#ddf4fe"/><path d="m350.923 445.737h-18.689c-6.816 0-12.342-5.526-12.342-12.342v-33.362c0-3.475 1.465-6.788 4.034-9.127l13.648-12.422c2.27-2.066 5.738-2.066 8.008 0l13.648 12.422c2.57 2.339 4.034 5.653 4.034 9.127v33.362c.001 6.816-5.524 12.342-12.341 12.342z" fill="#aca6d6"/><path d="m359.231 390.906-13.648-12.422c-2.27-2.066-5.738-2.066-8.008 0l-6.469 5.888 7.179 6.534c2.57 2.339 4.034 5.653 4.034 9.127v33.362c0 6.435-4.927 11.714-11.213 12.285.372.034.748.057 1.129.057h18.689c6.816 0 12.342-5.526 12.342-12.342v-33.362c-.001-3.474-1.465-6.788-4.035-9.127z" fill="#978ecb"/><path d="m436.017 445.737h-18.689c-6.816 0-12.342-5.526-12.342-12.342v-33.362c0-3.475 1.465-6.788 4.034-9.127l13.648-12.422c2.27-2.066 5.738-2.066 8.008 0l13.648 12.422c2.57 2.339 4.034 5.653 4.034 9.127v33.362c.001 6.816-5.525 12.342-12.341 12.342z" fill="#aca6d6"/><path d="m444.325 390.906-13.648-12.422c-2.27-2.066-5.738-2.066-8.008 0l-6.469 5.888 7.179 6.534c2.57 2.339 4.034 5.653 4.034 9.127v33.362c0 6.435-4.927 11.714-11.213 12.285.372.034.748.057 1.129.057h18.689c6.816 0 12.342-5.526 12.342-12.342v-33.362c-.001-3.474-1.466-6.788-4.035-9.127z" fill="#978ecb"/><path d="m512 227.31c0 4.14-3.36 7.5-7.5 7.5h-81.86v-15h81.86c4.14 0 7.5 3.36 7.5 7.5z" fill="#f5fcff"/><path d="m512 227.31c0 4.14-3.36 7.5-7.5 7.5h-45v-15h45c4.14 0 7.5 3.36 7.5 7.5z" fill="#ddf4fe"/><g fill="#f5fcff"><path d="m451.546 190.299c-4.142 0-7.5-3.358-7.5-7.5v-11.78c0-4.142 3.358-7.5 7.5-7.5s7.5 3.358 7.5 7.5v11.78c0 4.142-3.358 7.5-7.5 7.5z"/><path d="m451.546 291.092c-4.142 0-7.5-3.358-7.5-7.5v-11.779c0-4.142 3.358-7.5 7.5-7.5s7.5 3.358 7.5 7.5v11.779c0 4.142-3.358 7.5-7.5 7.5z"/><path d="m310.519 301.602h-16.316c-4.142 0-7.5-3.358-7.5-7.5s3.358-7.5 7.5-7.5h16.316c4.142 0 7.5 3.358 7.5 7.5s-3.358 7.5-7.5 7.5z"/><path d="m359.42 301.602h-16.316c-4.142 0-7.5-3.358-7.5-7.5s3.358-7.5 7.5-7.5h16.316c4.142 0 7.5 3.358 7.5 7.5s-3.358 7.5-7.5 7.5z"/><path d="m265.26 495.054h-53.62l-48.171-16.727-48.162 16.727h-51v-186.729c0-7.855 6.368-14.223 14.223-14.223h172.505c7.855 0 14.223 6.368 14.223 14.223v186.729z"/></g><path d="m251.036 294.102h-20.946c7.855 0 14.223 6.368 14.223 14.223v186.729h20.947v-186.729c0-7.855-6.368-14.223-14.224-14.223z" fill="#ddf4fe"/><path d="m211.64 495.054h-29.01l-19.157-6.404-19.166 6.404h-29v-96.332c0-8.775 3.961-17.08 10.78-22.603l31.971-25.894c3.157-2.557 7.672-2.557 10.83 0l31.971 25.894c6.819 5.523 10.78 13.828 10.78 22.603v96.332z" fill="#aca6d6"/><path d="m200.86 376.119-31.972-25.895c-3.157-2.557-7.673-2.557-10.83 0l-3.543 2.87 28.429 23.025c6.819 5.523 10.78 13.828 10.78 22.603v96.332h17.915v-96.332c.001-8.775-3.96-17.08-10.779-22.603z" fill="#978ecb"/><path d="m144.308 495.054v-91.974c0-2.757 1.244-5.367 3.385-7.103l11.168-9.058c2.697-2.187 6.556-2.188 9.254-.003l11.104 8.994c2.143 1.736 3.389 4.347 3.389 7.105l.022 92.039z" fill="#c8effe"/><path d="m179.219 395.91-11.104-8.994c-2.698-2.185-6.557-2.184-9.254.003l-4.326 3.509 6.769 5.483c2.143 1.736 3.389 4.347 3.389 7.105l.022 92.039h17.915l-.022-92.039c0-2.759-1.246-5.37-3.389-7.106z" fill="#99e6fc"/></g></svg>