<svg id="Layer_1" enable-background="new 0 0 512 512" height="512" viewBox="0 0 512 512" width="512" xmlns="http://www.w3.org/2000/svg"><g><path clip-rule="evenodd" d="m139.382 236h233.368v60h-233.368z" fill="#454040" fill-rule="evenodd"/><path clip-rule="evenodd" d="m256.066 236h116.684v60h-116.684z" fill="#2e2e2e" fill-rule="evenodd"/><path d="m120.132 221v90h271.868v-90zm30 60v-30h35v30zm65 0v-30h81.868v30zm146.868 0h-35v-30h35z" fill="#f6efea"/><path d="m256.066 221v30h40.934v30h-40.934v30h135.934v-90zm105.934 60h-35v-30h35z" fill="#eee1dc"/><g><path d="m75 161h-60c-4.777 0-9.27-2.276-12.096-6.128-2.825-3.853-3.646-8.821-2.211-13.378l30-95.25c1.967-6.245 7.759-10.494 14.307-10.494s12.34 4.248 14.307 10.494l30 95.25c1.436 4.557.614 9.525-2.211 13.378-2.826 3.852-7.319 6.128-12.096 6.128z" fill="#ffd321"/></g><path d="m437 281h-362c-8.284 0-15 6.716-15 15v201c0 8.284 6.716 15 15 15h114l67.066-54.531 66.934 54.531h114c8.284 0 15-6.716 15-15v-201c0-8.284-6.716-15-15-15z" fill="#fff4f4"/><path d="m437 281h-180.934v176.468l66.934 54.532h114c8.284 0 15-6.716 15-15v-201c0-8.284-6.716-15-15-15z" fill="#f6efea"/><g><path d="m75 512h-60c-8.284 0-15-6.716-15-15v-352.809h90v352.809c0 8.284-6.716 15-15 15z" fill="#f6efea"/></g><g><path d="m275.485 107.999c-27.019 0-49-21.981-49-49 0-2.896.26-5.812.772-8.665 1.465-8.153 9.267-13.571 17.416-12.111 8.154 1.465 13.576 9.263 12.111 17.416-.199 1.107-.3 2.237-.3 3.36 0 10.477 8.523 19 19 19 3.002 0 6-.724 8.669-2.093 7.371-3.781 16.411-.871 20.192 6.501 3.781 7.371.87 16.412-6.501 20.192-6.885 3.533-14.617 5.4-22.359 5.4z" fill="#ff9d21"/></g><path d="m304.347 82.407c-3.781-7.372-12.821-10.282-20.192-6.501-2.669 1.369-5.667 2.093-8.669 2.093-10.477 0-19-8.523-19-19 0-1.123.101-2.253.3-3.36.496-2.76.202-5.479-.719-7.925v56.271c5.957 2.581 12.524 4.014 19.419 4.014 7.741 0 15.474-1.867 22.36-5.399 7.371-3.781 10.282-12.822 6.501-20.193z" fill="#ff7d43"/><g><path d="m45 71.75c-8.284 0-15-6.716-15-15v-41.75c0-8.284 6.716-15 15-15s15 6.716 15 15v41.75c0 8.285-6.716 15-15 15z" fill="#ffd321"/></g><g><path d="m497 161h-60c-4.777 0-9.27-2.276-12.096-6.128-2.825-3.853-3.646-8.821-2.211-13.378l30-95.25c1.967-6.245 7.759-10.494 14.307-10.494s12.34 4.248 14.307 10.494l30 95.25c1.436 4.557.614 9.525-2.211 13.378-2.826 3.852-7.319 6.128-12.096 6.128z" fill="#ff9d21"/></g><g><path d="m497 512h-60c-8.284 0-15-6.716-15-15v-352.809h90v352.809c0 8.284-6.716 15-15 15z" fill="#eee1dc"/></g><g><path d="m467 71.75c-8.284 0-15-6.716-15-15v-41.75c0-8.284 6.716-15 15-15s15 6.716 15 15v41.75c0 8.285-6.716 15-15 15z" fill="#ff9d21"/></g><g><g><path d="m323 512h-134v-85.488c0-18.577 5.393-36.248 15.596-51.103 10.202-14.855 24.76-26.232 42.098-32.9l3.922-1.508c3.466-1.333 7.303-1.333 10.77 0l3.922 1.508c17.338 6.669 31.896 18.046 42.098 32.901 10.201 14.854 15.594 32.526 15.594 51.102z" fill="#454040"/></g></g><g><path d="m139.75 442c-8.284 0-15-6.716-15-15v-32c0-8.284 6.716-15 15-15s15 6.716 15 15v32c0 8.284-6.716 15-15 15z" fill="#454040"/></g><g><path d="m372.75 442c-8.284 0-15-6.716-15-15v-32c0-8.284 6.716-15 15-15s15 6.716 15 15v32c0 8.284-6.716 15-15 15z" fill="#2e2e2e"/></g><g><path d="m391.664 221c-4.89-70.543-63.835-126.443-135.598-126.443s-130.708 55.9-135.597 126.443z" fill="#ffd321"/></g><path d="m307.404 375.409c-10.202-14.855-24.76-26.232-42.098-32.901l-3.921-1.508c-1.712-.658-3.515-.991-5.318-.999v172h66.933v-85.488c0-18.577-5.393-36.249-15.596-51.104z" fill="#2e2e2e"/><path d="m256.066 221h135.598c-4.89-70.543-63.835-126.443-135.598-126.443z" fill="#ff9d21"/></g></svg>