<svg id="Flat" height="512" viewBox="0 0 64 64" width="512" xmlns="http://www.w3.org/2000/svg"><g id="Stroke_copy_2" data-name="Stroke copy 2"><path d="m15 36h34v8h-34z" fill="#656b76"/><path d="m19 36h26v25h-26z" fill="#d0d8da"/><path d="m26 43h19v-7h-26v25h26v-4h-14a8 8 0 0 1 -8-8v-3a3 3 0 0 1 3-3z" fill="#93999a"/><path d="m32 8a1.16 1.16 0 0 0 -1.15 1l-1.85 12h6l-1.85-12a1.16 1.16 0 0 0 -1.15-1z" fill="#fcbc04"/><path d="m33.91 44.59-1.91-1.59-1.91 1.59a11.37 11.37 0 0 0 -4.09 8.73v7.68h12v-7.68a11.37 11.37 0 0 0 -4.09-8.73z" fill="#f9e109"/><path d="m31 57a8 8 0 0 1 -5-1.76v5.76h12v-4z" fill="#fcbc04"/><path d="m33.91 44.59-1.91-1.59-1.91 1.59-.18.17 1 .83a11.37 11.37 0 0 1 4.09 8.73v6.68h3v-7.68a11.37 11.37 0 0 0 -4.09-8.73z" fill="#fcbc04"/><path d="m35 57h3v4h-3z" fill="#e59730"/><path d="m19 36h26v4h-26z" fill="#4891d3"/><path d="m45 43h16v18h-16z" fill="#d0d8da"/><path d="m61 47v-4h-16v18h16v-4h-2a8 8 0 0 1 -8-8v-2z" fill="#93999a"/><path d="m3 43h16v18h-16z" fill="#d0d8da"/><path d="m3 47v-4h16v18h-16v-4h2a8 8 0 0 0 8-8v-2z" fill="#93999a"/><path d="m3 27h8v16h-8z" fill="#93999a"/><path d="m8 30h3a0 0 0 0 1 0 0v9a0 0 0 0 1 0 0h-1a4 4 0 0 1 -4-4v-3a2 2 0 0 1 2-2z" fill="#d0d8da"/><path d="m32 14a17 17 0 0 1 17 17v5a0 0 0 0 1 0 0h-34a0 0 0 0 1 0 0v-5a17 17 0 0 1 17-17z" fill="#fcbc04"/><path d="m32 14a16.91 16.91 0 0 0 -5 .74 16 16 0 0 0 16 15.26h6a17 17 0 0 0 -17-16z" fill="#f9e109"/><path d="m3 19h8v8h-8z" fill="#4891d3"/><path d="m7 19h4a0 0 0 0 1 0 0v7a0 0 0 0 1 0 0 4 4 0 0 1 -4-4v-3a0 0 0 0 1 0 0z" fill="#57b7eb"/><path d="m7 10-4 9h8z" fill="#fcbc04"/><path d="m11 18.88-4-8.88v4a5 5 0 0 0 4 4.88z" fill="#f9e109"/><path d="m53 27h8v16h-8z" fill="#93999a"/><path d="m58 30h3a0 0 0 0 1 0 0v9a0 0 0 0 1 0 0h-1a4 4 0 0 1 -4-4v-3a2 2 0 0 1 2-2z" fill="#d0d8da"/><path d="m53 19h8v8h-8z" fill="#4891d3"/><path d="m57 19h4a0 0 0 0 1 0 0v7a0 0 0 0 1 0 0 4 4 0 0 1 -4-4v-3a0 0 0 0 1 0 0z" fill="#57b7eb"/><path d="m57 10-4 9h8z" fill="#fcbc04"/><path d="m61 18.88-4-8.88v4a5 5 0 0 0 4 4.88z" fill="#f9e109"/><path d="m49.23 52.64-1.23-1.64-1.23 1.64a8.86 8.86 0 0 0 -1.77 5.36v3h6v-3a8.86 8.86 0 0 0 -1.77-5.36z" fill="#e59730"/><path d="m7.23 52.64-1.23-1.64-1.23 1.64a8.86 8.86 0 0 0 -1.77 5.36v3h6v-3a8.86 8.86 0 0 0 -1.77-5.36z" fill="#fcbc04"/><path d="m5 57a8.06 8.06 0 0 0 3.79-1 8.83 8.83 0 0 0 -1.56-3.41l-1.23-1.59-1.23 1.64a8.87 8.87 0 0 0 -1.71 4.36z" fill="#e59730"/><path d="m59.23 52.64-1.23-1.64-1.23 1.64a8.86 8.86 0 0 0 -1.77 5.36v3h6v-3a8.86 8.86 0 0 0 -1.77-5.36z" fill="#fcbc04"/><path d="m59.23 52.64-1.23-1.64-1.23 1.64a8.83 8.83 0 0 0 -1.56 3.41 8.06 8.06 0 0 0 3.79.95h1.94a8.87 8.87 0 0 0 -1.71-4.36z" fill="#e59730"/><path d="m17.23 52.64-1.23-1.64-1.23 1.64a8.86 8.86 0 0 0 -1.77 5.36v3h6v-3a8.86 8.86 0 0 0 -1.77-5.36z" fill="#e59730"/><path d="m45 43h16v4h-16z" fill="#4891d3"/><path d="m3 43h16v4h-16z" fill="#4891d3"/><path d="m33.72 12.71-.57-3.71a1.16 1.16 0 0 0 -1.15-1v2a3 3 0 0 0 1.72 2.71z" fill="#f9e109"/><path d="m31 36h2v4h-2z" fill="#2d72bc"/><path d="m35 36h2v4h-2z" fill="#2d72bc"/><path d="m39 36h2v4h-2z" fill="#2d72bc"/><path d="m23 36h2v4h-2z" fill="#2d72bc"/><path d="m27 36h2v4h-2z" fill="#2d72bc"/><path d="m33 10.12a4 4 0 0 1 -2.83-1.12 4 4 0 0 1 0-5.66 1 1 0 1 1 1.42 1.42 2 2 0 0 0 -.59 1.36 2 2 0 0 0 .59 1.42 2 2 0 0 0 2.82 0 1 1 0 0 1 1.42 0 1 1 0 0 1 0 1.41 4 4 0 0 1 -2.83 1.17z" fill="#f9e109"/><g fill="#2d72bc"><path d="m6 19h2v8h-2z"/><path d="m56 19h2v8h-2z"/><path d="m52 43h2v4h-2z"/><path d="m56 43h2v4h-2z"/><path d="m48 43h2v4h-2z"/><path d="m10 43h2v4h-2z"/><path d="m14 43h2v4h-2z"/><path d="m6 43h2v4h-2z"/></g></g></svg>