<svg height="512pt" viewBox="0 0 512 512" width="512pt" xmlns="http://www.w3.org/2000/svg"><path d="m512 256c0 141.386719-114.613281 256-256 256s-256-114.613281-256-256 114.613281-256 256-256 256 114.613281 256 256zm0 0" fill="#5555e5"/><path d="m511.84375 264.53125-110.351562-110.347656-2.894532 2.609375-37.726562-37.730469-.886719 2.519531-29.832031-29.832031-219.644532 317.800781 98.042969 98.042969c15.378907 2.882812 31.234375 4.40625 47.449219 4.40625 138.527344 0 251.339844-110.035156 255.84375-247.46875zm0 0" fill="#3e3ec1"/><path d="m110.507812 154.183594h290.984376v60.605468h-290.984376zm0 0" fill="#ff8b00"/><path d="m255.90625 154.183594h145.585938v60.605468h-145.585938zm0 0" fill="#ff9700"/><path d="m159.058594 154.183594c0-53.539063 43.402344-96.941406 96.941406-96.941406s96.941406 43.402343 96.941406 96.941406zm0 0" fill="#fdba12"/><path d="m256 57.242188c-.03125 0-.0625 0-.09375 0v96.941406h97.035156c0-53.539063-43.402344-96.941406-96.941406-96.941406zm0 0" fill="#ff8b00"/><path d="m151.128906 119.0625h209.742188v95.726562h-209.742188zm0 0" fill="#ffe85f"/><path d="m255.90625 119.0625h104.964844v95.726562h-104.964844zm0 0" fill="#ffe733"/><path d="m178.84375 229.652344c0-42.613282 34.542969-77.15625 77.15625-77.15625s77.15625 34.542968 77.15625 77.15625zm0 0" fill="#ff8b00"/><path d="m256 152.496094c-.03125 0-.0625.003906-.09375.003906v77.152344h77.25c0-42.613282-34.542969-77.15625-77.15625-77.15625zm0 0" fill="#ff9700"/><path d="m110.507812 214.792969h290.984376v194.757812h-290.984376zm0 0" fill="#fdba12"/><path d="m255.90625 214.792969h145.585938v194.757812h-145.585938zm0 0" fill="#ffa426"/><path d="m309.996094 409.550781h-107.992188v-101.496093c0-29.820313 24.175782-53.996094 53.996094-53.996094s53.996094 24.175781 53.996094 53.996094zm0 0" fill="#ffe85f"/><path d="m309.996094 308.054688c0-29.820313-24.175782-53.996094-53.996094-53.996094-.03125 0-.0625 0-.09375 0v155.492187h54.089844zm0 0" fill="#ffe733"/></svg>