<svg height="512" viewBox="0 0 64 64" width="512" xmlns="http://www.w3.org/2000/svg"><g id="Two_Tone" data-name="Two Tone"><path d="m53 24.267c0 18.366-21 36.733-21 36.733s-21-18.367-21-36.733a21 21 0 1 1 42 0z" fill="#90caf9"/><circle cx="32" cy="24" fill="#ffc108" r="17"/><path d="m40.318 33a8.309 8.309 0 0 0 .682-3.312c0-3.393-5.663-6.263-8-7.3h-2c-2.337 1.041-8 3.911-8 7.3a8.309 8.309 0 0 0 .682 3.312z" fill="#1a76d2"/><g fill="#0d47a0"><path d="m32 2a22.16 22.16 0 0 0 -22 22.267c0 7.841 3.6 16.542 10.7 25.86a86.5 86.5 0 0 0 10.642 11.626 1 1 0 0 0 1.316 0 86.5 86.5 0 0 0 10.642-11.626c7.1-9.318 10.7-18.019 10.7-25.86a22.16 22.16 0 0 0 -22-22.267zm0 57.646c-3.527-3.288-20-19.5-20-35.379a20 20 0 1 1 40 0c0 15.88-16.473 32.091-20 35.379z"/><path d="m32 6a18 18 0 1 0 18 18 18.021 18.021 0 0 0 -18-18zm0 34a16 16 0 1 1 16-16 16.019 16.019 0 0 1 -16 16z"/><path d="m42 29c0-3.914-6.706-6.818-9-7.7v-2.32c.058 0 .112.017.17.017a5.006 5.006 0 0 0 3.53-1.455l-1.4-1.424a3 3 0 1 1 -4.246-4.246l-1.424-1.4a4.983 4.983 0 0 0 1.37 8.012v2.816c-2.294.879-9 3.783-9 7.7a7.935 7.935 0 0 0 .605 3h-1.605v2h22v-2h-1.6a7.935 7.935 0 0 0 .6-3zm-18 0c0-2.22 4.773-4.758 8-5.938 3.227 1.18 8 3.718 8 5.938a5.9 5.9 0 0 1 -.824 3h-14.352a5.9 5.9 0 0 1 -.824-3z"/></g></g></svg>