<svg height="512" viewBox="0 0 64 64" width="512" xmlns="http://www.w3.org/2000/svg"><g id="flat"><path d="m8 2h2v6h-2z" fill="#f9bb4b"/><path d="m54 2h2v6h-2z" fill="#f9bb4b"/><path d="m21 37h22v16h-22z" fill="#aabece"/><path d="m39 53h-14v-5l7-7 7 7z" fill="#fff69a"/><path d="m19 57h26v4h-26z" fill="#fff69a"/><path d="m21 53h22v4h-22z" fill="#cfdfe8"/><path d="m3 41h18v16h-2v4h-16z" fill="#cfdfe8"/><path d="m7 41h4v16h-4z" fill="#aabece"/><path d="m3 57h16v4h-16z" fill="#f9bb4b"/><path d="m19 45h2a0 0 0 0 1 0 0v12a0 0 0 0 1 0 0h-6a0 0 0 0 1 0 0v-8a4 4 0 0 1 4-4z" fill="#5a6470"/><path d="m61 41h-18v16h2v4h16z" fill="#cfdfe8"/><path d="m53 41h4v16h-4z" fill="#aabece" transform="matrix(-1 0 0 -1 110 98)"/><path d="m45 57h16v4h-16z" fill="#f9bb4b" transform="matrix(-1 0 0 -1 106 118)"/><path d="m43 45h6a0 0 0 0 1 0 0v12a0 0 0 0 1 0 0h-2a4 4 0 0 1 -4-4v-8a0 0 0 0 1 0 0z" fill="#5a6470" transform="matrix(-1 0 0 -1 92 102)"/><circle cx="32" cy="5" fill="#f9bb4b" r="2"/><path d="m9 6s-5 2-5 7h10c0-5-5-7-5-7z" fill="#87cee9"/><path d="m4 13h10v4h-10z" fill="#32b1cc"/><path d="m12 25h-6l-3-4h12z" fill="#aabece"/><path d="m6 17h6v4h-6z" fill="#5a6470"/><path d="m6 25h6v16h-6z" fill="#5a6470"/><path d="m32 7s-14 6-14 17h28c0-11-14-17-14-17z" fill="#32b1cc"/><path d="m16 24h32v4h-32z" fill="#cfdfe8"/><path d="m46 37h-28l-2-4h32z" fill="#cfdfe8"/><path d="m18 28h28v5h-28z" fill="#aabece"/><path d="m55 6s-5 2-5 7h10c0-5-5-7-5-7z" fill="#87cee9"/><path d="m50 13h10v4h-10z" fill="#32b1cc"/><path d="m58 25h-6l-3-4h12z" fill="#aabece"/><path d="m52 17h6v4h-6z" fill="#5a6470"/><path d="m52 25h6v16h-6z" fill="#5a6470"/><path d="m32 7a28.386 28.386 0 0 0 -6 17h12a28.386 28.386 0 0 0 -6-17z" fill="#87cee9"/><path d="m25 48c7 0 7-7 7-7a7 7 0 0 0 -7 7z" fill="#dd3e46"/><path d="m39 48c-7 0-7-7-7-7a7 7 0 0 1 7 7z" fill="#dd3e46"/><g fill="#5a6470"><path d="m24 40h2v2h-2z"/><path d="m38 40h2v2h-2z"/></g></g></svg>