<svg id="Capa_1" enable-background="new 0 0 497 497" height="512" viewBox="0 0 497 497" width="512" xmlns="http://www.w3.org/2000/svg"><g><path d="m165 319.25h-120l60-90h60z" fill="#ffc159"/><path d="m15 229.25h90v90h-90z" fill="#ffd787"/><path d="m135 289.25v137h-30l-60-68.5 60-68.5z" fill="#ffd787"/><path d="m105 289.25v52.5l-45 84.5h-30l-15-15v-122z" fill="#ffe9c4"/><path d="m82.5 319.25c-12.426 0-22.5 10.073-22.5 22.5v84.5h45v-84.5c0-12.427-10.074-22.5-22.5-22.5z" fill="#ba6541"/><path d="m248.5 25.75v128.5l83.5-45c0-46.12-37.38-83.5-83.5-83.5z" fill="#ff9147"/><path d="m277.34 38.9c14.83 14.85 24.66 40.8 24.66 70.35l-53.5 45-83.5-45c0-46.12 37.38-83.5 83.5-83.5 10.62 0 20.52 4.83 28.84 13.15z" fill="#ffa74f"/><path d="m332 109.25h-30l-53.5 60h83.5z" fill="#ffc159"/><path d="m165 109.25h137v60h-137z" fill="#ffd787"/><path d="m482 319.25h-105l60-90h45z" fill="#ffc159"/><path d="m332 229.25h105v90h-105z" fill="#ffd787"/><path d="m482 289.25v122l-15 15h-30l-60-68.5 60-68.5z" fill="#ffd787"/><path d="m437 289.25v52.5l-45 84.5h-30l-60-38.5 60-98.5z" fill="#ffe9c4"/><path d="m414.5 319.25c-12.426 0-22.5 10.073-22.5 22.5v84.5h45v-84.5c0-12.427-10.074-22.5-22.5-22.5z" fill="#99583c"/><path d="m0 109.25v60l15 30 15-30v-60c0-8.284-6.716-15-15-15s-15 6.716-15 15z" fill="#ffe9c4"/><path d="m467 109.25v60l15 30 15-30v-60c0-8.284-6.716-15-15-15s-15 6.716-15 15z" fill="#ffe9c4"/><path d="m467 426.25h22.5c4.142 0 7.5-3.358 7.5-7.5v-249.5h-30z" fill="#ffc7bd"/><path d="m7.5 426.25h22.5v-257h-30v249.5c0 4.142 3.358 7.5 7.5 7.5z" fill="#ffc7bd"/><path d="m362 154.25h-30l-83.5 75 113.5-45c8.28 0 15-6.72 15-15s-6.72-15-15-15z" fill="#ffd787"/><path d="m332 154.25c8.28 0 15 6.72 15 15s-6.72 15-15 15l-83.5 45-113.5-45c-8.28 0-15-6.72-15-15s6.72-15 15-15z" fill="#ffe9c4"/><path d="m332 184.25-83.5 121 83.5 121h30v-242z" fill="#ffabbd"/><path d="m135 184.25v242h30l167-197v-45z" fill="#ffc7bd"/><path d="m165 229.25h167v197h-167z" fill="#ffe9c4"/><path d="m248.5 259.25v118.781l53.5-48.219c0-32.854-21.866-61.693-53.5-70.562z" fill="#ffc159"/><path d="m248.5 259.25c-31.635 8.869-53.5 37.709-53.5 70.563l53.5 48.219 23.5-48.219c0-32.855-9.604-61.694-23.5-70.563z" fill="#ffd787"/><path d="m272 329.813-23.5 111.437h53.5v-111.437z" fill="#99583c"/><path d="m195 329.813h77v111.437h-77z" fill="#ba6541"/><path d="m302 426.25h-30l-23.5 22.5 53.5 22.5h15.986c5.99 0 9.563-6.676 6.24-11.66z" fill="#ffd787"/><path d="m195 426.25-22.227 33.34c-3.323 4.984.25 11.66 6.24 11.66h122.987l-30-45z" fill="#ffe9c4"/></g></svg>