<svg height="512pt" viewBox="-4 0 512 512" width="512pt" xmlns="http://www.w3.org/2000/svg"><path d="m503.730469 316.226562h-117.570313v-69.429687h-269.601562v69.429687h-116.558594v195.773438h503.730469zm0 0" fill="#fdedd3"/><path d="m116.558594 246.796875h269.601562v69.429687h-269.601562zm0 0" fill="#9cbee4"/><path d="m459.132812 316.226562h44.597657v195.773438h-44.597657zm0 0" fill="#fae3be"/><path d="m30.089844 155.0625h46.078125v161.164062h-46.078125zm0 0" fill="#fedba8"/><path d="m251.867188 76.851562c-4.199219 0-7.601563-3.402343-7.601563-7.601562v-61.648438c0-4.199218 3.402344-7.601562 7.601563-7.601562 4.195312 0 7.601562 3.402344 7.601562 7.601562v61.648438c0 4.199219-3.40625 7.601562-7.601562 7.601562zm0 0" fill="#fdedd3"/><path d="m216.109375 107.433594c-.863281-3.132813-1.324219-6.433594-1.324219-9.839844 0-20.480469 16.601563-37.082031 37.082032-37.082031 20.476562 0 37.078124 16.601562 37.078124 37.082031 0 3.40625-.460937 6.707031-1.324218 9.839844zm0 0" fill="#fecf89"/><path d="m251.867188 60.511719c-8.371094 0-16.09375 2.777343-22.300782 7.457031 8.976563 6.769531 14.78125 17.515625 14.78125 29.625 0 3.40625-.460937 6.707031-1.320312 9.84375h44.59375c.863281-3.136719 1.324218-6.4375 1.324218-9.84375 0-20.480469-16.601562-37.082031-37.078124-37.082031zm0 0" fill="#f7c272"/><path d="m117.710938 218.925781c9.289062-65.777343 65.8125-116.371093 134.152343-116.371093 23.5 0 45.507813 6.15625 64.867188 16.507812 22.804687 12.191406 35.445312 27.902344 35.445312 27.902344 18.03125 19.847656 30.253907 45.066406 33.980469 72.972656v14.191406h-268.445312zm0 0" fill="#fdedd3"/><path d="m352.175781 146.964844s-12.640625-15.710938-35.445312-27.902344c-19.359375-10.351562-41.367188-16.507812-64.863281-16.507812-7.644532 0-15.136719.636718-22.429688 1.851562 15.210938 2.546875 29.566406 7.632812 42.699219 14.65625 22.804687 12.191406 35.441406 27.902344 35.441406 27.902344 18.03125 19.847656 30.253906 45.066406 33.980469 72.972656v14.191406h44.597656v-14.191406c-3.726562-27.90625-15.949219-53.125-33.980469-72.972656zm0 0" fill="#fae3be"/><path d="m395.933594 251.867188h-288.136719c-3.28125 0-5.9375-2.660157-5.9375-5.9375v-18.535157c0-3.277343 2.660156-5.933593 5.9375-5.933593h288.136719c3.277344 0 5.933594 2.65625 5.933594 5.933593v18.535157c.003906 3.277343-2.65625 5.9375-5.933594 5.9375zm0 0" fill="#fecf89"/><path d="m456.75 70.574219c-4.199219 0-7.601562-3.402344-7.601562-7.601563v-55.371094c0-4.199218 3.402343-7.601562 7.601562-7.601562 4.195312 0 7.601562 3.402344 7.601562 7.601562v55.371094c0 4.199219-3.40625 7.601563-7.601562 7.601563zm0 0" fill="#fdedd3"/><path d="m418.378906 125.742188c-5.082031-7.507813-8.609375-17.121094-8.609375-26.867188 0-25.945312 21.03125-46.980469 46.980469-46.980469 25.945312 0 46.980469 21.035157 46.980469 46.980469 0 9.992188-3.121094 19.253906-8.4375 26.867188 0 0-76.722657.28125-76.914063 0zm0 0" fill="#fecf89"/><path d="m456.75 51.894531c-8.070312 0-15.664062 2.035157-22.300781 5.621094 14.699219 7.9375 24.683593 23.480469 24.683593 41.359375 0 9.988281-3.117187 19.253906-8.433593 26.867188 0 0-13.109375.046874-28.5.085937 15.511719.125 73.09375-.085937 73.09375-.085937 5.316406-7.613282 8.4375-16.875 8.4375-26.867188 0-25.949219-21.035157-46.980469-46.980469-46.980469zm0 0" fill="#f7c272"/><path d="m433.707031 155.0625h46.082031v161.164062h-46.082031zm0 0" fill="#fedba8"/><path d="m410.460938 124.867188h92.578124v30.195312h-92.578124zm0 0" fill="#9cbee4"/><path d="m458.441406 124.867188h44.597656v30.195312h-44.597656zm0 0" fill="#7fabd5"/><path d="m163.179688 316.226562h177.371093v195.773438h-177.371093zm0 0" fill="#fedba8"/><path d="m53.210938 70.574219c-4.199219 0-7.601563-3.402344-7.601563-7.601563v-55.371094c0-4.199218 3.402344-7.601562 7.601563-7.601562 4.199218 0 7.601562 3.402344 7.601562 7.601562v55.371094c0 4.199219-3.402344 7.601563-7.601562 7.601563zm0 0" fill="#fdedd3"/><path d="m91.582031 125.742188c5.078125-7.507813 8.609375-17.121094 8.609375-26.867188 0-25.945312-21.035156-46.980469-46.980468-46.980469-25.945313 0-46.980469 21.03125-46.980469 46.980469 0 9.992188 3.117187 19.253906 8.433593 26.867188 0 0 76.726563.28125 76.917969 0zm0 0" fill="#fecf89"/><path d="m53.210938 51.894531c-8.695313 0-16.832032 2.371094-23.816407 6.488281 13.855469 8.167969 23.160157 23.242188 23.160157 40.492188 0 9.746094-3.53125 19.359375-8.609376 26.867188-.023437.035156-1.175781.058593-3.160156.078124 22.253906.054688 50.679688.09375 50.796875-.078124 5.078125-7.503907 8.609375-17.121094 8.609375-26.867188 0-25.949219-21.035156-46.980469-46.980468-46.980469zm0 0" fill="#f7c272"/><path d="m99.5 155.0625h-92.578125v-30.195312h92.578125zm0 0" fill="#9cbee4"/><path d="m50.847656 124.867188h48.652344v30.195312h-48.652344zm0 0" fill="#7fabd5"/><path d="m299.875 511.410156s0-55.140625 0-76.054687c0-20.917969-18.0625-49.4375-47.535156-78.910157h-.949219c-29.472656 29.472657-47.535156 57.992188-47.535156 78.910157v76.054687zm0 0" fill="#9cbee4"/><path d="m455.355469 511.332031s0-36.980469 0-51.011719c0-14.027343-12.117188-33.15625-31.882813-52.921874h-.636718c-19.765626 19.765624-31.882813 38.894531-31.882813 52.921874v51.011719zm0 0" fill="#9cbee4"/><path d="m112.777344 511.332031s0-36.980469 0-51.011719c0-14.027343-12.117188-33.15625-31.882813-52.921874h-.636719c-19.765624 19.765624-31.882812 38.894531-31.882812 52.921874v51.011719zm0 0" fill="#9cbee4"/><g fill="#fdedd3"><path d="m155.578125 292.40625c9.785156 0 9.800781-15.203125 0-15.203125-9.78125 0-9.796875 15.203125 0 15.203125zm0 0"/><path d="m194.09375 292.40625c9.78125 0 9.796875-15.203125 0-15.203125-9.78125 0-9.800781 15.203125 0 15.203125zm0 0"/><path d="m232.609375 292.40625c9.78125 0 9.796875-15.203125 0-15.203125-9.785156 0-9.800781 15.203125 0 15.203125zm0 0"/><path d="m271.121094 292.40625c9.785156 0 9.800781-15.203125 0-15.203125-9.78125 0-9.796875 15.203125 0 15.203125zm0 0"/><path d="m309.636719 292.40625c9.78125 0 9.800781-15.203125 0-15.203125-9.78125 0-9.796875 15.203125 0 15.203125zm0 0"/><path d="m348.152344 292.40625c9.78125 0 9.796875-15.203125 0-15.203125-9.785156 0-9.800782 15.203125 0 15.203125zm0 0"/></g></svg>