<svg id="Capa_1" enable-background="new 0 0 497 497" height="512" viewBox="0 0 497 497" width="512" xmlns="http://www.w3.org/2000/svg"><g><path d="m486.179 234.26v14.652l-7.013 18.404 7.013 18.518v40.866l-2.93 7.503 2.93 7.497v118.03l-123.225 8.77-123.225-8.77v-174.012l8.77-18.403-8.77-18.404v-14.651c0-10.22 8.28-18.5 18.5-18.5h209.45c10.22 0 18.5 8.28 18.5 18.5z" fill="#8b8089"/><path d="m467.683 215.764h-27.203c10.215 0 18.495 8.281 18.495 18.495v225.471l14.025 5.603 13.178-5.603v-118.034l-2.928-7.493 2.928-7.499v-40.875l-7.012-18.513 7.012-18.404v-14.653c0-10.215-8.281-18.495-18.495-18.495z" fill="#7b7179"/><path d="m239.73 248.912h246.447v36.806h-246.447z" fill="#ffe177"/><path d="m458.974 248.912h27.203v36.806h-27.203z" fill="#ffd15b"/><path d="m269.939 325.405c0-4.245 3.441-7.686 7.686-7.686h50.804c4.245 0 7.686 3.441 7.686 7.686v134.325l-33.126 8.77-33.051-8.77v-134.325z" fill="#ffe177"/><path d="m328.43 317.719h-25.44c4.245 0 7.686 3.441 7.686 7.686v134.325l12.012 3.555 13.428-3.555v-134.325c0-4.245-3.441-7.686-7.686-7.686z" fill="#ffd15b"/><path d="m413.275 350.687h-34.004c-6.608 0-11.965-5.357-11.965-11.965v-9.038c0-6.608 5.357-11.965 11.965-11.965h34.004c6.608 0 11.965 5.357 11.965 11.965v9.038c0 6.608-5.357 11.965-11.965 11.965z" fill="#ffe177"/><path d="m413.275 317.719h-25.44c6.608 0 11.965 5.357 11.965 11.965v9.038c0 6.608-5.357 11.965-11.965 11.965h25.44c6.608 0 11.965-5.357 11.965-11.965v-9.038c0-6.608-5.357-11.965-11.965-11.965z" fill="#ffd15b"/><path d="m486.179 459.73v25.31c0 6.6-5.36 11.96-11.97 11.96h-222.51c-6.61 0-11.97-5.36-11.97-11.96v-25.31z" fill="#fe6c55"/><path d="m458.974 459.73v25.305c0 6.608-5.357 11.965-11.965 11.965h27.203c6.608 0 11.965-5.357 11.965-11.965v-25.305z" fill="#fd544d"/><path d="m260.912 127.789-78.676 24.431c-9.169 2.847-16.348 10.026-19.195 19.195l-24.431 78.676c-8.399 27.047-46.539 27.441-55.495.573l-70.748-212.244c-7.596-22.789 14.085-44.47 36.874-36.874l212.245 70.748c26.867 8.956 26.473 47.097-.574 55.495z" fill="#5a74d1"/><path d="m261.485 72.295-212.245-70.749c-7.998-2.666-15.855-1.715-22.362 1.614l207.404 69.135c26.867 8.956 26.473 47.096-.573 55.495l-78.676 24.431c-9.169 2.847-16.348 10.026-19.195 19.195l-24.431 78.676c-2.551 8.215-7.853 13.955-14.24 17.235 14.837 7.631 35.523 1.828 41.443-17.235l24.431-78.676c2.847-9.169 10.026-16.348 19.195-19.195l78.676-24.431c27.046-8.399 27.441-46.54.573-55.495z" fill="#4f66d0"/><g><path d="m303.028 367.314c-4.143 0-7.5-3.358-7.5-7.5v-12.01c0-4.142 3.357-7.5 7.5-7.5s7.5 3.358 7.5 7.5v12.01c0 4.143-3.358 7.5-7.5 7.5z" fill="#fff3de"/></g><g><path d="m262.439 459.73h15v37.27h-15z" fill="#fd544d"/></g><g><path d="m355.779 459.73h15v37.27h-15z" fill="#fd544d"/></g><g><path d="m218.296 211.102c-1.919 0-3.839-.732-5.304-2.197l-76.307-76.307c-2.929-2.929-2.929-7.678 0-10.606 2.93-2.929 7.678-2.929 10.607 0l76.307 76.307c2.929 2.929 2.929 7.678 0 10.606-1.464 1.465-3.384 2.197-5.303 2.197z" fill="#fff3de"/></g><g><path d="m486.179 326.7v15h-28.6c-4.14 0-7.5-3.35-7.5-7.5 0-4.14 3.36-7.5 7.5-7.5z" fill="#ffe177"/></g></g></svg>