<?xml version="1.0" encoding="UTF-8"?> <svg xmlns="http://www.w3.org/2000/svg" xmlns:xlink="http://www.w3.org/1999/xlink" width="828.77" height="810" viewBox="0 0 828.77 810"><defs><linearGradient id="linear-gradient" x1="-1.408" y1="0.5" x2="-0.408" y2="0.5" gradientUnits="objectBoundingBox"><stop offset="0" stop-color="#abd8ac"></stop><stop offset="0.503" stop-color="#c9decf"></stop><stop offset="1" stop-color="#e3f3f1"></stop></linearGradient><linearGradient id="linear-gradient-2" y1="0.5" x2="1" y2="0.5" gradientUnits="objectBoundingBox"><stop offset="0" stop-color="#fbcfac"></stop><stop offset="1" stop-color="#f9b191"></stop></linearGradient></defs><g id="Quran-teaching" transform="translate(0 0)"><g id="Group_911" data-name="Group 911" transform="translate(0 0)"><path id="Path_69" data-name="Path 69" d="M1289.757,163.159S871.248,124.071,812.3,378.484s372.917,474.338,372.917,474.338,474.337,312.064,449.371-78.016S1289.757,163.159,1289.757,163.159Z" transform="translate(-806.77 -161)" fill="#ecf1ee" opacity="0.44"></path></g><g id="Group_909" data-name="Group 909" transform="translate(205.333 136)"><ellipse id="Ellipse_217" data-name="Ellipse 217" cx="55.215" cy="22.652" rx="55.215" ry="22.652" transform="translate(133.188 404.646)" fill="#e3eae1"></ellipse><path id="Path_1825" data-name="Path 1825" d="M1584.608,802.315,1484.9,744.784l7.85-4.522-13.211-7.607-80.283-46.235-4.381-2.526-4.381,2.523-3.377,1.946L1311.1,644.5l-3.291-1.9-3.638,1.1-13.485,4.077-19.32,5.841,16.582,9.651-13.906,8.35-10.464,6.282,9.281,7.924a247.285,247.285,0,0,0,57.711,35.112l-24.781,14.275-13.211,7.609,13.211,7.609,80.281,46.231,4.383,2.526,4.381-2.526,48.218-27.772a211.7,211.7,0,0,0,16.834,19.667c22.668,23.2,55.392,39,56.775,39.66l4.235,2.025,4.036-2.4,22.686-13.474,17.6,10.24,4.745,2.76,4.561-3.056,10.592-7.1,11.712-7.85Z" transform="translate(-1027.515 -291.608)" fill="#e3eae1"></path><g id="Group_674" data-name="Group 674" transform="translate(282.652 269.771)"><path id="Path_1826" data-name="Path 1826" d="M1533.386,595.706V693.7c-.006,8.86-2.205,18.713-3.452,23.576l-80.281,46.234v9.215l84.706-48.789.947-3.136c.2-.674,4.973-16.59,4.992-31.081V591.286Z" transform="translate(-1369.37 -545.053)" fill="#a4a4a5"></path><path id="Path_1827" data-name="Path 1827" d="M1415.641,529.964v97.994c-.006,8.858-2.2,18.713-3.45,23.578l-80.283,46.229L1412.191,744l80.281-46.234s3.452-12.582,3.452-23.576-.02-83.5,0-97.994Z" transform="translate(-1331.908 -525.542)" fill="#ededed"></path><path id="Path_1828" data-name="Path 1828" d="M1331.908,776.066l80.282,46.233v9.216l-80.282-46.231Z" transform="translate(-1331.908 -603.843)" fill="#a4a4a5"></path><path id="Path_1829" data-name="Path 1829" d="M1461.624,523.479l80.284,46.233-6.913,4.42L1454.713,527.9Z" transform="translate(-1370.98 -523.479)" fill="#a4a4a5"></path></g><path id="Path_1830" data-name="Path 1830" d="M1593.015,578.248l.843-276.74c.029-8.824-6.894-19.886-15.369-24.564l-252.8-147.018c-3.7-2.043-7.119-2.543-9.8-1.732-3.45,1.057-9.454,2.837-9.454,2.837l2.913,285.176,274.6,166.765Z" transform="translate(-1041.152 -127.825)" fill="#a4a4a5"></path><path id="Path_1831" data-name="Path 1831" d="M1581.087,584.251l.857-278.738c.037-8.814-6.9-19.875-15.377-24.551l-252.782-147.01c-8.5-4.688-15.483-1.293-15.5,7.535l-.854,278.729Z" transform="translate(-1038.287 -129.103)"></path><path id="Path_1832" data-name="Path 1832" d="M1572.289,300.587a6.316,6.316,0,0,1,3.07,4.917l-.816,269.079-258.962-150.42.813-269.091c.02-1.739,1.445-2.427,3.1-1.51l252.792,147.024" transform="translate(-1044.062 -135.884)" fill="#f2f6ff"></path><path id="Path_1833" data-name="Path 1833" d="M1568.98,562.135,1331.253,423.423l.688-236,237.744,138.726Z" transform="translate(-1049.048 -146.785)" fill="#fff"></path><g id="Group_676" data-name="Group 676" transform="translate(252.437 40.174)"><path id="Path_1834" data-name="Path 1834" d="M1508.3,630.952l89.778,90.966s-76.688-46.182-84.214-75.853S1508.3,630.952,1508.3,630.952Z" transform="translate(-1357.743 -326.94)" fill="#e2f0e6"></path><path id="Path_1835" data-name="Path 1835" d="M1318.138,186.746v.017l0-.017-29.84,17.811-.7,237.176,29.831-17.82.024-1.242,0,1.823L1557.763,563.9l.71-237.17Z" transform="translate(-1287.594 -186.746)" fill="url(#linear-gradient)"></path><path id="Path_1836" data-name="Path 1836" d="M1288.3,450.959s28.655,24.326,65.721,37.44,84.138,14.747,84.138,14.747,14.854,27.734,36.539,49.823c19.919,20.27,48.661,34.82,53.239,37.065l.69-237.75s-32.233-15.324-53.928-37.405-36.539-49.831-36.539-49.831-47.077-1.634-84.138-14.741-65.721-37.438-65.721-37.438l-.7,237.91.684.4Z" transform="translate(-1287.594 -195.057)" fill="#fefefc"></path><path id="Path_1837" data-name="Path 1837" d="M1354.018,250.306c-37.067-13.11-65.721-37.438-65.721-37.438l-.7,237.91s29.357,24.507,66.424,37.622,84.138,14.747,84.138,14.747v-238.1S1391.079,263.413,1354.018,250.306Z" transform="translate(-1287.594 -195.057)" fill="#fefefc"></path><g id="Group_675" data-name="Group 675" transform="translate(14.897 61.965)"><path id="Path_1838" data-name="Path 1838" d="M1585.951,416c-11.359-6.467-23.178-15-36.559-28.62a181.163,181.163,0,0,1-27.024-34.6" transform="translate(-1377.188 -301.537)" fill="none" stroke="#e9f4fa" stroke-linecap="round" stroke-miterlimit="10" stroke-width="2.357"></path><path id="Path_1839" data-name="Path 1839" d="M1585.951,434.352c-11.359-6.467-23.178-15.005-36.559-28.622a180.991,180.991,0,0,1-27.024-34.595" transform="translate(-1377.188 -307.377)" fill="none" stroke="#e9f4fa" stroke-linecap="round" stroke-miterlimit="10" stroke-width="2.357"></path><path id="Path_1840" data-name="Path 1840" d="M1585.951,452.708c-11.359-6.477-23.178-15-36.559-28.63a181.152,181.152,0,0,1-27.024-34.587" transform="translate(-1377.188 -313.218)" fill="none" stroke="#e9f4fa" stroke-linecap="round" stroke-miterlimit="10" stroke-width="2.357"></path><path id="Path_1841" data-name="Path 1841" d="M1585.951,471.062c-11.359-6.467-23.178-15-36.559-28.616a181.208,181.208,0,0,1-27.024-34.6" transform="translate(-1377.188 -319.058)" fill="none" stroke="#e9f4fa" stroke-linecap="round" stroke-miterlimit="10" stroke-width="2.357"></path><path id="Path_1842" data-name="Path 1842" d="M1585.951,489.419c-11.359-6.466-23.178-15.005-36.559-28.618a181.228,181.228,0,0,1-27.024-34.6" transform="translate(-1377.188 -324.898)" fill="none" stroke="#e9f4fa" stroke-linecap="round" stroke-miterlimit="10" stroke-width="2.357"></path><path id="Path_1843" data-name="Path 1843" d="M1585.951,507.772c-11.359-6.466-23.178-15.007-36.559-28.622a181.268,181.268,0,0,1-27.024-34.594" transform="translate(-1377.188 -330.737)" fill="none" stroke="#e9f4fa" stroke-linecap="round" stroke-miterlimit="10" stroke-width="2.357"></path><path id="Path_1844" data-name="Path 1844" d="M1585.951,527.6c-11.359-6.466-23.178-15.007-36.559-28.621a181.288,181.288,0,0,1-27.024-34.594" transform="translate(-1377.188 -337.048)" fill="none" stroke="#e9f4fa" stroke-linecap="round" stroke-miterlimit="10" stroke-width="2.357"></path><path id="Path_1845" data-name="Path 1845" d="M1585.951,547.438c-11.359-6.466-23.178-15.007-36.559-28.622a181.286,181.286,0,0,1-27.024-34.594" transform="translate(-1377.188 -343.358)" fill="none" stroke="#e9f4fa" stroke-linecap="round" stroke-miterlimit="10" stroke-width="2.357"></path><path id="Path_1846" data-name="Path 1846" d="M1585.951,567.272c-11.359-6.466-23.178-15.007-36.559-28.622a181.266,181.266,0,0,1-27.024-34.594" transform="translate(-1377.188 -349.668)" fill="none" stroke="#e9f4fa" stroke-linecap="round" stroke-miterlimit="10" stroke-width="2.357"></path><path id="Path_1847" data-name="Path 1847" d="M1585.951,587.1c-11.359-6.466-23.178-15.007-36.559-28.621a181.284,181.284,0,0,1-27.024-34.594" transform="translate(-1377.188 -355.978)" fill="none" stroke="#e9f4fa" stroke-linecap="round" stroke-miterlimit="10" stroke-width="2.357"></path><path id="Path_1848" data-name="Path 1848" d="M1585.951,606.938c-11.359-6.466-23.178-15.007-36.559-28.622a181.286,181.286,0,0,1-27.024-34.594" transform="translate(-1377.188 -362.288)" fill="none" stroke="#e9f4fa" stroke-linecap="round" stroke-miterlimit="10" stroke-width="2.357"></path><path id="Path_1849" data-name="Path 1849" d="M1585.951,626.772c-11.359-6.466-23.178-15.007-36.559-28.622a181.27,181.27,0,0,1-27.024-34.594" transform="translate(-1377.188 -368.599)" fill="none" stroke="#e9f4fa" stroke-linecap="round" stroke-miterlimit="10" stroke-width="2.357"></path><path id="Path_1850" data-name="Path 1850" d="M1585.951,654.606c-11.359-6.467-23.178-15-36.559-28.613a180.986,180.986,0,0,1-27.024-34.609" transform="translate(-1377.188 -377.453)" fill="none" stroke="#e9f4fa" stroke-linecap="round" stroke-miterlimit="10" stroke-width="2.357"></path><path id="Path_1851" data-name="Path 1851" d="M1585.951,672.978c-11.359-6.473-23.178-15.007-36.559-28.623a181.175,181.175,0,0,1-27.024-34.588" transform="translate(-1377.188 -383.302)" fill="none" stroke="#e9f4fa" stroke-linecap="round" stroke-miterlimit="10" stroke-width="2.357"></path><path id="Path_1852" data-name="Path 1852" d="M1433,465.446c-16.414-1.367-46.584-4.954-72.03-13.956a213.523,213.523,0,0,1-51.527-26.954" transform="translate(-1309.442 -324.368)" fill="none" stroke="#e9f4fa" stroke-linecap="round" stroke-miterlimit="10" stroke-width="2.357"></path><path id="Path_1853" data-name="Path 1853" d="M1433,521.658c-16.414-1.368-46.584-4.956-72.03-13.958a213.443,213.443,0,0,1-51.527-26.956" transform="translate(-1309.442 -342.251)" fill="none" stroke="#e9f4fa" stroke-linecap="round" stroke-miterlimit="10" stroke-width="2.357"></path><path id="Path_1854" data-name="Path 1854" d="M1433,577.872c-16.414-1.375-46.584-4.962-72.03-13.965a213.407,213.407,0,0,1-51.527-26.952" transform="translate(-1309.442 -360.135)" fill="none" stroke="#e9f4fa" stroke-linecap="round" stroke-miterlimit="10" stroke-width="2.357"></path><path id="Path_1855" data-name="Path 1855" d="M1433,559.131c-16.414-1.372-46.584-4.958-72.03-13.959a213.53,213.53,0,0,1-51.527-26.95" transform="translate(-1309.442 -354.175)" fill="none" stroke="#e9f4fa" stroke-linecap="round" stroke-miterlimit="10" stroke-width="2.357"></path><path id="Path_1856" data-name="Path 1856" d="M1433,540.394c-16.414-1.37-46.584-4.954-72.03-13.961a213.419,213.419,0,0,1-51.527-26.956" transform="translate(-1309.442 -348.211)" fill="none" stroke="#e9f4fa" stroke-linecap="round" stroke-miterlimit="10" stroke-width="2.357"></path><path id="Path_1857" data-name="Path 1857" d="M1433,502.922c-16.414-1.369-46.584-4.955-72.03-13.961a213.244,213.244,0,0,1-51.527-26.948" transform="translate(-1309.442 -336.292)" fill="none" stroke="#e9f4fa" stroke-linecap="round" stroke-miterlimit="10" stroke-width="2.357"></path><path id="Path_1858" data-name="Path 1858" d="M1433,484.187c-16.414-1.369-46.584-4.96-72.03-13.962a213.5,213.5,0,0,1-51.527-26.951" transform="translate(-1309.442 -330.329)" fill="none" stroke="#e9f4fa" stroke-linecap="round" stroke-miterlimit="10" stroke-width="2.357"></path><path id="Path_1859" data-name="Path 1859" d="M1433,446.715c-16.414-1.373-46.584-4.962-72.03-13.964a213.519,213.519,0,0,1-51.527-26.954" transform="translate(-1309.442 -318.406)" fill="none" stroke="#e9f4fa" stroke-linecap="round" stroke-miterlimit="10" stroke-width="2.357"></path><path id="Path_1860" data-name="Path 1860" d="M1433,428.4c-16.414-1.372-46.584-4.962-72.03-13.963a213.52,213.52,0,0,1-51.527-26.954" transform="translate(-1309.442 -312.58)" fill="none" stroke="#e9f4fa" stroke-linecap="round" stroke-miterlimit="10" stroke-width="2.357"></path><path id="Path_1861" data-name="Path 1861" d="M1433,410.095c-16.414-1.372-46.584-4.962-72.03-13.963a213.521,213.521,0,0,1-51.527-26.954" transform="translate(-1309.442 -306.754)" fill="none" stroke="#e9f4fa" stroke-linecap="round" stroke-miterlimit="10" stroke-width="2.357"></path><path id="Path_1862" data-name="Path 1862" d="M1433,391.785c-16.414-1.372-46.584-4.962-72.03-13.963a213.521,213.521,0,0,1-51.527-26.954" transform="translate(-1309.442 -300.929)" fill="none" stroke="#e9f4fa" stroke-linecap="round" stroke-miterlimit="10" stroke-width="2.357"></path><path id="Path_1863" data-name="Path 1863" d="M1433,373.475c-16.414-1.372-46.584-4.962-72.03-13.963a213.543,213.543,0,0,1-51.527-26.954" transform="translate(-1309.442 -295.103)" fill="none" stroke="#e9f4fa" stroke-linecap="round" stroke-miterlimit="10" stroke-width="2.357"></path><path id="Path_1864" data-name="Path 1864" d="M1433,355.165c-16.414-1.373-46.584-4.962-72.03-13.964a213.549,213.549,0,0,1-51.527-26.954" transform="translate(-1309.442 -289.278)" fill="none" stroke="#e9f4fa" stroke-linecap="round" stroke-miterlimit="10" stroke-width="2.357"></path><path id="Path_1865" data-name="Path 1865" d="M1433,336.854c-16.414-1.373-46.584-4.962-72.03-13.964a213.52,213.52,0,0,1-51.527-26.954" transform="translate(-1309.442 -283.452)" fill="none" stroke="#e9f4fa" stroke-linecap="round" stroke-miterlimit="10" stroke-width="2.357"></path><path id="Path_1866" data-name="Path 1866" d="M1433,318.544c-16.414-1.373-46.584-4.962-72.03-13.964a213.52,213.52,0,0,1-51.527-26.954" transform="translate(-1309.442 -277.626)" fill="none" stroke="#e9f4fa" stroke-linecap="round" stroke-miterlimit="10" stroke-width="2.357"></path><ellipse id="Ellipse_218" data-name="Ellipse 218" cx="5.245" cy="5.571" rx="5.245" ry="5.571" transform="translate(58.473 87.635)" fill="#fefefc"></ellipse><ellipse id="Ellipse_219" data-name="Ellipse 219" cx="5.245" cy="5.571" rx="5.245" ry="5.571" transform="translate(97.164 158.475)" fill="#fefefc"></ellipse><ellipse id="Ellipse_220" data-name="Ellipse 220" cx="5.245" cy="5.571" rx="5.245" ry="5.571" transform="translate(19.321 122.738)" fill="#fefefc"></ellipse><ellipse id="Ellipse_221" data-name="Ellipse 221" cx="2.391" cy="6.021" rx="2.391" ry="6.021" transform="translate(158.252 116.716)" fill="#fefefc"></ellipse><ellipse id="Ellipse_222" data-name="Ellipse 222" cx="2.391" cy="6.021" rx="2.391" ry="6.021" transform="translate(153.47 176.092)" fill="#fefefc"></ellipse><ellipse id="Ellipse_223" data-name="Ellipse 223" cx="3.341" cy="6.39" rx="3.341" ry="6.39" transform="translate(188.726 173.126)" fill="#fefefc"></ellipse></g><path id="Path_1867" data-name="Path 1867" d="M1669.913,629.222l-29.83,17.822.7-237.178,29.84-17.814Z" transform="translate(-1399.744 -252.067)" fill="#d1f2f2"></path></g><g id="Group_677" data-name="Group 677" transform="translate(151.469 157.464)"><path id="Path_1868" data-name="Path 1868" d="M1147.382,580.763c-1.7,4.409-16.616,31.19-.341,27.8,3.732-1.017,4.069-3.393,5.426-6.1.337-.678,1.017-3.052,1.354-4.066s2.377-.341,2.714-2.712c.678-3.73-5.086-15.6-9.493-14.242Z" transform="translate(-1139.511 -429.398)" fill="url(#linear-gradient-2)"></path><path id="Path_1869" data-name="Path 1869" d="M1193.519,722.144c-5.918,5.11-9.416,9.687-13.721,15.873-1.275,1.912-2.911,4.066-4.4,6.32a4.392,4.392,0,0,0,5.018,6.607c6.465-2.118,13.3-6.512,17.674-9.428,3.228-2.152,8.072-4.036,10.224-6.995a7.263,7.263,0,0,0-5.38-11.569Z" transform="translate(-1150.693 -474.38)" style="isolation: isolate"></path><path id="Path_1870" data-name="Path 1870" d="M1194.575,581.894c-.807,15.063-2.421,28.392.806,43.162,2.152,9.852,3.232,19.121,2.424,29.257-.539,7.823.267,15.352-.539,23.176a14.441,14.441,0,0,0,.661,6.672c1.18,3.616,13.942,4.022,15.2,1.862,2.577-4.4,2.881-11.206,2.7-16.065-.537-10.428-2.152-19.409,1.077-29.258,5.65-17.67,8.342-55.619-14.26-60.542Z" transform="translate(-1156.673 -429.205)" fill="#0e2a3e"></path><path id="Path_1871" data-name="Path 1871" d="M1170.5,440.732c-17.221,12.555-14.548,43.408-15.626,62.423-.359,8.614-2.154,17.229-3.944,25.124-.719,2.512-3.122,7.679-2.154,10.4.573,1.612,10.491,3.921,11.5,2.464,3.771-5.412,6.889-20.906,9.042-26.649,2.511-7.179,6.972-23.231,9.844-30.046,4.661-11.84,8.711-18.609.462-30.806Z" transform="translate(-1142.387 -384.845)" fill="#bfd6db"></path><path id="Path_1872" data-name="Path 1872" d="M1223.151,738.791c-5.922,5.112-9.417,9.685-13.723,15.874-.618.928-1.323,1.913-2.053,2.938a5.6,5.6,0,0,0,6.87,8.342,97.3,97.3,0,0,0,13.479-7.781c3.226-2.154,8.07-4.034,10.224-6.995a7.265,7.265,0,0,0-5.381-11.571Z" transform="translate(-1160.762 -479.677)" style="isolation: isolate"></path><path id="Path_1873" data-name="Path 1873" d="M1361.905,478.309c7.892-6.1,16.142-15.069,25.113-19.733,0,2.871-2.513,5.382-3.946,8.252-.719,1.434-2.511,2.869-2.873,4.3,0,2.153,2.516,2.153,2.154,4.3-1.792,5.024-16.143,7.893-18.3,3.589Z" transform="translate(-1210.269 -390.522)" fill="url(#linear-gradient-2)"></path><path id="Path_1874" data-name="Path 1874" d="M1194.752,583.709c1.611,7.265,1.7,10.771,6.007,16.689,2.151,2.961,10.628,5.645,12.512,8.608,4.3,6.455,3.557,15.036,3.557,22.569,0,6.188,1.842,32.422,1.3,39.685-.269,5.114-2.472,15.353-.269,20.181.421.917,12.744,5.5,14.4,0,1.076-3.579,3.032-22.653,3.365-25.964,1.141-11.31-.068-8.538.13-21.794.045-2.923,4.843-22.063,5.786-33.23,1.329-15.78,3.959-33.228-1.48-37.4Z" transform="translate(-1157.087 -426.945)" fill="#1e394c"></path><path id="Path_1875" data-name="Path 1875" d="M1211.963,425.994c-14.218.508-40.948,3.6-40.438,23.4.5,11.168,5.406,20.262,8.452,31.433,4.059,13.706,2.03,35.037,2.03,49.764,0,8.629,5,8.122,13.627,11.676,6.6,2.539,24.818.755,31.585-.221,15.778-2.275,12.825-7.268,12.825-7.268s-.667-42.276-.667-58.014c.507-9.138,4.569-17.261,5.582-26.4,2.54-22.845-23.86-25.384-41.627-23.861Z" transform="translate(-1149.695 -380.156)" fill="#cce3eb"></path><path id="Path_1876" data-name="Path 1876" d="M1213.992,488.651c-13.862-5.367-23.929,5.905-39-9.6,1.808,6.067,4.27,11.993,6.089,18.656,3.093,10.443,2.652,25.306,2.266,38.308a32.055,32.055,0,0,0,8.638-7.177c5.741-6.7,6.219-14.831,9.567-22.485C1204.9,499.176,1211.121,495.347,1213.992,488.651Z" transform="translate(-1150.801 -397.036)" fill="#a8c4cc"></path><path id="Path_1877" data-name="Path 1877" d="M1257.915,430.767c16.247,3.554,27.14,20.07,35.772,32.762,2.54,4.569,8.4,19.287,10.606,18.88,1.407-.26,24.182-14.582,27.735-15.6,0,3.552,4.736,6.769,3.4,8.99-1.025,1.718-9.583,11.355-14.105,13.956-6.494,3.737-12.672,6.552-18.564,7.795-7.693-1.7-19.453-10.249-24.086-14.608-15.082-14.189-19.777-18.838-18.922-34.109Z" transform="translate(-1177.183 -381.674)" fill="#cce3eb"></path><path id="Path_1878" data-name="Path 1878" d="M1221.248,413.35c-1.595,2.657-7.566,11.415-6.025,15.237,2.105,5.224,12.7,2.679,13.761,1.792.713-.708.341-4.493,0-5.762-.989-3.657,2.011-7.9-.47-10.914Z" transform="translate(-1163.52 -376.133)" fill="url(#linear-gradient-2)"></path><path id="Path_1879" data-name="Path 1879" d="M1258.36,376.089s2.538-3.008,2.157-3.7-3.191,1.876-3.191,1.876Z" transform="translate(-1176.996 -363.063)" fill="#e0e0e0"></path><path id="Path_1880" data-name="Path 1880" d="M1242.965,391.485c2.114,5.489-2.359,13.419-8.312,17.816a15.133,15.133,0,0,1-8.148,3.252,8.563,8.563,0,0,1-7.677-4.118s-.014-.007-.014-.014-.007-.007-.014-.014c-.231-.334-.45-.7-.661-1.077-.566-1.132-1.248-2.564-1.97-4-.156-.327-.32-.661-.484-.982a36.229,36.229,0,0,0-2.107-3.682c-.832-.218-1.711.7-4.37-1.07a6.237,6.237,0,0,1-2.857-6.116c.464-2.727,3.048-4.793,6.62-3.668h.171c1.78-.355,3.553-.886,4.432-2.482a4.631,4.631,0,0,0,1.132.239c1.889.17,4.036-.655,3.859-2.264a2.978,2.978,0,0,0-.736-1.52c4.077-1.234,6.559-1.234,5.141-6.552,2.3-.532,5.318.709,7.261-1.418,1.241-1.241.709-3.368,2.3-3.723a2.72,2.72,0,0,1,2.2.668,13.88,13.88,0,0,1,3.471,4.827c.2.511.382,1.023.545,1.527C1244.656,382.887,1244.452,388.09,1242.965,391.485Z" transform="translate(-1160.752 -362.355)" fill="url(#linear-gradient-2)"></path><path id="Path_1881" data-name="Path 1881" d="M1230.913,385.568s-13.435,6.977-11.627,11.886,1.421,10.077,4.521,11.111,7.622,6.976,13.953-.388,6.331-8.236,6.331-8.236.775,30.457-10.465,28.906S1214.2,403.6,1214.2,403.6s1.214-8.476-3.7-9.122-.387-4.005-.387-4.005Z" transform="translate(-1161.37 -367.294)"></path><path id="Path_1882" data-name="Path 1882" d="M1243.233,368.092c-.763.406-1.508.841-2.255,1.306-4.658,2.9-9.435,6.957-18.445,11.213-1.339.636-2.772,1.276-4.314,1.911a129.507,129.507,0,0,1-13.652,4.718c-.03.012-.052.016-.083.027,0,0-5.773-15,5.466-23.245a21.425,21.425,0,0,1,3.92-2.26c.336-.15.685-.3,1.041-.438,9.756-3.867,16.562-2.823,21.149-.331.2.11.38.218.563.325A18.636,18.636,0,0,1,1243.233,368.092Z" transform="translate(-1159.711 -358.766)" fill="#f2f2f2"></path></g><ellipse id="Ellipse_224" data-name="Ellipse 224" cx="69.068" cy="28.336" rx="69.068" ry="28.336" transform="translate(0 282.879)" fill="#e3eae1"></ellipse><g id="Group_680" data-name="Group 680" transform="translate(38.166 78.072)"><g id="Group_679" data-name="Group 679" transform="translate(11.563 133.582)"><g id="Group_678" data-name="Group 678" transform="translate(0 0)"><path id="Path_1883" data-name="Path 1883" d="M1046.621,448.6,990.3,467.519V538.4c0,14.348,19.093,25.979,42.646,25.979s42.647-11.631,42.647-25.979V467.519Z" transform="translate(-990.296 -441.539)" fill="#fff9ff"></path><ellipse id="Ellipse_225" data-name="Ellipse 225" cx="42.646" cy="25.979" rx="42.646" ry="25.979" transform="translate(0)" fill="#d8d8d8"></ellipse><path id="Path_1884" data-name="Path 1884" d="M999.224,483.612c7.512,7.41,20.96,12.349,36.306,12.349s28.794-4.94,36.306-12.349a14.28,14.28,0,0,0,.795-4.665c0-12.482-16.611-22.6-37.1-22.6s-37.1,10.119-37.1,22.6A14.263,14.263,0,0,0,999.224,483.612Z" transform="translate(-992.883 -444.003)"></path></g><path id="Path_1885" data-name="Path 1885" d="M1032.942,441.232c21.5,0,39.659,10.529,39.659,22.991s-18.161,22.991-39.659,22.991-39.658-10.529-39.658-22.991,18.161-22.991,39.658-22.991m0-2.988c-23.553,0-42.646,11.631-42.646,25.979s19.093,25.979,42.646,25.979,42.647-11.631,42.647-25.979-19.094-25.979-42.647-25.979Z" transform="translate(-990.296 -438.244)" fill="#bcbace"></path></g><path id="Path_1886" data-name="Path 1886" d="M1082.665,300.8c-3.569,7.586-3.616,16.289-3.6,24.673q.033,14.128.065,28.257c.025,10.725.028,21.616-2.893,31.936s-9.2,20.182-18.811,24.95c-4.76,2.363-10.741,3.281-15.242.455a16.044,16.044,0,0,1-4.787-5.112c-10.828-16.97-.813-39.774,6.973-56.067A143.906,143.906,0,0,1,1082.665,300.8Z" transform="translate(-992.209 -260.932)" fill="#134e5e"></path><path id="Path_1887" data-name="Path 1887" d="M1004.338,328.708q-.218-1.985-.524-4.146c-.276-2.066-.611-4.1-1-6.139-.131-.785-.276-1.571-.451-2.342-.16-.8-.32-1.6-.495-2.429-.189-.887-.393-1.775-.611-2.648-.1-.451-.218-.916-.334-1.367A140.915,140.915,0,0,0,973.338,254.4c8.627,34.215,6.822,70.074,9.5,105.248,1.469,19.348,6.342,52.805,29.618,57.941q1.375.3,2.75.524a44.08,44.08,0,0,0,27.916-4.48l.262-.131c11.361-6.081,20.031-17.035,23.857-30.36,5.965-20.7,17.122-110.15,17.457-112.928l.014-.073-.029.029c-.931,1.469-31.145,48.761-42.55,83.208q-1.2-20.882-2.386-41.764c-.538-9.543-1.105-19.188-3.884-28.323-4.059-13.4-8.481-40.965-8.481-40.965s-7.506,28.8-7.448,41.023c.131,24-6.808,47.38-14.14,70.306-.451,1.454-.916,2.909-1.382,4.364.335-3.128.553-6.284.655-9.426.044-1,.058-2.007.058-3,0-.16,0-.305.015-.466Z" transform="translate(-973.338 -242.328)" fill="#409682"></path><path id="Path_1888" data-name="Path 1888" d="M990.266,294.5a84.168,84.168,0,0,1,16.971,35.753c4.6,21.9,3.079,34.18,3.079,34.18l10.251,70.276S988.592,404.273,990.266,294.5Z" transform="translate(-978.704 -258.926)" fill="#33648a" opacity="0.25"></path><path id="Path_1889" data-name="Path 1889" d="M1051.637,430.784c-2.138,6.633-14.14,18.358-22.1,16.394-6.255-1.542-14.5-19.188-16.642-25.064-4.859-13.369-.335-28.076,2.706-41.983,3.608-16.569,5.048-33.91,1.353-50.478a756.7,756.7,0,0,1,32.265,79.485C1051.608,416.135,1053.907,423.743,1051.637,430.784Z" transform="translate(-985.244 -270.112)" fill="#71b180"></path><path id="Path_1890" data-name="Path 1890" d="M1029.541,447.178c-6.255-1.542-14.5-19.188-16.642-25.064-4.859-13.369-.335-28.076,2.706-41.983,3.608-16.569,5.048-33.91,1.353-50.478,4.946,16.292,5.411,47.99,4.887,72.735A123.984,123.984,0,0,0,1029.541,447.178Z" transform="translate(-985.244 -270.112)" fill="#33648a" opacity="0.25"></path><path id="Path_1891" data-name="Path 1891" d="M1116.811,283.121l-.015.072-41.313,143.288-.277.931s0-.276.015-.8c.116-4.961.611-32.062-.989-60.254,11.4-34.447,41.619-81.74,42.55-83.208Z" transform="translate(-1005.439 -255.307)" fill="#33648a" opacity="0.25"></path></g><path id="Path_1892" data-name="Path 1892" d="M1254.8,419.8s-6.545,4.651-5.512,4.909S1256.606,420.834,1254.8,419.8Z" transform="translate(-1022.934 -220.721)" fill="url(#linear-gradient-2)"></path></g></g></svg> 